<?xml version="1.0" standalone="no"?>
<!DOCTYPE svg PUBLIC "-//W3C//DTD SVG 20010904//EN"
 "http://www.w3.org/TR/2001/REC-SVG-20010904/DTD/svg10.dtd">
<svg version="1.0" xmlns="http://www.w3.org/2000/svg"
 width="300.000000pt" height="300.000000pt" viewBox="0 0 300.000000 300.000000"
 preserveAspectRatio="xMidYMid meet">
<metadata>
Created by potrace 1.11, written by Peter Selinger 2001-2013
</metadata>
<g transform="translate(0.000000,300.000000) scale(0.100000,-0.100000)"
fill="#000000" stroke="none">
<path d="M1329 2949 c-121 -62 -85 -239 48 -239 57 0 99 24 117 69 44 113 -63
223 -165 170z m98 -95 c10 -27 -7 -63 -33 -70 -56 -14 -87 67 -35 93 27 13 58
3 68 -23z"/>
<path d="M1723 2703 c-69 -23 -120 -88 -124 -154 -5 -82 45 -162 118 -190 60
-22 153 0 194 47 46 52 61 130 38 191 -12 31 -53 79 -84 96 -36 19 -99 24
-142 10z m122 -110 c71 -72 -15 -185 -108 -142 -71 32 -58 147 18 168 39 10
59 4 90 -26z"/>
<path d="M1246 2464 c-95 -30 -169 -136 -171 -244 -3 -157 173 -291 323 -247
198 58 254 286 108 433 -73 72 -154 90 -260 58z m151 -89 c91 -38 128 -138 83
-229 -57 -118 -235 -121 -295 -6 -73 141 67 295 212 235z"/>
<path d="M1134 1870 c-29 -11 -51 -50 -48 -84 4 -44 41 -75 94 -78 l45 -3 1
-140 1 -140 -64 -185 c-36 -102 -69 -194 -73 -205 -5 -11 -30 -81 -54 -155
-25 -74 -67 -198 -95 -275 -27 -77 -71 -203 -98 -280 -28 -78 -48 -151 -46
-164 6 -39 42 -80 91 -105 l47 -23 580 1 c561 1 581 2 614 21 72 43 91 102 60
190 -9 28 -60 181 -112 340 -52 160 -134 412 -183 560 l-88 270 -2 135 c-1 74
1 140 3 147 3 6 18 11 34 11 90 -3 130 105 57 156 -20 14 -68 16 -383 15 -198
0 -369 -4 -381 -9z m525 -302 c0 -160 -25 -72 250 -884 l169 -501 -565 0
c-518 -1 -564 1 -558 16 3 9 40 115 80 236 41 121 133 393 205 604 l130 383 0
137 c0 76 2 140 5 142 2 3 67 5 144 5 l140 0 0 -138z"/>
<path d="M1253 849 c-9 -3 -31 -50 -53 -115 -21 -60 -68 -194 -104 -299 -36
-104 -66 -192 -66 -195 0 -7 948 -6 955 1 3 3 0 21 -6 40 -21 64 -170 494
-185 534 l-15 40 -255 0 c-140 0 -262 -2 -271 -6z"/>
</g>
</svg>
