<?xml version="1.0" ?><svg enable-background="new 0 0 504 504" id="Layer_1" version="1.1" viewBox="0 0 504 504" xml:space="preserve" xmlns="http://www.w3.org/2000/svg" xmlns:xlink="http://www.w3.org/1999/xlink"><path d="M456.6,261c-9.2,58.5-27.1,75.6-58.8,114.9c-31.7,33.3-77.3,88.9-141.9,85.8c-58.5-9.2-75.6-27.1-114.9-58.8  c-33.3-31.7-88.9-77.3-85.8-141.9c9.2-58.5,27.1-75.6,58.8-114.9c31.7-33.3,77.3-88.9,141.9-85.8c58.5,9.2,75.6,27.1,114.9,58.8  C404.1,150.8,459.6,196.4,456.6,261z" fill="#3765AF"/><g><path d="M331.7,212c-7.2,0-13.2,6-13.2,13.6V278c0,17.5,26.4,17.5,26.4,0v-52.4C344.9,217.9,339,212,331.7,212z    M171.2,212c-7.2,0-13.2,6-13.2,13.6V278c0,17.5,26.4,17.5,26.4,0v-52.4C184.4,217.9,178.5,212,171.2,212z" fill="#FFFFFF"/><path d="M192.5,212.4v95.8c0,5.5,4.7,10.2,10.2,10.2h11.9v29.4c0,17.5,26.4,17.5,26.4,0v-28.9h20.9v29.4   c0,17.5,26.8,17.5,26.8,0v-29.4h11.9c5.5,0,10.2-4.7,10.2-10.2v-96.2H192.5z" fill="#FFFFFF"/><path d="M279.4,162.6l11.1-15.7c1.3-2.1-1.7-4.3-3-2.1L276,161.3c-15.7-6-33.6-6-49,0l-11.5-16.6   c-1.7-2.1-4.7,0-3,2.1l11.1,15.7c-17.5,8.1-29.4,23.4-31.1,41.3h118.3C309.2,186,296.8,170.7,279.4,162.6z M226.6,187.7   c-8.5,0-8.5-13.2,0-13.2C235.1,174.5,235.1,187.7,226.6,187.7z M277.2,187.7c-8.5,0-8.5-13.2,0-13.2   C285.7,174.5,285.7,187.7,277.2,187.7z" fill="#FFFFFF"/></g></svg>