<svg xmlns="http://www.w3.org/2000/svg" enable-background="new 0 0 504 504" viewBox="0 0 504 504"><path fill="#3765AF" d="M456.6 261c-9.2 58.5-27.1 75.6-58.8 114.9-31.7 33.3-77.3 88.9-141.9 85.8-58.5-9.2-75.6-27.1-114.9-58.8-33.3-31.7-88.9-77.3-85.8-141.9 9.2-58.5 27.1-75.6 58.8-114.9 31.7-33.3 77.3-88.9 141.9-85.8 58.5 9.2 75.6 27.1 114.9 58.8 33.3 31.7 88.8 77.3 85.8 141.9z"/><path fill="#fff" d="M331.7 212c-7.2 0-13.2 6-13.2 13.6V278c0 17.5 26.4 17.5 26.4 0v-52.4c0-7.7-5.9-13.6-13.2-13.6zm-160.5 0c-7.2 0-13.2 6-13.2 13.6V278c0 17.5 26.4 17.5 26.4 0v-52.4c0-7.7-5.9-13.6-13.2-13.6zm21.3.4v95.8c0 5.5 4.7 10.2 10.2 10.2h11.9v29.4c0 17.5 26.4 17.5 26.4 0v-28.9h20.9v29.4c0 17.5 26.8 17.5 26.8 0v-29.4h11.9c5.5 0 10.2-4.7 10.2-10.2v-96.2H192.5zm86.9-49.8l11.1-15.7c1.3-2.1-1.7-4.3-3-2.1L276 161.3c-15.7-6-33.6-6-49 0l-11.5-16.6c-1.7-2.1-4.7 0-3 2.1l11.1 15.7c-17.5 8.1-29.4 23.4-31.1 41.3h118.3c-1.6-17.8-14-33.1-31.4-41.2zm-52.8 25.1c-8.5 0-8.5-13.2 0-13.2s8.5 13.2 0 13.2zm50.6 0c-8.5 0-8.5-13.2 0-13.2s8.5 13.2 0 13.2z"/></svg>