<svg xmlns="http://www.w3.org/2000/svg" enable-background="new 0 0 504 504" viewBox="0 0 504 504"><path fill="#3765AF" d="M452.2 251.6c-9.2 58.5-27.1 75.6-58.8 114.9-31.7 33.3-77.3 88.9-141.9 85.8-58.5-9.2-75.6-27.1-114.9-58.8-33.3-31.7-88.9-77.3-85.8-141.9 9.2-58.5 27.1-75.6 58.8-114.9 31.7-33.3 77.3-88.9 141.9-85.8 58.5 9.2 75.6 27.1 114.9 58.8 33.3 31.7 88.9 77.3 85.8 141.9z"/><path fill="#B4B4B4" d="M251.8 124.9l-120.5 42.4 19.1 157.8 101.5 55.8L354 324.3l19.1-157.8z"/><path fill="#fff" d="M361 175.6l-109.5-37.3v229.3l91.8-50.8zM144.9 176.3l16.3 141.2 90.3 50.1V138.3z"/><path fill="#3765AF" d="M281.7 260.4l-30.1 14.1h-31.8l-14.9 37.4-27.8.5 74.5-165.7 30.1 113.7zm-2.9-7.1l-27-53.5-22.2 52.6h22l27.2.9zM251.5 146.6l.2 53.2 25.2 52.6h-25.3l-.1 22 35 .1 16.4 37.8 26.6.5z"/></svg>