<?xml version="1.0" ?><svg enable-background="new 0 0 504 504" id="Layer_1" version="1.1" viewBox="0 0 504 504" xml:space="preserve" xmlns="http://www.w3.org/2000/svg" xmlns:xlink="http://www.w3.org/1999/xlink"><path d="M452.2,251.6c-9.2,58.5-27.1,75.6-58.8,114.9c-31.7,33.3-77.3,88.9-141.9,85.8  c-58.5-9.2-75.6-27.1-114.9-58.8c-33.3-31.7-88.9-77.3-85.8-141.9c9.2-58.5,27.1-75.6,58.8-114.9c31.7-33.3,77.3-88.9,141.9-85.8  c58.5,9.2,75.6,27.1,114.9,58.8C399.7,141.4,455.3,187,452.2,251.6z" fill="#3765AF"/><polygon fill="#B4B4B4" points="251.8,124.9 131.3,167.3 150.4,325.1 251.9,380.9 354,324.3 373.1,166.5 "/><polygon fill="#FFFFFF" points="361,175.6 251.5,138.3 251.5,367.6 343.3,316.8 "/><polygon fill="#FFFFFF" points="144.9,176.3 161.2,317.5 251.5,367.6 251.5,138.3 "/><path d="M281.7,260.4l-30.1,14.1h-31.8l-14.9,37.4l-27.8,0.5l74.5-165.7L281.7,260.4z M278.8,253.3l-27-53.5  l-22.2,52.6h22L278.8,253.3z" fill="#3765AF"/><polygon fill="#3765AF" points="251.5,146.6 251.7,199.8 276.9,252.4 251.6,252.4 251.5,274.4 286.5,274.5 302.9,312.3 329.5,312.8   "/></svg>