<svg xmlns="http://www.w3.org/2000/svg" width="203" height="204.047" viewBox="597.54 -158.46 203 204.047" enable-background="new 597.54 -158.46 203 204.047"><path fill="#fff" stroke="#0275D8" stroke-miterlimit="10" d="M797.97-58.13c0 54.8-44.42 99.2-99.22 99.2s-99.2-44.4-99.2-99.2c0-54.8 44.4-99.2 99.2-99.2 54.8 0 99.22 44.4 99.22 99.2z"/><path fill="#0275D8" d="M706.6-28.28l8.16-3.1c.65-2.47 1.62-4.78 2.87-6.92l-3.58-7.98 5.47-5.46 7.98 3.58c2.13-1.25 4.45-2.22 6.9-2.87l3.1-8.17h6.35v-45.6h-81.78v83.7h44.52v-7.18z"/><g fill="#242D3C"><path d="M747.2 13.23h-11.68l-3.3-8.68c-1.68-.53-3.3-1.2-4.86-2l-8.47 3.8-8.28-8.27 3.8-8.5c-.8-1.55-1.5-3.17-2.02-4.84l-8.68-3.32v-11.68l8.68-3.3c.53-1.7 1.2-3.3 2.02-4.87l-3.8-8.48 8.27-8.28 8.46 3.8c1.56-.8 3.18-1.48 4.86-2l3.3-8.7h11.7l3.3 8.7c1.67.52 3.3 1.2 4.86 2l8.5-3.8 8.25 8.27-3.8 8.47c.82 1.57 1.5 3.2 2.02 4.86l8.68 3.3v11.7l-8.68 3.3c-.53 1.67-1.2 3.3-2.02 4.86l3.8 8.47-8.26 8.27-8.5-3.8c-1.55.8-3.17 1.48-4.84 2l-3.32 8.7zm-7.7-5.76h3.75l2.94-7.7 1.4-.37c2.17-.57 4.26-1.43 6.2-2.56l1.28-.75 7.52 3.36 2.65-2.65-3.37-7.52.75-1.28c1.14-1.96 2-4.04 2.57-6.17l.37-1.43 7.7-2.94v-3.76l-7.7-2.93-.37-1.44c-.56-2.13-1.43-4.2-2.57-6.17l-.75-1.28 3.37-7.52-2.65-2.66-7.52 3.37-1.3-.74c-1.93-1.14-4-2-6.17-2.57l-1.42-.38-2.93-7.7h-3.76l-2.94 7.7-1.43.38c-2.17.57-4.25 1.43-6.18 2.56l-1.28.75-7.52-3.37-2.65 2.66 3.37 7.52-.75 1.28c-1.14 1.93-2 4-2.57 6.18l-.38 1.43-7.7 2.93v3.76l7.7 2.94.38 1.42c.57 2.17 1.43 4.25 2.56 6.18l.77 1.28-3.37 7.53 2.65 2.66 7.52-3.37 1.28.74c1.92 1.13 4 2 6.18 2.56l1.43.38 2.93 7.7zM741.37-8.22c-8.93 0-16.2-7.27-16.2-16.2s7.27-16.2 16.2-16.2 16.2 7.27 16.2 16.2-7.27 16.2-16.2 16.2zm0-26.64c-5.76 0-10.44 4.68-10.44 10.44s4.68 10.44 10.44 10.44 10.44-4.68 10.44-10.44-4.67-10.44-10.43-10.44zM614.9-65.28h14.73v5.76H614.9zM629.63-45.54h15.85v5.76h-15.85zM629.63-35.66h15.85v5.76h-15.85zM629.63-6.04h15.85v5.76h-15.85zM629.63 3.83h15.85V9.6h-15.85zM614.9-55.4h30.58v5.75h-30.6zM614.9-25.8h14.73v5.77H614.9zM629.63-85.03h15.85v5.76h-15.85zM629.63-75.16h15.85v5.77h-15.85zM614.9-94.9h30.58v5.76h-30.6zM614.9-15.92h30.58v5.76h-30.6zM651.68-6.04h15.86v5.76h-15.86zM651.68 3.83h30.6V9.6h-30.6zM754.8-109.98H651.13v-24.2H754.8v24.2zm-97.9-5.76h92.14v-12.67H656.9v12.66zM662.65-124.95h5.76v5.76h-5.75zM674.17-124.95h5.76v5.76h-5.76zM685.7-124.95h5.75v5.76h-5.76zM699.7-10.16h-48.57v-105.58H754.8v51.72h-5.76v-45.96H656.9v94.06h42.8z"/></g><g fill="#fff"><path d="M702.9-68h-5.76v-25.1c0-1.6 1.3-2.88 2.88-2.88h9.25c2.25 0 4.37.87 5.96 2.47 1.6 1.58 2.47 3.7 2.47 5.95s-.87 4.37-2.46 5.96c-1.6 1.6-3.72 2.48-5.97 2.48h-6.37v11.1zm0-16.88h6.37c.72 0 1.4-.27 1.9-.78.5-.5.78-1.18.78-1.9 0-.7-.28-1.37-.8-1.88-.5-.5-1.16-.78-1.88-.78h-6.37v5.34zM692.53-68h-5.76v-19.55c0-.7-.27-1.38-.78-1.9-.5-.5-1.2-.77-1.9-.77h-3.7c-.7 0-1.4.27-1.9.78-.5.5-.77 1.18-.77 1.9v19.53h-5.76v-19.55c0-2.25.87-4.37 2.47-5.96 1.6-1.6 3.7-2.48 5.96-2.48h3.7c2.25 0 4.37.88 5.96 2.47 1.6 1.58 2.47 3.7 2.47 5.95V-68zM671.96-84.87h20.57v5.76h-20.57zM725.24-93.1H731v22.2h-5.76zM722.27-95.98h11.7v5.76h-11.7zM722.27-73.77h11.7V-68h-11.7z"/></g></svg>