<svg xmlns="http://www.w3.org/2000/svg" width="203" height="204.047" viewBox="597.54 -158.46 203 204.047" enable-background="new 597.54 -158.46 203 204.047"><path fill="#fff" stroke="#0275D8" stroke-miterlimit="10" d="M797.97-58.13c0 54.8-44.42 99.2-99.22 99.2s-99.2-44.4-99.2-99.2c0-54.8 44.4-99.2 99.2-99.2 54.8 0 99.22 44.4 99.22 99.2z"/><g fill="#242D3C"><path d="M736.13-112.52l-7.03-7.04 3.8-3.8 3.24 3.23 6.2-6.2 3.8 3.8zM737.62-102.93c-9.62 0-17.45-7.83-17.45-17.45s7.83-17.45 17.45-17.45c9.63 0 17.45 7.83 17.45 17.45s-7.82 17.45-17.45 17.45zm0-29.52c-6.66 0-12.07 5.4-12.07 12.07 0 6.65 5.4 12.07 12.07 12.07 6.66 0 12.07-5.43 12.07-12.08 0-6.66-5.42-12.07-12.08-12.07z"/></g><path fill="#0275D8" d="M703.85-98.64h67.55v83.8h-67.55z"/><g fill="#242D3C"><path d="M726.77-6.66h21.72v5.38h-21.73zM762.3 9.57h-49.37c-6.5 0-11.78-5.28-11.78-11.76v-109.1c0-6.5 5.28-11.77 11.78-11.77h9.93v5.38h-9.93c-3.53 0-6.4 2.88-6.4 6.4V-2.2c0 3.53 2.87 6.4 6.4 6.4h49.38c3.54 0 6.4-2.87 6.4-6.4v-109.1c0-3.52-2.86-6.4-6.4-6.4h-9.9v-5.37h9.9c6.5 0 11.8 5.28 11.8 11.77V-2.2c0 6.5-5.3 11.77-11.8 11.77zM703.85-101.33h67.55v5.38h-67.55zM703.85-17.53h67.55v5.38h-67.55z"/></g><path fill="#fff" d="M760.4-56.74c0 12.9-10.46 23.36-23.36 23.36-12.9 0-23.36-10.46-23.36-23.36 0-12.9 10.45-23.37 23.36-23.37 12.9 0 23.36 10.46 23.36 23.36z"/><g fill="#242D3C"><path d="M738.9-54.05h-9.37c-1.48 0-2.7-1.2-2.7-2.7V-68c0-1.48 1.22-2.7 2.7-2.7h9.38c2.24 0 4.33.88 5.9 2.45 1.56 1.57 2.43 3.66 2.43 5.88 0 2.23-.87 4.32-2.44 5.88-1.57 1.58-3.66 2.45-5.88 2.45zm-6.68-5.38h6.7c.78 0 1.52-.3 2.06-.86.56-.55.87-1.28.87-2.07 0-.8-.3-1.52-.86-2.08-.56-.55-1.3-.86-2.1-.86h-6.68v5.87zM738.9-42.8h-9.37c-1.48 0-2.7-1.2-2.7-2.7v-11.24c0-1.5 1.22-2.7 2.7-2.7h9.38c2.24 0 4.33.87 5.9 2.45 1.56 1.57 2.43 3.66 2.43 5.9 0 2.2-.87 4.3-2.44 5.87-1.57 1.57-3.66 2.43-5.88 2.43zm-6.68-5.38h6.7c.78 0 1.52-.3 2.06-.85.56-.56.87-1.3.87-2.1 0-.77-.3-1.5-.86-2.06-.56-.55-1.3-.85-2.1-.85h-6.68v5.87z"/></g><path fill="#F96232" d="M626.1-98.64h67.57v83.8h-67.55z"/><g fill="#242D3C"><path d="M657.2-112.2h5.38v5.38h-5.38zM649.04-6.66h21.7v5.38h-21.7zM684.6 9.57h-49.4c-6.5 0-11.78-5.28-11.78-11.77v-109.1c0-6.5 5.3-11.77 11.78-11.77h49.4c6.48 0 11.76 5.28 11.76 11.77V-2.2c0 6.5-5.28 11.77-11.77 11.77zM635.2-117.7c-3.53 0-6.4 2.88-6.4 6.4V-2.2c0 3.53 2.87 6.4 6.4 6.4h49.4c3.5 0 6.38-2.87 6.38-6.4v-109.1c0-3.52-2.87-6.4-6.4-6.4H635.2zM626.1-101.33h67.57v5.38h-67.55zM626.1-17.53h67.57v5.38h-67.55z"/></g><path fill="#fff" d="M683.26-56.74c0 12.9-10.47 23.36-23.37 23.36s-23.37-10.46-23.37-23.36c0-12.9 10.46-23.37 23.36-23.37s23.36 10.46 23.36 23.36z"/><g fill="#242D3C"><path d="M670.08-42.8h-5.38v-19.57c0-.8-.3-1.52-.86-2.08-.55-.55-1.3-.86-2.07-.86H658c-.77 0-1.5.3-2.06.86-.55.55-.86 1.3-.86 2.07v19.57h-5.38v-19.57c0-2.22.86-4.3 2.43-5.88 1.58-1.57 3.67-2.44 5.9-2.44h3.74c2.22 0 4.3.88 5.88 2.45 1.57 1.57 2.44 3.66 2.44 5.88v19.57h-.02zM649.7-59.43h20.38v5.38H649.7z"/></g></svg>