<svg xmlns="http://www.w3.org/2000/svg" width="202" height="201.25"><path fill="#fff" stroke="#0275D8" stroke-miterlimit="10" d="M200.32 100.83c0 54.8-44.42 99.22-99.22 99.22S1.9 155.62 1.9 100.83c0-54.8 44.4-99.2 99.2-99.2 54.8 0 99.22 44.4 99.22 99.2z"/><circle cx="154.57" cy="143.522" r="31.576" fill="#F96232"/><g fill="#fff"><path d="M143.17 154.5l-10.96-10.97 10.97-10.97 3.95 3.95-7.02 7.03 7.02 7.02zM165.97 154.5l-3.94-3.95 7.02-7.02-7.02-7.02 3.94-3.94 10.96 10.97zM156 128.28l5.36 1.52-8.22 28.97-5.37-1.53z"/></g><g fill="#242D3C"><path d="M84.06 72.13H99.1v5.58H84.05zM99.1 91.26h16.17v5.57H99.1zM99.1 100.8h16.17v5.6H99.1zM99.1 129.5h16.17v5.57H99.1zM99.1 139.06h16.17v5.57H99.1zM84.06 81.7h31.2v5.56h-31.2zM84.06 110.37H99.1v5.58H84.05zM84.06 119.93h31.2v5.58h-31.2zM121.58 91.26h16.18v5.57h-16.18zM121.58 100.8h31.2v5.6h-31.2zM121.58 81.7h16.18v5.56h-16.18zM168.62 63.95H68.22v-22.3h100.4v22.3zm-94.8-5.58h89.22V47.22H73.8v11.15zM79.4 50h5.56v5.6H79.4zM90.53 50h5.58v5.6h-5.56zM101.7 50h5.57v5.6h-5.58zM115.26 158.4H68.23V58.36h100.4v47.86h-5.6V63.95H73.82v88.86h41.46zM43.73 172.38c-5.6 0-10.15-4.56-10.15-10.16s4.55-10.15 10.15-10.15 10.16 4.55 10.16 10.15-4.57 10.16-10.17 10.16zm0-14.74c-2.52 0-4.58 2.06-4.58 4.58 0 2.53 2.06 4.58 4.58 4.58 2.53 0 4.58-2.05 4.58-4.58s-2.04-4.58-4.57-4.58zM56.7 152.07h5.6v20.3h-5.6zM147.28 35.56c-5.6 0-10.15-4.55-10.15-10.15 0-5.6 4.55-10.15 10.15-10.15 5.6 0 10.16 4.56 10.16 10.16 0 5.6-4.56 10.16-10.16 10.16zm0-14.73c-2.52 0-4.58 2.05-4.58 4.58 0 2.53 2.06 4.6 4.58 4.6s4.58-2.07 4.58-4.6c0-2.52-2.05-4.57-4.58-4.57zM128.73 15.26h5.57v20.3h-5.57zM120.33 15.26h5.58v20.3h-5.57zM52.53 122.66h-2.8v-5.58h2.8c.66 0 1.28-.26 1.75-.72.47-.47.73-1.1.73-1.75V93.56c0-.66-.25-1.3-.72-1.75-.47-.46-1.1-.72-1.75-.72h-2.8V85.5h2.8c2.15 0 4.17.84 5.7 2.36 1.52 1.53 2.35 3.55 2.35 5.7v21.05c0 2.16-.83 4.18-2.36 5.7-1.52 1.52-3.54 2.36-5.7 2.36zM26.9 122.66h-2.78c-2.16 0-4.18-.84-5.7-2.36-1.52-1.52-2.35-3.55-2.35-5.7V93.57c0-2.15.83-4.17 2.35-5.7 1.53-1.52 3.55-2.35 5.7-2.35h2.78v5.58h-2.78c-.67 0-1.3.26-1.76.73-.46.48-.72 1.1-.72 1.76v21.05c0 .67.26 1.3.73 1.76.47.47 1.1.72 1.75.72h2.8v5.58zM24.97 101.3h5.58v5.57h-5.58zM35 101.3h5.6v5.57H35zM45.05 101.3h5.58v5.57h-5.58z"/></g></svg>