<?xml version="1.0" encoding="iso-8859-1"?>
<!-- Generator: Adobe Illustrator 19.0.0, SVG Export Plug-In . SVG Version: 6.00 Build 0)  -->
<svg version="1.1" id="Layer_1" xmlns="http://www.w3.org/2000/svg" xmlns:xlink="http://www.w3.org/1999/xlink" x="0px" y="0px"
	 viewBox="0 0 512 512" style="enable-background:new 0 0 512 512;" xml:space="preserve">
<g>
	<path style="fill:#444242;" d="M256,484.311L58.278,370.155v-228.31L256,27.689l197.722,114.155v228.311L256,484.311z
		 M87.76,353.134L256,450.267l168.24-97.134V158.866L256,61.733L87.76,158.866V353.134z"/>
	<path style="fill:#444242;" d="M256,387.952c-72.76,0-131.952-59.194-131.952-131.952S183.24,124.048,256,124.048
		S387.952,183.24,387.952,256S328.76,387.952,256,387.952z M256,153.529c-56.503,0-102.471,45.968-102.471,102.471
		S199.496,358.471,256,358.471S358.471,312.504,358.471,256S312.503,153.529,256,153.529z"/>
</g>
<g>
	<path style="fill:#3A3839;" d="M256,450.267l168.24-97.134V158.866L256,61.733V27.689l197.722,114.155v228.311L256,484.311V450.267
		z"/>
	<path style="fill:#3A3839;" d="M256,358.471c56.503,0,102.471-45.968,102.471-102.471S312.503,153.529,256,153.529v-29.482
		c72.76,0,131.952,59.194,131.952,131.952S328.76,387.952,256,387.952V358.471z"/>
</g>
<path style="fill:#F74D37;" d="M256,89.422c-24.654,0-44.711-20.057-44.711-44.711S231.346,0,256,0s44.711,20.057,44.711,44.711
	C300.711,69.365,280.654,89.422,256,89.422z"/>
<path style="fill:#B03727;" d="M300.711,44.711C300.711,20.057,280.654,0,256,0v89.422
	C280.654,89.422,300.711,69.365,300.711,44.711z"/>
<path style="fill:#F74D37;" d="M300.711,467.289C300.711,491.943,280.654,512,256,512s-44.711-20.057-44.711-44.711
	s20.057-44.711,44.711-44.711S300.711,442.635,300.711,467.289z"/>
<path style="fill:#B03727;" d="M300.711,467.289C300.711,491.943,280.654,512,256,512v-89.422
	C280.654,422.578,300.711,442.635,300.711,467.289z"/>
<path style="fill:#F74D37;" d="M73.018,192.61c-24.654,0-44.711-20.057-44.711-44.711s20.057-44.711,44.711-44.711
	s44.711,20.057,44.711,44.711C117.73,172.552,97.672,192.61,73.018,192.61z"/>
<path style="fill:#B03727;" d="M117.73,147.899c0-24.654-20.057-44.711-44.711-44.711v89.422
	C97.672,192.61,117.73,172.552,117.73,147.899z"/>
<path style="fill:#F74D37;" d="M73.018,408.812c-24.654,0-44.711-20.057-44.711-44.711c0-24.654,20.057-44.711,44.711-44.711
	s44.711,20.057,44.711,44.711C117.73,388.755,97.672,408.812,73.018,408.812z"/>
<path style="fill:#B03727;" d="M117.73,364.101c0-24.654-20.057-44.711-44.711-44.711v89.422
	C97.672,408.812,117.73,388.755,117.73,364.101z"/>
<path style="fill:#F74D37;" d="M438.982,192.61c-24.654,0-44.711-20.057-44.711-44.711s20.057-44.711,44.711-44.711
	s44.711,20.057,44.711,44.711C483.693,172.552,463.636,192.61,438.982,192.61z"/>
<path style="fill:#B03727;" d="M483.693,147.899c0-24.654-20.057-44.711-44.711-44.711v89.422
	C463.636,192.61,483.693,172.552,483.693,147.899z"/>
<path style="fill:#F74D37;" d="M438.982,408.812c-24.654,0-44.711-20.057-44.711-44.711c0-24.654,20.057-44.711,44.711-44.711
	s44.711,20.057,44.711,44.711C483.693,388.755,463.636,408.812,438.982,408.812z"/>
<path style="fill:#B03727;" d="M483.693,364.101c0-24.654-20.057-44.711-44.711-44.711v89.422
	C463.636,408.812,483.693,388.755,483.693,364.101z"/>
<g>
</g>
<g>
</g>
<g>
</g>
<g>
</g>
<g>
</g>
<g>
</g>
<g>
</g>
<g>
</g>
<g>
</g>
<g>
</g>
<g>
</g>
<g>
</g>
<g>
</g>
<g>
</g>
<g>
</g>
</svg>
