<svg xmlns="http://www.w3.org/2000/svg" viewBox="0 0 512 512" enable-background="new 0 0 512 512"><path fill="#444242" d="M256 484.3L58.28 370.16v-228.3L256 27.68l197.72 114.14v228.3L256 484.32zM87.76 353.14L256 450.27l168.24-97.14V158.87L256 61.73 87.76 158.87v194.26zM256 387.94c-72.76 0-131.95-59.2-131.95-131.94S183.25 124.05 256 124.05 387.95 183.25 387.95 256 328.75 387.95 256 387.95zm0-234.4c-56.5 0-102.47 45.96-102.47 102.46S199.5 358.47 256 358.47 358.47 312.5 358.47 256 312.5 153.53 256 153.53z"/><path fill="#3A3839" d="M256 450.27l168.24-97.14V158.87L256 61.73V27.7l197.72 114.14v228.3L256 484.32V450.3zm0-91.8c56.5 0 102.47-45.97 102.47-102.47S312.5 153.53 256 153.53v-29.48c72.76 0 131.95 59.2 131.95 131.95S328.75 387.95 256 387.95v-29.48z"/><path fill="#F74D37" d="M256 89.42c-24.65 0-44.7-20.06-44.7-44.7S231.34 0 256 0s44.7 20.06 44.7 44.7c0 24.66-20.05 44.72-44.7 44.72z"/><path fill="#B03727" d="M300.7 44.7C300.7 20.07 280.66 0 256 0v89.42c24.65 0 44.7-20.06 44.7-44.7z"/><path fill="#F74D37" d="M300.7 467.3c0 24.64-20.05 44.7-44.7 44.7s-44.7-20.06-44.7-44.7 20.05-44.72 44.7-44.72 44.7 20.06 44.7 44.7z"/><path fill="#B03727" d="M300.7 467.3c0 24.64-20.05 44.7-44.7 44.7v-89.42c24.65 0 44.7 20.06 44.7 44.7z"/><path fill="#F74D37" d="M73.02 192.6c-24.66 0-44.7-20.05-44.7-44.7s20.04-44.7 44.7-44.7 44.7 20.04 44.7 44.7c0 24.65-20.05 44.7-44.7 44.7z"/><path fill="#B03727" d="M117.73 147.9c0-24.66-20.06-44.7-44.7-44.7v89.4c24.64 0 44.7-20.05 44.7-44.7z"/><path fill="#F74D37" d="M73.02 408.8c-24.66 0-44.7-20.04-44.7-44.7 0-24.65 20.04-44.7 44.7-44.7s44.7 20.05 44.7 44.7c0 24.65-20.05 44.7-44.7 44.7z"/><path fill="#B03727" d="M117.73 364.1c0-24.65-20.06-44.7-44.7-44.7v89.4c24.64 0 44.7-20.05 44.7-44.7z"/><path fill="#F74D37" d="M438.98 192.6c-24.65 0-44.7-20.05-44.7-44.7s20.05-44.7 44.7-44.7 44.7 20.04 44.7 44.7c0 24.65-20.04 44.7-44.7 44.7z"/><path fill="#B03727" d="M483.7 147.9c0-24.66-20.06-44.7-44.72-44.7v89.4c24.66 0 44.7-20.05 44.7-44.7z"/><path fill="#F74D37" d="M438.98 408.8c-24.65 0-44.7-20.04-44.7-44.7 0-24.65 20.05-44.7 44.7-44.7s44.7 20.05 44.7 44.7c0 24.65-20.04 44.7-44.7 44.7z"/><path fill="#B03727" d="M483.7 364.1c0-24.65-20.06-44.7-44.72-44.7v89.4c24.66 0 44.7-20.05 44.7-44.7z"/></svg>