<svg xmlns="http://www.w3.org/2000/svg" enable-background="new 0 0 504 504" viewBox="0 0 504 504"><path fill="#3765AF" d="M454.5 258.9c-9.2 58.5-27.1 75.6-58.8 114.9-31.7 33.3-77.3 88.9-141.9 85.8-58.5-9.2-75.6-27.1-114.9-58.8-33.3-31.7-88.9-77.3-85.8-141.9 9.2-58.5 27.1-75.6 58.8-114.9 31.7-33.3 77.3-88.9 141.9-85.8 58.5 9.2 75.6 27.1 114.9 58.8 33.3 31.8 88.8 77.3 85.8 141.9z"/><path fill="#fff" d="M332.6 176.4c6.8 9.4 10.1 20.7 10.1 33.8 0 13.5-3.4 24.4-10.2 32.6-3.8 4.6-9.4 8.8-16.9 12.6 11.3 4.1 19.8 10.6 25.6 19.5 5.7 8.9 8.6 19.7 8.6 32.4 0 13.1-3.3 24.9-9.8 35.3-4.2 6.9-9.4 12.7-15.7 17.4-7.1 5.4-15.4 9.1-25 11.1s-20 3-31.3 3h-99.7V152.9h106.9c27 .4 46.1 8.2 57.4 23.5zm-120.2 14.9v48.8h53.8c9.6 0 17.4-1.8 23.4-5.5s9-10.1 9-19.4c0-10.3-4-17.1-11.9-20.4-6.8-2.3-15.6-3.5-26.1-3.5h-48.2zm0 85.4v59h53.7c9.6 0 17.1-1.3 22.4-3.9 9.7-4.8 14.5-14 14.5-27.6 0-11.5-4.7-19.4-14.1-23.7-5.2-2.4-12.6-3.7-22.1-3.8h-54.4z"/></svg>