<?xml version="1.0" encoding="utf-8"?>
<!-- Generator: Adobe Illustrator 16.0.0, SVG Export Plug-In . SVG Version: 6.00 Build 0)  -->
<!DOCTYPE svg PUBLIC "-//W3C//DTD SVG 1.1//EN" "http://www.w3.org/Graphics/SVG/1.1/DTD/svg11.dtd">
<svg version="1.1" id="Capa_1" xmlns="http://www.w3.org/2000/svg" xmlns:xlink="http://www.w3.org/1999/xlink" x="0px" y="0px"
	 width="170.08px" height="170.08px" viewBox="0 0 170.08 170.08" enable-background="new 0 0 170.08 170.08" xml:space="preserve">
<g>
	<rect x="12.398" y="51.515" fill="#827980" width="145.282" height="106.167"/>
	<rect x="12.398" y="141.967" fill="#635760" width="145.282" height="15.716"/>
	<polygon fill="#498CF5" points="167.459,150.697 167.459,167.461 2.62,167.461 2.62,150.697 110.185,150.697 145.108,150.697 
		157.681,150.697 	"/>
	<polygon fill="#439EE8" points="8.207,161.873 8.207,150.697 2.62,150.697 2.62,167.461 167.459,167.461 167.459,161.873 	"/>
	<rect x="110.185" y="133.935" fill="#D74848" width="34.923" height="16.763"/>
	<g>
		<path fill="#FFFFFF" d="M44.527,85.216c-1.446,0-2.619,1.173-2.619,2.619v7.159H31.78v-7.159c0-1.446-1.173-2.619-2.619-2.619
			s-2.62,1.173-2.62,2.619v20.954c0,1.447,1.173,2.619,2.62,2.619s2.619-1.172,2.619-2.619v-8.557h10.128v8.557
			c0,1.447,1.172,2.619,2.619,2.619c1.447,0,2.619-1.172,2.619-2.619V87.835C47.146,86.389,45.975,85.216,44.527,85.216z"/>
		<path fill="#FFFFFF" d="M62.688,81.025H59.72v-2.968c0-1.447-1.172-2.62-2.619-2.62s-2.62,1.172-2.62,2.62v2.968h-2.969
			c-1.447,0-2.619,1.173-2.619,2.619c0,1.447,1.172,2.62,2.619,2.62h2.969v2.969c0,1.445,1.173,2.619,2.62,2.619
			s2.619-1.174,2.619-2.619v-2.969h2.968c1.447,0,2.62-1.173,2.62-2.62C65.308,82.198,64.135,81.025,62.688,81.025z"/>
		<path fill="#FFFFFF" d="M76.657,96.391h-2.968v-2.968c0-1.446-1.173-2.618-2.619-2.618s-2.62,1.172-2.62,2.618v2.968h-2.967
			c-1.447,0-2.62,1.174-2.62,2.62c0,1.447,1.173,2.619,2.62,2.619h2.967v2.968c0,1.447,1.173,2.62,2.62,2.62s2.619-1.173,2.619-2.62
			v-2.968h2.968c1.447,0,2.62-1.172,2.62-2.619C79.277,97.564,78.104,96.391,76.657,96.391z"/>
		<path fill="#FFFFFF" d="M132.536,85.216c-1.447,0-2.619,1.173-2.619,2.619v7.159h-10.129v-7.159c0-1.446-1.172-2.619-2.618-2.619
			c-1.447,0-2.62,1.173-2.62,2.619v20.954c0,1.447,1.173,2.619,2.62,2.619c1.446,0,2.618-1.172,2.618-2.619v-8.557h10.129v8.557
			c0,1.447,1.172,2.619,2.619,2.619c1.446,0,2.618-1.172,2.618-2.619V87.835C135.154,86.389,133.982,85.216,132.536,85.216z"/>
		<path fill="#FFFFFF" d="M98.311,85.216c-7.222,0-13.097,5.874-13.097,13.097c0,7.221,5.875,13.096,13.097,13.096
			s13.096-5.875,13.096-13.096C111.406,91.09,105.531,85.216,98.311,85.216z M98.311,106.17c-4.333,0-7.857-3.525-7.857-7.857
			c0-4.333,3.524-7.857,7.857-7.857c4.332,0,7.857,3.524,7.857,7.857C106.168,102.645,102.643,106.17,98.311,106.17z"/>
		<path fill="#FFFFFF" d="M146.505,79.628h-11.176c-1.447,0-2.619,1.172-2.619,2.62s1.172,2.619,2.619,2.619h11.176
			c1.447,0,2.619-1.171,2.619-2.619S147.952,79.628,146.505,79.628z"/>
	</g>
	<path fill="#498CF5" d="M145.107,54.135c-0.321,0-0.646-0.059-0.963-0.184L85.039,30.583L25.933,53.951
		c-1.346,0.531-2.867-0.128-3.399-1.473c-0.531-1.346,0.128-2.867,1.473-3.399l60.069-23.749c0.618-0.245,1.307-0.245,1.926,0
		l60.069,23.749c1.345,0.532,2.005,2.054,1.473,3.399C147.137,53.506,146.151,54.135,145.107,54.135z"/>
	<path d="M167.459,148.079H160.3V51.515c0-1.447-1.172-2.62-2.619-2.62H77.999c-1.447,0-2.62,1.172-2.62,2.62
		c0,1.446,1.173,2.619,2.62,2.619h77.063v93.945h-7.334v-14.145c0-1.447-1.172-2.619-2.619-2.619h-34.924
		c-1.446,0-2.619,1.172-2.619,2.619v14.145H15.018V54.134h49.766c1.446,0,2.619-1.172,2.619-2.619c0-1.447-1.172-2.62-2.619-2.62
		H12.398c-1.446,0-2.62,1.172-2.62,2.62v96.564H2.62c-1.447,0-2.62,1.172-2.62,2.618v16.764c0,1.447,1.172,2.619,2.62,2.619h124.677
		c1.447,0,2.62-1.172,2.62-2.619c0-1.446-1.173-2.618-2.62-2.618H5.239v-11.525H164.84v11.525h-25.712
		c-1.447,0-2.618,1.172-2.618,2.618c0,1.447,1.171,2.619,2.618,2.619h28.331c1.447,0,2.62-1.172,2.62-2.619v-16.764
		C170.079,149.251,168.906,148.079,167.459,148.079z M142.488,136.554v11.525h-29.685v-11.525H142.488z"/>
</g>
</svg>
