<svg xmlns="http://www.w3.org/2000/svg" width="170.08" height="170.08"><path fill="#827980" d="M12.4 51.52h145.28v106.16H12.4z"/><path fill="#635760" d="M12.4 141.97h145.28v15.7H12.4z"/><path fill="#498CF5" d="M167.46 150.7v16.76H2.62V150.7H157.7z"/><path fill="#439EE8" d="M8.2 161.87V150.7H2.63v16.76h164.84v-5.6z"/><path fill="#D74848" d="M110.19 133.94h34.9v16.76h-34.9z"/><g fill="#fff"><path d="M44.53 85.22c-1.45 0-2.62 1.17-2.62 2.6V95H31.8v-7.17c0-1.44-1.17-2.6-2.62-2.6s-2.62 1.16-2.62 2.6v20.96c0 1.44 1.17 2.6 2.62 2.6s2.62-1.16 2.62-2.6v-8.57H41.9v8.56c0 1.44 1.18 2.6 2.63 2.6 1.44 0 2.62-1.16 2.62-2.6V87.82c0-1.44-1.17-2.6-2.62-2.6zM62.7 81.03H59.7v-2.97c0-1.45-1.17-2.62-2.62-2.62s-2.62 1.17-2.62 2.62v2.96H51.5c-1.43 0-2.6 1.18-2.6 2.62 0 1.45 1.17 2.62 2.6 2.62h2.98v2.97c0 1.45 1.17 2.62 2.62 2.62s2.62-1.17 2.62-2.62v-2.97h2.97c1.43 0 2.6-1.17 2.6-2.62 0-1.44-1.16-2.6-2.6-2.6zM76.66 96.4H73.7V93.4c0-1.44-1.18-2.6-2.63-2.6s-2.62 1.16-2.62 2.6v2.97h-2.97c-1.44 0-2.62 1.16-2.62 2.6 0 1.46 1.18 2.63 2.62 2.63h2.97v2.97c0 1.45 1.17 2.62 2.62 2.62s2.62-1.17 2.62-2.62v-2.97h2.96c1.44 0 2.62-1.17 2.62-2.62 0-1.44-1.18-2.6-2.62-2.6zM132.54 85.22c-1.45 0-2.62 1.17-2.62 2.6V95H119.8v-7.17c0-1.44-1.18-2.6-2.63-2.6s-2.62 1.16-2.62 2.6v20.96c0 1.44 1.17 2.6 2.62 2.6 1.45 0 2.62-1.16 2.62-2.6v-8.57h10.12v8.56c0 1.44 1.17 2.6 2.62 2.6 1.44 0 2.6-1.16 2.6-2.6V87.82c0-1.44-1.16-2.6-2.6-2.6zM98.3 85.22c-7.2 0-13.1 5.87-13.1 13.1 0 7.2 5.9 13.1 13.1 13.1s13.1-5.9 13.1-13.1c0-7.23-5.87-13.1-13.1-13.1zm0 20.95c-4.32 0-7.85-3.52-7.85-7.86 0-4.32 3.53-7.84 7.86-7.84 4.34 0 7.87 3.52 7.87 7.85 0 4.34-3.53 7.87-7.86 7.87zM146.5 79.63h-11.17c-1.45 0-2.62 1.17-2.62 2.62s1.18 2.62 2.63 2.62h11.17c1.45 0 2.62-1.17 2.62-2.62s-1.17-2.62-2.62-2.62z"/></g><path fill="#498CF5" d="M145.1 54.13c-.3 0-.64-.05-.96-.18l-59.1-23.37-59.1 23.37c-1.35.53-2.87-.13-3.4-1.47-.54-1.35.12-2.87 1.47-3.4L84.1 25.33c.6-.24 1.3-.24 1.92 0l60.07 23.75c1.35.53 2 2.05 1.47 3.4-.4 1.03-1.4 1.66-2.43 1.66z"/><path d="M167.46 148.08h-7.16V51.5c0-1.43-1.17-2.6-2.62-2.6H78c-1.45 0-2.62 1.17-2.62 2.62 0 1.44 1.17 2.6 2.62 2.6h77.06v93.96h-7.33v-14.15c0-1.44-1.17-2.62-2.62-2.62h-34.9c-1.46 0-2.63 1.2-2.63 2.63v14.15H15.02V54.13h49.76c1.45 0 2.62-1.17 2.62-2.62 0-1.43-1.17-2.6-2.62-2.6H12.4c-1.45 0-2.62 1.17-2.62 2.62v96.56H2.62c-1.45 0-2.62 1.17-2.62 2.62v16.76c0 1.45 1.17 2.62 2.62 2.62H127.3c1.44 0 2.62-1.17 2.62-2.62 0-1.44-1.18-2.62-2.62-2.62H5.24v-11.52h159.6v11.52h-25.7c-1.46 0-2.63 1.18-2.63 2.62 0 1.45 1.18 2.62 2.63 2.62h28.33c1.45 0 2.62-1.17 2.62-2.62V150.7c0-1.45-1.17-2.62-2.62-2.62zm-24.97-11.53v11.53h-29.7v-11.53h29.7z"/></svg>