<?xml version="1.0" encoding="utf-8"?>
<!-- Generator: Adobe Illustrator 16.0.0, SVG Export Plug-In . SVG Version: 6.00 Build 0)  -->
<!DOCTYPE svg PUBLIC "-//W3C//DTD SVG 1.1//EN" "http://www.w3.org/Graphics/SVG/1.1/DTD/svg11.dtd">
<svg version="1.1" id="Capa_1" xmlns="http://www.w3.org/2000/svg" xmlns:xlink="http://www.w3.org/1999/xlink" x="0px" y="0px"
	 width="194.5px" height="178px" viewBox="0 0 194.5 178" enable-background="new 0 0 194.5 178" xml:space="preserve">
<path fill="#FFFFFF" d="M168.942,92.938c0,46.181-37.438,83.62-83.624,83.62c-46.181,0-83.62-37.439-83.62-83.62
	c0-46.185,37.439-83.624,83.62-83.624C131.504,9.313,168.942,46.752,168.942,92.938z"/>
<g>
	<path fill="#E0DDDF" d="M113.485,149.245c-2.953,0-5.348-2.391-5.348-5.356v-21.393c0-2.955,2.395-5.347,5.348-5.347h2.723
		c-1.363-4.343-5.421-7.489-10.209-7.489H54.642c-5.914,0-10.702,4.79-10.702,10.695v39.584h72.759v-5.339v-5.355H113.485z"/>
	<path fill="#C1BCBF" d="M61.06,109.66h-6.418c-5.914,0-10.702,4.79-10.702,10.695v39.584h6.421v-39.584
		C50.361,114.45,55.147,109.66,61.06,109.66z"/>
	<polygon fill="#FFFFFF" points="58.921,109.66 80.315,138.549 101.719,109.66 	"/>
	<polygon fill="#439EE8" points="85.669,121.431 74.97,121.431 73.631,125.433 87.005,125.433 	"/>
	<g>
		<polygon fill="#498CF5" points="73.631,125.433 72.829,127.843 80.315,137.478 87.809,127.843 87.005,125.433 		"/>
		<polygon fill="#498CF5" points="88.877,109.66 85.669,121.431 74.97,121.431 71.757,109.66 		"/>
	</g>
	<g>
		<path fill="#D74848" d="M129.538,149.245v5.355c0,2.946-2.395,5.339-5.352,5.339h-2.139c-2.955,0-5.35-2.393-5.35-5.339v-5.355
			H129.538z"/>
		<rect x="116.698" y="105.379" fill="#D74848" width="12.84" height="11.771"/>
	</g>
	<g>
		<path fill="#F9C59B" d="M129.538,117.149c5.908,0,10.699,4.787,10.699,10.693v10.707c0,5.909-4.789,10.695-10.699,10.695
			c0,0-11.234,0-16.053,0c-2.953,0-5.348-2.391-5.348-5.356v-21.393c0-2.954,2.395-5.347,5.348-5.347H129.538L129.538,117.149z"/>
		<path fill="#F9C59B" d="M44.162,72.158c2.17,7.387,4.012,13.62,4.77,16.064c-0.235,0.021-0.47,0.037-0.711,0.037
			c-4.729,0-8.561-3.84-8.561-8.561C39.659,76.438,41.486,73.606,44.162,72.158z"/>
		<path fill="#F9C59B" d="M116.671,72.273c2.574,1.473,4.307,4.243,4.307,7.426c0,4.721-3.834,8.561-8.561,8.561
			c-0.16,0-0.32-0.007-0.479-0.017C114.45,83.508,116.433,77.914,116.671,72.273z"/>
		<path fill="#F9C59B" d="M111.347,68.997v7.493c0,17.131-13.892,31.023-31.031,31.023c-17.138,0-31.03-13.893-31.03-31.023v-7.493
			l6.422-12.837l0.902,0.307l23.707,8.251l23.71-8.251l0.9-0.307L111.347,68.997z"/>
	</g>
	<path fill="#DDAE8E" d="M55.707,76.49v-7.493l5.472-10.94l-4.57-1.589l-0.901-0.308l-6.421,12.837v7.493
		c0,17.131,13.892,31.023,31.03,31.023c1.084,0,2.158-0.055,3.213-0.16C67.897,105.741,55.707,92.545,55.707,76.49z"/>
	<path fill="#827980" d="M111.938,88.243c-0.195,0.37-0.393,0.731-0.592,1.086v-1.142V76.49v-7.493l-6.421-12.837l-0.899,0.308
		l-23.71,8.25l-23.707-8.25l-0.901-0.308l-6.421,12.837v7.493v11.697v1.142c-0.03-0.057-0.149-0.44-0.354-1.106
		c-0.758-2.444-2.6-8.678-4.77-16.064C39.468,56.16,33.238,34.761,33.238,34.761h47.077c20.095,0,36.383,16.287,36.383,36.377
		c0,0.378-0.012,0.752-0.027,1.136C116.433,77.914,114.45,83.508,111.938,88.243z"/>
	<path fill="#498CF5" d="M104.66,69.128H88.076c-1.418,0-2.633,0.894-3.115,2.146h-9.283c-0.488-1.253-1.697-2.146-3.118-2.146
		H55.976c-1.843,0-3.345,1.506-3.345,3.344v11.237c0,1.846,1.501,3.342,3.345,3.342h16.585c1.844,0,3.346-1.496,3.346-3.342V75.28
		h8.827v8.429c0,1.846,1.498,3.342,3.343,3.342h16.584c1.844,0,3.343-1.496,3.343-3.342V72.472
		C108.003,70.633,106.504,69.128,104.66,69.128z M71.894,83.044H56.643v-9.897h15.251V83.044z M103.99,83.044H88.745v-9.897h15.245
		V83.044z"/>
	<g display="none">
		<path display="inline" fill="#D74848" d="M123.118,95.607c-1.111,0-2.008-0.89-2.008-2v-3.216c0-1.106,0.898-2,2.008-2
			c1.107,0,2.006,0.894,2.006,2v3.216C125.124,94.718,124.226,95.607,123.118,95.607z"/>
		<path display="inline" fill="#D74848" d="M128.468,102.038c-1.109,0-2.008-0.903-2.008-2.011v-3.205
			c0-1.11,0.898-2.011,2.008-2.011c1.107,0,2.006,0.901,2.006,2.011v3.205C130.474,101.135,129.575,102.038,128.468,102.038z"/>
		<path display="inline" fill="#D74848" d="M117.767,102.038c-1.105,0-2.006-0.903-2.006-2.011v-3.205c0-1.11,0.9-2.011,2.006-2.011
			c1.107,0,2.008,0.901,2.008,2.011v3.205C119.774,101.135,118.874,102.038,117.767,102.038z"/>
	</g>
	<path d="M80.315,152.147c-1.106,0-2.001,0.893-2.001,1.999v1.304c0,1.106,0.896,2.011,2.001,2.011c1.11,0,2.011-0.904,2.011-2.011
		v-1.304C82.327,153.04,81.425,152.147,80.315,152.147z"/>
	<path d="M101.719,140.823h-8.561c-1.107,0-2.005,0.895-2.005,2.006c0,1.11,0.898,1.996,2.005,1.996h8.561
		c1.107,0,2.004-0.886,2.004-1.996C103.723,141.718,102.826,140.823,101.719,140.823z"/>
	<path d="M87.94,93.075c0.889-0.668,1.068-1.927,0.401-2.81c-0.663-0.885-1.919-1.065-2.809-0.406
		c-2.019,1.518-4.135,1.745-5.218,1.745c-2.523,0-4.347-1.097-5.213-1.743c-0.884-0.659-2.144-0.482-2.809,0.403
		c-0.663,0.882-0.484,2.139,0.4,2.809c1.261,0.945,3.93,2.534,7.622,2.534C81.897,95.607,84.993,95.285,87.94,93.075z"/>
	<path d="M65.339,75.555H63.2c-1.111,0-2.007,0.892-2.007,2.001s0.896,2.003,2.007,2.003h2.14c1.109,0,2.005-0.895,2.005-2.003
		C67.344,76.446,66.449,75.555,65.339,75.555z"/>
	<path d="M95.298,79.559h2.14c1.107,0,2.006-0.895,2.006-2.003c0-1.109-0.899-2.001-2.006-2.001h-2.14
		c-1.107,0-2.007,0.892-2.007,2.001S94.191,79.559,95.298,79.559z"/>
	<path d="M140.237,135.739c1.107,0,2.008-0.898,2.008-2.005v-5.892c0-6.321-4.646-11.575-10.701-12.549v-7.913h2.275
		c1.09,0,2.002-0.911,2.002-2.001c0-1.102-0.912-2.008-2.002-2.008h-21.402c-1.093,0-2.006,0.906-2.006,2.008
		c0,1.09,0.913,2.001,2.006,2.001h2.274v3.689c-2.296-2.154-5.37-3.418-8.693-3.418H91.281c8.245-2.91,14.999-9.004,18.78-16.796
		c1.009,0.851,2.454,0.479,3.075-0.621c2.986-0.202,5.791-1.709,7.627-4.068c1.92-2.466,2.598-5.668,2.014-8.726
		c-0.42-2.191-1.799-4.432-4.074-6.568c-0.01-1.536-0.111-3.082-0.307-4.612c-2.404-18.898-19.034-33.51-38.08-33.51H33.238
		c-1.383,0-2.269,1.352-1.907,2.634c0.1,0.341,9.118,31.237,10.126,34.665c0.121,0.413,0.239,0.828,0.36,1.24
		c-2.876,2.197-4.455,5.79-4.119,9.382c0.294,3.186,2.068,6.113,4.738,7.862c1.513,0.985,3.267,1.578,5.062,1.701
		c0.586,1.138,2.1,1.444,3.076,0.622c3.78,7.791,10.539,13.885,18.78,16.795H54.642c-7.008,0-12.712,5.701-12.712,12.703v39.584
		c0,1.114,0.903,2.01,2.01,2.01h72.758c0.727,0,1.359-0.382,1.711-0.958c1.074,0.604,2.316,0.958,3.639,0.958h2.139
		c4.059,0,7.357-3.299,7.357-7.349v-3.521c4.166-0.729,8.012-3.614,9.725-7.491c0.32-0.74,0.695-1.522,0.645-2.343
		c-0.041-0.729-0.479-1.373-1.135-1.692c-0.621-0.296-1.359-0.245-1.938,0.114c-0.764,0.495-0.84,1.288-1.146,2.061
		c-0.389,0.984-0.988,1.865-1.709,2.626c-1.658,1.736-4.031,2.882-6.447,2.882h-16.053c-1.843,0-3.344-1.493-3.344-3.347v-1.202
		c0.047,0.004,0.09,0.009,0.135,0.009h10.701c1.09,0,2.006-0.92,2.006-2.011c0-1.087-0.916-2.011-2.006-2.011h-10.699
		c-0.047,0-0.09,0.005-0.136,0.009v-3.483c0.046,0.004,0.089,0.009,0.136,0.009h10.699c1.092,0,2.008-0.923,2.008-2.011
		c0-1.092-0.916-2.01-2.008-2.01h-10.699c-0.047,0-0.09,0.005-0.136,0.009v-3.487c0.046,0.002,0.089,0.003,0.136,0.003h10.699
		c1.092,0,2.008-0.914,2.008-2.001c0-1.103-0.916-2.011-2.008-2.011h-10.699c-0.047,0-0.09,0.005-0.136,0.009v-1.213
		c0-1.844,1.501-3.341,3.343-3.341h16.053c4.795,0,8.689,3.896,8.689,8.687v5.893C138.228,134.841,139.128,135.739,140.237,135.739z
		 M115.476,85.491c1.105-2.578,2.131-5.604,2.717-8.877c0.5,0.937,0.779,1.991,0.779,3.085
		C118.972,82.206,117.552,84.394,115.476,85.491z M80.315,36.766c18.955,0,34.376,15.417,34.376,34.372
		c0,0.314-0.01,0.646-0.024,1.049c-0.111,2.604-0.617,5.127-1.312,7.441V68.997c0-0.309-0.074-0.618-0.213-0.895l-6.419-12.841
		c-0.348-0.693-1.054-1.108-1.797-1.108c-0.216,0-0.44,0.029-0.655,0.11l-23.955,8.334l-23.047-8.02l-0.899-0.314
		c-0.958-0.329-2.005,0.092-2.456,0.998l-6.417,12.841c-0.143,0.276-0.211,0.586-0.211,0.894v6.658
		c-0.375-1.266-0.773-2.618-1.195-4.066c0-0.002,0-0.004,0-0.004c0-0.003-0.001-0.008-0.004-0.011
		c-3.689-12.572-8.375-28.643-10.171-34.808H80.315z M41.666,79.699c0-1.508,0.517-2.94,1.425-4.082
		c1.313,4.465,2.329,7.91,3.043,10.294C43.541,85.04,41.666,82.586,41.666,79.699z M51.297,76.49V69.47l5.419-10.839l22.945,7.978
		c0.423,0.156,0.888,0.156,1.318,0l22.942-7.978l5.421,10.839v7.021c0,16.003-13.021,29.017-29.026,29.017
		C64.314,105.507,51.297,92.493,51.297,76.49z M127.532,107.381v7.759h-8.828v-7.759H127.532z M80.315,135.173l-5.392-7.283
		l1.491-4.456h7.807l1.486,4.456L80.315,135.173z M86.253,111.659l-2.117,7.761h-7.635l-2.114-7.761H86.253z M70.229,111.659
		l2.643,9.713l-0.86,2.589l-9.108-12.302H70.229L70.229,111.659z M88.628,123.961l-0.866-2.589l2.649-9.713h7.325L88.628,123.961z
		 M124.187,157.944h-2.139c-1.844,0-3.346-1.51-3.346-3.345v-3.344h8.83v3.344C127.532,156.435,126.032,157.944,124.187,157.944z
		 M106.13,122.496v21.393c0,4.062,3.303,7.367,7.355,7.367h1.206v6.688H45.944v-37.589c0-4.789,3.898-8.696,8.698-8.696h3.265
		l20.407,27.543v9.01c0,1.105,0.896,2.001,2.001,2.001c1.11,0,2.011-0.896,2.011-2.001v-9.01l20.401-27.543h3.271
		c2.819,0,5.371,1.342,6.975,3.507C109.157,115.422,106.13,118.618,106.13,122.496z"/>
</g>
<g>
	<g>
		<path fill="#498CF5" d="M160.772,46.143c-1.006,0.828-2.5,0.686-3.328-0.323l-1.762-2.141c-0.828-1.006-0.689-2.5,0.318-3.327
			c1.012-0.829,2.496-0.685,3.322,0.324l1.768,2.139C161.923,43.821,161.778,45.315,160.772,46.143z"/>
		<path fill="#498CF5" d="M169.796,57.098c-1.006,0.827-2.498,0.686-3.328-0.325l-1.762-2.137c-0.828-1.008-0.688-2.503,0.322-3.329
			c1.01-0.828,2.494-0.688,3.322,0.324l1.764,2.139C170.946,54.774,170.802,56.271,169.796,57.098z"/>
		<path fill="#498CF5" d="M170.952,45.152l-2.143,1.763c-1.008,0.83-2.498,0.689-3.328-0.315c-0.83-1.009-0.684-2.5,0.326-3.328
			l2.135-1.763c1.012-0.828,2.502-0.689,3.328,0.316C172.099,42.835,171.96,44.325,170.952,45.152z"/>
		<path fill="#498CF5" d="M159.997,54.177l-2.145,1.763c-1.006,0.83-2.498,0.69-3.328-0.314c-0.83-1.01-0.68-2.501,0.326-3.33
			l2.139-1.761c1.01-0.829,2.498-0.69,3.326,0.315C161.144,51.86,161.003,53.35,159.997,54.177z"/>
		<path fill="#498CF5" d="M128.565,30.465c-1.006,0.833-2.496,0.687-3.326-0.32l-1.359-1.646c-0.828-1.009-0.684-2.501,0.322-3.33
			c1.008-0.827,2.496-0.687,3.326,0.323l1.359,1.65C129.718,28.149,129.573,29.634,128.565,30.465z"/>
		<path fill="#498CF5" d="M135.515,38.897c-1.01,0.833-2.5,0.687-3.328-0.318l-1.357-1.647c-0.83-1.008-0.689-2.499,0.32-3.328
			c1.008-0.827,2.498-0.689,3.324,0.32l1.359,1.651C136.663,36.583,136.521,38.067,135.515,38.897z"/>
		<path fill="#498CF5" d="M136.403,29.704l-1.648,1.361c-1.01,0.83-2.5,0.682-3.328-0.323c-0.828-1.007-0.688-2.494,0.32-3.326
			l1.65-1.359c1.008-0.829,2.494-0.684,3.324,0.326C137.552,27.389,137.405,28.874,136.403,29.704z"/>
		<path fill="#498CF5" d="M127.97,36.652l-1.65,1.356c-1.006,0.83-2.498,0.689-3.326-0.316c-0.828-1.01-0.686-2.499,0.322-3.329
			l1.648-1.355c1.008-0.83,2.494-0.689,3.326,0.316C129.12,34.333,128.974,35.825,127.97,36.652z"/>
		<path fill="#F7B239" d="M182.69,33.13c-0.527,1.19-1.924,1.732-3.115,1.206l-1.957-0.858c-1.191-0.526-1.732-1.924-1.207-3.116
			c0.527-1.197,1.922-1.737,3.115-1.21l1.951,0.864C182.677,30.543,183.218,31.935,182.69,33.13z"/>
		<path fill="#F7B239" d="M192.687,37.533c-0.525,1.195-1.918,1.74-3.119,1.213l-1.949-0.864c-1.193-0.526-1.736-1.923-1.211-3.112
			c0.525-1.197,1.918-1.739,3.117-1.213l1.955,0.865C192.671,34.948,193.212,36.345,192.687,37.533z"/>
		<path fill="#F7B239" d="M189.347,28.924l-0.863,1.954c-0.525,1.197-1.92,1.734-3.113,1.209c-1.197-0.526-1.734-1.923-1.209-3.114
			l0.861-1.953c0.527-1.198,1.92-1.736,3.115-1.21C189.327,26.336,189.872,27.733,189.347,28.924z"/>
		<path fill="#F7B239" d="M184.937,38.925l-0.859,1.951c-0.525,1.193-1.922,1.739-3.115,1.213s-1.734-1.924-1.209-3.117l0.861-1.958
			c0.525-1.189,1.918-1.731,3.117-1.204C184.925,36.336,185.462,37.727,184.937,38.925z"/>
		<path fill="#D74848" d="M161.476,15.466c-1.008,0.832-2.502,0.686-3.33-0.321l-1.355-1.646c-0.828-1.009-0.689-2.5,0.318-3.328
			c1.01-0.829,2.5-0.687,3.324,0.321l1.359,1.649C162.624,13.149,162.481,14.636,161.476,15.466z"/>
		<path fill="#D74848" d="M168.419,23.897c-1.01,0.832-2.492,0.687-3.324-0.319l-1.359-1.647c-0.832-1.009-0.682-2.498,0.324-3.328
			c1.002-0.826,2.494-0.688,3.326,0.322l1.357,1.652C169.571,21.583,169.429,23.068,168.419,23.897z"/>
		<path fill="#D74848" d="M169.312,14.705l-1.654,1.36c-1.008,0.831-2.492,0.683-3.32-0.323c-0.832-1.008-0.688-2.497,0.316-3.326
			l1.648-1.359c1.01-0.828,2.5-0.685,3.328,0.325C170.456,12.388,170.317,13.875,169.312,14.705z"/>
		<path fill="#D74848" d="M160.878,21.652l-1.65,1.356c-1.01,0.83-2.496,0.689-3.324-0.317c-0.83-1.009-0.688-2.498,0.316-3.328
			l1.65-1.355c1.01-0.831,2.498-0.689,3.324,0.317C162.024,19.334,161.884,20.825,160.878,21.652z"/>
	</g>
	<path fill="#498CF5" d="M140.731,18.031c-2.877,2.373-7.143,1.962-9.516-0.915c-2.369-2.877-1.957-7.145,0.918-9.516
		c2.877-2.366,7.145-1.954,9.514,0.922C144.017,11.397,143.604,15.667,140.731,18.031z M135.14,11.249
		c-0.863,0.715-0.988,1.995-0.273,2.86c0.711,0.865,1.994,0.989,2.859,0.276c0.861-0.71,0.986-1.995,0.273-2.86
		S136.001,10.535,135.14,11.249z"/>
	<g>
		<path fill="#F7B239" d="M152.573,64.652c-1.57,3.379-5.594,4.858-8.971,3.289c-3.387-1.57-4.859-5.588-3.293-8.97
			c1.562-3.385,5.588-4.86,8.975-3.29C152.659,57.243,154.14,61.268,152.573,64.652z M144.599,60.958
			c-0.471,1.014-0.031,2.228,0.99,2.698c1.014,0.471,2.227,0.021,2.699-0.991c0.471-1.017,0.02-2.227-0.992-2.696
			C146.276,59.498,145.069,59.937,144.599,60.958z M115.39,12.379c-1.565,3.38-5.592,4.859-8.972,3.292s-4.859-5.592-3.29-8.973
			c1.563-3.38,5.589-4.857,8.969-3.291C115.479,4.973,116.956,8.997,115.39,12.379z M107.414,8.684
			c-0.472,1.018-0.028,2.229,0.989,2.699c1.019,0.472,2.227,0.025,2.699-0.99c0.471-1.018,0.027-2.226-0.992-2.697
			C109.095,7.225,107.884,7.667,107.414,8.684z"/>
		<path fill="#F7B239" d="M147.425,28.501c1.01-0.829,2.502-0.688,3.328,0.317c0.83,1.012,0.688,2.498-0.322,3.327
			c-1.008,0.827-2.49,0.689-3.322-0.319C146.276,30.815,146.423,29.328,147.425,28.501z"/>
		<path fill="#D74848" d="M83.41,3.32c1.004-0.83,2.495-0.687,3.321,0.323c0.833,1.006,0.69,2.492-0.321,3.323
			c-1.004,0.829-2.495,0.686-3.322-0.321C82.257,5.639,82.4,4.147,83.41,3.32z"/>
	</g>
	<path fill="#D74848" d="M162.661,69.465c1.008-0.826,2.502-0.688,3.328,0.322c0.828,1.01,0.689,2.494-0.322,3.321
		c-1.008,0.83-2.492,0.69-3.32-0.313C161.515,71.784,161.659,70.293,162.661,69.465z"/>
	<path fill="#498CF5" d="M176.069,17.748c1.004-0.83,2.494-0.683,3.324,0.324c0.83,1.005,0.684,2.494-0.324,3.327
		c-1.004,0.828-2.492,0.68-3.324-0.325C174.913,20.067,175.063,18.578,176.069,17.748z"/>
	<path fill="#498CF5" d="M113.379,32.126c1.007-0.83,2.495-0.688,3.325,0.317s0.686,2.5-0.322,3.327
		c-1.006,0.829-2.494,0.688-3.323-0.321C112.227,34.438,112.37,32.955,113.379,32.126z"/>
	<path fill="#F7B239" d="M119.476,17.749c1.006-0.831,2.496-0.684,3.324,0.323c0.832,1.006,0.688,2.494-0.322,3.327
		c-1.006,0.828-2.494,0.681-3.322-0.325C118.325,20.068,118.468,18.578,119.476,17.749z"/>
	<path fill="#498CF5" d="M125.562,66.607c-0.371,0.513-0.945,0.871-1.621,0.956c-1.293,0.154-2.473-0.762-2.633-2.059
		c-0.012-0.104-1.371-10.922-5.25-23.558c-0.381-1.246,0.32-2.565,1.566-2.95c1.246-0.383,2.57,0.316,2.953,1.569
		c4.004,13.05,5.365,23.91,5.422,24.367C126.077,65.548,125.903,66.141,125.562,66.607z"/>
	<path fill="#F7B239" d="M130.511,82.531c-0.494,0.409-1.152,0.61-1.838,0.517c-1.291-0.187-2.188-1.388-2.002-2.679
		c1.559-10.852,5.609-31.186,15.23-45.384c0.725-1.081,2.197-1.366,3.281-0.63c1.074,0.728,1.359,2.197,0.629,3.282
		c-9.09,13.414-12.965,32.948-14.463,43.406C131.259,81.65,130.952,82.172,130.511,82.531z"/>
	<g>
		<path fill="#D74848" d="M134.167,97.619c-0.607,0.346-1.357,0.429-2.055,0.147c-1.211-0.482-1.801-1.86-1.32-3.063
			c0.279-0.693,6.967-17.069,25.076-23.29c1.234-0.42,2.578,0.235,3.004,1.47c0.428,1.234-0.232,2.576-1.467,3.006
			c-16.006,5.489-22.164,20.413-22.225,20.562C134.978,96.959,134.608,97.362,134.167,97.619z"/>
		<path fill="#D74848" d="M105.977,34.012c-0.276,0.228-0.609,0.396-0.976,0.478c-1.275,0.289-2.54-0.51-2.831-1.776
			c-1.36-5.992-4.663-14.523-12.664-21.148C88.5,10.732,88.362,9.24,89.19,8.238c0.836-1.006,2.322-1.147,3.33-0.313
			c9.021,7.471,12.732,17.03,14.257,23.739C106.982,32.561,106.644,33.462,105.977,34.012z"/>
	</g>
	<polygon display="none" fill="#2BA5F7" points="109.136,149.715 120.567,155.604 113.929,170.495 	"/>
	<polygon display="none" fill="#F7B239" points="109.136,149.715 103.998,127.425 127.687,139.637 120.567,155.604 	"/>
	<polygon display="none" fill="#2BA5F7" points="98.857,105.146 134.81,123.665 127.687,139.637 103.998,127.425 	"/>
	<polygon display="none" fill="#F7B239" points="144.931,100.955 134.81,123.665 98.857,105.146 96.818,96.307 	"/>
	<path display="none" d="M151.194,99.184l-60.189-5.811c-1.298-0.123-2.456,0.823-2.579,2.119c-0.125,1.302,0.825,2.456,2.123,2.579
		l4.35,0.424l16.727,72.53c0.229,0.987,1.062,1.73,2.076,1.823c0.638,0.062,1.256-0.135,1.73-0.53
		c0.273-0.226,0.502-0.517,0.654-0.854l6.639-14.896l0,0l23.668-53.1l4.35,0.425c0.65,0.062,1.258-0.146,1.725-0.528
		s0.793-0.951,0.855-1.601C153.448,100.468,152.497,99.312,151.194,99.184z M106.052,125.835l-3.749-16.259l29.438,15.159
		l-5.193,11.649L106.052,125.835z M124.62,140.718l-5.193,11.646l-8.236-4.253l-3.747-16.244L124.62,140.718z M112.583,154.143
		l4.916,2.539l-2.854,6.413L112.583,154.143z M133.667,120.416l-32.757-16.87l-1.053-4.569l41.58,4.012L133.667,120.416z"/>
	<path fill="#D74848" d="M150.517,67.254c-2.875,2.377-7.145,1.966-9.516-0.911c-2.369-2.878-1.957-7.144,0.918-9.52
		c2.877-2.363,7.145-1.951,9.514,0.923S153.39,64.891,150.517,67.254z M144.925,60.475c-0.861,0.716-0.988,1.997-0.273,2.857
		c0.711,0.866,1.998,0.987,2.859,0.277s0.986-1.995,0.273-2.862C147.071,59.885,145.788,59.759,144.925,60.475z"/>
</g>
</svg>
