<svg xmlns="http://www.w3.org/2000/svg" width="194.5" height="178"><path fill="#fff" d="M168.94 92.94c0 46.18-37.44 83.62-83.62 83.62-46.18 0-83.62-37.44-83.62-83.62C1.7 46.74 39.14 9.3 85.32 9.3c46.18 0 83.62 37.45 83.62 83.64z"/><path fill="#E0DDDF" d="M113.48 149.25c-2.95 0-5.34-2.4-5.34-5.36v-21.4c0-2.96 2.4-5.35 5.34-5.35h2.73c-1.36-4.34-5.4-7.5-10.2-7.5H54.64c-5.9 0-10.7 4.8-10.7 10.7v39.6h72.76v-10.7h-3.22z"/><path fill="#C1BCBF" d="M61.06 109.66h-6.42c-5.9 0-10.7 4.8-10.7 10.7v39.58h6.42v-39.6c0-5.9 4.8-10.68 10.7-10.68z"/><path fill="#fff" d="M58.92 109.66l21.4 28.9 21.4-28.9z"/><path fill="#439EE8" d="M85.67 121.43h-10.7l-1.34 4H87z"/><g fill="#498CF5"><path d="M73.63 125.43l-.8 2.4 7.48 9.65 7.5-9.64-.8-2.4zM88.88 109.66l-3.2 11.77h-10.7l-3.22-11.77z"/></g><g fill="#D74848"><path d="M129.54 149.25v5.35c0 2.95-2.4 5.34-5.35 5.34h-2.15c-2.96 0-5.35-2.4-5.35-5.34v-5.36h12.84zM116.7 105.38h12.84v11.77H116.7z"/></g><g fill="#F9C59B"><path d="M129.54 117.15c5.9 0 10.7 4.8 10.7 10.7v10.7c0 5.9-4.8 10.7-10.7 10.7 0 0-11.24 0-16.05 0-2.97 0-5.36-2.4-5.36-5.36v-21.4c0-2.96 2.4-5.35 5.35-5.35h16.04zM44.16 72.16c2.17 7.4 4 13.62 4.77 16.06-.23.02-.47.04-.7.04-4.74 0-8.57-3.84-8.57-8.56 0-3.26 1.83-6.1 4.5-7.54zM116.67 72.27c2.58 1.48 4.3 4.25 4.3 7.43 0 4.72-3.83 8.56-8.55 8.56-.16 0-.32 0-.48-.02 2.5-4.73 4.5-10.33 4.73-15.97zM111.35 69v7.5c0 17.12-13.9 31-31.03 31-17.14 0-31.03-13.88-31.03-31V69l6.4-12.84.9.3 23.72 8.26 23.7-8.25.9-.3L111.36 69z"/></g><path fill="#DDAE8E" d="M55.7 76.5V69l5.48-10.94-4.57-1.6-.9-.3L49.3 69v7.5c0 17.12 13.88 31 31.02 31 1.08 0 2.16-.04 3.2-.15-15.62-1.6-27.8-14.8-27.8-30.86z"/><path fill="#827980" d="M111.94 88.24c-.2.37-.4.73-.6 1.1V68.98l-6.4-12.84-.9.3-23.72 8.26-23.7-8.25-.9-.3L49.28 69v20.33c-.04-.06-.16-.44-.37-1.1-.75-2.45-2.6-8.7-4.77-16.07-4.7-16-10.92-37.4-10.92-37.4H80.3c20.1 0 36.4 16.3 36.4 36.38 0 .38 0 .75-.03 1.13-.24 5.64-2.22 11.24-4.73 15.97z"/><path fill="#498CF5" d="M104.66 69.13H88.08c-1.42 0-2.64.9-3.12 2.14h-9.28c-.5-1.25-1.7-2.14-3.12-2.14H55.98c-1.85 0-3.35 1.5-3.35 3.34V83.7c0 1.85 1.5 3.35 3.35 3.35h16.58c1.85 0 3.35-1.5 3.35-3.34V75.3h8.83v8.43c0 1.86 1.5 3.35 3.35 3.35h16.58c1.85 0 3.34-1.5 3.34-3.34V72.48c0-1.84-1.5-3.34-3.34-3.34zM71.9 83.03H56.63v-9.88H71.9v9.9zm32.1 0H88.74v-9.88h15.24v9.9z"/><path d="M80.31 152.15c-1.1 0-2 .9-2 2v1.3c0 1.1.9 2 2 2 1.13 0 2.03-.9 2.03-2v-1.3c0-1.1-.9-2-2.02-2zM101.72 140.82h-8.56c-1.1 0-2 .9-2 2 0 1.12.9 2 2 2h8.56c1.1 0 2-.88 2-2 0-1.1-.9-2-2-2zM87.94 93.08c.9-.67 1.07-1.93.4-2.8-.66-.9-1.92-1.08-2.8-.42-2.03 1.52-4.14 1.74-5.23 1.74-2.5 0-4.33-1.1-5.2-1.74-.88-.66-2.14-.48-2.8.4-.67.9-.5 2.14.4 2.8 1.25.96 3.92 2.55 7.6 2.55 1.6 0 4.7-.3 7.64-2.52zM65.34 75.56H63.2c-1.1 0-2 .9-2 2s.9 2 2 2h2.14c1.1 0 2-.9 2-2s-.9-2-2-2zM95.3 79.56h2.14c1.1 0 2-.9 2-2s-.9-2-2-2H95.3c-1.1 0-2 .9-2 2s.9 2 2 2zM140.24 135.74c1.1 0 2-.9 2-2v-5.9c0-6.32-4.64-11.57-10.7-12.55v-7.92h2.28c1.1 0 2-.9 2-2s-.9-2-2-2h-21.4c-1.1 0-2 .9-2 2s.9 2 2 2h2.27v3.7c-2.3-2.16-5.38-3.43-8.7-3.43H91.28c8.25-2.9 15-9 18.78-16.8 1 .86 2.46.48 3.08-.62 2.98-.2 5.8-1.7 7.62-4.06 1.92-2.47 2.6-5.67 2.02-8.73-.42-2.2-1.8-4.43-4.08-6.57 0-1.53-.1-3.08-.3-4.6-2.4-18.9-19.04-33.52-38.08-33.52H33.24c-1.4 0-2.27 1.35-1.9 2.63.1.35 9.1 31.24 10.12 34.67.12.4.24.83.36 1.24-2.88 2.2-4.46 5.78-4.12 9.37.3 3.2 2.07 6.1 4.74 7.86 1.5 1 3.26 1.58 5.06 1.7.58 1.14 2.1 1.45 3.07.63 3.78 7.8 10.54 13.88 18.78 16.8h-14.7c-7.02 0-12.72 5.7-12.72 12.7v39.58c0 1.1.9 2 2 2h72.77c.73 0 1.36-.37 1.7-.95 1.08.6 2.33.95 3.65.95h2.14c4.05 0 7.34-3.3 7.34-7.35v-3.52c4.17-.73 8.02-3.62 9.73-7.5.32-.73.7-1.5.64-2.34-.03-.72-.46-1.37-1.12-1.7-.62-.28-1.36-.23-1.94.13-.76.5-.84 1.28-1.14 2.06-.4.98-1 1.86-1.7 2.62-1.67 1.74-4.04 2.9-6.46 2.9H113.5c-1.86 0-3.36-1.5-3.36-3.36v-1.2c.05 0 .1 0 .14 0h10.7c1.1 0 2-.92 2-2.02 0-1.08-.9-2-2-2h-10.7c-.05 0-.1 0-.14 0v-3.48c.05 0 .1 0 .14 0h10.7c1.1 0 2-.9 2-2s-.9-2-2-2h-10.7c-.05 0-.1 0-.14 0v-3.5c.05 0 .1 0 .14 0h10.7c1.1 0 2-.9 2-2s-.9-2-2-2h-10.7c-.05 0-.1 0-.14 0v-1.2c0-1.85 1.5-3.34 3.35-3.34h16.04c4.8 0 8.7 3.9 8.7 8.68v5.9c0 1.1.9 2 2 2zM115.48 85.5c1.1-2.6 2.13-5.6 2.7-8.9.5.95.8 2 .8 3.1 0 2.5-1.43 4.7-3.5 5.8zM80.3 36.76c18.97 0 34.4 15.4 34.4 34.37 0 .3-.02.64-.03 1.05-.1 2.6-.62 5.1-1.32 7.43V69c0-.3-.07-.62-.2-.9l-6.43-12.84c-.34-.7-1.05-1.1-1.8-1.1-.2 0-.43.02-.65.1L80.32 62.6l-23.05-8.02-.9-.32c-.96-.33-2 .1-2.46 1L47.5 68.1c-.15.28-.2.6-.2.9v6.65c-.4-1.26-.8-2.6-1.2-4.06 0 0 0-.02 0-.02C42.4 59 37.7 42.92 35.9 36.77h44.4zM41.68 79.7c0-1.5.5-2.94 1.42-4.08 1.3 4.46 2.32 7.9 3.03 10.3-2.6-.88-4.46-3.33-4.46-6.22zm9.63-3.2v-7.03l5.42-10.84 22.94 7.98c.42.17.9.17 1.32 0l22.94-7.97 5.42 10.84v7.02c0 16-13.02 29-29.02 29s-29.02-13-29.02-29zm76.23 30.88v7.76h-8.83v-7.76h8.83zm-47.22 27.8l-5.38-7.3 1.5-4.45h7.8l1.5 4.46-5.4 7.27zm5.95-23.52l-2.1 7.76H76.5l-2.1-7.76h11.85zm-16.02 0l2.64 9.7-.86 2.6-9.1-12.3h7.33zm18.4 12.3l-.87-2.6 2.65-9.7h7.34l-9.1 12.3zm35.56 33.98h-2.15c-1.85 0-3.35-1.5-3.35-3.34v-3.35h8.83v3.35c0 1.84-1.5 3.34-3.34 3.34zm-18.07-35.44v21.4c0 4.05 3.3 7.36 7.36 7.36h1.2v6.68H45.93v-37.6c0-4.77 3.9-8.68 8.7-8.68h3.27l20.4 27.54v9c0 1.12.9 2 2.02 2 1.1 0 2-.88 2-2v-9l20.4-27.54H106c2.82 0 5.37 1.34 6.97 3.5-3.8.26-6.84 3.46-6.84 7.34z"/><path fill="#498CF5" d="M160.77 46.14c-1 .83-2.5.7-3.33-.32l-1.76-2.14c-.83-1-.7-2.5.32-3.33 1-.83 2.5-.68 3.32.33l1.77 2.14c.82 1 .68 2.5-.33 3.32zM169.8 57.1c-1 .82-2.5.68-3.33-.33l-1.76-2.13c-.82-1-.68-2.5.33-3.33 1-.82 2.5-.68 3.32.33l1.76 2.14c.85 1 .7 2.5-.3 3.33zM170.95 45.15l-2.14 1.77c-1 .82-2.5.68-3.32-.32-.83-1-.68-2.5.33-3.33l2.14-1.76c1-.82 2.5-.68 3.33.33.83 1 .7 2.5-.32 3.32zM160 54.18l-2.15 1.76c-1 .83-2.5.7-3.33-.3-.83-1.02-.68-2.52.33-3.34l2.14-1.76c1-.83 2.5-.7 3.32.3.82 1.02.68 2.5-.32 3.34zM128.56 30.46c-1 .84-2.5.7-3.32-.32l-1.36-1.64c-.83-1-.68-2.5.32-3.33 1-.83 2.5-.7 3.33.32l1.36 1.64c.82 1 .67 2.5-.34 3.32zM135.5 38.9c-1 .83-2.5.68-3.3-.32l-1.37-1.65c-.83-1-.7-2.5.32-3.33 1-.82 2.5-.7 3.32.32l1.36 1.65c.83 1 .7 2.5-.32 3.33zM136.4 29.7l-1.65 1.37c-1 .83-2.5.68-3.32-.33-.83-1-.7-2.5.32-3.32l1.65-1.36c1-.83 2.5-.7 3.32.32.83 1 .7 2.5-.32 3.32zM127.97 36.65L126.32 38c-1 .84-2.5.7-3.33-.3-.83-1.02-.7-2.5.32-3.34l1.64-1.35c1-.82 2.5-.68 3.33.32.82 1 .67 2.5-.33 3.33z"/><path fill="#F7B239" d="M182.7 33.13c-.54 1.2-1.93 1.73-3.12 1.2l-1.96-.85c-1.2-.53-1.73-1.93-1.2-3.12.52-1.2 1.9-1.73 3.1-1.2l1.96.86c1.2.52 1.74 1.9 1.2 3.1zM192.7 37.53c-.54 1.2-1.93 1.74-3.13 1.22l-1.95-.87c-1.2-.52-1.74-1.92-1.2-3.1.5-1.2 1.9-1.75 3.1-1.22l1.96.86c1.2.53 1.73 1.92 1.2 3.1zM189.35 28.92l-.87 1.96c-.52 1.2-1.92 1.73-3.1 1.2-1.2-.52-1.74-1.92-1.22-3.1l.86-1.96c.53-1.2 1.92-1.74 3.12-1.2 1.2.52 1.73 1.9 1.2 3.1zM184.94 38.92l-.86 1.96c-.53 1.2-1.92 1.73-3.12 1.2s-1.73-1.9-1.2-3.1l.85-1.97c.54-1.17 1.93-1.72 3.13-1.2 1.2.54 1.73 1.93 1.2 3.13z"/><path fill="#D74848" d="M161.48 15.47c-1 .83-2.5.68-3.33-.33l-1.36-1.64c-.84-1-.7-2.5.3-3.33 1.02-.83 2.5-.7 3.33.32l1.36 1.64c.82 1 .68 2.5-.32 3.33zM168.42 23.9c-1 .83-2.5.68-3.32-.32l-1.36-1.65c-.84-1-.7-2.5.32-3.33 1-.82 2.5-.68 3.33.33l1.34 1.65c.83 1 .7 2.5-.32 3.32zM169.3 14.7l-1.64 1.37c-1 .83-2.5.68-3.32-.33-.83-1-.7-2.5.3-3.32l1.66-1.36c1-.83 2.5-.7 3.33.32.83 1 .7 2.5-.32 3.32zM160.88 21.65L159.23 23c-1 .84-2.5.7-3.33-.3-.83-1.02-.68-2.5.32-3.34l1.65-1.35c1-.82 2.5-.68 3.32.33.82 1 .68 2.5-.32 3.32z"/><path fill="#498CF5" d="M140.73 18.03c-2.88 2.37-7.14 1.96-9.5-.9-2.38-2.9-1.97-7.16.9-9.53 2.88-2.37 7.15-1.95 9.52.92 2.37 2.88 1.95 7.15-.92 9.5zm-5.6-6.78c-.85.7-.98 2-.26 2.86.7.87 2 1 2.86.3.86-.73.98-2 .27-2.88s-2-.98-2.86-.27z"/><path fill="#F7B239" d="M152.57 64.65c-1.57 3.38-5.6 4.86-8.97 3.3-3.38-1.58-4.86-5.6-3.3-8.98 1.57-3.38 5.6-4.86 8.98-3.3 3.38 1.57 4.86 5.6 3.3 8.98zm-7.97-3.7c-.47 1.02-.03 2.24 1 2.7 1 .48 2.22.03 2.7-.98.46-1.02 0-2.23-1-2.7-1.02-.47-2.23-.03-2.7 1zM115.4 12.4c-1.58 3.38-5.6 4.86-8.98 3.3s-4.86-5.6-3.3-8.98c1.57-3.38 5.6-4.86 8.98-3.3 3.38 1.57 4.86 5.6 3.3 8.98zm-8-3.7c-.46 1.02 0 2.23 1 2.7 1.02.47 2.23.03 2.7-1 .47-1 .03-2.2-1-2.68-1-.48-2.22-.03-2.7.98zM147.43 28.5c1-.83 2.5-.7 3.32.32.83 1 .7 2.5-.32 3.33-1 .82-2.5.68-3.32-.32-.82-1-.68-2.5.33-3.33z"/><path fill="#D74848" d="M83.4 3.32c1-.83 2.5-.7 3.33.32.83 1 .7 2.5-.32 3.33-1 .82-2.5.68-3.3-.33-.84-1-.7-2.5.3-3.32zM162.66 69.47c1-.83 2.5-.7 3.33.32.82 1 .68 2.48-.33 3.3-1 .84-2.5.7-3.32-.3-.84-1.02-.7-2.5.3-3.33z"/><path fill="#498CF5" d="M176.07 17.75c1-.83 2.5-.68 3.32.32.82 1 .68 2.5-.33 3.33-1 .83-2.5.68-3.33-.33-.83-1-.68-2.5.33-3.32zM113.38 32.13c1-.83 2.5-.7 3.32.3s.7 2.5-.32 3.34c-1 .83-2.5.7-3.32-.32-.83-1-.7-2.5.32-3.32z"/><path fill="#F7B239" d="M119.48 17.75c1-.83 2.5-.7 3.32.32.83 1 .7 2.5-.32 3.33-1 .83-2.5.68-3.32-.33-.83-1-.7-2.5.32-3.32z"/><path fill="#498CF5" d="M125.56 66.6c-.37.52-.94.88-1.62.96-1.3.16-2.47-.76-2.63-2.06 0-.1-1.36-10.92-5.24-23.55-.38-1.25.32-2.57 1.56-2.95 1.25-.4 2.57.3 2.96 1.57 4 13.05 5.36 23.9 5.42 24.36.08.62-.1 1.2-.44 1.68z"/><path fill="#F7B239" d="M130.5 82.53c-.48.4-1.14.6-1.83.52-1.3-.2-2.18-1.4-2-2.68 1.56-10.85 5.6-31.2 15.23-45.4.73-1.07 2.2-1.35 3.28-.6 1.08.7 1.36 2.18.63 3.27-9.08 13.4-12.95 32.95-14.45 43.4-.1.6-.4 1.13-.84 1.5z"/><g fill="#D74848"><path d="M134.17 97.62c-.6.34-1.36.43-2.06.15-1.2-.5-1.8-1.86-1.3-3.07.27-.7 6.96-17.07 25.07-23.3 1.23-.4 2.58.25 3 1.48.43 1.24-.23 2.58-1.47 3-16 5.5-22.16 20.42-22.22 20.57-.2.5-.57.9-1 1.17zM105.98 34c-.28.24-.6.4-.98.5-1.27.28-2.54-.52-2.83-1.8-1.36-5.98-4.66-14.5-12.66-21.13-1-.84-1.14-2.33-.3-3.33.83-1 2.3-1.15 3.32-.32 9.02 7.48 12.73 17.04 14.26 23.74.2.9-.14 1.8-.8 2.35z"/></g><path fill="#D74848" d="M150.52 67.25c-2.88 2.38-7.15 1.97-9.52-.9-2.37-2.88-1.96-7.15.92-9.53 2.88-2.36 7.14-1.95 9.5.93s1.97 7.14-.9 9.5zm-5.6-6.77c-.86.7-.98 2-.27 2.85.7.87 2 1 2.86.28s1-2 .28-2.85c-.7-.87-2-1-2.85-.27z"/></svg>