<svg xmlns="http://www.w3.org/2000/svg" width="194.5" height="178"><g><g fill="#FF675C"><path d="M177.77 79.05H18.53c-1.5 0-2.7 1.2-2.7 2.7v11.92c0 1.5 1.2 2.7 2.7 2.7h3.7c2.48 16.2 10.05 31.1 21.9 42.8 5.54 5.5 11.78 10.03 18.5 13.54h-.6v18.8h72.23v-18.8h-.6c6.73-3.5 12.97-8.04 18.52-13.52 11.84-11.72 19.4-26.62 21.9-42.8h3.7c1.5 0 2.7-1.2 2.7-2.7V81.75c0-1.5-1.2-2.7-2.7-2.7zM62.04 152.7h72.22v18.8H62.04z"/></g><g fill="#DB3D5A"><path d="M98.15 161.38c-12.56 0-24.68-3-35.52-8.67h-.6V165h72.23v-12.3h-.6c-10.83 5.68-22.95 8.68-35.5 8.68zM174.08 96.38H22.22c.15.97.32 1.94.5 2.9 2.92 15.06 10.27 28.9 21.4 39.9 14.48 14.3 33.67 22.2 54.03 22.2 2.48 0 4.95-.12 7.4-.35-17.6-1.67-33.93-9.28-46.65-21.86-10.4-10.3-17.52-23.08-20.78-37h134.84c.45-1.92.82-3.84 1.12-5.8zM105.3 130.4c-1.83-1.83-4.36-2.96-7.15-2.96s-5.32 1.13-7.15 2.96-2.96 4.35-2.96 7.15c0 5.58 4.53 10.1 10.1 10.1s10.12-4.52 10.12-10.1c0-2.8-1.13-5.32-2.96-7.15zM82.2 121.6c1.82-1.84 2.95-4.37 2.95-7.16 0-5.6-4.53-10.1-10.1-10.1-5.6 0-10.12 4.5-10.12 10.1s4.52 10.1 10.1 10.1c2.8 0 5.33-1.13 7.16-2.95M114.1 121.6c1.84 1.82 4.37 2.95 7.16 2.95 5.6 0 10.1-4.53 10.1-10.1s-4.52-10.12-10.1-10.12-10.1 4.52-10.1 10.1c0 2.8 1.12 5.33 2.95 7.16"/></g><path fill="#E0DDDF" d="M168.88 45.04l-6.13-6.13c-2.82-2.8-7.4-2.8-10.22 0l-42.4 42.44h32.67l26.08-26.1c2.82-2.8 2.82-7.38 0-10.2z"/><path fill="#C1BCBF" d="M169.75 46.1L134.5 81.32h8.3l26.08-26.08c2.5-2.5 2.77-6.35.87-9.16z"/><path fill="#5CC4E0" d="M111.87 32.83c6.38 0 11.56 5.17 11.56 11.55s-5.18 11.56-11.56 11.56-11.55-5.18-11.55-11.56 5.17-11.55 11.55-11.55z"/><path fill="#439EE8" d="M117.65 50.16c-6.38 0-11.56-5.17-11.56-11.56 0-1.7.36-3.3 1.02-4.75-4 1.8-6.8 5.85-6.8 10.53 0 6.38 5.17 11.56 11.55 11.56 4.7 0 8.72-2.8 10.53-6.8-1.45.65-3.06 1.02-4.75 1.02z"/><path fill="#5CC4E0" d="M72.87 6.83c6.38 0 11.56 5.17 11.56 11.55 0 6.38-5.18 11.56-11.56 11.56s-11.55-5.18-11.55-11.56c0-6.38 5.17-11.55 11.55-11.55z"/><path fill="#439EE8" d="M78.65 24.16C72.27 24.16 67.1 19 67.1 12.6c0-1.7.36-3.3 1.02-4.75-4 1.8-6.8 5.85-6.8 10.53 0 6.38 5.17 11.56 11.55 11.56 4.7 0 8.72-2.8 10.53-6.8-1.45.65-3.05 1.02-4.75 1.02z"/><path fill="#5CC4E0" d="M33.87 34.27c6.4 0 11.56 5.17 11.56 11.56 0 6.38-5.17 11.55-11.56 11.55-6.38 0-11.55-5.17-11.55-11.55 0-6.38 5.17-11.56 11.55-11.56z"/><path fill="#439EE8" d="M39.65 51.6c-6.38 0-11.55-5.17-11.55-11.55 0-1.7.36-3.3 1.02-4.75-4 1.8-6.8 5.84-6.8 10.53 0 6.38 5.17 11.55 11.55 11.55 4.7 0 8.72-2.8 10.54-6.8-1.45.66-3.05 1.02-4.75 1.02z"/><path d="M111.87 58.65c7.87 0 14.27-6.4 14.27-14.27s-6.4-14.26-14.27-14.26c-7.86 0-14.26 6.4-14.26 14.26s6.4 14.27 14.27 14.27zm0-23.12c4.88 0 8.85 3.97 8.85 8.85 0 4.88-3.97 8.85-8.85 8.85-4.88 0-8.85-3.97-8.85-8.85 0-4.88 3.97-8.85 8.85-8.85zM72.87 32.65c7.87 0 14.27-6.4 14.27-14.27 0-7.86-6.4-14.26-14.27-14.26S58.6 10.52 58.6 18.38c0 7.87 6.4 14.27 14.27 14.27zm0-23.1c4.88 0 8.85 3.96 8.85 8.83 0 4.88-3.97 8.85-8.85 8.85-4.88 0-8.84-3.97-8.84-8.85 0-4.87 3.97-8.84 8.84-8.84zM33.87 60.1c7.87 0 14.27-6.4 14.27-14.27 0-7.87-6.4-14.27-14.27-14.27-7.86 0-14.26 6.4-14.26 14.27S26 60.1 33.88 60.1zm0-23.12c4.88 0 8.85 3.97 8.85 8.85 0 4.87-3.97 8.84-8.85 8.84-4.87 0-8.84-3.97-8.84-8.84 0-4.88 3.97-8.85 8.84-8.85zM75.04 127.26c2.5 0 4.9-.72 6.94-2.05l5.4 5.4c-1.33 2.05-2.05 4.44-2.05 6.95 0 7.07 5.75 12.82 12.82 12.82s12.82-5.75 12.82-12.82c0-2.5-.72-4.9-2.04-6.95l5.38-5.4c2.07 1.34 4.46 2.06 6.96 2.06 7.07 0 12.82-5.76 12.82-12.82s-5.75-12.82-12.82-12.82-12.82 5.75-12.82 12.82c0 2.5.72 4.9 2.04 6.94l-5.4 5.4c-2.04-1.34-4.43-2.05-6.93-2.05s-4.9.7-6.95 2.04l-5.38-5.4c1.32-2.04 2.04-4.43 2.04-6.93 0-7.07-5.75-12.82-12.82-12.82s-12.82 5.75-12.82 12.82 5.75 12.82 12.82 12.82zm46.22-20.23c4.08 0 7.4 3.32 7.4 7.4s-3.32 7.4-7.4 7.4c-1.98 0-3.84-.76-5.23-2.16-1.4-1.4-2.17-3.26-2.17-5.23 0-4.1 3.32-7.4 7.4-7.4zm-17.88 25.28c1.4 1.4 2.17 3.27 2.17 5.25 0 4.08-3.32 7.4-7.4 7.4s-7.4-3.32-7.4-7.4c0-1.98.77-3.84 2.17-5.24 1.4-1.38 3.25-2.15 5.23-2.15s3.84.76 5.23 2.16zm-28.34-25.27c4.08 0 7.4 3.32 7.4 7.4 0 1.98-.77 3.84-2.17 5.24-1.4 1.4-3.25 2.17-5.23 2.17-4.08 0-7.4-3.32-7.4-7.4s3.32-7.4 7.4-7.4zM130.18 73.74c.53.53 1.22.8 1.9.8.7 0 1.4-.27 1.93-.8l1.9-1.88c1.05-1.06 1.05-2.77 0-3.83-1.07-1.06-2.78-1.06-3.84 0l-1.88 1.88c-1.06 1.07-1.06 2.78 0 3.84zM139.06 67.57c.7 0 1.38-.26 1.9-.8l14.72-14.7c1.05-1.05 1.05-2.77 0-3.83s-2.78-1.05-3.83 0l-14.7 14.7c-1.07 1.07-1.07 2.78 0 3.84.52.53 1.2.8 1.9.8zM177.77 76.34H151.6l19.2-19.18c1.87-1.87 2.9-4.37 2.9-7.02s-1.03-5.14-2.9-7.02L164.65 37c-3.87-3.88-10.17-3.88-14.04 0l-39.35 39.34h-43.8c-1.5 0-2.72 1.2-2.72 2.7 0 1.5 1.2 2.72 2.7 2.72h110.32v11.9H18.53v-11.9h36.3c1.48 0 2.7-1.22 2.7-2.7 0-1.5-1.22-2.72-2.7-2.72h-36.3c-3 0-5.42 2.43-5.42 5.42v11.9c0 3 2.44 5.43 5.43 5.43h1.4c2.94 15.97 10.6 30.45 22.3 42 5.16 5.12 10.92 9.44 17.1 12.9v17.5c0 1.5 1.2 2.7 2.7 2.7h72.23c1.5 0 2.7-1.2 2.7-2.7V154c6.2-3.46 11.95-7.78 17.13-12.9 11.66-11.55 19.33-26.03 22.27-42h1.4c3 0 5.42-2.44 5.42-5.43v-11.9c0-3-2.44-5.43-5.43-5.43zm-23.32-35.52c1.76-1.76 4.62-1.76 6.38 0l6.13 6.13c.85.85 1.32 2 1.32 3.2 0 1.2-.47 2.33-1.32 3.18l-23 23h-25.03l35.52-35.5zm-22.9 127.96h-66.8v-12c10.34 4.78 21.68 7.3 33.4 7.3s23.06-2.52 33.4-7.3v12zm18.73-31.53c-13.97 13.8-32.48 21.42-52.13 21.42s-38.16-7.6-52.13-21.42c-10.64-10.53-17.7-23.67-20.58-38.16h145.42c-2.87 14.48-9.94 27.62-20.58 38.15z"/></g></svg>