<?xml version="1.0" encoding="utf-8"?>
<!-- Generator: Adobe Illustrator 16.0.0, SVG Export Plug-In . SVG Version: 6.00 Build 0)  -->
<!DOCTYPE svg PUBLIC "-//W3C//DTD SVG 1.1//EN" "http://www.w3.org/Graphics/SVG/1.1/DTD/svg11.dtd">
<svg version="1.1" xmlns="http://www.w3.org/2000/svg" xmlns:xlink="http://www.w3.org/1999/xlink" x="0px" y="0px" width="194.5px"
	 height="178px" viewBox="0 0 194.5 178" enable-background="new 0 0 194.5 178" xml:space="preserve">
<g id="Capa_2" display="none">
	<rect x="-14.25" y="-12.5" display="inline" fill="#BA1111" stroke="#000000" stroke-miterlimit="10" width="230" height="204"/>
</g>
<g id="Capa_1" display="none">
	<path display="inline" fill="#FFFFFF" d="M168.939,92.939c0,46.181-37.439,83.621-83.62,83.621c-46.18,0-83.62-37.44-83.62-83.621
		C1.7,46.74,39.14,9.3,85.32,9.3C131.5,9.3,168.939,46.75,168.939,92.939z"/>
	<path display="inline" fill="#E0DDDF" d="M113.48,149.25c-2.951,0-5.34-2.4-5.34-5.359v-21.4c0-2.961,2.399-5.35,5.34-5.35h2.729
		c-1.36-4.341-5.399-7.5-10.2-7.5H54.64c-5.9,0-10.7,4.799-10.7,10.699v39.6h72.76V149.24h-3.22V149.25z"/>
	<path display="inline" fill="#C1BCBF" d="M61.06,109.66h-6.42c-5.9,0-10.7,4.8-10.7,10.699v39.58h6.42v-39.6
		C50.36,114.439,55.16,109.66,61.06,109.66z"/>
	<path display="inline" fill="#FFFFFF" d="M58.92,109.66l21.4,28.9l21.401-28.9H58.92z"/>
	<path display="inline" fill="#439EE8" d="M85.67,121.43h-10.7l-1.34,4H87L85.67,121.43z"/>
	<g display="inline">
		<path fill="#498CF5" d="M73.63,125.43l-0.8,2.4l7.48,9.65l7.5-9.641l-0.8-2.4L73.63,125.43z M88.88,109.66l-3.2,11.77h-10.7
			l-3.22-11.77H88.88z"/>
	</g>
	<g display="inline">
		<path fill="#D74848" d="M129.54,149.25v5.35c0,2.95-2.399,5.34-5.351,5.34h-2.149c-2.96,0-5.351-2.399-5.351-5.34v-5.359h12.84
			L129.54,149.25z M116.7,105.38h12.84v11.771H116.7V105.38z"/>
	</g>
	<g display="inline">
		<path fill="#F9C59B" d="M129.54,117.15c5.899,0,10.7,4.8,10.7,10.699v10.7c0,5.9-4.801,10.7-10.7,10.7c0,0-11.24,0-16.05,0
			c-2.971,0-5.36-2.4-5.36-5.359v-21.4c0-2.961,2.399-5.35,5.351-5.35h16.039L129.54,117.15z M44.16,72.16
			c2.17,7.4,4,13.62,4.77,16.06c-0.23,0.02-0.47,0.04-0.7,0.04c-4.74,0-8.57-3.84-8.57-8.56C39.66,76.44,41.49,73.6,44.16,72.16z
			 M116.67,72.27c2.58,1.48,4.301,4.25,4.301,7.43c0,4.72-3.83,8.56-8.551,8.56c-0.16,0-0.32,0-0.48-0.02
			C114.439,83.51,116.439,77.91,116.67,72.27z M111.35,69v7.5c0,17.12-13.899,31-31.03,31c-17.14,0-31.03-13.88-31.03-31V69
			l6.4-12.84l0.9,0.3l23.72,8.26l23.7-8.25l0.9-0.3L111.359,69H111.35z"/>
	</g>
	<path display="inline" fill="#DDAE8E" d="M55.7,76.5V69l5.48-10.94l-4.57-1.6l-0.9-0.3L49.3,69v7.5c0,17.12,13.88,31,31.02,31
		c1.08,0,2.16-0.04,3.2-0.15c-15.62-1.6-27.8-14.8-27.8-30.859L55.7,76.5z"/>
	<path display="inline" fill="#827980" d="M111.939,88.24c-0.199,0.37-0.399,0.73-0.6,1.1V68.98l-6.4-12.84l-0.899,0.3L80.32,64.7
		l-23.7-8.25l-0.9-0.3L49.28,69v20.33c-0.04-0.06-0.16-0.44-0.37-1.1c-0.75-2.45-2.6-8.7-4.77-16.07c-4.7-16-10.92-37.4-10.92-37.4
		H80.3c20.101,0,36.4,16.3,36.4,36.38c0,0.38,0,0.75-0.03,1.13C116.43,77.91,114.45,83.51,111.939,88.24z"/>
	<path display="inline" fill="#498CF5" d="M104.66,69.13H88.08c-1.42,0-2.64,0.9-3.12,2.14h-9.28c-0.5-1.25-1.7-2.14-3.12-2.14
		H55.98c-1.85,0-3.35,1.5-3.35,3.34V83.7c0,1.85,1.5,3.35,3.35,3.35h16.58c1.85,0,3.35-1.5,3.35-3.34V75.3h8.83v8.43
		c0,1.86,1.5,3.35,3.35,3.35h16.58c1.85,0,3.34-1.5,3.34-3.34V72.48c0-1.84-1.5-3.34-3.34-3.34L104.66,69.13z M71.9,83.03H56.63
		v-9.88H71.9v9.9V83.03z M104,83.03H88.74v-9.88h15.24v9.9L104,83.03z"/>
	<path display="inline" d="M80.31,152.15c-1.1,0-2,0.899-2,2v1.3c0,1.1,0.9,2,2,2c1.13,0,2.03-0.9,2.03-2v-1.3c0-1.101-0.9-2-2.02-2
		H80.31z M101.721,140.82H93.16c-1.1,0-2,0.9-2,2c0,1.119,0.9,2,2,2h8.561c1.1,0,2-0.881,2-2
		C103.721,141.721,102.82,140.82,101.721,140.82z M87.94,93.08c0.9-0.67,1.07-1.93,0.4-2.801c-0.66-0.899-1.92-1.079-2.8-0.42
		c-2.03,1.521-4.14,1.74-5.23,1.74c-2.5,0-4.33-1.1-5.2-1.74c-0.88-0.659-2.14-0.479-2.8,0.4c-0.67,0.9-0.5,2.141,0.4,2.801
		c1.25,0.959,3.92,2.549,7.6,2.549c1.6,0,4.7-0.299,7.64-2.52L87.94,93.08z M65.34,75.56H63.2c-1.1,0-2,0.9-2,2s0.9,2,2,2h2.14
		c1.1,0,2-0.9,2-2S66.44,75.56,65.34,75.56z M95.3,79.56h2.14c1.1,0,2-0.9,2-2s-0.899-2-2-2H95.3c-1.1,0-2,0.9-2,2
		S94.2,79.56,95.3,79.56z M140.24,135.74c1.1,0,2-0.9,2-2v-5.9c0-6.32-4.641-11.57-10.7-12.55v-7.92h2.28c1.1,0,2-0.899,2-2
		s-0.9-2-2-2h-21.4c-1.1,0-2,0.899-2,2s0.9,2,2,2h2.27v3.7c-2.299-2.16-5.379-3.43-8.699-3.43H91.28c8.25-2.9,15-9,18.781-16.801
		c1,0.86,2.459,0.48,3.08-0.619c2.979-0.201,5.799-1.701,7.619-4.061c1.92-2.47,2.6-5.67,2.02-8.73c-0.42-2.2-1.799-4.43-4.079-6.57
		c0-1.53-0.101-3.08-0.3-4.6C116,47.36,99.359,32.74,80.32,32.74H33.24c-1.4,0-2.27,1.35-1.9,2.63c0.1,0.35,9.1,31.24,10.12,34.67
		c0.12,0.4,0.24,0.83,0.36,1.24c-2.88,2.2-4.46,5.78-4.12,9.37c0.3,3.2,2.07,6.1,4.74,7.86c1.5,1,3.26,1.58,5.06,1.7
		c0.58,1.14,2.1,1.45,3.07,0.63c3.78,7.801,10.54,13.88,18.78,16.801h-14.7c-7.02,0-12.72,5.699-12.72,12.699v39.58c0,1.1,0.9,2,2,2
		h72.77c0.729,0,1.36-0.37,1.7-0.95c1.08,0.601,2.33,0.95,3.649,0.95h2.14c4.051,0,7.34-3.3,7.34-7.35v-3.521
		c4.171-0.729,8.021-3.62,9.73-7.5c0.32-0.729,0.7-1.5,0.641-2.34c-0.03-0.72-0.461-1.37-1.121-1.7
		c-0.619-0.279-1.359-0.23-1.939,0.131c-0.76,0.5-0.84,1.279-1.14,2.06c-0.4,0.979-1,1.86-1.7,2.62
		c-1.67,1.74-4.04,2.899-6.46,2.899H113.5c-1.859,0-3.359-1.5-3.359-3.36v-1.199c0.049,0,0.1,0,0.139,0h10.701c1.1,0,2-0.92,2-2.02
		c0-1.08-0.9-2-2-2h-10.701c-0.049,0-0.1,0-0.139,0v-3.48c0.049,0,0.1,0,0.139,0h10.701c1.1,0,2-0.9,2-2s-0.9-2-2-2h-10.701
		c-0.049,0-0.1,0-0.139,0v-3.5c0.049,0,0.1,0,0.139,0h10.701c1.1,0,2-0.9,2-2s-0.9-2-2-2h-10.701c-0.049,0-0.1,0-0.139,0v-1.2
		c0-1.851,1.5-3.34,3.35-3.34h16.039c4.801,0,8.701,3.899,8.701,8.68v5.9c0,1.1,0.899,2,2,2L140.24,135.74z M115.48,85.5
		c1.1-2.6,2.129-5.6,2.699-8.9c0.5,0.95,0.801,2,0.801,3.1C118.98,82.2,117.55,84.4,115.48,85.5z M80.3,36.76
		c18.97,0,34.4,15.4,34.4,34.37c0,0.3-0.021,0.64-0.03,1.05c-0.1,2.6-0.62,5.1-1.32,7.43V69c0-0.3-0.07-0.62-0.199-0.9l-6.43-12.84
		c-0.341-0.7-1.051-1.1-1.801-1.1c-0.199,0-0.43,0.02-0.65,0.1L80.32,62.6l-23.05-8.02l-0.9-0.32c-0.96-0.33-2,0.1-2.46,1L47.5,68.1
		c-0.15,0.28-0.2,0.6-0.2,0.9v6.65c-0.4-1.26-0.8-2.6-1.2-4.06v-0.02C42.4,59,37.7,42.92,35.9,36.77h44.4V36.76z M41.68,79.7
		c0-1.5,0.5-2.94,1.42-4.08c1.3,4.46,2.32,7.9,3.03,10.3c-2.6-0.88-4.46-3.33-4.46-6.22H41.68z M51.31,76.5v-7.03l5.42-10.84
		l22.94,7.98c0.42,0.17,0.9,0.17,1.32,0l22.939-7.97l5.42,10.84v7.02c0,16-13.02,29-29.02,29S51.31,92.5,51.31,76.5z M127.54,107.38
		v7.761h-8.83v-7.761H127.54z M80.32,135.18l-5.38-7.3l1.5-4.45h7.8l1.5,4.461l-5.4,7.27L80.32,135.18z M86.27,111.66l-2.1,7.76
		H76.5l-2.1-7.76h11.85H86.27z M70.25,111.66l2.64,9.699l-0.86,2.601l-9.1-12.3h7.33H70.25z M88.65,123.96l-0.87-2.601l2.65-9.699
		h7.339l-9.1,12.3H88.65z M124.21,157.939h-2.149c-1.851,0-3.351-1.5-3.351-3.34v-3.35h8.83v3.35c0,1.84-1.5,3.34-3.34,3.34H124.21z
		 M106.141,122.5v21.4c0,4.05,3.299,7.359,7.359,7.359h1.2v6.68H45.93v-37.6c0-4.77,3.9-8.68,8.7-8.68h3.27l20.4,27.54v9
		c0,1.12,0.9,2,2.02,2c1.1,0,2-0.88,2-2v-9l20.401-27.54H106c2.82,0,5.37,1.34,6.971,3.5c-3.801,0.26-6.841,3.46-6.841,7.34H106.141
		z"/>
	<path display="inline" fill="#498CF5" d="M160.77,46.14c-1,0.83-2.5,0.7-3.33-0.32l-1.76-2.14c-0.83-1-0.699-2.5,0.32-3.33
		c1-0.83,2.5-0.68,3.32,0.33l1.77,2.14c0.82,1,0.68,2.5-0.33,3.32H160.77z M169.8,57.1c-1,0.82-2.5,0.68-3.329-0.33l-1.761-2.13
		c-0.819-1-0.681-2.5,0.33-3.33c1-0.82,2.5-0.68,3.319,0.33l1.761,2.14c0.851,1,0.7,2.5-0.3,3.33L169.8,57.1z M170.95,45.15
		l-2.14,1.77c-1,0.82-2.5,0.68-3.32-0.32c-0.83-1-0.68-2.5,0.33-3.33l2.14-1.76c1-0.82,2.5-0.68,3.33,0.33
		c0.83,1,0.7,2.5-0.319,3.32L170.95,45.15z M160,54.18l-2.15,1.76c-1,0.83-2.5,0.7-3.33-0.3c-0.83-1.02-0.68-2.52,0.33-3.34
		l2.141-1.76c1-0.83,2.5-0.7,3.32,0.3c0.819,1.02,0.68,2.5-0.32,3.34H160z M128.561,30.46c-1,0.84-2.5,0.7-3.32-0.32l-1.36-1.64
		c-0.83-1-0.68-2.5,0.32-3.33s2.5-0.7,3.329,0.32l1.361,1.64c0.819,1,0.67,2.5-0.341,3.32L128.561,30.46z M135.5,38.9
		c-1,0.83-2.5,0.68-3.3-0.32l-1.37-1.65c-0.83-1-0.7-2.5,0.32-3.33c1-0.82,2.5-0.7,3.32,0.32l1.359,1.65c0.83,1,0.699,2.5-0.32,3.33
		H135.5z M136.4,29.7l-1.65,1.37c-1,0.83-2.5,0.68-3.32-0.33c-0.83-1-0.699-2.5,0.32-3.32l1.65-1.36c1-0.83,2.5-0.7,3.32,0.32
		C137.55,27.38,137.42,28.88,136.4,29.7z M127.971,36.65L126.32,38c-1,0.84-2.5,0.7-3.33-0.3c-0.83-1.02-0.7-2.5,0.32-3.34
		l1.64-1.35c1-0.82,2.5-0.68,3.329,0.32c0.82,1,0.671,2.5-0.329,3.33L127.971,36.65z"/>
	<path display="inline" fill="#F7B239" d="M182.7,33.13c-0.54,1.2-1.931,1.73-3.12,1.2l-1.96-0.85c-1.2-0.53-1.729-1.93-1.2-3.12
		c0.52-1.2,1.9-1.73,3.1-1.2l1.961,0.86c1.199,0.52,1.74,1.9,1.199,3.1L182.7,33.13z M192.7,37.53c-0.54,1.2-1.931,1.74-3.13,1.22
		l-1.95-0.87c-1.2-0.52-1.74-1.92-1.2-3.1c0.5-1.2,1.9-1.75,3.1-1.22l1.961,0.86c1.199,0.53,1.729,1.92,1.199,3.1L192.7,37.53z
		 M189.35,28.92l-0.869,1.96c-0.521,1.2-1.92,1.73-3.101,1.2c-1.2-0.52-1.739-1.92-1.22-3.1l0.859-1.96
		c0.53-1.2,1.92-1.74,3.121-1.2c1.199,0.52,1.729,1.9,1.199,3.1H189.35z M184.939,38.92l-0.859,1.96c-0.53,1.2-1.92,1.73-3.12,1.2
		c-1.2-0.53-1.729-1.9-1.2-3.1l0.85-1.97c0.541-1.17,1.931-1.72,3.131-1.2c1.199,0.54,1.73,1.93,1.199,3.13V38.92z"/>
	<path display="inline" fill="#D74848" d="M161.48,15.47c-1,0.83-2.5,0.68-3.33-0.33l-1.36-1.64c-0.84-1-0.7-2.5,0.3-3.33
		c1.02-0.83,2.5-0.7,3.33,0.32l1.359,1.64c0.82,1,0.681,2.5-0.319,3.33L161.48,15.47z M168.42,23.9c-1,0.83-2.5,0.68-3.32-0.32
		l-1.359-1.65c-0.84-1-0.7-2.5,0.32-3.33c1-0.82,2.5-0.68,3.33,0.33l1.34,1.65c0.83,1,0.699,2.5-0.32,3.32H168.42z M169.3,14.7
		l-1.64,1.37c-1,0.83-2.5,0.68-3.32-0.33c-0.83-1-0.699-2.5,0.301-3.32l1.659-1.36c1-0.83,2.5-0.7,3.33,0.32
		c0.83,1,0.7,2.5-0.319,3.32H169.3z M160.88,21.65L159.23,23c-1,0.84-2.5,0.7-3.33-0.3c-0.83-1.02-0.68-2.5,0.32-3.34l1.649-1.35
		c1-0.82,2.5-0.68,3.319,0.33c0.82,1,0.681,2.5-0.319,3.32L160.88,21.65z"/>
	<path display="inline" fill="#498CF5" d="M140.73,18.03c-2.881,2.37-7.141,1.96-9.5-0.9c-2.381-2.9-1.971-7.16,0.899-9.53
		c2.88-2.37,7.149-1.95,9.521,0.92c2.369,2.88,1.949,7.15-0.92,9.5V18.03z M135.13,11.25c-0.851,0.7-0.979,2-0.26,2.86
		c0.7,0.87,2,1,2.86,0.3c0.859-0.73,0.979-2,0.27-2.88c-0.71-0.88-2-0.98-2.859-0.27L135.13,11.25z"/>
	<path display="inline" fill="#F7B239" d="M152.57,64.65c-1.57,3.38-5.6,4.86-8.971,3.3c-3.379-1.58-4.859-5.6-3.3-8.98
		c1.57-3.38,5.601-4.86,8.979-3.3c3.381,1.57,4.861,5.6,3.301,8.98H152.57z M144.6,60.95c-0.47,1.02-0.029,2.24,1,2.7
		c1,0.48,2.221,0.03,2.7-0.98c0.46-1.02,0-2.23-1-2.7c-1.021-0.47-2.229-0.03-2.7,1V60.95z M115.4,12.4
		c-1.58,3.38-5.601,4.86-8.98,3.3c-3.38-1.56-4.859-5.6-3.3-8.98c1.569-3.38,5.601-4.86,8.979-3.3
		C115.48,4.99,116.96,9.02,115.4,12.4z M107.4,8.7c-0.461,1.02,0,2.23,1,2.7c1.02,0.47,2.229,0.03,2.699-1c0.471-1,0.03-2.2-1-2.68
		C109.1,7.24,107.88,7.69,107.4,8.7z M147.43,28.5c1-0.83,2.5-0.7,3.32,0.32c0.83,1,0.7,2.5-0.32,3.33c-1,0.82-2.5,0.68-3.32-0.32
		c-0.819-1-0.68-2.5,0.33-3.33H147.43z"/>
	<path display="inline" fill="#D74848" d="M83.4,3.32c1-0.83,2.5-0.7,3.33,0.32c0.83,1,0.7,2.5-0.32,3.33c-1,0.82-2.5,0.68-3.3-0.33
		c-0.84-1-0.7-2.5,0.3-3.32H83.4z M162.66,69.47c1-0.83,2.5-0.7,3.33,0.32c0.82,1,0.68,2.48-0.33,3.3c-1,0.84-2.5,0.7-3.32-0.3
		c-0.84-1.02-0.699-2.5,0.301-3.33L162.66,69.47z"/>
	<path display="inline" fill="#498CF5" d="M176.07,17.75c1-0.83,2.5-0.68,3.32,0.32c0.819,1,0.68,2.5-0.33,3.33
		c-1,0.83-2.5,0.68-3.33-0.33c-0.83-1-0.681-2.5,0.33-3.32H176.07z M113.38,32.13c1-0.83,2.5-0.7,3.32,0.3
		c0.819,1,0.7,2.5-0.32,3.34c-1,0.83-2.5,0.7-3.319-0.32C112.23,34.45,112.359,32.95,113.38,32.13z"/>
	<path display="inline" fill="#F7B239" d="M119.48,17.75c1-0.83,2.5-0.7,3.319,0.32c0.83,1,0.7,2.5-0.319,3.33
		c-1,0.83-2.5,0.68-3.32-0.33C118.33,20.07,118.46,18.57,119.48,17.75z"/>
	<path display="inline" fill="#498CF5" d="M125.561,66.6c-0.371,0.52-0.94,0.88-1.621,0.96c-1.299,0.16-2.469-0.76-2.629-2.06
		c0-0.1-1.36-10.92-5.24-23.55c-0.381-1.25,0.32-2.57,1.56-2.95c1.25-0.4,2.57,0.3,2.96,1.57c4,13.05,5.36,23.9,5.42,24.36
		c0.08,0.62-0.1,1.2-0.439,1.68L125.561,66.6z"/>
	<path display="inline" fill="#F7B239" d="M130.5,82.53c-0.48,0.4-1.141,0.6-1.83,0.52c-1.3-0.2-2.18-1.4-2-2.68
		c1.561-10.85,5.6-31.2,15.23-45.4c0.729-1.07,2.199-1.35,3.279-0.6c1.08,0.7,1.36,2.18,0.631,3.27
		c-9.08,13.4-12.951,32.95-14.451,43.4c-0.1,0.6-0.399,1.13-0.84,1.5L130.5,82.53z"/>
	<g display="inline">
		<path fill="#D74848" d="M134.17,97.62c-0.6,0.34-1.359,0.43-2.061,0.149c-1.199-0.5-1.799-1.859-1.299-3.069
			c0.27-0.7,6.959-17.07,25.069-23.3c1.229-0.4,2.58,0.25,3,1.48c0.431,1.24-0.229,2.58-1.47,3c-16,5.5-22.16,20.42-22.221,20.57
			c-0.199,0.5-0.569,0.899-1,1.17H134.17z M105.98,34c-0.28,0.24-0.601,0.4-0.98,0.5c-1.27,0.28-2.54-0.52-2.83-1.8
			c-1.359-5.98-4.66-14.5-12.66-21.13c-1-0.84-1.14-2.33-0.3-3.33c0.83-1,2.3-1.15,3.32-0.32c9.02,7.48,12.73,17.04,14.26,23.74
			c0.2,0.9-0.14,1.8-0.8,2.35L105.98,34z"/>
	</g>
	<path display="inline" fill="#D74848" d="M150.52,67.25c-2.879,2.38-7.149,1.97-9.52-0.9c-2.37-2.88-1.96-7.15,0.92-9.53
		c2.88-2.36,7.141-1.95,9.5,0.93S153.391,64.89,150.52,67.25z M144.92,60.48c-0.859,0.7-0.98,2-0.27,2.85c0.699,0.87,2,1,2.859,0.28
		c0.86-0.72,1-2,0.28-2.85c-0.7-0.87-2-1-2.851-0.27L144.92,60.48z"/>
</g>
<g id="Capa_3">
	<g>
		<g>
			<path fill="#FF675C" d="M177.773,79.048H18.527c-1.496,0-2.708,1.213-2.708,2.709v11.916c0,1.496,1.212,2.709,2.708,2.709h3.689
				c2.491,16.175,10.063,31.083,21.903,42.794c5.546,5.485,11.786,10.022,18.516,13.538H62.04v18.777h72.221v-18.777h-0.596
				c6.729-3.516,12.97-8.053,18.515-13.538c11.842-11.711,19.413-26.618,21.904-42.794h3.689c1.496,0,2.708-1.213,2.708-2.709
				V81.757C180.482,80.261,179.27,79.048,177.773,79.048z"/>
			<rect x="62.04" y="152.714" fill="#FF675C" width="72.221" height="18.777"/>
		</g>
		<g>
			<path fill="#DB3D5A" d="M98.15,161.38c-12.563,0-24.677-3.005-35.515-8.666H62.04v12.277h72.221v-12.277h-0.596
				C122.827,158.375,110.714,161.38,98.15,161.38z"/>
			<path fill="#DB3D5A" d="M174.084,96.382H22.216c0.15,0.972,0.319,1.941,0.506,2.908c2.913,15.051,10.27,28.879,21.397,39.885
				c14.478,14.319,33.667,22.205,54.031,22.205c2.484,0,4.949-0.119,7.392-0.352c-17.583-1.67-33.927-9.28-46.639-21.854
				c-10.417-10.302-17.527-23.079-20.784-37.016h134.846C173.41,100.253,173.785,98.327,174.084,96.382z"/>
			<path fill="#DB3D5A" d="M105.3,130.397c-1.829-1.83-4.357-2.961-7.149-2.961s-5.32,1.131-7.149,2.961s-2.962,4.357-2.962,7.149
				c0,5.584,4.527,10.11,10.111,10.11s10.111-4.526,10.111-10.11C108.262,134.755,107.13,132.228,105.3,130.397z"/>
			<path fill="#DB3D5A" d="M82.189,121.586c1.829-1.829,2.961-4.357,2.961-7.149c0-5.584-4.526-10.111-10.111-10.111
				c-5.584,0-10.109,4.527-10.109,10.111s4.525,10.111,10.109,10.111C77.832,124.548,80.359,123.415,82.189,121.586"/>
			<path fill="#DB3D5A" d="M114.111,121.586c1.83,1.829,4.357,2.962,7.15,2.962c5.584,0,10.109-4.527,10.109-10.111
				s-4.525-10.111-10.109-10.111c-5.585,0-10.111,4.527-10.111,10.111C111.15,117.229,112.282,119.757,114.111,121.586"/>
		</g>
		<path fill="#E0DDDF" d="M168.876,45.036l-6.128-6.128c-2.82-2.82-7.396-2.82-10.215,0l-42.411,42.427h32.683l26.072-26.087
			C171.696,52.428,171.696,47.856,168.876,45.036z"/>
		<path fill="#C1BCBF" d="M169.745,46.092l-35.243,35.243h8.303l26.072-26.087C171.367,52.757,171.654,48.902,169.745,46.092z"/>
		<path fill="#5CC4E0" d="M111.873,32.827c6.38,0,11.555,5.175,11.555,11.556s-5.174,11.555-11.555,11.555
			s-11.557-5.174-11.557-11.555S105.492,32.827,111.873,32.827z"/>
		<path fill="#439EE8" d="M117.65,50.16c-6.381,0-11.556-5.175-11.556-11.556c0-1.695,0.368-3.303,1.024-4.753
			c-4.01,1.813-6.803,5.845-6.803,10.531c0,6.38,5.175,11.555,11.557,11.555c4.686,0,8.718-2.792,10.531-6.802
			C120.953,49.792,119.345,50.16,117.65,50.16z"/>
		<path fill="#5CC4E0" d="M72.873,6.828c6.381,0,11.556,5.174,11.556,11.555c0,6.381-5.175,11.556-11.556,11.556
			s-11.555-5.174-11.555-11.556C61.318,12.002,66.492,6.828,72.873,6.828z"/>
		<path fill="#439EE8" d="M78.65,24.16c-6.381,0-11.555-5.174-11.555-11.555c0-1.695,0.367-3.303,1.023-4.754
			c-4.01,1.813-6.802,5.846-6.802,10.532c0,6.38,5.175,11.555,11.556,11.555c4.686,0,8.719-2.792,10.531-6.802
			C81.954,23.792,80.346,24.16,78.65,24.16z"/>
		<path fill="#5CC4E0" d="M33.874,34.271c6.381,0,11.556,5.174,11.556,11.556c0,6.381-5.175,11.555-11.556,11.555
			c-6.38,0-11.555-5.175-11.555-11.556C22.318,39.446,27.493,34.271,33.874,34.271z"/>
		<path fill="#439EE8" d="M39.651,51.604c-6.38,0-11.555-5.175-11.555-11.556c0-1.695,0.368-3.303,1.024-4.753
			c-4.009,1.813-6.802,5.846-6.802,10.531c0,6.38,5.175,11.556,11.556,11.556c4.686,0,8.718-2.792,10.531-6.802
			C42.955,51.236,41.347,51.604,39.651,51.604z"/>
		<path d="M111.873,58.646c7.864,0,14.263-6.398,14.263-14.263s-6.399-14.264-14.263-14.264c-7.865,0-14.264,6.399-14.264,14.264
			S104.008,58.646,111.873,58.646z M111.873,35.535c4.877,0,8.847,3.969,8.847,8.847c0,4.878-3.97,8.847-8.847,8.847
			c-4.879,0-8.848-3.969-8.848-8.847C103.025,39.504,106.994,35.535,111.873,35.535z"/>
		<path d="M72.873,32.646c7.865,0,14.264-6.399,14.264-14.264c0-7.864-6.398-14.264-14.264-14.264S58.61,10.518,58.61,18.383
			C58.61,26.247,65.008,32.646,72.873,32.646z M72.873,9.536c4.879,0,8.848,3.969,8.848,8.847c0,4.878-3.969,8.847-8.848,8.847
			c-4.878,0-8.847-3.969-8.847-8.847C64.026,13.505,67.995,9.536,72.873,9.536z"/>
		<path d="M33.874,60.09c7.865,0,14.264-6.399,14.264-14.263c0-7.865-6.398-14.264-14.264-14.264
			c-7.865,0-14.263,6.399-14.263,14.264S26.009,60.09,33.874,60.09z M33.874,36.979c4.878,0,8.847,3.969,8.847,8.847
			c0,4.878-3.969,8.847-8.847,8.847c-4.878,0-8.847-3.969-8.847-8.847C25.026,40.948,28.996,36.979,33.874,36.979z"/>
		<path d="M75.039,127.256c2.503,0,4.895-0.715,6.946-2.044l5.39,5.389c-1.329,2.053-2.044,4.443-2.044,6.946
			c0,7.069,5.751,12.819,12.819,12.819s12.818-5.75,12.818-12.819c0-2.503-0.715-4.894-2.043-6.946l5.389-5.389
			c2.053,1.328,4.443,2.044,6.945,2.044c7.069,0,12.82-5.751,12.82-12.819s-5.751-12.818-12.82-12.818
			c-7.068,0-12.818,5.75-12.818,12.818c0,2.502,0.715,4.895,2.043,6.945l-5.389,5.39c-2.053-1.329-4.443-2.044-6.945-2.044
			c-2.503,0-4.895,0.715-6.946,2.044l-5.389-5.39c1.328-2.052,2.044-4.443,2.044-6.945c0-7.068-5.751-12.818-12.82-12.818
			c-7.068,0-12.818,5.75-12.818,12.818S67.971,127.256,75.039,127.256z M121.262,107.034c4.081,0,7.402,3.32,7.402,7.402
			s-3.321,7.402-7.402,7.402c-1.979,0-3.837-0.77-5.234-2.168l0,0c-1.398-1.398-2.169-3.257-2.169-5.234
			C113.858,110.354,117.18,107.034,121.262,107.034z M103.385,132.312L103.385,132.312L103.385,132.312
			c1.398,1.398,2.168,3.257,2.168,5.235c0,4.082-3.32,7.402-7.402,7.402s-7.402-3.32-7.402-7.402c0-1.979,0.77-3.837,2.168-5.234
			l0,0l0,0c1.398-1.398,3.257-2.168,5.234-2.168S101.986,130.915,103.385,132.312z M75.039,107.034c4.082,0,7.403,3.32,7.403,7.402
			c0,1.978-0.771,3.836-2.168,5.234l0,0c-1.398,1.398-3.257,2.168-5.234,2.168c-4.082,0-7.403-3.32-7.403-7.402
			S70.958,107.034,75.039,107.034z"/>
		<path d="M130.18,73.741c0.528,0.528,1.222,0.793,1.914,0.793c0.693,0,1.387-0.264,1.916-0.793l1.879-1.879
			c1.057-1.058,1.057-2.772,0-3.83c-1.059-1.058-2.773-1.058-3.83,0l-1.879,1.879C129.121,70.969,129.121,72.684,130.18,73.741z"/>
		<path d="M139.055,67.574c0.693,0,1.387-0.264,1.916-0.793l14.705-14.706c1.058-1.058,1.058-2.772,0-3.83s-2.772-1.058-3.83,0
			l-14.705,14.706c-1.059,1.058-1.059,2.772,0,3.83C137.668,67.31,138.361,67.574,139.055,67.574z"/>
		<path d="M177.773,76.34h-26.159l19.177-19.177c1.875-1.875,2.908-4.369,2.908-7.021s-1.033-5.146-2.908-7.021l-6.128-6.128
			c-3.872-3.872-10.173-3.872-14.046,0L111.271,76.34H67.457c-1.496,0-2.709,1.213-2.709,2.708c0,1.496,1.213,2.709,2.709,2.709
			h110.316v11.916H18.527V81.757h36.291c1.496,0,2.708-1.213,2.708-2.709c0-1.495-1.213-2.708-2.708-2.708H18.527
			c-2.986,0-5.417,2.431-5.417,5.417v11.916c0,2.987,2.43,5.417,5.417,5.417h1.405c2.936,15.978,10.607,30.463,22.284,42.011
			c5.174,5.118,10.93,9.441,17.116,12.909v17.481c0,1.496,1.212,2.709,2.708,2.709h72.222c1.495,0,2.708-1.213,2.708-2.709V154.01
			c6.186-3.468,11.942-7.791,17.116-12.908c11.677-11.549,19.348-26.034,22.284-42.011h1.404c2.987,0,5.417-2.431,5.417-5.417
			V81.757C183.19,78.771,180.76,76.34,177.773,76.34z M154.447,40.823c1.761-1.761,4.625-1.76,6.386,0l6.128,6.128
			c0.853,0.853,1.322,1.986,1.322,3.191c0,1.205-0.469,2.338-1.322,3.19L143.954,76.34h-25.023L154.447,40.823z M131.553,168.782
			H64.748v-12.009c10.34,4.788,21.682,7.314,33.402,7.314s23.062-2.526,33.402-7.314V168.782z M150.276,137.249
			c-13.967,13.814-32.479,21.423-52.126,21.423s-38.159-7.608-52.126-21.423c-10.643-10.525-17.716-23.664-20.581-38.159h145.414
			C167.992,113.585,160.92,126.724,150.276,137.249z"/>
		<g>
		</g>
		<g>
		</g>
		<g>
		</g>
		<g>
		</g>
		<g>
		</g>
		<g>
		</g>
		<g>
		</g>
		<g>
		</g>
		<g>
		</g>
		<g>
		</g>
		<g>
		</g>
		<g>
		</g>
		<g>
		</g>
		<g>
		</g>
		<g>
		</g>
	</g>
</g>
</svg>
