<svg xmlns="http://www.w3.org/2000/svg" width="260" height="260"><style id="style3" type="text/css">.st0{fill:#FFFFFF;} .st1{fill:#46A3E2;} .st2{fill:none;stroke:#E5E5E5;stroke-linecap:round;stroke-linejoin:round;stroke-miterlimit:10;stroke-dasharray:3,5;} .st3{fill:#333333;} .st4{fill:#BFBFBF;} .st5{fill:#F4F4F4;} .st6{fill:#EF4C3E;}</style><g id="g4219"><g id="g5"><path id="path7" fill="#fff" d="M206.98 92.37c-11.3 0-20.53-9.24-20.53-20.53 0-1.37-.68-2.4-2.74-2.4-1.7 0-4.42 1.03-9.56 3.43-7.18 3.08-17.1 7.53-25.3 7.53-14.04 0-25.67-11.64-25.67-25.66 0-13 9.92-23.95 22.58-25.32h1.37l.35-1.37c1.37-9.23 9.24-15.73 18.47-15.73 5.13 0 10.27 2.05 13.7 6.15l1.7 1.37 1.02-2.05c5.82-9.94 16.43-16.1 28.06-16.1 17.8 0 32.5 14.7 32.5 32.5v4.1l1.37.35c8.54 2.74 14.36 10.6 14.36 19.5 0 11.3-9.24 20.53-20.53 20.53-3.07 0-5.8-.7-8.9-2.07l-1.7-.67-.68 2.05c-2.74 8.2-10.95 14.37-19.84 14.37z" class="st0"/><path id="path9" fill="#46a3e2" d="M210.4 3.42c17.1 0 30.8 13.7 30.8 30.8v2.4l-.35 2.72 2.73.7c7.87 2.38 13 9.57 13 17.78 0 10.26-8.55 18.8-18.8 18.8-2.75 0-5.5-.67-7.88-1.7l-3.77-1.7-1.02 3.75c-2.4 7.87-9.9 13.35-18.1 13.35-10.28 0-18.83-8.56-18.83-18.82 0-2.4-1.7-4.1-4.45-4.1-2.04 0-5.12 1.36-10.6 3.76-7.18 3.08-16.76 7.53-24.62 7.53-13.35 0-23.95-10.63-23.95-23.97 0-12.32 9.24-22.24 21.2-23.6l3.1-.35.33-2.75c1.37-8.2 8.2-14.37 16.76-14.37 4.8 0 9.24 2.06 12.66 5.48l3.08 3.42 2.4-4.1c5.47-9.24 15.4-15.06 26.34-15.06m0-3.42c-12.66 0-23.6 6.84-29.42 16.76-3.77-4.1-9.24-6.5-15.06-6.5-10.26 0-18.8 7.53-20.18 17.45-13.7 1.7-24.3 13-24.3 27.03 0 15.05 12.33 27.37 27.38 27.37 13 0 30.8-10.94 34.9-10.94.68 0 1.02.34 1.02.68 0 12.32 9.92 22.24 22.24 22.24 9.92 0 18.47-6.84 21.2-15.74 2.74 1.37 6.17 2.06 9.6 2.06 12.3 0 22.22-9.93 22.22-22.24 0-9.92-6.5-18.48-15.4-21.2V34.2c0-18.8-15.4-34.2-34.2-34.2z" class="st1"/></g><path id="polyline11" fill="none" stroke="#e5e5e5" stroke-width="3.42" stroke-miterlimit="10" d="M140.27 249.74h-130v-117" stroke-linejoin="round" stroke-linecap="round" class="st2" stroke-dasharray="3, 5"/><g id="g13"><g id="g15"><path id="path17" fill="#fff" d="M49.6 216.56V57.46c0-2.72 2.4-5.12 5.14-5.12h150.53c2.73 0 5.13 2.4 5.13 5.13v159.1H49.6z" class="st0"/><g id="g19"><path id="path21" fill="#333" d="M205.27 54.05c2.05 0 3.42 1.37 3.42 3.42v157.38H51.3V57.47c0-2.05 1.36-3.42 3.42-3.42h150.53m0-3.42H54.75c-3.78 0-6.85 3.08-6.85 6.84v160.8h164.2V57.47c0-4.1-3.07-6.84-6.83-6.84z" class="st3"/></g></g><path id="rect23" fill="#bfbfbf" d="M47.9 74.58h164.2V78H47.9z" class="st4"/><g id="g25"><path id="path27" fill="#f4f4f4" d="M49.6 76.3V57.46c0-2.73 2.4-5.13 5.14-5.13h150.53c2.73 0 5.13 2.4 5.13 5.13V76.3H49.6z" class="st5"/><g id="g29"><path id="path31" fill="#333" d="M205.27 54.05c2.05 0 3.42 1.37 3.42 3.42v17.1H51.3v-17.1c0-2.05 1.36-3.42 3.42-3.42h150.53m0-3.42H54.75c-3.78 0-6.85 3.08-6.85 6.84V78h164.2V57.47c0-4.1-3.07-6.84-6.83-6.84z" class="st3"/></g></g><g id="g33"><path id="rect35" fill="#46a3e2" d="M49.6 76.3h13.7v140.26H49.6z" class="st1"/><g id="g37"><path id="path39" fill="#333" d="M61.58 78v136.85H51.32V78h10.26M65 74.58H47.9v143.7H65V74.58z" class="st3"/></g></g><g id="g41"><g fill="#46a3e2"><path id="path43" d="M114.6 98.53H83.83c-1.03 0-1.7-.7-1.7-1.7s.67-1.72 1.7-1.72h30.8c1 0 1.7.7 1.7 1.73 0 .68-.7 1.7-1.7 1.7z" class="st1"/><path id="path45" d="M114.6 166.95H83.83c-1.03 0-1.7-.68-1.7-1.7s.67-1.72 1.7-1.72h30.8c1 0 1.7.68 1.7 1.7 0 .7-.7 1.72-1.7 1.72z" class="st1"/><path id="path47" d="M169.34 112.2h-68.42c-1.02 0-1.7-.67-1.7-1.7s.68-1.7 1.7-1.7h68.42c1.03 0 1.7.68 1.7 1.7.02.7-.67 1.7-1.7 1.7z" class="st1"/><path id="path49" d="M152.24 153.27h-51.32c-1.02 0-1.7-.7-1.7-1.72s.68-1.7 1.7-1.7h51.32c1.03 0 1.7.68 1.7 1.7 0 .7-.67 1.72-1.7 1.72z" class="st1"/><path id="path51" d="M193.3 125.9h-78.7c-1.02 0-1.7-.7-1.7-1.7s.68-1.72 1.7-1.72h78.7c1.02 0 1.7.68 1.7 1.7 0 .7-.68 1.72-1.7 1.72z" class="st1"/></g><path id="path53" fill="#ef4c3e" d="M169.34 180.63h-68.42c-1.02 0-1.7-.68-1.7-1.7s.68-1.72 1.7-1.72h68.42c1.03 0 1.7.7 1.7 1.73.02.7-.67 1.7-1.7 1.7z" class="st6"/><path id="path55" fill="#46a3e2" d="M172.77 139.58H114.6c-1.02 0-1.7-.68-1.7-1.7s.68-1.72 1.7-1.72h58.17c1.02 0 1.7.68 1.7 1.7 0 .7-.68 1.72-1.7 1.72z" class="st1"/><path id="path57" fill="#ef4c3e" d="M165.92 98.53h-41.05c-1.03 0-1.7-.7-1.7-1.7s.67-1.72 1.7-1.72h41.05c1.03 0 1.7.7 1.7 1.73 0 .68-.67 1.7-1.7 1.7z" class="st6"/><path id="path59" fill="#46a3e2" d="M114.6 194.32H83.83c-1.03 0-1.7-.7-1.7-1.7s.67-1.72 1.7-1.72h30.8c1 0 1.7.68 1.7 1.7 0 .7-.7 1.72-1.7 1.72z" class="st1"/><path id="path61" fill="#ef4c3e" d="M152.24 194.32h-27.37c-1.03 0-1.7-.7-1.7-1.7s.67-1.72 1.7-1.72h27.37c1.03 0 1.7.68 1.7 1.7 0 .7-.67 1.72-1.7 1.72z" class="st6"/></g><g id="g63" transform="scale(3.421)"><circle id="circle65" cx="18.5" cy="18.8" r="1.5" fill="#bfbfbf" class="st4"/></g><g id="g67" transform="scale(3.421)"><circle id="circle69" cx="23.5" cy="18.8" r="1.5" fill="#bfbfbf" class="st4"/></g><g id="g71" transform="scale(3.421)"><circle id="circle73" cx="28.5" cy="18.8" r="1.5" fill="#bfbfbf" class="st4"/></g></g><g id="g75"><path id="rect77" fill="#fff" d="M1.7 120.76h17.12v17.1H1.72z" class="st0"/><path id="path79" fill="#bfbfbf" d="M17.1 122.47v13.7H3.43v-13.7h13.7m3.4-3.42H0v20.53h20.53v-20.53z" class="st4"/></g><g id="g81"><path id="rect83" fill="#fff" d="M128.3 241.18h17.1v17.1h-17.1z" class="st0"/><path id="path85" fill="#bfbfbf" d="M143.68 242.9v13.67H130V242.9h13.68m3.42-3.43h-20.52V260h20.52v-20.53z" class="st4"/></g></g></svg>