<svg id="Layer_1" xmlns:rdf="http://www.w3.org/1999/02/22-rdf-syntax-ns#" xmlns="http://www.w3.org/2000/svg" xml:space="preserve" viewBox="0 0 260 260" height="260" width="260" version="1.1" y="0px" x="0px" xmlns:cc="http://creativecommons.org/ns#" xmlns:dc="http://purl.org/dc/elements/1.1/"><style id="style3" type="text/css">
	.st0{fill:#FFFFFF;}
	.st1{fill:#46A3E2;}
	.st2{fill:none;stroke:#E5E5E5;stroke-linecap:round;stroke-linejoin:round;stroke-miterlimit:10;stroke-dasharray:3,5;}
	.st3{fill:#333333;}
	.st4{fill:#BFBFBF;}
	.st5{fill:#F4F4F4;}
	.st6{fill:#EF4C3E;}
</style><g id="g4219" transform="scale(3.4211)"><g id="g5"><path id="path7" class="st0" fill="#fff" d="m60.5 27c-3.3 0-6-2.7-6-6 0-0.4-0.2-0.7-0.8-0.7-0.5 0-1.3 0.3-2.8 1-2.1 0.9-5 2.2-7.4 2.2-4.1 0-7.5-3.4-7.5-7.5 0-3.8 2.9-7 6.6-7.4h0.4l0.1-0.4c0.4-2.7 2.7-4.6 5.4-4.6 1.5 0 3 0.6 4 1.8l0.5 0.4 0.3-0.6c1.7-2.9 4.8-4.7 8.2-4.7 5.2 0 9.5 4.3 9.5 9.5v0.8 0.4l0.4 0.1c2.5 0.8 4.2 3.1 4.2 5.7 0 3.3-2.7 6-6 6-0.9 0-1.7-0.2-2.6-0.6l-0.5-0.2-0.2 0.6c-0.8 2.4-3.2 4.2-5.8 4.2z"/><path id="path9" class="st1" fill="#46a3e2" d="m61.5 1c5 0 9 4 9 9v0.7l-0.1 0.8 0.8 0.2c2.3 0.7 3.8 2.8 3.8 5.2 0 3-2.5 5.5-5.5 5.5-0.8 0-1.6-0.2-2.3-0.5l-1.1-0.5-0.3 1.1c-0.7 2.3-2.9 3.9-5.3 3.9-3 0-5.5-2.5-5.5-5.5 0-0.7-0.5-1.2-1.3-1.2-0.6 0-1.5 0.4-3.1 1.1-2.1 0.9-4.9 2.2-7.2 2.2-3.9 0-7-3.1-7-7 0-3.6 2.7-6.5 6.2-6.9l0.9-0.1 0.1-0.8c0.4-2.4 2.4-4.2 4.9-4.2 1.4 0 2.7 0.6 3.7 1.6l0.9 1 0.7-1.2c1.6-2.7 4.5-4.4 7.7-4.4m0-1c-3.7 0-6.9 2-8.6 4.9-1.1-1.2-2.7-1.9-4.4-1.9-3 0-5.5 2.2-5.9 5.1-4 0.5-7.1 3.8-7.1 7.9 0 4.4 3.6 8 8 8 3.8 0 9-3.2 10.2-3.2 0.2 0 0.3 0.1 0.3 0.2 0 3.6 2.9 6.5 6.5 6.5 2.9 0 5.4-2 6.2-4.6 0.8 0.4 1.8 0.6 2.8 0.6 3.6 0 6.5-2.9 6.5-6.5 0-2.9-1.9-5.4-4.5-6.2v-0.8c0-5.5-4.5-10-10-10z"/></g><polyline id="polyline11" stroke-linejoin="round" stroke-linecap="round" class="st2" stroke="#e5e5e5" points="41 73 3 73 3 38.8" stroke-dasharray="3, 5" stroke-miterlimit="10" fill="none"/><g id="g13"><g id="g15"><path id="path17" class="st0" fill="#fff" d="m14.5 63.3v-46.5c0-0.8 0.7-1.5 1.5-1.5h44c0.8 0 1.5 0.7 1.5 1.5v46.5h-47z"/><g id="g19"><path id="path21" class="st3" fill="#333" d="m60 15.8c0.6 0 1 0.4 1 1v46h-46v-46c0-0.6 0.4-1 1-1h44m0-1h-44c-1.1 0-2 0.9-2 2v47h48v-47c0-1.2-0.9-2-2-2z"/></g></g><rect id="rect23" width="48" y="21.8" x="14" height="1" class="st4" fill="#bfbfbf"/><g id="g25"><path id="path27" class="st5" fill="#f4f4f4" d="m14.5 22.3v-5.5c0-0.8 0.7-1.5 1.5-1.5h44c0.8 0 1.5 0.7 1.5 1.5v5.5h-47z"/><g id="g29"><path id="path31" class="st3" fill="#333" d="m60 15.8c0.6 0 1 0.4 1 1v5h-46v-5c0-0.6 0.4-1 1-1h44m0-1h-44c-1.1 0-2 0.9-2 2v6h48v-6c0-1.2-0.9-2-2-2z"/></g></g><g id="g33"><rect id="rect35" width="4" y="22.3" x="14.5" height="41" class="st1" fill="#46a3e2"/><g id="g37"><path id="path39" class="st3" fill="#333" d="m18 22.8v40h-3v-40h3m1-1h-5v42h5v-42z"/></g></g><g id="g41"><g fill="#46a3e2"><path id="path43" class="st1" d="m33.5 28.8h-9c-0.3 0-0.5-0.2-0.5-0.5s0.2-0.5 0.5-0.5h9c0.3 0 0.5 0.2 0.5 0.5 0 0.2-0.2 0.5-0.5 0.5z"/><path id="path45" class="st1" d="m33.5 48.8h-9c-0.3 0-0.5-0.2-0.5-0.5s0.2-0.5 0.5-0.5h9c0.3 0 0.5 0.2 0.5 0.5 0 0.2-0.2 0.5-0.5 0.5z"/><path id="path47" class="st1" d="m49.5 32.8h-20c-0.3 0-0.5-0.2-0.5-0.5s0.2-0.5 0.5-0.5h20c0.3 0 0.5 0.2 0.5 0.5 0 0.2-0.2 0.5-0.5 0.5z"/><path id="path49" class="st1" d="m44.5 44.8h-15c-0.3 0-0.5-0.2-0.5-0.5s0.2-0.5 0.5-0.5h15c0.3 0 0.5 0.2 0.5 0.5 0 0.2-0.2 0.5-0.5 0.5z"/><path id="path51" class="st1" d="m56.5 36.8h-23c-0.3 0-0.5-0.2-0.5-0.5s0.2-0.5 0.5-0.5h23c0.3 0 0.5 0.2 0.5 0.5 0 0.2-0.2 0.5-0.5 0.5z"/></g><path id="path53" class="st6" fill="#ef4c3e" d="m49.5 52.8h-20c-0.3 0-0.5-0.2-0.5-0.5s0.2-0.5 0.5-0.5h20c0.3 0 0.5 0.2 0.5 0.5 0 0.2-0.2 0.5-0.5 0.5z"/><path id="path55" class="st1" fill="#46a3e2" d="m50.5 40.8h-17c-0.3 0-0.5-0.2-0.5-0.5s0.2-0.5 0.5-0.5h17c0.3 0 0.5 0.2 0.5 0.5 0 0.2-0.2 0.5-0.5 0.5z"/><path id="path57" class="st6" fill="#ef4c3e" d="m48.5 28.8h-12c-0.3 0-0.5-0.2-0.5-0.5s0.2-0.5 0.5-0.5h12c0.3 0 0.5 0.2 0.5 0.5 0 0.2-0.2 0.5-0.5 0.5z"/><path id="path59" class="st1" fill="#46a3e2" d="m33.5 56.8h-9c-0.3 0-0.5-0.2-0.5-0.5s0.2-0.5 0.5-0.5h9c0.3 0 0.5 0.2 0.5 0.5 0 0.2-0.2 0.5-0.5 0.5z"/><path id="path61" class="st6" fill="#ef4c3e" d="m44.5 56.8h-8c-0.3 0-0.5-0.2-0.5-0.5s0.2-0.5 0.5-0.5h8c0.3 0 0.5 0.2 0.5 0.5 0 0.2-0.2 0.5-0.5 0.5z"/></g><g id="g63"><circle id="circle65" class="st4" cy="18.8" cx="18.5" r="1.5" fill="#bfbfbf"/></g><g id="g67"><circle id="circle69" class="st4" cy="18.8" cx="23.5" r="1.5" fill="#bfbfbf"/></g><g id="g71"><circle id="circle73" class="st4" cy="18.8" cx="28.5" r="1.5" fill="#bfbfbf"/></g></g><g id="g75"><rect id="rect77" width="5" y="35.3" x=".5" height="5" class="st0" fill="#fff"/><path id="path79" class="st4" fill="#bfbfbf" d="m5 35.8v4h-4v-4h4m1-1h-6v6h6v-6z"/></g><g id="g81"><rect id="rect83" width="5" y="70.5" x="37.5" height="5" class="st0" fill="#fff"/><path id="path85" class="st4" fill="#bfbfbf" d="m42 71v4h-4v-4h4m1-1h-6v6h6v-6z"/></g></g></svg>
