<svg xmlns="http://www.w3.org/2000/svg" width="453.543" height="453.543" viewBox="193.368 206.438 453.543 453.543" enable-background="new 193.368 206.438 453.543 453.543"><path fill="#fff" d="M489.58 509.1c0 80.3-65.08 145.37-145.36 145.37-80.3 0-145.38-65.08-145.38-145.37 0-80.3 65.08-145.38 145.38-145.38 80.28 0 145.36 65.1 145.36 145.38zm-176.5-229.4h65.56v112.92h-65.57zm89.8-15.77c0 8.72-7.07 15.8-15.8 15.8H303.5c-8.73 0-15.8-7.08-15.8-15.8v-8.4c0-8.72 7.07-15.78 15.8-15.78h83.57c8.7 0 15.76 7.06 15.76 15.78v8.4z"/><path fill="#1C1C1C" d="M344.22 659.98c-83.18 0-150.85-67.7-150.85-150.88 0-67.56 44.23-126.08 108.44-144.76V268h84.83v96.34c64.24 18.7 108.47 77.22 108.47 144.77 0 83.2-67.7 150.9-150.9 150.9zm-23.98-373.55v92.28l-7.05 1.7c-59.7 14.34-101.4 67.26-101.4 128.7 0 73.06 59.4 132.45 132.4 132.45s132.44-59.4 132.44-132.44c0-61.43-41.7-114.36-101.38-128.7l-7.1-1.7v-92.26h-47.93zm-67.67 197.1l-17.75-4.9c8.58-31.03 30-56.95 58.73-71.14l8.18 16.5c-24.06 11.9-41.96 33.57-49.16 59.5z"/><path fill="#498CF5" d="M231.02 509.1c0 62.43 50.8 113.23 113.2 113.23 62.43 0 113.2-50.8 113.2-113.23h-226.4z"/><path fill="#fff" d="M344.22 603.1v-18.44c31.84 0 60.46-20.18 71.18-50.2l17.35 6.2C419.4 578 383.82 603.1 344.22 603.1z"/><path fill="#1C1C1C" d="M385.52 286.44h-82.57c-14.25 0-25.85-11.6-25.85-25.84 0-14.23 11.6-25.82 25.85-25.82h82.57c14.24 0 25.82 11.58 25.82 25.82s-11.58 25.84-25.82 25.84zm-82.57-33.23c-4.1 0-7.42 3.33-7.42 7.4s3.33 7.4 7.42 7.4h82.57c4.07 0 7.37-3.3 7.37-7.4s-3.3-7.4-7.4-7.4h-82.56z"/><path fill="#FCFCFC" d="M544.58 368.44h74.87v103.42h-74.87z"/><path fill="#D74848" d="M544.58 448.26V606.4c0 10 3.8 20.02 11.4 27.67 7.67 7.62 17.67 11.42 27.66 11.42 10.02 0 20.02-3.8 27.66-11.44 7.6-7.65 11.42-17.66 11.42-27.68V448.25h-78.14z"/><path fill="#1C1C1C" d="M583.64 657.38c-13.6 0-26.4-5.3-36.04-14.92-9.63-9.65-14.9-22.46-14.9-36.07V365.94h23.77V606.4c0 7.3 2.82 14.1 7.94 19.26 5.14 5.1 11.98 7.97 19.25 7.97 7.26 0 14.1-2.86 19.28-7.98 5.1-5.12 7.93-11.95 7.93-19.25V365.96h23.76V606.4c0 13.6-5.3 26.4-14.88 36.05-9.68 9.62-22.5 14.93-36.08 14.93zm-61.88-303.3h123.78v23.76H521.76z"/></svg>