<?xml version="1.0" encoding="utf-8"?>
<!-- Generator: Adobe Illustrator 16.0.0, SVG Export Plug-In . SVG Version: 6.00 Build 0)  -->
<!DOCTYPE svg PUBLIC "-//W3C//DTD SVG 1.1//EN" "http://www.w3.org/Graphics/SVG/1.1/DTD/svg11.dtd">
<svg version="1.1" id="Capa_1" xmlns="http://www.w3.org/2000/svg" xmlns:xlink="http://www.w3.org/1999/xlink" x="0px" y="0px"
	 width="453.543px" height="453.543px" viewBox="193.368 206.438 453.543 453.543"
	 enable-background="new 193.368 206.438 453.543 453.543" xml:space="preserve">
<g>
	<path fill="#FFFFFF" d="M489.578,509.1c0,80.288-65.078,145.369-145.361,145.369c-80.297,0-145.374-65.081-145.374-145.369
		c0-80.289,65.077-145.381,145.374-145.381C424.5,363.718,489.578,428.811,489.578,509.1z"/>
	<rect x="313.073" y="279.715" fill="#FFFFFF" width="65.564" height="112.903"/>
	<path fill="#FFFFFF" d="M402.865,263.934c0,8.715-7.06,15.781-15.778,15.781h-83.57c-8.724,0-15.788-7.066-15.788-15.781v-8.407
		c0-8.716,7.064-15.782,15.788-15.782h83.57c8.719,0,15.778,7.066,15.778,15.782V263.934z"/>
	<path fill="#1C1C1C" d="M344.217,659.981c-83.178,0-150.849-67.688-150.849-150.882c0-67.555,44.23-126.074,108.441-144.755
		v-96.352h84.81v96.352c64.239,18.697,108.472,77.213,108.472,144.768C495.091,592.294,427.412,659.981,344.217,659.981z
		 M320.245,286.43v92.277l-7.059,1.69C253.492,394.728,211.8,447.655,211.8,509.1c0,73.046,59.407,132.44,132.417,132.44
		c73.017,0,132.436-59.395,132.436-132.44c0-61.444-41.699-114.372-101.388-128.703l-7.081-1.69V286.43H320.245L320.245,286.43z"/>
	<path fill="#1C1C1C" d="M252.574,483.517l-17.756-4.912c8.58-31.002,29.987-56.921,58.73-71.119l8.179,16.526
		C277.668,435.886,259.772,457.584,252.574,483.517z"/>
</g>
<path fill="#498CF5" d="M231.016,509.1c0,62.427,50.79,113.23,113.201,113.23c62.429,0,113.207-50.804,113.207-113.23H231.016z"/>
<path fill="#FFFFFF" d="M344.217,603.095v-18.439c31.844,0,60.459-20.177,71.188-50.201l17.346,6.19
	C419.411,577.994,383.821,603.095,344.217,603.095z"/>
<path fill="#1C1C1C" d="M385.523,286.444h-82.574c-14.245,0-25.848-11.601-25.848-25.848c0-14.23,11.603-25.811,25.848-25.811
	h82.574c14.233,0,25.812,11.573,25.812,25.811C411.334,274.843,399.756,286.444,385.523,286.444z M302.948,253.213
	c-4.092,0-7.413,3.309-7.413,7.383c0,4.083,3.321,7.412,7.413,7.412h82.574c4.072,0,7.372-3.329,7.372-7.412
	c0-4.074-3.3-7.383-7.372-7.383H302.948z"/>
<g>
	<rect x="544.578" y="368.441" fill="#FCFCFC" width="74.876" height="103.419"/>
	<path fill="#D74848" d="M544.578,448.26v158.134c0,10.02,3.812,20.028,11.416,27.676c7.653,7.622,17.66,11.424,27.642,11.424
		c10.022,0,20.021-3.802,27.66-11.424c7.611-7.647,11.427-17.656,11.427-27.676V448.26H544.578L544.578,448.26z"/>
	<g>
		<path fill="#1C1C1C" d="M583.636,657.381c-13.588,0-26.39-5.308-36.037-14.921c-9.624-9.649-14.886-22.463-14.886-36.066V365.959
			h23.756v240.435c0,7.3,2.821,14.12,7.945,19.263c5.118,5.116,11.96,7.97,19.222,7.97c7.266,0,14.108-2.854,19.285-7.982
			c5.096-5.117,7.925-11.95,7.925-19.25V365.959h23.761v240.435c0,13.604-5.298,26.417-14.887,36.053
			C610.044,652.073,597.227,657.381,583.636,657.381z"/>
		<rect x="521.758" y="354.074" fill="#1C1C1C" width="123.781" height="23.769"/>
	</g>
</g>
</svg>
