<svg xmlns="http://www.w3.org/2000/svg" width="260" height="260"><style id="style3" type="text/css">.st0{fill:none;stroke:#E5E5E5;stroke-linecap:round;stroke-linejoin:round;} .st1{fill:none;stroke:#E5E5E5;stroke-linecap:round;stroke-linejoin:round;stroke-dasharray:2.9429,4.9049;} .st2{fill:none;stroke:#46A3E2;stroke-miterlimit:10;} .st3{fill:#FFFFFF;} .st4{fill:#BFBFBF;} .st5{fill:#46A3E2;} .st6{fill:#F4F4F4;} .st7{fill:#333333;} .st8{fill:#EF4C3E;}</style><g id="g5" transform="scale(3.421)"><g id="g7"><g id="g9" fill="none" stroke="#e5e5e5" stroke-linejoin="round" stroke-linecap="round"><path id="path11" d="M73 38v1.5" class="st0"/><path id="path13" d="M72.4 44.4C69.4 60.7 55.2 73 38 73 20 73 5.2 59.4 3.2 41.9" class="st1"/><path id="path15" d="M3 39.5V38" class="st0"/></g></g><path id="path17" fill="none" stroke="#46a3e2" stroke-miterlimit="10" d="M3 38C3 18.7 18.7 3 38 3s35 15.7 35 35" class="st2"/><g id="g19"><path id="rect21" fill="#fff" d="M.5 38.5h5v5h-5z" class="st3"/><path id="path23" fill="#bfbfbf" d="M5 39v4H1v-4h4m1-1H0v6h6v-6z" class="st4"/></g><g id="g25"><path id="rect27" fill="#fff" d="M70.5 38.5h5v5h-5z" class="st3"/><path id="path29" fill="#bfbfbf" d="M75 39v4h-4v-4h4m1-1h-6v6h6v-6z" class="st4"/></g><path id="line31" fill="none" stroke="#46a3e2" stroke-miterlimit="10" d="M3 3h70" class="st2"/><g id="g33"><path id="rect35" fill="#fff" d="M35.5.5h5v5h-5z" class="st3"/><path id="path37" fill="#bfbfbf" d="M40 1v4h-4V1h4m1-1h-6v6h6V0z" class="st4"/></g><g id="g39"><path id="rect41" fill="#fff" d="M35.5 70.5h5v5h-5z" class="st3"/><path id="path43" fill="#bfbfbf" d="M40 71v4h-4v-4h4m1-1h-6v6h6v-6z" class="st4"/></g><circle id="circle45" cx="73" cy="3" r="2" fill="#46a3e2" class="st5"/><circle id="circle47" cx="3" cy="3" r="2" fill="#46a3e2" class="st5"/><g id="g49"><g id="g51"><g id="g53"><path id="rect55" fill="#f4f4f4" d="M18.55 50.37l31.82-31.82 7.07 7.08-31.8 31.82z" class="st6"/><path id="path57" fill="#333" d="M50.4 19.3l6.4 6.4-31.2 31-6.4-6.4 31.2-31m0-1.5L17.8 50.4l7.8 7.8 32.5-32.5-7.7-7.9z" class="st7"/></g><g fill="#333"><path id="path59" d="M50.7 23.2c-.2.2-.5.2-.7 0L47.9 21c-.2-.2-.2-.5 0-.7s.5-.2.7 0l2.1 2.1c.2.2.2.6 0 .8z" class="st7"/><path id="path61" d="M45.8 22.4c.2-.2.5-.2.7 0l2.1 2.1c.2.2.2.5 0 .7s-.5.2-.7 0l-2.1-2.1c-.2-.1-.2-.5 0-.7z" class="st7"/><path id="path63" d="M43.7 24.6c.2-.2.5-.2.7 0l2.1 2.1c.2.2.2.5 0 .7s-.5.2-.7 0l-2.1-2.1c-.2-.2-.2-.5 0-.7z" class="st7"/><path id="path65" d="M41.5 26.7c.2-.2.5-.2.7 0l2.1 2.1c.2.2.2.5 0 .7s-.5.2-.7 0l-2.1-2.1c-.2-.2-.2-.5 0-.7z" class="st7"/><path id="path67" d="M39.4 28.8c.2-.2.5-.2.7 0l2.1 2.1c.2.2.2.5 0 .7s-.5.2-.7 0l-2.1-2.1c-.2-.2-.2-.5 0-.7z" class="st7"/><path id="path69" d="M37.3 30.9c.2-.2.5-.2.7 0l2.1 2.1c.2.2.2.5 0 .7s-.5.2-.7 0l-2.1-2.1c-.2-.2-.2-.5 0-.7z" class="st7"/><path id="path71" d="M35.2 33.1c.2-.2.5-.2.7 0l2.1 2.1c.2.2.2.5 0 .7s-.5.2-.7 0l-2.1-2.1c-.2-.2-.2-.6 0-.7z" class="st7"/><path id="path73" d="M33.1 35.2c.2-.2.5-.2.7 0l2.1 2.1c.2.2.2.5 0 .7s-.5.2-.7 0l-2.1-2.1c-.2-.2-.2-.5 0-.7z" class="st7"/><path id="path75" d="M30.9 37.3c.2-.2.5-.2.7 0l2.1 2.1c.2.2.2.5 0 .7s-.5.2-.7 0L30.9 38c-.2-.2-.2-.5 0-.7z" class="st7"/><path id="path77" d="M28.8 39.4c.2-.2.5-.2.7 0l2.1 2.1c.2.2.2.5 0 .7s-.5.2-.7 0l-2.1-2.1c-.2-.2-.2-.5 0-.7z" class="st7"/><path id="path79" d="M26.7 41.5c.2-.2.5-.2.7 0l2.1 2.1c.2.2.2.5 0 .7s-.5.2-.7 0l-2.1-2.1c-.2-.2-.2-.5 0-.7z" class="st7"/><path id="path81" d="M24.6 43.7c.2-.2.5-.2.7 0l2.1 2.1c.2.2.2.5 0 .7s-.5.2-.7 0l-2.1-2.1c-.2-.2-.2-.5 0-.7z" class="st7"/><path id="path83" d="M22.4 45.8c.2-.2.5-.2.7 0l2.1 2.1c.2.2.2.5 0 .7s-.5.2-.7 0l-2.1-2.1c-.2-.2-.2-.5 0-.7z" class="st7"/><path id="path85" d="M20.3 47.9c.2-.2.5-.2.7 0l2.1 2.1c.2.2.2.5 0 .7s-.5.2-.7 0l-2.1-2.1c-.2-.2-.2-.5 0-.7z" class="st7"/></g></g><g id="g87"><path id="rect89" fill="#46a3e2" d="M33.14 25.3l21.5 21.5-7.5 7.5-21.5-21.5z" class="st5"/><g fill="#333"><path id="polygon91" d="M54.7 50.5l-4.1 4.1 4.2.1z" class="st7"/><path id="rect93" d="M27.56 31.1l.7-.7L49.2 51.3l-.7.7z" class="st7"/><path id="rect95" d="M30.4 28.3l.7-.7 20.93 20.93-.7.7z" class="st7"/><path id="rect97" d="M53.92 46.1l.7.7-7.5 7.5-.7-.7z" class="st7"/></g><g id="g99"><path id="path101" fill="#ef4c3e" d="M22.9 30c-1.9-1.9-1.9-5.1 0-7.1.9-.9 2.2-1.5 3.5-1.5s2.6.6 3.6 1.5l.7.7-7.1 7.1-.7-.7z" class="st8"/><g id="g103"><path id="path105" fill="#333" d="M26.4 21.9c1.2 0 2.3.5 3.2 1.3l.4.4-6.4 6.4-.4-.4c-1.8-1.8-1.8-4.6 0-6.4.9-.8 2-1.3 3.2-1.3m0-1c-1.4 0-2.8.5-3.9 1.6-2.1 2.1-2.1 5.6 0 7.8l1.1 1.1 7.8-7.8-1.1-1.1c-1.1-1-2.5-1.6-3.9-1.6z" class="st7"/></g></g><g id="g107"><path id="path109" fill="#333" d="M30.7 24.3l1.4 1.4-6.4 6.4-1.4-1.4 6.4-6.4m0-1.4l-7.8 7.8 2.8 2.8 7.8-7.8-2.8-2.8z" class="st7"/></g><g id="g111"><path id="path113" fill="#333" d="M32.8 26.4l20.9 20.9.3 6.7-6.7-.3-20.9-20.9 6.4-6.4m0-1.4L25 32.8l21.9 21.9 8.1.4-.4-8.1-21.8-22z" class="st7"/></g></g></g></g></svg>