<svg id="Layer_1" xmlns:rdf="http://www.w3.org/1999/02/22-rdf-syntax-ns#" xmlns="http://www.w3.org/2000/svg" xml:space="preserve" viewBox="0 0 260 260" height="260" width="260" version="1.1" y="0px" x="0px" xmlns:cc="http://creativecommons.org/ns#" xmlns:dc="http://purl.org/dc/elements/1.1/"><style id="style3" type="text/css">
	.st0{fill:none;stroke:#E5E5E5;stroke-linecap:round;stroke-linejoin:round;}
	.st1{fill:none;stroke:#E5E5E5;stroke-linecap:round;stroke-linejoin:round;stroke-dasharray:2.9429,4.9049;}
	.st2{fill:none;stroke:#46A3E2;stroke-miterlimit:10;}
	.st3{fill:#FFFFFF;}
	.st4{fill:#BFBFBF;}
	.st5{fill:#46A3E2;}
	.st6{fill:#F4F4F4;}
	.st7{fill:#333333;}
	.st8{fill:#EF4C3E;}
</style><g id="g5" transform="scale(3.4211)"><g id="g7"><g id="g9" stroke-linejoin="round" stroke="#e5e5e5" stroke-linecap="round" fill="none"><path id="path11" d="m73 38v1.5" class="st0"/><path id="path13" d="m72.4 44.4c-3 16.3-17.2 28.6-34.4 28.6-18 0-32.8-13.6-34.8-31.1" class="st1" stroke-dasharray="2.9429, 4.9049"/><path id="path15" d="m3 39.5v-1.5" class="st0"/></g></g><path id="path17" d="m3 38c0-19.3 15.7-35 35-35s35 15.7 35 35" class="st2" stroke="#46a3e2" stroke-miterlimit="10" fill="none"/><g id="g19"><rect id="rect21" class="st3" height="5" width="5" y="38.5" x=".5" fill="#fff"/><path id="path23" fill="#bfbfbf" class="st4" d="m5 39v4h-4v-4h4m1-1h-6v6h6v-6z"/></g><g id="g25"><rect id="rect27" class="st3" height="5" width="5" y="38.5" x="70.5" fill="#fff"/><path id="path29" fill="#bfbfbf" class="st4" d="m75 39v4h-4v-4h4m1-1h-6v6h6v-6z"/></g><line id="line31" y2="3" x2="73" stroke="#46a3e2" stroke-miterlimit="10" y1="3" x1="3" class="st2" fill="none"/><g id="g33"><rect id="rect35" class="st3" height="5" width="5" y=".5" x="35.5" fill="#fff"/><path id="path37" fill="#bfbfbf" class="st4" d="m40 1v4h-4v-4h4m1-1h-6v6h6v-6z"/></g><g id="g39"><rect id="rect41" class="st3" height="5" width="5" y="70.5" x="35.5" fill="#fff"/><path id="path43" fill="#bfbfbf" class="st4" d="m40 71v4h-4v-4h4m1-1h-6v6h6v-6z"/></g><circle id="circle45" cy="3" cx="73" r="2" class="st5" fill="#46a3e2"/><circle id="circle47" cy="3" cx="3" r="2" class="st5" fill="#46a3e2"/><g id="g49"><g id="g51"><g id="g53"><rect id="rect55" transform="matrix(.7071 -.7071 .7071 .7071 -15.74 38)" height="10" width="45" y="33" x="15.5" class="st6" fill="#f4f4f4"/><path id="path57" fill="#333" class="st7" d="m50.4 19.3 6.4 6.4-31.2 31-6.4-6.4 31.2-31m0-1.5-32.6 32.6 7.8 7.8 32.5-32.5-7.7-7.9z"/></g><g fill="#333"><path id="path59" class="st7" d="m50.7 23.2c-0.2 0.2-0.5 0.2-0.7 0l-2.1-2.2c-0.2-0.2-0.2-0.5 0-0.7s0.5-0.2 0.7 0l2.1 2.1c0.2 0.2 0.2 0.6 0 0.8z"/><path id="path61" class="st7" d="m45.8 22.4c0.2-0.2 0.5-0.2 0.7 0l2.1 2.1c0.2 0.2 0.2 0.5 0 0.7s-0.5 0.2-0.7 0l-2.1-2.1c-0.2-0.1-0.2-0.5 0-0.7z"/><path id="path63" class="st7" d="m43.7 24.6c0.2-0.2 0.5-0.2 0.7 0l2.1 2.1c0.2 0.2 0.2 0.5 0 0.7s-0.5 0.2-0.7 0l-2.1-2.1c-0.2-0.2-0.2-0.5 0-0.7z"/><path id="path65" class="st7" d="m41.5 26.7c0.2-0.2 0.5-0.2 0.7 0l2.1 2.1c0.2 0.2 0.2 0.5 0 0.7s-0.5 0.2-0.7 0l-2.1-2.1c-0.2-0.2-0.2-0.5 0-0.7z"/><path id="path67" class="st7" d="m39.4 28.8c0.2-0.2 0.5-0.2 0.7 0l2.1 2.1c0.2 0.2 0.2 0.5 0 0.7s-0.5 0.2-0.7 0l-2.1-2.1c-0.2-0.2-0.2-0.5 0-0.7z"/><path id="path69" class="st7" d="m37.3 30.9c0.2-0.2 0.5-0.2 0.7 0l2.1 2.1c0.2 0.2 0.2 0.5 0 0.7s-0.5 0.2-0.7 0l-2.1-2.1c-0.2-0.2-0.2-0.5 0-0.7z"/><path id="path71" class="st7" d="m35.2 33.1c0.2-0.2 0.5-0.2 0.7 0l2.1 2.1c0.2 0.2 0.2 0.5 0 0.7s-0.5 0.2-0.7 0l-2.1-2.1c-0.2-0.2-0.2-0.6 0-0.7z"/><path id="path73" class="st7" d="m33.1 35.2c0.2-0.2 0.5-0.2 0.7 0l2.1 2.1c0.2 0.2 0.2 0.5 0 0.7s-0.5 0.2-0.7 0l-2.1-2.1c-0.2-0.2-0.2-0.5 0-0.7z"/><path id="path75" class="st7" d="m30.9 37.3c0.2-0.2 0.5-0.2 0.7 0l2.1 2.1c0.2 0.2 0.2 0.5 0 0.7s-0.5 0.2-0.7 0l-2.1-2.1c-0.2-0.2-0.2-0.5 0-0.7z"/><path id="path77" class="st7" d="m28.8 39.4c0.2-0.2 0.5-0.2 0.7 0l2.1 2.1c0.2 0.2 0.2 0.5 0 0.7s-0.5 0.2-0.7 0l-2.1-2.1c-0.2-0.2-0.2-0.5 0-0.7z"/><path id="path79" class="st7" d="m26.7 41.5c0.2-0.2 0.5-0.2 0.7 0l2.1 2.1c0.2 0.2 0.2 0.5 0 0.7s-0.5 0.2-0.7 0l-2.1-2.1c-0.2-0.2-0.2-0.5 0-0.7z"/><path id="path81" class="st7" d="m24.6 43.7c0.2-0.2 0.5-0.2 0.7 0l2.1 2.1c0.2 0.2 0.2 0.5 0 0.7s-0.5 0.2-0.7 0l-2.1-2.1c-0.2-0.2-0.2-0.5 0-0.7z"/><path id="path83" class="st7" d="m22.4 45.8c0.2-0.2 0.5-0.2 0.7 0l2.1 2.1c0.2 0.2 0.2 0.5 0 0.7s-0.5 0.2-0.7 0l-2.1-2.1c-0.2-0.2-0.2-0.5 0-0.7z"/><path id="path85" class="st7" d="m20.3 47.9c0.2-0.2 0.5-0.2 0.7 0l2.1 2.1c0.2 0.2 0.2 0.5 0 0.7s-0.5 0.2-0.7 0l-2.1-2.1c-0.2-0.2-0.2-0.5 0-0.7z"/></g></g><g id="g87"><rect id="rect89" transform="matrix(.7071 .7071 -.7071 .7071 39.93 -16.705)" height="10.6" width="30.4" y="34.5" x="24.9" class="st5" fill="#46a3e2"/><g fill="#333"><polygon id="polygon91" points="54.7 50.5 50.6 54.6 54.8 54.7" class="st7"/><rect id="rect93" transform="matrix(.7071 -.7071 .7071 .7071 -17.907 39.23)" height="29.6" width="1" y="26.4" x="37.9" class="st7"/><rect id="rect95" transform="matrix(.7071 -.7071 .7071 .7071 -15.078 40.402)" height="29.6" width="1" y="23.6" x="40.7" class="st7"/><rect id="rect97" transform="matrix(.7071 .7071 -.7071 .7071 50.314 -21.006)" height="10.6" width="1" y="44.9" x="50" class="st7"/></g><g id="g99"><path id="path101" fill="#ef4c3e" class="st8" d="m22.9 30c-1.9-1.9-1.9-5.1 0-7.1 0.9-0.9 2.2-1.5 3.5-1.5s2.6 0.6 3.6 1.5l0.7 0.7-7.1 7.1-0.7-0.7z"/><g id="g103"><path id="path105" fill="#333" class="st7" d="m26.4 21.9c1.2 0 2.3 0.5 3.2 1.3l0.4 0.4-6.4 6.4-0.4-0.4c-1.8-1.8-1.8-4.6 0-6.4 0.9-0.8 2-1.3 3.2-1.3m0-1c-1.4 0-2.8 0.5-3.9 1.6-2.1 2.1-2.1 5.6 0 7.8l1.1 1.1 7.8-7.8-1.1-1.1c-1.1-1-2.5-1.6-3.9-1.6z"/></g></g><g id="g107"><path id="path109" fill="#333" class="st7" d="m30.7 24.3 1.4 1.4-6.4 6.4-1.4-1.4 6.4-6.4m0-1.4-7.8 7.8 2.8 2.8 7.8-7.8-2.8-2.8z"/></g><g id="g111"><path id="path113" fill="#333" class="st7" d="m32.8 26.4 20.9 20.9 0.3 6.7-6.7-0.3-20.9-20.9 6.4-6.4m0-1.4-7.8 7.8 21.9 21.9 8.1 0.4-0.4-8.1-21.8-22z"/></g></g></g></g></svg>
