<?xml version="1.0" encoding="iso-8859-1"?>
<!-- Generator: Adobe Illustrator 19.0.0, SVG Export Plug-In . SVG Version: 6.00 Build 0)  -->
<svg version="1.1" id="Layer_1" xmlns="http://www.w3.org/2000/svg" xmlns:xlink="http://www.w3.org/1999/xlink" x="0px" y="0px"
	 viewBox="0 0 512 512" style="enable-background:new 0 0 512 512;" xml:space="preserve">
<path style="fill:#F9D026;" d="M298.984,461.98c40.791,0,49.672-20.567,50.204-36.016c0.56-16.26-5.02-37.183-5.02-37.183
	l-15.599,15.388l-29.584-35.666l-29.584,35.666l-15.599-15.388c0,0-5.581,20.922-5.02,37.183
	C249.312,441.414,258.194,461.98,298.984,461.98"/>
<path style="fill:#E7C224;" d="M298.984,461.98c40.791,0,49.672-20.567,50.204-36.016c0.56-16.26-5.02-37.183-5.02-37.183
	l-15.599,15.388l-29.584-35.666C298.984,368.503,298.984,430.396,298.984,461.98"/>
<rect x="243.031" y="449.124" style="fill:#61A2EF;" width="111.126" height="36.92"/>
<rect x="299.129" y="449.124" style="fill:#528ACF;" width="55.04" height="36.92"/>
<g>
	<polygon style="fill:#444242;" points="446.694,512 76.205,512 76.205,0 109.596,0 109.596,478.609 446.694,478.609 	"/>
	<rect x="92.904" y="96.456" style="fill:#444242;" width="205.702" height="22.261"/>
</g>
<circle style="fill:#F9D026;" cx="92.904" cy="107.587" r="27.598"/>
<circle style="fill:#FFAC12;" cx="92.904" cy="107.587" r="14.897"/>
<g>
	<path style="fill:#EDEEF0;" d="M270.711,36.286h-16.818v79.297c-12.92,7.385-23.866,17.838-31.863,30.476
		c-9.196,14.535-14.058,31.349-14.058,48.623c0,50.216,40.853,91.069,91.069,91.069s91.069-40.853,91.069-91.069
		c0-17.274-4.861-34.088-14.058-48.623c-7.997-12.639-18.943-23.091-31.863-30.476V36.286h-16.818H270.711z"/>
	<path style="fill:#EDEEF0;" d="M376.055,146.059c-7.997-12.639-18.943-23.091-31.863-30.476V36.286h-16.818h-28.331v249.465
		c50.216,0,91.069-40.853,91.069-91.069C390.111,177.408,385.25,160.593,376.055,146.059z"/>
</g>
<path style="fill:#F74D37;" d="M227.544,174.628c-1.814,6.483-2.754,13.223-2.754,20.054c0,40.942,33.309,74.251,74.251,74.251
	s74.251-33.309,74.251-74.251c0-6.832-0.939-13.571-2.754-20.054H227.544z"/>
<path style="fill:#B03727;" d="M370.54,174.628h-71.497v94.306c40.942,0,74.251-33.309,74.251-74.251
	C373.294,187.851,372.355,181.111,370.54,174.628z"/>
<rect x="254.062" y="49.899" style="fill:#D8D9DD;" width="90.13" height="17.696"/>
<rect x="299.129" y="49.898" style="fill:#B7B9C0;" width="45.065" height="17.696"/>
<path style="fill:#EDEEF0;" d="M342.532,55.022h-87.101c-7.495,0-13.572-6.076-13.572-13.572l0,0
	c0-7.495,6.076-13.572,13.572-13.572h87.101c7.495,0,13.572,6.076,13.572,13.572l0,0C356.103,48.945,350.027,55.022,342.532,55.022z
	"/>
<path style="fill:#DCDEE2;" d="M356.103,41.45L356.103,41.45c0-7.496-6.076-13.572-13.572-13.572h-43.404v27.145h43.404
	C350.027,55.022,356.103,48.945,356.103,41.45z"/>
<g>
	<circle style="fill:#FFFFFF;" cx="299.129" cy="197.465" r="13.342"/>
	<circle style="fill:#FFFFFF;" cx="259.093" cy="222.052" r="9.434"/>
</g>
<g>
	<circle style="fill:#EDEEF0;" cx="336.983" cy="237.212" r="9.434"/>
	<path style="fill:#EDEEF0;" d="M312.469,197.462c0,7.368-5.974,13.342-13.342,13.342c0-7.618,0-13.342,0-26.684
		C306.495,184.12,312.469,190.093,312.469,197.462z"/>
</g>
<path style="fill:#444242;" d="M256.94,127.559h83.318c11.246,0,20.363-9.117,20.363-20.363l0,0
	c0-11.246-9.117-20.363-20.363-20.363H256.94c-11.246,0-20.363,9.117-20.363,20.363l0,0
	C236.577,118.442,245.694,127.559,256.94,127.559z"/>
<path style="fill:#3A3839;" d="M360.621,107.196c0-11.246-9.117-20.363-20.364-20.363h-41.131v40.727h41.131
	C351.504,127.559,360.621,118.442,360.621,107.196z"/>
<g>
</g>
<g>
</g>
<g>
</g>
<g>
</g>
<g>
</g>
<g>
</g>
<g>
</g>
<g>
</g>
<g>
</g>
<g>
</g>
<g>
</g>
<g>
</g>
<g>
</g>
<g>
</g>
<g>
</g>
</svg>
