<svg xmlns="http://www.w3.org/2000/svg" viewBox="0 0 512 512" enable-background="new 0 0 512 512"><path fill="#F9D026" d="M298.98 461.98c40.8 0 49.68-20.57 50.2-36.02.57-16.26-5-37.18-5-37.18l-15.6 15.4-29.6-35.68-29.58 35.67-15.6-15.4s-5.58 20.93-5.02 37.2c.53 15.44 9.4 36 50.2 36"/><path fill="#E7C224" d="M298.98 461.98c40.8 0 49.68-20.57 50.2-36.02.57-16.26-5-37.18-5-37.18l-15.6 15.4-29.6-35.68s0 61.9 0 93.48"/><path fill="#61A2EF" d="M243.03 449.12h111.13v36.92H243.03z"/><path fill="#528ACF" d="M299.13 449.12h55.04v36.92h-55.04z"/><g fill="#444242"><path d="M446.7 512H76.2V0h33.4v478.6h337.1zM92.9 96.46h205.7v22.26H92.9z"/></g><circle cx="92.904" cy="107.587" r="27.598" fill="#F9D026"/><circle cx="92.904" cy="107.587" r="14.897" fill="#FFAC12"/><g fill="#EDEEF0"><path d="M270.7 36.3h-16.8v79.28c-12.93 7.4-23.87 17.84-31.87 30.48-9.2 14.53-14.06 31.35-14.06 48.62 0 50.22 40.86 91.07 91.07 91.07s91.07-40.85 91.07-91.07c0-17.27-4.85-34.1-14.05-48.62-8-12.64-18.94-23.1-31.86-30.48v-79.3H270.7zM376.06 146.06c-8-12.64-18.95-23.1-31.87-30.48v-79.3h-45.16v249.47c50.22 0 91.07-40.85 91.07-91.07 0-17.27-4.85-34.1-14.05-48.62z"/></g><path fill="#F74D37" d="M227.54 174.63c-1.8 6.48-2.75 13.22-2.75 20.05 0 40.94 33.3 74.25 74.24 74.25s74.25-33.3 74.25-74.25c0-6.83-.95-13.57-2.76-20.05h-143z"/><path fill="#B03727" d="M370.54 174.63h-71.5v94.3c40.94 0 74.25-33.3 74.25-74.25 0-6.83-.94-13.57-2.76-20.05z"/><path fill="#D8D9DD" d="M254.06 49.9h90.13v17.7h-90.14z"/><path fill="#B7B9C0" d="M299.13 49.9h45.06v17.7h-45.07z"/><path fill="#EDEEF0" d="M342.53 55.02h-87.1c-7.5 0-13.57-6.07-13.57-13.57s6.07-13.57 13.57-13.57h87.1c7.5 0 13.57 6.07 13.57 13.57s-6.07 13.57-13.57 13.57z"/><path fill="#DCDEE2" d="M356.1 41.45c0-7.5-6.07-13.57-13.57-13.57h-43.4v27.14h43.4c7.5 0 13.57-6.08 13.57-13.57z"/><g fill="#fff"><circle cx="299.129" cy="197.465" r="13.342"/><circle cx="259.093" cy="222.052" r="9.434"/></g><g fill="#EDEEF0"><circle cx="336.983" cy="237.212" r="9.434"/><path d="M312.47 197.46c0 7.37-5.98 13.34-13.34 13.34 0-7.6 0-13.34 0-26.68 7.37 0 13.34 5.97 13.34 13.34z"/></g><path fill="#444242" d="M256.94 127.56h83.32c11.24 0 20.36-9.12 20.36-20.36 0-11.25-9.12-20.37-20.36-20.37h-83.32c-11.25 0-20.36 9.12-20.36 20.37 0 11.24 9.1 20.36 20.36 20.36z"/><path fill="#3A3839" d="M360.62 107.2c0-11.25-9.12-20.37-20.36-20.37h-41.13v40.73h41.13c11.24 0 20.36-9.12 20.36-20.36z"/></svg>