<svg xmlns="http://www.w3.org/2000/svg" width="201.5" height="200.75"><path fill="#fff" stroke="#0275D8" stroke-miterlimit="10" d="M199.96 100.2c0 54.8-44.42 99.22-99.2 99.22-54.8 0-99.22-44.42-99.22-99.2C1.54 45.4 45.96 1 100.74 1c54.8 0 99.22 44.42 99.22 99.2z"/><path fill="#242D3C" d="M157.84 144.26H39.54v-37.64h5.48v32.16h107.34V73.25c0-.27-.1-.5-.3-.7-.2-.22-.47-.33-.73-.33H46.03c-.25 0-.5.1-.7.3-.2.22-.3.46-.3.73v5.3h-5.5v-5.3c0-1.74.7-3.38 1.93-4.6 1.2-1.2 2.87-1.9 4.58-1.9h105.3c1.7 0 3.4.7 4.6 1.93 1.2 1.2 1.9 2.83 1.9 4.57v71z"/><path fill="#0275D8" d="M66.15 78.54v28.08H51.33v34.9h94.72V78.54z"/><path fill="#242D3C" d="M158.77 156.05H33.07c-2.06 0-4-.8-5.5-2.27-1.46-1.47-2.26-3.4-2.26-5.5v-7.75h141.24v7.75c0 2.08-.8 4.03-2.28 5.5-1.47 1.46-3.42 2.27-5.5 2.27zM30.8 146v2.28c0 .62.22 1.2.65 1.62.43.43 1 .67 1.62.67h125.7c.6 0 1.2-.24 1.62-.68.42-.43.66-1 .66-1.62V146H30.8zM173.16 92.07h5.48v5.48h-5.48zM167.2 97.55h-5.94v-5.48h5.95v5.48zm-23.8 0h-5.95v-5.48h5.95v5.48zM126.02 92.07h5.48v5.48h-5.48zM131.5 86.1H126v-5.94h5.5v5.95zm0-23.8H126v-5.95h5.5v5.95zM126.02 44.92h5.48v5.48h-5.48zM167.2 50.4h-5.94v-5.48h5.95v5.48zm-11.9 0h-5.95v-5.48h5.96v5.48zm-11.9 0h-5.95v-5.48h5.95v5.48zM173.16 44.92h5.48v5.48h-5.48zM178.65 86.1h-5.5v-5.94h5.5v5.95zm0-11.9h-5.5v-5.94h5.5v5.95zm0-11.9h-5.5v-5.95h5.5v5.96zM55.78 44.38h22.28v5.48H55.78zM65.62 52.4h40.74v5.5H65.62zM26.88 95.6H40.4v5.48H26.9zM26.88 87.58h28.07v5.48H26.88zM66.13 111.1H15.7V77.56h50.43v33.56zm-44.94-5.47h39.45v-22.6H21.2v22.6zM177.82 122.22l7.04 7.04-3.87 3.88-7.06-7.05zM169.84 134.08l-9.08-25.03 25.03 9.07-15.96 15.96zm.07-15.9l2.16 5.92 3.76-3.76-5.9-2.15z"/><path fill="#fff" d="M121.16 108.85c0 12.42-10.07 22.48-22.48 22.48-12.4 0-22.46-10.06-22.46-22.48 0-12.4 10.06-22.46 22.46-22.46s22.48 10.05 22.48 22.45z"/><g fill="#242D3C"><path d="M98.7 119.1c-5.66 0-10.24-4.6-10.24-10.25 0-5.64 4.6-10.22 10.23-10.22 5.63 0 10.23 4.6 10.23 10.22 0 5.65-4.6 10.24-10.24 10.24zm0-15c-2.63 0-4.76 2.14-4.76 4.75 0 2.63 2.13 4.76 4.75 4.76 2.6 0 4.74-2.12 4.74-4.75 0-2.6-2.13-4.74-4.75-4.74zM113.17 131.97h-5.48c0-4.97-4.05-9-9-9-4.97-.02-9 4.03-9 9h-5.5c0-8 6.5-14.5 14.5-14.5 7.97 0 14.47 6.5 14.47 14.5z"/></g></svg>