<svg xmlns="http://www.w3.org/2000/svg" enable-background="new 0 0 504 504" viewBox="0 0 504 504"><path fill="#3765AF" d="M457.1 260c-9.2 58.5-27.1 75.6-58.8 114.9-31.7 33.3-77.3 88.9-141.9 85.8-58.5-9.2-75.6-27.1-114.9-58.8-33.3-31.7-88.9-77.3-85.8-141.9 9.2-58.5 27.1-75.6 58.8-114.9 31.7-33.3 77.3-88.9 141.9-85.8 58.5 9.2 75.6 27.1 114.9 58.8 33.3 31.7 88.9 77.3 85.8 141.9z"/><path fill="#fff" d="M174.9 360.3L156.8 157H356l-18.1 203.3-81.6 22.6z"/><path fill="#3765AF" d="M256.4 249h-33l-2.3-25.5h35.3v-25h-62.5l.6 6.7 6.1 68.8h55.8zM256.4 313.8h-.1l-27.8-7.5-1.8-19.9h-25l3.5 39.2 51.1 14.2h.1zM256.3 249v25H287l-2.9 32.3-27.8 7.5v26l51.1-14.2.4-4.2 5.9-65.7.6-6.7h-6.7zM256.3 198.5v25H316.6l.5-5.6 1.1-12.7.6-6.7z"/></svg>