<svg xmlns="http://www.w3.org/2000/svg" width="288.002" height="288" xmlns:xlink="http://www.w3.org/1999/xlink"><path fill="#1D1B1D" d="M50.4 33.44h187.2v106.7H50.4z"/><defs><path id="a" d="M50.4 33.44h187.2v106.7H50.4z"/></defs><clipPath id="b"><use xlink:href="#a" overflow="visible"/></clipPath><g clip-path="url(#b)"><path fill="#A51412" d="M48 30v8.1L69.42 30z"/><path fill="#00A1FF" d="M48 30v59.58L147.5 30z"/><path fill="#363436" d="M48 51.93v89.68l189.64-25.76z"/><path fill="#00A1FF" d="M48 139v5h191.1l.12-28.37z"/><path fill="#C21F1D" d="M184.75 144l-135.78-3.4-.2 3.4z"/><path fill="#006397" d="M48 32v13.95L82.44 32z"/><path fill="#252325" d="M48 140.35l189.8-24.47-4.47-1.28L48 100.23z"/></g><g fill="#fff"><path d="M143.47 80.2l3.03-3 3 3-.46.45-2.54-2.53-2.56 2.56zM137.84 78.08l8.66-8.66 8.66 8.66-8.66 8.65-8.66-8.65zm.93 0l7.73 7.73 7.73-7.72-7.73-7.73-7.73 7.73zM108.13 97.18v-7.25h2.12c.75 0 1.34.16 1.76.47.43.32.64.8.64 1.44 0 .37-.1.7-.32.97s-.5.48-.86.58c.45.08.8.3 1.08.63.27.34.4.73.4 1.17 0 .64-.2 1.14-.62 1.5s-.98.5-1.68.5h-2.5zm.6-4h1.66c.52 0 .92-.1 1.2-.35.3-.23.44-.57.44-1 0-.47-.15-.82-.46-1.05-.3-.23-.75-.35-1.33-.35h-1.53v2.75zm0 .5v3h1.9c.54 0 .96-.14 1.27-.4.3-.26.45-.63.45-1.1 0-.44-.13-.8-.4-1.07s-.7-.4-1.22-.4h-2zM119.53 89.93v4.92c0 .8-.24 1.4-.73 1.8-.48.43-1.1.64-1.9.64-.76 0-1.38-.22-1.85-.64s-.7-1.03-.7-1.8v-4.93h.58v4.9c0 .63.2 1.1.55 1.45.37.33.84.5 1.43.5.6 0 1.1-.17 1.47-.5s.56-.82.56-1.44v-4.9h.6zM125.45 95.4c0-.4-.14-.72-.44-.97s-.8-.47-1.53-.66c-.8-.2-1.4-.46-1.8-.78-.42-.33-.62-.76-.62-1.3 0-.56.23-1 .68-1.36.46-.35 1.05-.52 1.77-.52.74 0 1.35.2 1.8.62.46.42.7.93.67 1.53V92h-.56c0-.5-.16-.9-.5-1.2-.35-.3-.82-.47-1.4-.47-.6 0-1.04.13-1.37.4s-.5.57-.5.96c0 .35.16.66.47.9.3.25.82.46 1.56.65.78.2 1.38.47 1.78.8.4.35.6.8.6 1.35 0 .57-.22 1.03-.7 1.38s-1.07.5-1.8.5-1.36-.17-1.9-.53c-.54-.37-.8-.9-.8-1.6l.02-.03h.55c0 .56.22.98.64 1.25.42.27.92.4 1.5.4.57 0 1.03-.12 1.38-.37.36-.25.53-.58.53-1zM128.17 97.18h-.6v-7.25h.6v7.25zM135.54 97.18h-.6l-4.1-6.24h-.04v6.24h-.6v-7.25h.6l4.12 6.23h.03v-6.23h.6v7.25zM141.53 93.67h-3.5v3h4v.5h-4.58v-7.24h4.57v.5h-3.98v2.73h3.5v.5zM147.48 95.4c0-.4-.15-.72-.44-.97s-.8-.47-1.55-.66c-.8-.2-1.4-.46-1.8-.78-.42-.33-.63-.76-.63-1.3 0-.56.23-1 .7-1.36.45-.35 1.03-.52 1.75-.52.75 0 1.35.2 1.8.62.47.42.7.93.68 1.53l-.02.03h-.54c0-.5-.18-.9-.52-1.2-.34-.3-.8-.47-1.4-.47-.58 0-1.03.13-1.36.4s-.5.57-.5.96c0 .35.16.66.46.9.3.25.83.46 1.57.65.77.2 1.36.47 1.77.8.4.35.6.8.6 1.35 0 .57-.23 1.03-.7 1.38-.48.34-1.08.5-1.8.5-.74 0-1.37-.17-1.9-.53-.55-.37-.8-.9-.8-1.6l.02-.03h.53c0 .56.2.98.64 1.25.42.27.92.4 1.5.4.56 0 1.03-.12 1.38-.37.35-.25.53-.58.53-1zM153.6 95.4c0-.4-.13-.72-.43-.97s-.8-.47-1.54-.66c-.8-.2-1.4-.46-1.8-.78-.42-.33-.62-.76-.62-1.3 0-.56.24-1 .7-1.36.45-.35 1.04-.52 1.76-.52.74 0 1.35.2 1.8.62.47.42.7.93.67 1.53V92h-.56c0-.5-.17-.9-.52-1.2-.34-.3-.8-.47-1.4-.47-.57 0-1.03.13-1.36.4-.33.25-.5.57-.5.96 0 .35.15.66.46.9.3.25.82.46 1.56.65.78.2 1.38.47 1.78.8.4.35.6.8.6 1.35 0 .57-.22 1.03-.7 1.38-.47.34-1.07.5-1.8.5s-1.37-.17-1.9-.53c-.55-.37-.8-.9-.8-1.6l.02-.03h.55c0 .56.2.98.63 1.25.42.27.92.4 1.5.4.57 0 1.03-.12 1.4-.37.34-.25.5-.58.5-1zM163.6 97.18h-1.22l-3.22-5.3-.03.02v5.28h-1.2v-7.25h1.2l3.22 5.3.03-.02v-5.27h1.2v7.25zM169.1 95.5h-2.83l-.58 1.68h-1.24l2.67-7.25h1.15l2.63 7.25h-1.22l-.57-1.7zm-2.48-1.02h2.14l-1.05-3.1h-.02l-1.06 3.1zM173.33 89.93l2.08 5.58h.04l2.1-5.57h1.57v7.25h-1.2V94.7l.12-3.13H178l-2.17 5.6h-.8l-2.15-5.6h-.03l.12 3.14v2.48h-1.2v-7.25h1.56zM185.08 93.92h-3.17v2.3h3.7v.96h-4.9v-7.25h4.86v.97h-3.65v2.05h3.18v.97zM111.83 102.18c0-.08-.03-.14-.08-.18-.05-.04-.13-.08-.26-.13-.28-.08-.48-.17-.6-.27-.14-.1-.2-.23-.2-.42 0-.17.07-.32.23-.43.15-.1.35-.16.58-.16.25 0 .44.05.6.17.14.12.22.27.2.46h-.47c0-.07-.03-.14-.1-.2-.04-.05-.12-.07-.22-.07s-.17.02-.23.06c-.05.05-.08.1-.08.16 0 .07.02.12.07.15.06.04.17.1.32.14.23.08.4.16.54.27s.18.25.18.43c0 .2-.07.34-.22.44-.14.12-.34.17-.58.17-.24 0-.45-.06-.62-.18s-.26-.3-.26-.54h.48c0 .12.04.2.1.26.07.05.17.08.3.08.1 0 .18-.02.23-.06.05-.04.08-.1.08-.16zM114.42 102.36h.92v.38h-1.4v-2.12h.48v1.74zM118.6 101.87c0 .26-.08.48-.24.65-.17.17-.38.25-.65.25-.26 0-.48-.08-.65-.25-.16-.17-.25-.4-.25-.65v-.38c0-.27.1-.5.25-.66.17-.17.4-.25.66-.25.27 0 .5.07.66.24.16.17.25.4.25.65v.37zm-.48-.38c0-.17-.04-.3-.1-.4-.08-.08-.18-.13-.3-.13-.15 0-.25.04-.32.14s-.1.23-.1.4v.37c0 .15.03.28.1.38.08.1.18.14.3.14.14 0 .24-.06.3-.15.08-.1.12-.23.12-.38v-.38zM121.9 102.45c-.06.08-.16.16-.3.22-.14.07-.3.1-.52.1-.26 0-.47-.08-.64-.24-.16-.16-.24-.37-.24-.63v-.44c0-.26.08-.47.24-.63.16-.16.36-.24.62-.24.27 0 .47.05.6.18.15.12.22.3.24.52h-.46c-.02-.1-.06-.2-.1-.25-.07-.05-.15-.08-.27-.08s-.2.04-.28.13c-.08.1-.1.2-.1.36v.44c0 .15.02.27.1.36.06.1.16.13.28.13.1 0 .16 0 .22-.03.05 0 .1-.03.12-.06V102h-.33v-.33h.8v.8zM124.69 102.33H124l-.12.4h-.5l.7-2.1h.5l.7 2.1h-.5l-.1-.4zm-.58-.38h.45l-.22-.76-.22.75zM128.56 102.74h-.5l-.76-1.35v1.34h-.5v-2.12h.5l.76 1.35v-1.35h.5v2.12zM133.67 101.9h-.85v.84h-.5v-2.12h1.5v.38h-1v.5h.85v.4zM137.15 101.87c0 .26-.1.48-.25.65-.17.17-.4.25-.65.25-.27 0-.5-.08-.66-.25-.17-.17-.26-.4-.26-.65v-.38c0-.27.1-.5.25-.66.16-.17.38-.25.64-.25.27 0 .5.07.65.24.16.17.24.4.24.65v.37zm-.5-.38c0-.17-.03-.3-.1-.4-.08-.08-.18-.13-.3-.13-.14 0-.24.04-.3.14-.08.1-.12.23-.12.4v.37c0 .15.04.28.1.38.08.1.18.14.32.14.13 0 .23-.06.3-.15.07-.1.1-.23.1-.38v-.38zM139.27 101.93v.8h-.5v-2.1h.82c.24 0 .43.05.57.16.15.1.22.26.22.45 0 .1-.04.2-.1.3-.06.07-.14.13-.25.18.13.04.22.1.28.18s.08.2.08.33v.14c0 .05.02.12.04.2 0 .06.04.1.08.14v.04h-.5c-.04-.03-.07-.1-.08-.16 0-.08-.02-.15-.02-.22v-.12c0-.1-.03-.18-.08-.24-.05-.05-.13-.08-.24-.08h-.33zm0-.38h.32c.1 0 .17-.02.22-.07.05-.04.08-.1.08-.2 0-.08-.03-.15-.08-.2-.06-.06-.13-.08-.23-.08h-.33v.55zM145.83 102c0 .25-.08.44-.22.57-.13.13-.33.2-.6.2-.25 0-.47-.08-.63-.24-.17-.16-.25-.37-.25-.63v-.44c0-.26.08-.47.24-.63.16-.16.36-.24.62-.24s.47.05.6.2c.15.13.23.32.25.57h-.48c0-.13-.04-.24-.1-.3-.05-.07-.14-.1-.27-.1-.12 0-.2.04-.27.13s-.08.2-.08.36v.44c0 .15.03.27.1.36.07.1.17.13.3.13.1 0 .2-.04.24-.1.05-.07.08-.17.1-.3h.47zM149.2 101.87c0 .26-.1.48-.26.65s-.38.25-.65.25c-.28 0-.5-.08-.66-.25s-.25-.4-.25-.65v-.38c0-.27.07-.5.24-.66.16-.17.38-.25.65-.25.26 0 .47.07.64.24.17.17.25.4.25.65v.37zm-.5-.38c0-.17-.04-.3-.1-.4-.08-.08-.18-.13-.3-.13-.14 0-.24.04-.32.14s-.1.23-.1.4v.37c0 .15.03.28.1.38s.18.14.3.14c.14 0 .24-.06.3-.15s.12-.23.12-.38v-.38zM151.47 100.62l.47 1.48.5-1.48h.64v2.12h-.5v-.52l.05-.97-.52 1.5h-.32l-.5-1.5.03.97v.52h-.48v-2.12h.65zM155.25 102v.74h-.5v-2.12h.87c.25 0 .45.06.6.2.14.12.22.3.22.5s-.07.37-.22.5-.35.2-.6.2h-.37zm0-.37h.37c.1 0 .2-.02.24-.08.06-.06.1-.14.1-.23 0-.1-.04-.17-.1-.23-.05-.07-.14-.1-.24-.1h-.37v.63zM158.93 102.33h-.67l-.12.4h-.5l.7-2.1h.52l.7 2.1h-.5l-.13-.4zm-.56-.38h.45l-.22-.76-.23.75zM162.8 102.74h-.48l-.78-1.35v1.34h-.5v-2.12h.5l.77 1.35h.02v-1.35h.5v2.12zM165.23 101.55l.43-.93h.54l-.73 1.37v.74h-.5v-.77l-.7-1.35h.54l.43.92zM171.56 102.74h-.5v-.85h-.78v.84h-.5v-2.12h.5v.9h.8v-.9h.48v2.12zM174.56 101.83h-.83v.53h.98v.38h-1.47v-2.12h1.48v.38h-.97v.45h.83v.38zM176.77 101.93v.8h-.5v-2.1h.82c.24 0 .43.05.58.16.14.1.2.26.2.45 0 .1-.02.2-.07.3-.05.07-.14.13-.25.18.13.04.22.1.28.18s.1.2.1.33v.14c0 .05 0 .12 0 .2.03.06.06.1.1.14v.04h-.5c-.05-.03-.07-.1-.1-.16 0-.08 0-.15 0-.22v-.12c0-.1-.03-.18-.1-.24-.04-.05-.12-.08-.22-.08h-.33zm0-.38h.33c.1 0 .17-.02.22-.07.06-.04.08-.1.08-.2 0-.08-.02-.15-.08-.2-.05-.06-.13-.08-.23-.08h-.33v.55zM180.92 101.83h-.84v.53h.98v.38h-1.47v-2.12h1.47v.38h-1v.45h.85v.38z"/></g><path fill="#1D1B1D" d="M50.52 155.8h187.2v106.7H50.52z"/><defs><path id="c" d="M50.52 155.8h187.2v106.7H50.52z"/></defs><clipPath id="d"><use xlink:href="#c" overflow="visible"/></clipPath><g clip-path="url(#d)"><path fill="#A51412" d="M48 151.5v9.02l23.84-9.02z"/><path fill="#00A1FF" d="M48 151.5v60.53l101.08-60.53z"/><path fill="#363436" d="M48 174.26V264l189.76-25.8z"/><path fill="#00A1FF" d="M239.2 266l.14-28L48 261.38V266z"/><path fill="#C21F1D" d="M170.15 266L49.1 262.96l-.2 3.04z"/><path fill="#006397" d="M48 152.93v15.72l38.82-15.72z"/><path fill="#252325" d="M48 262.73l189.92-24.48-4.47-1.28L48 222.6z"/></g><g fill="#fff"><path d="M71.35 207.13l2.46 5.9h.04l2.46-5.9h.73v6.7h-.55v-2.96l.05-2.93h-.03l-2.48 5.88h-.38l-2.48-5.86h-.03l.05 2.9v2.96h-.55v-6.7h.72zM82.46 211.95H79.4l-.7 1.87h-.56l2.54-6.7h.5l2.54 6.7h-.57l-.7-1.87zm-2.88-.5h2.7l-1.34-3.6h-.02l-1.34 3.6zM85.27 210.8v3.02h-.54v-6.68h2.26c.7 0 1.25.15 1.64.47.38.32.57.78.57 1.38 0 .36-.1.68-.3.96s-.5.48-.86.6c.4.1.7.3.9.57.17.28.26.6.26 1.02v.62c0 .2.03.4.08.56.04.17.13.3.24.4v.12h-.56c-.1-.1-.2-.27-.24-.47s-.07-.4-.07-.62v-.6c0-.42-.13-.74-.4-.98-.26-.23-.63-.35-1.1-.35h-1.88zm0-.47h1.65c.6 0 1.04-.12 1.32-.37.28-.24.42-.57.42-.98 0-.44-.14-.78-.42-1.02-.27-.24-.7-.35-1.25-.35h-1.73v2.73zM92.4 210.68h-.93v3.14h-.54v-6.7h.54v3.1h.92l2.62-3.1h.62v.03l-2.75 3.27 2.95 3.38v.02h-.66l-2.8-3.14zM98.9 210.85l2.08-3.72h.63l-2.42 4.25v2.44h-.55v-2.48l-2.42-4.2h.65l2.06 3.7zM108.4 212.1c0-.28-.1-.5-.3-.7-.2-.16-.57-.32-1.1-.46-.74-.2-1.32-.46-1.72-.78-.4-.32-.6-.75-.6-1.27 0-.55.22-1 .66-1.34s1.02-.52 1.73-.52c.73 0 1.32.2 1.77.6s.66.86.64 1.42v.02h-1.07c0-.34-.1-.62-.34-.83-.24-.2-.57-.32-1-.32-.4 0-.72.1-.94.27-.22.18-.33.4-.33.68 0 .26.1.47.35.64s.63.32 1.18.47c.72.2 1.26.45 1.64.8s.56.77.56 1.3c0 .55-.23 1-.67 1.32-.45.33-1.03.5-1.76.5-.7 0-1.3-.2-1.83-.56-.53-.37-.8-.88-.77-1.52v-.03h1.08c0 .42.14.72.42.92.3.2.65.3 1.1.3.42 0 .74-.08.97-.25.23-.17.34-.4.34-.67zM112.15 207.13l1.92 5.15h.03l1.93-5.15h1.45v6.7h-1.12v-2.3l.1-2.9h-.02l-1.98 5.2h-.75l-1.97-5.18h-.02l.12 2.9v2.27h-1.12v-6.7h1.45zM120.12 213.82H119v-6.7h1.12v6.7zM126.2 208.03h-2v5.8h-1.12v-5.8h-2.02v-.9h5.15v.9zM132.3 213.82h-1.1v-2.85h-3v2.85h-1.1v-6.7h1.1v2.95h3v-2.94h1.1v6.7z"/></g><g fill="#00A1FF"><path d="M93.61 219.25h-.76l-.13.47h-.57l.8-2.44h.6l.8 2.44h-.58l-.14-.47zm-.63-.44h.52l-.26-.86-.27.87zM96.61 218.78v.94h-.55v-2.44H97c.27 0 .5.06.66.2s.25.3.25.53c0 .14-.03.25-.1.34-.06.1-.16.16-.3.22.16.04.27.1.34.2s.1.24.1.38v.16c0 .06 0 .13.02.2.02.1.06.15.1.2v.02h-.58c-.05-.03-.08-.1-.1-.18 0-.1 0-.17 0-.25v-.15c0-.12-.04-.2-.1-.27-.07-.06-.15-.1-.27-.1h-.4zm.02-.43h.37c.1 0 .2-.03.25-.08.06-.05.1-.13.1-.22 0-.1-.04-.18-.1-.24-.06-.06-.15-.1-.27-.1h-.37v.65zM101.48 217.72h-.64v2h-.57v-2h-.64v-.44h1.85v.44zM105.67 219.72v-2.44h.88c.3 0 .53.1.72.28.2.2.3.43.3.72v.44c0 .3-.1.54-.3.72-.2.2-.43.28-.72.28h-.88zm.56-2v1.57h.28c.16 0 .28-.07.36-.17s.13-.24.13-.4v-.45c0-.17-.05-.3-.14-.4-.08-.1-.2-.16-.35-.16h-.27zM110.06 219.72h-.56v-2.44h.56v2.44zM112.6 218.78v.94h-.57v-2.44h.94c.28 0 .5.06.67.2s.25.3.25.53c0 .14-.04.25-.1.34-.07.1-.17.16-.3.22.15.04.26.1.32.2s.1.24.1.38v.16c0 .06 0 .13.03.2.02.1.05.15.1.2v.02h-.6c-.03-.03-.06-.1-.07-.18-.02-.1-.02-.17-.02-.25v-.15c0-.12-.04-.2-.1-.27-.06-.06-.15-.1-.27-.1h-.4zm0-.43h.38c.1 0 .2-.03.26-.08s.1-.13.1-.22c0-.1-.04-.18-.1-.24-.07-.06-.16-.1-.27-.1h-.37v.65zM117.38 218.68h-.96v.6h1.13v.44h-1.7v-2.44h1.7v.44h-1.13v.52h.96v.44zM121.26 218.87c0 .3-.1.5-.26.66-.15.15-.38.23-.68.23-.3 0-.55-.1-.74-.28-.2-.2-.28-.43-.28-.72v-.5c0-.3.1-.55.27-.74.18-.18.42-.28.7-.28.32 0 .55.08.72.24.15.15.24.37.26.66h-.55c0-.15-.04-.27-.1-.34-.06-.08-.17-.12-.32-.12-.13 0-.23.05-.3.15s-.12.24-.12.4v.53c0 .16.04.3.12.4.08.1.2.16.33.16.15 0 .25-.04.3-.1.06-.08.1-.2.1-.36h.56zM124.77 217.72h-.65v2h-.57v-2h-.64v-.44h1.86v.44zM128.52 218.72c0 .3-.1.55-.3.75-.18.2-.43.3-.74.3-.3 0-.56-.1-.75-.3s-.3-.45-.3-.75v-.44c0-.3.1-.55.3-.74s.44-.3.75-.3c.3 0 .55.1.75.3s.3.44.3.74v.44zm-.57-.44c0-.18-.04-.32-.12-.43-.1-.12-.2-.17-.35-.17-.15 0-.27.05-.35.17-.08.1-.13.25-.13.43v.44c0 .18.05.32.13.43.08.1.2.17.35.17.15 0 .27-.05.35-.17.08-.1.12-.25.12-.43v-.44zM130.96 218.78v.94h-.57v-2.44h.93c.3 0 .5.06.68.2s.26.3.26.53c0 .14-.04.25-.1.34-.07.1-.17.16-.3.22.15.04.26.1.32.2s.1.24.1.38v.16c0 .06 0 .13.03.2.03.1.06.15.1.2v.02h-.57c-.05-.03-.08-.1-.1-.18 0-.1 0-.17 0-.25v-.15c0-.12-.04-.2-.1-.27-.07-.06-.16-.1-.27-.1h-.4zm0-.43h.38c.1 0 .2-.03.26-.08s.1-.13.1-.22c0-.1-.04-.18-.1-.24-.07-.06-.15-.1-.27-.1h-.37v.65z"/></g><g fill="#fff"><path d="M158.25 193.1l-2.7-2.06h5.4zM157.3 192.93l-2.15 1.77v-3.44zM157.67 193.2l.57.45.6-.47 2.13 1.76h-5.44zM159.2 192.9l2.16-1.64v3.44z"/></g><g fill="#fff"><path d="M156.63 230.26c.03.08-.07.03-.07.07 0 0 .02 0 .03 0 .02.02.2 0 .17-.03-.03-.05-.14-.02-.14-.04zM158.7 228.6c.06 0 .15-.1.07-.1-.07.02-.2 0-.24.03.03 0 .04 0 .06 0 0 .06.05.1.1.06zM158.92 229c.03 0 .1-.1.05-.1-.1-.02-.12.05-.1.1-.06.05.02.03.05 0zM156.6 230.24c-.03-.08-.4-.16-.35-.04-.02-.07.15-.02.17 0 .03 0 0 .07.05.07 0 0 .13 0 .12-.03zM159 228.9c0-.02.1.1.02.1 0 0-.03.03-.03.03s.02 0 .04 0c-.03.03-.04.04-.07.06.04 0 .23-.04.2-.07 0 0 .06-.03 0-.05-.02 0-.02-.03-.05-.06-.02-.03-.03-.06-.03-.07 0 0-.02-.06-.04-.06 0-.03.03-.05.03-.05-.05.02-.16.06-.1.1 0 0-.04.02-.03.03.02 0 .02.02.04 0zM158.12 227.9c-1.62 0-2.94 1.3-2.94 2.93 0 1.62 1.32 2.94 2.94 2.94s2.94-1.32 2.94-2.94c0-1.62-1.32-2.94-2.94-2.94zm1.42 1.7c-.14 0-.28 0-.4.07-.03.02-.17 0-.1-.06.02 0 .18-.03.16-.07-.03-.1.1-.1.1-.16 0 0 .17-.07.2-.07s.12.14.17.16c.1.03-.02.1-.08.1 0 0 .08.04.08.04 0-.04.04-.05.06-.1 0 0-.02-.03 0-.04.02 0 .06 0 .05.03 0-.07-.22-.13-.18-.26-.02.05.1.12.13.13.06.04.04.05.07.1 0 .03.08.13.1.13.1 0 .02-.1.02-.13 0 0 .08-.04.1.03 0 0 0 .05.03.07 0 0 .06.05.06.04 0 .04.1 0 .18.02.03.02.04.05.06.08-.02.05-.06.14-.1.1-.04-.02-.13.03-.18 0-.04 0-.26-.12-.25 0 .02.12-.14-.03-.2-.05-.04 0-.12 0-.1-.07.02-.02 0-.1 0-.1zm.13-.73c.02 0 .04.03.06.05-.07 0-.16 0-.18.02 0-.02.1-.06.1-.04 0-.02 0-.02.02-.03zm.93 1.63c-.02-.03-.04-.06-.05-.07-.03-.03-.07-.06-.07-.1 0 0-.04-.12-.05-.13-.02-.03-.1-.25-.13-.25.07 0 .17.12.18.2 0 .07.06.1.1.16 0 .07 0 .14.02.2zm-.5-1.2c.04.04.07.07.1.1-.05.03-.08.04-.13-.02 0 0 .02-.05.04-.07zm.23 2.7c-.02.04-.03.07-.05.1 0-.05 0-.06.05-.1zm.04-.14c0-.06 0-.06.06-.1 0-.02.02-.03.03-.04-.02.07-.05.14-.1.2 0-.02 0-.04 0-.06zm.2-.7c0-.03.02-.05.04-.07 0 .1-.02.22-.05.33-.02-.1-.05-.16 0-.28zm-4.96-.33c0-.18.03-.35.06-.52.07.06.18.14.25.12.07-.02.1 0 .13.06.03.03.1.02.13.04.06.04.07.13.14.18.03.02.05 0 .08.04.07.06.02-.06.06-.05.24.05-.13.37-.02.45-.1.07.04.23.08.3.04.05.06.15.12.2.08.05.16.08.18.18.03.14.05.33.04.47 0 .07-.02.4.07.4 0 0 0-.02 0-.03 0 0 0 0 .02 0 0 .03 0 .07 0 .1-.07-.02.02.12 0 .13 0 .04.06.13.14.2-.85-.4-1.45-1.26-1.45-2.27zm2.52 2.5c-.3 0-.6-.05-.86-.15.03 0 .06 0 .08-.03-.13-.03-.23-.15-.13-.26-.07-.04-.05-.16 0-.2-.03 0-.05-.03-.05-.07.04.02.05 0 .08-.02.02 0 0-.03.06-.05.1-.03.06-.14 0-.17.02 0 .1.04.12 0 .05-.05.05-.1.08-.16.02-.03.08-.05.07-.13-.02-.1.04-.1.1-.15.15-.08.18-.16.18-.34 0-.12.2-.22.1-.35-.05 0-.25-.2-.32-.1.05-.06-.1-.1-.13-.06 0-.07-.05-.1-.07-.14-.05-.1-.04-.15-.17-.15-.1 0-.16-.13-.24-.18 0 0 .03 0 .04 0-.08 0-.24.04-.3-.06 0 .03-.05.07-.04.1-.03-.02-.02-.06.02-.1-.05 0-.16.03-.16.1 0 .1-.12 0-.18.02-.1.05-.1-.14-.08-.18.03-.1-.16-.1-.16-.1.02-.06.05-.14.08-.2-.12-.03-.08.04-.14.1-.02 0-.16.03-.16 0 0-.02-.05-.1-.05-.13-.02-.05.03-.1.03-.16 0-.05.17-.18.23-.12.03.04.07-.03.1-.03s.13 0 .14 0c.07.07 0 .15.1.2.05-.1-.04-.2.06-.28.03-.04.1-.06.14-.1 0 0 .07-.1.06-.1 0 0 .08-.1.1-.1.03-.05.1-.03.14-.06 0 0 0-.06.03-.07.06-.03.12-.05.18-.07-.06.04-.05.1.02.05.05-.02.1-.04.16-.06 0 0 0-.02 0-.04-.03.03-.1.07-.13.05-.05-.04 0-.1.02-.12 0-.02-.16.04-.18.05.05-.06.12-.1.2-.1.1 0 .16-.03.24-.04-.05.04-.1.08-.13.14.06 0 .1 0 .13.02 0 0 .02 0 .02-.02 0 0 0 .02.02.03.04 0 .05-.05.04-.1 0 0-.08 0-.06-.03.02-.04.1-.13 0-.17-.04-.02-.1-.15-.06-.2-.05.1-.23.07-.13 0-.07-.03-.07-.06-.15-.07-.1 0-.08.1-.15.14.1-.02-.1.14-.08.13-.04.04-.04 0-.06.1 0 0-.03.03-.05.05 0-.02 0-.05-.03-.07 0 0 .02 0 .03 0 0 0 0 0-.02 0 .02-.03.02-.06.04-.08-.1.02-.14-.1-.23-.08.1-.1.22-.15.33-.2.05-.04.1-.04.14-.03 0-.03 0-.04-.02-.05.08-.04.15-.06.23-.1.04 0 .06 0 .07 0 0 0 .02 0 .03-.02.05 0-.03.06-.05.07-.02 0-.02.02-.05.04-.04 0-.05-.03-.1.02.04.02.1 0 .13.02 0 0 .14.1.14.08 0-.02-.04-.06-.03-.07 0-.02.07.03.07.03.07-.05 0-.1.02-.13.04-.02.06.08.1.03 0 0 .05-.03.07-.04-.05-.05-.1-.05-.12-.08 0 0 .02-.02 0-.05.14-.02.27-.03.4-.04 0 0 0 0 .02 0-.04 0-.07 0-.08.05.03 0 .05 0 .07 0-.08.05-.14.13-.1.24.02.05.05.1.1.1.1 0 .08-.04.14-.1.1-.08.13-.07.24-.12.1-.04.2-.1.3-.12.25.05.5.16.72.3 0 .03 0 .08 0 .1.03 0 .13 0 .15-.02.02.04.06.16 0 .1 0 .02 0-.05 0-.06-.15 0 0 .14-.12.15-.08 0-.06.08-.14.1 0 0-.1.07-.13.06 0 .03 0 .05 0 .04-.03-.03-.14-.02-.03.05.1.05.03.16-.07.14-.06-.02-.12-.02-.15.02 0 .02 0 .22 0 .22.05-.02.1.02.08.07-.02.06-.1.1-.13.17-.02.04-.02.07-.07.1-.03.04-.08.04-.1.1-.02.05-.1.12-.1.2 0 .03.03.07.03.12 0 .03 0 .1-.03.1-.03.02.02.04 0 .07-.02.1.1.1.1.16 0 .1.14.15.2.2 0 0 .22-.02.23-.02.1-.05.18-.1.25.02.02.03.1 0 .12.02.03.03 0 .07 0 .1 0 .04-.02.06-.02.1 0 .04.08.08.1.13.03.1.07.17.07.24 0 .1-.1.2-.06.3 0 .1.08.17.1.28 0 .1.07.16.1.25 0 .02 0 .07 0 .1 0 .04.07 0 .1 0 .1.04.23-.05.3-.13 0-.02.02-.04.04-.06-.45.7-1.23 1.16-2.12 1.16z"/></g><path fill="#fff" fill-rule="evenodd" d="M155.8 203.43c0-.5.2-.95.58-1.28.14-.14.35-.38.57-.36.23.02.4.28.5.46.2.3.54.77.24 1.12-.15.16-.38.25-.5.43-.14.2-.06.43.03.62.2.4.56.8.92 1.1.16.13.37.3.6.25.22-.03.4-.3.56-.42.44-.35.9.12 1.22.4.14.13.32.3.3.52 0 .22-.3.4-.44.52-.4.33-.93.44-1.46.33-.56-.12-1.04-.45-1.46-.83-.44-.38-.8-.84-1.12-1.32-.15-.23-.28-.46-.37-.72-.1-.28-.13-.54-.17-.83 0-.28.02.14 0 0z" clip-rule="evenodd"/><path fill="#fff" d="M160.56 217.37c0-1.28-1.04-2.33-2.33-2.33s-2.33 1.05-2.33 2.33c0 .48.15.93.4 1.3l1.93 2.9 1.94-2.9c.25-.37.4-.8.4-1.3zm-2.33 1.3c-.72 0-1.3-.58-1.3-1.3s.58-1.3 1.3-1.3 1.3.6 1.3 1.3-.58 1.3-1.3 1.3z"/><g fill="#fff"><path d="M165.65 194h-.53v-2.3h.53v2.3zM168.37 194h-.53l-.84-1.46V194h-.55v-2.3h.54l.83 1.47v-1.46h.54v2.3zM170.6 193.08h-.92v.93h-.54v-2.3h1.62v.42h-1.08v.55h.92v.4zM173.3 193.06c0 .3-.08.52-.26.7-.18.2-.4.28-.7.28s-.53-.1-.7-.27c-.2-.2-.3-.42-.3-.7v-.42c0-.28.1-.52.3-.7.17-.2.4-.28.7-.28.28 0 .52.1.7.28s.27.42.27.7v.4zm-.52-.4c0-.18-.04-.3-.12-.42-.07-.1-.18-.16-.32-.16-.15 0-.26.06-.34.16-.07.1-.1.24-.1.4v.42c0 .17.03.3.1.4.08.12.2.17.34.17s.25-.05.32-.16c.08-.1.12-.24.12-.4v-.42zM176.58 193.2c0 .22-.08.42-.2.6-.14.16-.33.24-.6.24-.07 0-.14-.02-.2-.07-.07-.05-.1-.1-.14-.2-.04.1-.1.15-.16.2-.07.04-.15.07-.24.07-.15 0-.27-.07-.36-.2s-.1-.28-.1-.5c.04-.25.12-.47.24-.63s.28-.22.47-.22c.1 0 .22 0 .3.04.07.02.16.07.25.12l-.08.9c0 .1 0 .16.02.2s.03.05.06.05c.12 0 .2-.07.3-.18.06-.12.1-.26.1-.43.02-.37-.05-.65-.2-.85-.16-.2-.4-.3-.73-.3-.32 0-.57.1-.76.32-.2.22-.3.5-.3.88-.03.36.05.65.22.86.16.22.4.32.72.32.1 0 .18 0 .28-.03s.18-.05.25-.08l.06.26c-.06.05-.15.08-.26.1-.1.03-.22.04-.32.04-.43 0-.76-.13-1-.4-.22-.25-.32-.6-.3-1.07 0-.45.15-.8.4-1.08.26-.26.6-.4 1-.4.43 0 .74.13.96.38.22.25.32.6.3 1.04zm-1.6.15c0 .13 0 .22.03.3s.1.08.15.08c.06 0 .1 0 .15-.04s.1-.1.12-.2l.06-.7c-.02 0-.04 0-.07-.02 0 0-.03 0-.05 0-.1 0-.2.04-.25.14-.06.1-.1.24-.1.43zM177.3 194v-2.3h.8c.27 0 .5.06.66.16.16.1.24.27.24.48 0 .1-.03.2-.08.3-.05.08-.13.14-.24.18.13.03.23.1.3.2.06.08.1.2.1.3 0 .23-.08.4-.23.52-.15.1-.37.17-.65.17h-.9zm.53-1.33h.27c.12 0 .2-.03.27-.07.06-.05.1-.1.1-.2s-.04-.17-.1-.22c-.06-.04-.16-.06-.28-.06h-.27v.55zm0 .35v.58h.37c.1 0 .2-.02.26-.07.05-.04.08-.1.08-.2s-.02-.18-.07-.23c-.05-.05-.13-.08-.24-.08h-.4zM181.67 191.7v1.52c0 .26-.1.46-.26.6s-.4.22-.68.22-.5-.07-.7-.2c-.16-.16-.25-.36-.25-.62v-1.5h.53v1.5c0 .14.04.24.1.3.1.08.2.1.32.1s.24-.02.3-.1c.08-.06.1-.16.1-.3v-1.5h.55zM183.65 193.4c0-.08-.03-.15-.08-.2-.06-.03-.15-.08-.3-.13-.28-.1-.5-.2-.64-.3-.14-.1-.2-.25-.2-.45s.08-.35.24-.47c.17-.12.38-.18.64-.18.27 0 .47.07.64.2.16.13.24.3.23.5h-.52c0-.08-.03-.15-.1-.2s-.14-.1-.25-.1c-.1 0-.2.03-.25.08-.06.04-.1.1-.1.17s.04.12.1.16c.06.04.17.1.34.16.26.07.45.17.6.28.12.12.2.27.2.47 0 .2-.1.35-.25.47-.16.1-.37.17-.63.17s-.5-.06-.68-.2c-.2-.13-.28-.32-.28-.56h.53c0 .12.02.22.1.27.07.06.18.1.32.1.1 0 .2-.03.25-.08.05-.04.08-.1.08-.17zM185.45 194h-.54v-2.3h.55v2.3zM188.17 194h-.53l-.84-1.46V194h-.55v-2.3h.54l.83 1.47v-1.46h.54v2.3zM190.38 193.02h-.9v.58h1.06v.4h-1.6v-2.3h1.6v.42h-1.07v.5h.9v.4zM192.4 193.4c0-.08-.02-.15-.07-.2s-.15-.08-.3-.13c-.28-.1-.5-.2-.64-.3-.15-.1-.22-.25-.22-.45s.1-.35.25-.47c.17-.12.38-.18.64-.18s.46.07.63.2c.16.13.24.3.23.5h-.52c0-.08-.02-.15-.08-.2-.06-.07-.15-.1-.26-.1-.1 0-.2.03-.25.08-.05.04-.1.1-.1.17s.05.12.1.16.18.1.35.16c.27.07.46.17.6.28.13.12.2.27.2.47 0 .2-.08.35-.24.47s-.36.17-.62.17-.5-.06-.68-.2c-.2-.13-.28-.32-.28-.56h.53c0 .12.03.22.1.27.08.06.2.1.33.1.1 0 .2-.03.25-.08s.08-.1.08-.17zM194.86 193.4c0-.08-.03-.15-.08-.2-.05-.03-.15-.08-.3-.13-.28-.1-.5-.2-.64-.3-.14-.1-.2-.25-.2-.45s.08-.35.24-.47c.17-.12.38-.18.64-.18s.47.07.63.2c.16.13.24.3.23.5h-.52c0-.08-.03-.15-.1-.2-.05-.07-.14-.1-.25-.1-.1 0-.18.03-.24.08-.06.04-.1.1-.1.17s.04.12.1.16c.06.04.18.1.35.16.27.07.46.17.6.28.13.12.2.27.2.47 0 .2-.08.35-.24.47-.16.1-.37.17-.63.17s-.5-.06-.68-.2c-.2-.13-.28-.32-.28-.56h.53c0 .12.03.22.1.27.08.06.2.1.33.1.1 0 .2-.03.25-.08.05-.04.08-.1.08-.17zM198 194h-.52l-.85-1.46V194h-.54v-2.3h.53l.84 1.47v-1.46h.54v2.3zM200.03 193.56h-.73l-.13.45h-.53l.74-2.3h.57l.75 2.3h-.54l-.13-.44zm-.6-.4h.48l-.23-.83-.25.82zM201.97 191.7l.52 1.62.52-1.6h.7v2.3h-.53v-.58l.04-1.05v-.02l-.57 1.63h-.36l-.54-1.6.04 1.04v.57h-.53v-2.3h.7zM205.93 193.02h-.9v.58h1.06v.4h-1.6v-2.3h1.6v.42h-1.07v.5h.9v.4zM207.3 194h-.53v-.44h.54v.45zM209.9 193.2h.02c0 .28-.1.5-.24.63-.15.14-.37.2-.65.2-.3 0-.52-.08-.7-.25-.17-.18-.26-.4-.26-.68v-.48c0-.28.08-.5.25-.7s.4-.25.67-.25c.28 0 .5.07.66.22.16.14.24.35.26.62h-.52c0-.14-.04-.26-.1-.33-.06-.08-.16-.12-.3-.12-.13 0-.22.05-.3.15-.06.1-.1.22-.1.38v.5c0 .16.04.28.12.38.07.1.18.15.3.15.14 0 .23-.04.28-.1.06-.07.1-.18.1-.33h.5zM212.5 193.06c0 .3-.08.52-.26.7-.18.2-.4.28-.7.28-.3 0-.53-.1-.7-.27-.2-.2-.28-.42-.28-.7v-.42c0-.28.1-.52.27-.7s.4-.28.7-.28c.3 0 .53.1.7.28.2.18.28.42.28.7v.4zm-.52-.4c0-.18-.04-.3-.12-.42-.07-.1-.2-.16-.33-.16-.14 0-.25.06-.33.16-.07.1-.1.24-.1.4v.42c0 .17.03.3.1.4.08.12.2.17.34.17s.25-.05.32-.16.12-.24.12-.4v-.42zM213.93 191.7l.52 1.62.53-1.6h.7v2.3h-.53v-.58l.05-1.05v-.02l-.57 1.63h-.36l-.55-1.6.04 1.04v.57h-.53v-2.3h.7z"/></g><g fill="#fff"><path d="M166.93 231.06l.3-1.5h.53l-.53 2.3h-.5l-.4-1.43-.38 1.42h-.5l-.53-2.3h.52l.3 1.5.4-1.5h.4l.4 1.5zM170.22 231.06l.3-1.5h.53l-.53 2.3h-.5l-.4-1.43-.4 1.42h-.5l-.52-2.3h.52l.3 1.5.42-1.5h.37l.4 1.5zM173.5 231.06l.3-1.5h.53l-.53 2.3h-.5l-.4-1.43-.4 1.42h-.5l-.52-2.3h.52l.3 1.5.42-1.5h.37l.4 1.5zM175.27 231.85h-.53v-.45h.53v.45zM176.1 231.85v-2.3h.78c.28 0 .5.05.67.16.16.1.24.27.24.48 0 .1-.04.2-.1.3-.04.08-.12.14-.23.2.14.02.24.08.3.17.06.1.1.2.1.32 0 .23-.08.4-.23.5-.15.12-.37.18-.65.18h-.9zm.52-1.34h.27c.1 0 .2-.02.26-.06.06-.05.1-.1.1-.2s-.04-.17-.1-.2-.16-.08-.28-.08h-.26v.55zm0 .36v.58h.37c.1 0 .2-.02.25-.07.05-.04.08-.1.08-.2s-.02-.18-.07-.23c-.05-.05-.13-.08-.24-.08h-.4zM180.46 229.55v1.5c0 .27-.1.47-.26.62-.17.14-.4.2-.7.2-.27 0-.5-.06-.68-.2-.17-.15-.26-.35-.26-.6v-1.52h.54v1.5c0 .15.03.25.1.32.08.07.18.1.3.1.15 0 .25-.03.32-.1s.1-.17.1-.3v-1.52h.54zM182.44 231.24c0-.08-.03-.14-.08-.2-.05-.03-.15-.08-.3-.13-.28-.08-.5-.18-.64-.28s-.2-.26-.2-.46.08-.35.24-.47c.17-.13.38-.2.64-.2s.47.08.63.2c.16.14.24.3.24.52h-.53c0-.08-.03-.16-.1-.22s-.14-.08-.25-.08c-.12 0-.2.02-.26.07-.06.04-.1.1-.1.16s.04.12.1.16c.06.05.18.1.35.16.25.08.44.17.58.3.13.1.2.26.2.46s-.08.36-.24.47c-.16.13-.37.18-.63.18-.25 0-.47-.06-.67-.2s-.28-.3-.27-.56h.52c0 .12.04.22.1.27.08.05.2.08.33.08.12 0 .2-.02.26-.07.05-.03.08-.1.08-.16zM184.24 231.85h-.54v-2.3h.54v2.3zM186.96 231.85h-.53l-.84-1.47h-.02v1.47h-.54v-2.3h.54l.84 1.47v-1.47h.54v2.3zM189.17 230.87h-.9v.57h1.06v.4h-1.6v-2.3h1.6v.42h-1.06v.5h.9v.4zM191.2 231.24c0-.08-.03-.14-.08-.2-.05-.03-.15-.08-.3-.13-.28-.08-.5-.18-.64-.28s-.2-.26-.2-.46.08-.35.24-.47c.17-.13.38-.2.64-.2s.47.08.63.2c.15.14.23.3.23.52h-.53c0-.08-.03-.16-.1-.22s-.14-.08-.25-.08c-.1 0-.2.02-.25.07-.06.04-.1.1-.1.16s.04.12.1.16c.06.05.18.1.35.16.26.08.45.17.6.3.12.1.2.26.2.46s-.1.36-.25.47c-.16.13-.37.18-.63.18s-.48-.06-.68-.2-.3-.3-.28-.56h.52c0 .12.04.22.1.27.08.05.2.08.33.08.1 0 .2-.02.25-.07.05-.03.08-.1.08-.16zM193.65 231.24c0-.08-.03-.14-.08-.2-.05-.03-.15-.08-.3-.13-.28-.08-.5-.18-.64-.28s-.2-.26-.2-.46.08-.35.24-.47.4-.2.64-.2c.27 0 .48.08.64.2.16.14.24.3.24.52h-.53c0-.08-.03-.16-.1-.22-.05-.06-.14-.08-.25-.08-.1 0-.2.02-.25.07-.06.04-.1.1-.1.16s.04.12.1.16c.06.05.18.1.35.16.26.08.45.17.6.3.12.1.2.26.2.46s-.1.36-.25.47c-.16.13-.37.18-.63.18s-.48-.06-.68-.2c-.2-.12-.28-.3-.27-.56h.52c0 .12.03.22.1.27s.18.08.32.08c.1 0 .2-.02.25-.07s.08-.1.08-.16zM196.8 231.85h-.53l-.84-1.47v1.47h-.55v-2.3h.54l.84 1.47v-1.47h.54v2.3zM198.82 231.4h-.72l-.13.45h-.54l.74-2.3h.58l.74 2.3h-.55l-.13-.45zm-.6-.4h.48l-.24-.83-.25.82zM200.76 229.55l.52 1.6.53-1.6h.7v2.3H202v-.57l.05-1.05-.57 1.62h-.36l-.55-1.6.05 1.03v.57h-.54v-2.3h.7zM204.72 230.87h-.9v.57h1.06v.4h-1.6v-2.3h1.6v.42h-1.06v.5h.9v.4zM206.1 231.85h-.54v-.45h.54v.45zM208.7 231.04c0 .28-.08.5-.23.63-.15.14-.37.2-.65.2s-.5-.07-.7-.25c-.17-.17-.26-.4-.26-.68v-.48c0-.28.08-.5.26-.68.17-.18.4-.27.67-.27.28 0 .5.1.65.23s.24.36.26.63h-.5c-.02-.14-.05-.25-.1-.33-.07-.07-.17-.1-.32-.1-.12 0-.2.04-.28.14-.07.1-.1.23-.1.38v.5c0 .15.03.28.1.37.08.1.2.15.32.15.13 0 .22-.03.27-.1s.08-.18.1-.33h.5zM211.3 230.9c0 .3-.1.53-.27.7s-.4.28-.7.28c-.3 0-.53-.1-.7-.27s-.28-.4-.28-.7v-.4c0-.3.1-.52.27-.7.18-.2.4-.28.7-.28.3 0 .53.1.7.27.2.18.28.4.28.7v.4zm-.53-.4c0-.18-.04-.3-.12-.42s-.18-.15-.32-.15c-.15 0-.26.05-.34.15-.08.1-.12.24-.12.4v.43c0 .17.04.3.12.42.07.1.2.15.33.15.14 0 .25-.05.33-.15.07-.1.1-.25.1-.4v-.43zM212.72 229.55l.52 1.6.53-1.6h.7v2.3h-.53v-.57l.05-1.05h-.02l-.56 1.62h-.36l-.55-1.6.06 1.03v.57h-.54v-2.3h.7z"/></g><g fill="#fff"><path d="M165.2 202.2h-.68v-.4h.68v-.67h.38v.68h.68v.4h-.68v.67h-.38v-.67zM168.6 202c0 .43-.06.77-.2.98-.16.22-.4.33-.7.33-.3 0-.5-.1-.66-.33-.15-.22-.23-.55-.23-.98 0-.47.1-.8.23-1.02.15-.2.38-.32.68-.32.3 0 .53.1.68.34.15.22.23.55.23 1zm-1.25 0c0 .3.03.53.1.66.04.14.13.2.26.2.14 0 .23-.06.28-.2.06-.14.1-.36.1-.67 0-.33-.04-.55-.1-.7-.05-.13-.14-.2-.27-.2-.12 0-.2.07-.26.2s-.1.37-.1.7zM170.93 202c0 .43-.07.77-.22.98-.13.22-.36.33-.67.33-.3 0-.52-.1-.67-.33-.15-.22-.22-.55-.22-.98 0-.47.07-.8.22-1.02s.37-.32.67-.32c.3 0 .52.1.67.34.16.22.23.55.23 1zm-1.25 0c0 .3.02.53.08.66.05.14.14.2.27.2s.22-.06.28-.2c.06-.14.1-.36.1-.67 0-.33-.04-.55-.1-.7s-.14-.2-.27-.2c-.12 0-.22.07-.27.2-.06.15-.08.37-.08.7zM174.02 203.27h-.54v-2.01c-.08.1-.14.15-.18.18l-.3.24-.25-.34.82-.66h.45v2.57zM176.8 203.27H175v-.38l.65-.66c.2-.2.3-.33.37-.4.06-.08.1-.15.13-.2.02-.08.03-.15.03-.2 0-.12-.02-.2-.08-.24-.06-.05-.13-.08-.23-.08s-.2.02-.3.07-.18.1-.28.18l-.3-.35c.12-.1.22-.18.3-.23.1-.04.18-.07.28-.1.1-.02.2-.03.33-.03.17 0 .3.03.43.08.13.06.22.14.3.25s.1.23.1.36c0 .12-.03.23-.07.33-.04.1-.1.2-.2.3-.08.12-.23.28-.45.48l-.32.3v.03h1.1v.47zM179.02 201.28c0 .16-.05.3-.15.4-.1.12-.23.2-.4.24.2.03.36.1.47.2.1.1.15.23.15.4 0 .25-.1.44-.27.58-.18.14-.44.2-.77.2-.28 0-.53-.04-.74-.14v-.46c.1.05.2.1.33.13.1.03.23.04.35.04.18 0 .3-.03.4-.1s.12-.15.12-.28c0-.13-.05-.22-.14-.27-.1-.05-.26-.07-.47-.07h-.2v-.42h.2c.2 0 .36-.03.45-.08.1-.05.14-.14.14-.27 0-.2-.14-.3-.38-.3-.08 0-.17.02-.26.04-.08.03-.18.08-.3.15l-.24-.38c.23-.17.5-.26.84-.26.26 0 .48.06.63.17.14.1.22.26.22.45zM181.5 202.74h-.3v.53h-.54v-.53h-1.1v-.38l1.13-1.66h.5v1.62h.3v.42zm-.84-.42v-.44c0-.07 0-.18 0-.32 0-.13.02-.2.02-.24-.06.1-.1.2-.17.28l-.46.72h.62zM184.1 201.63c.25 0 .45.07.6.2.14.15.22.34.22.58 0 .3-.1.52-.27.67s-.43.24-.76.24c-.3 0-.52-.04-.7-.13v-.47c.1.05.2.1.33.12.12.03.24.04.35.04.33 0 .5-.13.5-.4 0-.26-.18-.4-.52-.4-.07 0-.13 0-.2.03-.08 0-.14 0-.2.03l-.2-.12.1-1.3h1.38v.46h-.9l-.06.5h.06c.07-.02.16-.03.26-.03zM185.48 202.18c0-.5.1-.9.32-1.13.2-.25.53-.38.96-.38.15 0 .27 0 .35.03v.43c-.1-.02-.2-.03-.3-.03-.2 0-.34.03-.46.08s-.2.14-.26.25c-.06.1-.1.27-.1.47h.02c.1-.2.3-.3.55-.3.23 0 .4.08.54.22.12.14.2.34.2.6 0 .27-.1.5-.24.65-.16.16-.37.24-.65.24-.18 0-.34-.04-.48-.13-.15-.08-.25-.2-.33-.38-.1-.18-.12-.38-.12-.62zm.92.7c.12 0 .2-.05.27-.12.06-.08.1-.2.1-.34 0-.12-.04-.22-.1-.3-.05-.06-.14-.1-.26-.1-.1 0-.2.03-.27.1-.08.08-.1.16-.1.25 0 .14.02.26.1.36.07.1.16.14.27.14zM188.07 203.27l.96-2.1h-1.26v-.46h1.84v.35l-.96 2.22h-.57zM191.02 200.67c.25 0 .45.06.6.17.15.1.22.26.22.45 0 .12-.03.24-.1.34-.08.1-.2.2-.36.28.2.1.33.2.42.32s.12.23.12.36c0 .22-.08.38-.24.5-.17.14-.4.2-.66.2-.28 0-.5-.06-.66-.17s-.24-.3-.24-.5c0-.16.04-.3.12-.4.08-.12.2-.22.37-.3-.13-.1-.24-.2-.3-.3-.07-.1-.1-.22-.1-.35 0-.18.08-.33.23-.44.15-.1.35-.17.6-.17zm-.4 1.92c0 .1.04.17.1.22.08.06.17.1.3.1.13 0 .23-.04.3-.1s.1-.13.1-.23-.03-.16-.1-.23-.17-.14-.32-.22c-.25.12-.38.26-.38.44zm.4-1.53c-.1 0-.17.02-.22.07-.06.05-.1.1-.1.2 0 .06.03.12.08.18.04.05.12.1.24.17.12-.07.2-.12.24-.18.05-.05.07-.12.07-.2 0-.07-.03-.14-.1-.18-.04-.05-.12-.07-.2-.07zM195.45 201.8c0 .5-.1.88-.32 1.13-.2.25-.54.38-.97.38-.15 0-.27 0-.34-.02v-.43c.1.02.2.03.3.03.2 0 .33-.02.45-.08s.2-.13.27-.25c.06-.1.1-.27.1-.47-.08.1-.16.2-.25.23s-.2.08-.34.08c-.23 0-.4-.07-.53-.22-.13-.14-.2-.34-.2-.6 0-.27.1-.5.24-.65s.37-.23.64-.23c.2 0 .37.05.5.14.15.1.26.22.34.4s.1.37.1.6zm-.93-.7c-.1 0-.2.05-.26.12-.07.08-.1.2-.1.34 0 .12.03.22.1.3.05.06.13.1.25.1s.2-.03.3-.1c.07-.08.1-.16.1-.26 0-.13-.03-.25-.1-.35-.07-.1-.17-.14-.28-.14zM197.77 202c0 .43-.08.77-.22.98-.15.22-.38.33-.68.33-.3 0-.52-.1-.67-.33-.15-.22-.23-.55-.23-.98 0-.47.08-.8.22-1.02.14-.2.36-.32.67-.32.3 0 .52.1.67.34.15.22.23.55.23 1zm-1.26 0c0 .3.04.53.1.66.05.14.14.2.27.2.12 0 .22-.06.27-.2.06-.14.1-.36.1-.67 0-.33-.04-.55-.1-.7-.06-.13-.15-.2-.27-.2-.13 0-.22.07-.28.2s-.1.37-.1.7zM199.65 203.27h-.54v-1.74l.02-.27c-.1.1-.15.15-.2.18l-.28.24-.26-.34.83-.66h.45v2.57zM202.43 203.27h-1.8v-.38l.65-.66c.2-.2.3-.33.37-.4.06-.08.1-.15.13-.2.02-.08.04-.15.04-.2 0-.12-.03-.2-.1-.24-.05-.05-.12-.08-.22-.08s-.2.02-.3.07-.18.1-.28.18l-.3-.35c.13-.1.23-.18.32-.23.08-.04.17-.07.27-.1.1-.02.22-.03.34-.03.16 0 .3.03.43.08.12.06.2.14.28.25.07.1.1.23.1.36 0 .12-.02.23-.06.33-.05.1-.1.2-.2.3-.1.12-.24.28-.46.48l-.33.3v.03h1.13v.47zM165.2 206.5h-.68v-.37h.68v-.7h.38v.7h.68v.38h-.68v.7h-.38v-.7zM168.6 206.3c0 .45-.06.78-.2 1-.16.2-.4.32-.7.32-.3 0-.5-.1-.66-.33-.15-.24-.23-.56-.23-1 0-.45.1-.78.23-1 .15-.2.38-.32.68-.32.3 0 .53.1.68.34.15.22.23.55.23.98zm-1.25 0c0 .32.03.54.1.68.04.14.13.2.26.2.14 0 .23-.06.28-.2s.1-.37.1-.68c0-.3-.04-.54-.1-.68-.05-.13-.14-.2-.27-.2-.12 0-.2.07-.26.2s-.1.37-.1.68zM170.93 206.3c0 .45-.07.78-.22 1s-.36.32-.67.32c-.3 0-.52-.1-.67-.33-.15-.24-.22-.56-.22-1 0-.45.07-.78.22-1s.37-.32.67-.32c.3 0 .52.1.67.34.16.22.23.55.23.98zm-1.25 0c0 .32.02.54.08.68.05.14.14.2.27.2s.22-.06.28-.2c.06-.14.1-.37.1-.68 0-.3-.04-.54-.1-.68s-.14-.2-.27-.2c-.12 0-.22.07-.27.2-.06.14-.08.37-.08.68zM174.02 207.6h-.54v-2.01c-.08.08-.14.14-.18.17l-.3.23-.25-.32.82-.66h.45v2.57zM176.8 207.6H175v-.4l.65-.64c.2-.2.3-.33.37-.4s.1-.15.13-.22c.02-.06.03-.13.03-.2 0-.1-.02-.18-.08-.23-.06-.04-.13-.06-.23-.06s-.2.02-.3.07c-.08.05-.18.12-.28.2l-.3-.35c.12-.1.22-.18.3-.23.1-.04.18-.08.28-.1.1-.03.2-.04.33-.04.17 0 .3.03.43.1s.22.13.3.23.1.24.1.38c0 .1-.03.23-.07.33-.04.1-.1.22-.2.33-.08.1-.23.26-.45.46l-.32.3v.03h1.1v.46zM179.02 205.6c0 .15-.05.3-.15.4-.1.1-.23.2-.4.23.2.04.36.1.47.2.1.1.15.24.15.4 0 .25-.1.45-.27.58-.18.15-.44.22-.77.22-.28 0-.53-.05-.74-.14v-.46c.1.05.2.1.33.12.1.03.23.05.35.05.18 0 .3-.04.4-.1.08-.06.12-.16.12-.3 0-.12-.05-.2-.14-.25-.1-.05-.26-.08-.47-.08h-.2v-.4h.2c.2 0 .36-.04.45-.1.1-.04.14-.13.14-.26 0-.18-.14-.28-.38-.28-.08 0-.17 0-.26.04-.08.03-.18.08-.3.15l-.24-.37c.23-.17.5-.25.84-.25.26 0 .48.05.63.16.14.1.22.26.22.45zM181.5 207.05h-.3v.54h-.54v-.55h-1.1v-.37l1.13-1.66h.5v1.6h.3v.43zm-.84-.42v-.43c0-.07 0-.18 0-.32s.02-.22.02-.24c-.06.1-.1.2-.17.28l-.46.7h.62zM184.1 205.95c.25 0 .45.07.6.2.14.14.22.33.22.58 0 .28-.1.5-.27.66-.17.14-.43.22-.76.22-.3 0-.52-.05-.7-.14V207c.1.06.2.1.33.13.12.03.24.05.35.05.33 0 .5-.14.5-.4 0-.27-.18-.4-.52-.4-.07 0-.13 0-.2.02-.08 0-.14.03-.2.04l-.2-.1.1-1.32h1.38v.46h-.9l-.06.5h.06c.07-.03.16-.03.26-.03zM185.48 206.5c0-.5.1-.9.32-1.14.2-.25.53-.37.96-.37.15 0 .27 0 .35.02v.43c-.1-.02-.2-.04-.3-.04-.2 0-.34.04-.46.1-.1.05-.2.14-.26.25-.06.1-.1.26-.1.47h.02c.1-.2.3-.3.55-.3.23 0 .4.07.54.2.12.16.2.36.2.6 0 .3-.1.5-.24.66-.16.16-.37.24-.65.24-.18 0-.34-.04-.48-.13-.15-.1-.25-.23-.33-.4-.1-.16-.12-.37-.12-.6zm.92.7c.12 0 .2-.05.27-.13.06-.08.1-.2.1-.33s-.04-.23-.1-.3c-.05-.07-.14-.1-.26-.1-.1 0-.2.03-.27.1-.08.07-.1.16-.1.25 0 .13.02.25.1.34s.16.15.27.15zM188.07 207.6l.96-2.12h-1.26v-.46h1.84v.34l-.96 2.23h-.57zM191.02 205c.25 0 .45.04.6.15s.22.27.22.46c0 .14-.03.25-.1.36-.08.1-.2.2-.36.27.2.1.33.2.42.32s.12.24.12.37c0 .2-.08.38-.24.5-.17.14-.4.2-.66.2-.28 0-.5-.06-.66-.18-.16-.12-.24-.3-.24-.5 0-.15.04-.28.12-.4.08-.1.2-.2.37-.3-.13-.1-.24-.2-.3-.3-.07-.1-.1-.22-.1-.34 0-.18.08-.33.23-.45.15-.1.35-.16.6-.16zm-.4 1.9c0 .1.04.18.1.24.08.05.17.08.3.08.13 0 .23-.03.3-.08s.1-.14.1-.23c0-.07-.03-.15-.1-.2-.07-.08-.17-.16-.32-.23-.25.1-.38.26-.38.43zm.4-1.52c-.1 0-.17.03-.22.07-.06.05-.1.1-.1.2 0 .06.03.13.08.18.04.06.12.1.24.17.12-.05.2-.1.24-.16.05-.06.07-.12.07-.2 0-.08-.03-.14-.1-.2-.04-.03-.12-.06-.2-.06zM195.45 206.1c0 .52-.1.9-.32 1.15s-.54.37-.97.37c-.15 0-.27 0-.34-.02v-.44c.1.03.2.04.3.04.2 0 .33-.03.45-.08s.2-.14.27-.25c.06-.12.1-.28.1-.48-.08.1-.16.18-.25.23-.1.04-.2.06-.34.06-.23 0-.4-.08-.53-.22-.13-.15-.2-.35-.2-.6 0-.28.1-.5.24-.65.16-.16.37-.24.64-.24.2 0 .37.03.5.12.15.1.26.22.34.4s.1.36.1.6zm-.93-.67c-.1 0-.2.03-.26.1s-.1.2-.1.34c0 .13.03.23.1.3.05.07.13.1.25.1s.2-.03.3-.1c.07-.07.1-.15.1-.25 0-.14-.03-.26-.1-.35-.07-.1-.17-.14-.28-.14zM197.77 206.3c0 .45-.08.78-.22 1-.15.2-.38.32-.68.32-.3 0-.52-.1-.67-.33-.15-.24-.23-.56-.23-1 0-.45.08-.78.22-1 .14-.2.36-.32.67-.32.3 0 .52.1.67.34.15.22.23.55.23.98zm-1.26 0c0 .32.04.54.1.68.05.14.14.2.27.2.12 0 .22-.06.27-.2s.1-.37.1-.68c0-.3-.04-.54-.1-.68-.06-.13-.15-.2-.27-.2-.13 0-.22.07-.28.2s-.1.37-.1.68zM199.65 207.6h-.54v-1.74l.02-.27c-.1.08-.15.14-.2.17l-.28.23-.26-.32.83-.66h.45v2.57zM202.43 207.6h-1.8v-.4l.65-.64c.2-.2.3-.33.37-.4s.1-.15.13-.22c.02-.06.04-.13.04-.2 0-.1-.03-.18-.1-.23-.05-.04-.12-.06-.22-.06s-.2.02-.3.07c-.08.05-.18.12-.28.2l-.3-.35c.13-.1.23-.18.32-.23.08-.04.17-.08.27-.1.1-.03.22-.04.34-.04.16 0 .3.03.43.1s.2.13.28.23c.07.12.1.24.1.38 0 .1-.02.23-.06.33s-.1.22-.2.33c-.1.1-.24.26-.46.46l-.33.3v.03h1.13v.46z"/></g><g fill="#fff"><path d="M165.76 217.9h-.5V216.04c-.08.08-.14.14-.17.17l-.3.22-.24-.3.78-.63h.42v2.4zM168.38 217.9h-1.7v-.35l.6-.6c.2-.2.3-.32.37-.4s.1-.13.12-.2c.02-.05.03-.1.03-.18 0-.1-.02-.17-.08-.22-.05-.04-.12-.07-.2-.07-.1 0-.2.02-.28.07-.1.04-.18.1-.28.18l-.28-.33c.12-.1.22-.17.3-.2.08-.06.16-.1.26-.1.1-.03.2-.05.3-.05.16 0 .3.03.4.1.12.04.2.12.28.22.06.1.1.2.1.34 0 .12-.02.23-.06.32-.04.1-.1.2-.2.3s-.2.25-.42.44l-.3.3v.02h1.04v.43zM170.47 216.03c0 .15-.04.28-.13.4-.1.1-.22.17-.4.2v.02c.2.02.36.08.46.17s.15.23.15.38c0 .24-.1.42-.26.55s-.42.2-.73.2c-.26 0-.5-.05-.7-.14v-.42c.1.04.2.08.3.1s.23.06.35.06c.16 0 .3-.03.37-.1.07-.05.1-.14.1-.27 0-.1-.04-.2-.13-.24-.1-.04-.24-.07-.44-.07h-.2v-.4h.2c.2 0 .33 0 .4-.06.1-.05.14-.14.14-.26 0-.18-.1-.27-.34-.27-.08 0-.16 0-.25.04-.08.04-.17.08-.27.15l-.23-.36c.23-.17.5-.25.8-.25.24 0 .44.06.6.16.13.1.2.25.2.43zM174.38 216.68c0 .4-.1.7-.34.9-.23.22-.56.33-.98.33h-.7v-2.4h.77c.4 0 .7.1.92.3.22.2.33.5.33.88zm-.53 0c0-.5-.23-.77-.7-.77h-.26v1.6h.2c.5 0 .75-.28.75-.8zM177.1 215.5v1.56c0 .17-.04.33-.1.47-.1.13-.2.23-.36.3-.15.08-.33.1-.54.1-.3 0-.55-.07-.72-.23-.18-.15-.26-.37-.26-.65v-1.56h.5v1.47c0 .2.05.32.12.4.08.1.2.14.37.14.18 0 .3-.03.38-.12.07-.1.1-.23.1-.4v-1.5h.52zM178.98 217.9l-.58-1.9h-.02c.02.4.03.66.03.78v1.13h-.45v-2.4h.7l.57 1.84.62-1.85h.7v2.4h-.48v-1.14c0-.05 0-.1 0-.18 0-.07 0-.26.03-.57h-.03l-.62 1.9h-.47zM182.43 217.9l-.58-1.9h-.02c.02.4.03.66.03.78v1.13h-.46v-2.4h.7l.58 1.84.6-1.85h.7v2.4h-.47v-1.14c0-.05 0-.1.02-.18 0-.07 0-.26.02-.57h-.02l-.62 1.9h-.47zM185.6 216.5l.5-1h.57l-.8 1.47v.94h-.52V217l-.8-1.5h.56l.5 1zM188.88 216.98v.93h-.52v-2.4h.7c.34 0 .58.05.74.17.15.12.23.3.23.55 0 .14-.04.26-.12.38-.06.1-.17.2-.32.26.37.54.6.9.7 1.05h-.56l-.57-.92h-.28zm0-.42h.16c.16 0 .28-.02.36-.08.08-.05.1-.14.1-.25s-.02-.2-.1-.25c-.08-.05-.2-.07-.37-.07h-.15v.66zM193.05 216.7c0 .4-.1.7-.3.92-.2.22-.48.32-.85.32s-.66-.1-.85-.32c-.2-.2-.3-.52-.3-.93s.1-.72.3-.93c.2-.2.48-.32.85-.32s.66.1.86.32c.2.22.3.52.3.93zm-1.77 0c0 .27.06.47.16.6.1.14.25.2.46.2.4 0 .6-.26.6-.8 0-.55-.2-.82-.6-.82-.2 0-.35.07-.46.2-.1.14-.16.35-.16.62zM195.3 217.9l-.2-.57h-.87l-.17.58h-.56l.86-2.42h.62l.86 2.43h-.55zm-.3-1c-.17-.52-.26-.8-.28-.88-.02-.07-.04-.13-.05-.17-.03.15-.14.5-.3 1.05h.62zM198.4 216.68c0 .4-.1.7-.33.9-.23.22-.56.33-.98.33h-.7v-2.4h.76c.4 0 .7.1.92.3s.33.5.33.88zm-.52 0c0-.5-.23-.77-.7-.77h-.26v1.6h.22c.5 0 .74-.28.74-.8zM199.62 217.55c-.06.23-.15.5-.3.8h-.35c.07-.3.12-.57.16-.83h.47l.02.03zM201.54 217.9v-2.4h.5v2h1v.4h-1.5zM205.9 216.7c0 .4-.1.7-.3.92-.2.22-.48.32-.85.32s-.65-.1-.85-.32c-.2-.2-.3-.52-.3-.93s.1-.72.3-.93c.2-.2.48-.32.85-.32.38 0 .66.1.86.32.2.22.3.52.3.93zm-1.76 0c0 .27.05.47.15.6s.25.2.45.2c.4 0 .62-.26.62-.8 0-.55-.2-.82-.6-.82-.22 0-.37.07-.47.2-.1.14-.16.35-.16.62zM207.18 216.98v.93h-.52v-2.4h.7c.34 0 .58.05.74.17.15.12.23.3.23.55 0 .14-.04.26-.1.38-.1.1-.2.2-.35.26.37.54.6.9.72 1.05h-.57l-.58-.92h-.27zm0-.42h.16c.16 0 .28-.02.36-.08.08-.05.12-.14.12-.25s-.04-.2-.12-.25c-.08-.05-.2-.07-.37-.07h-.15v.66zM210.55 217.9h-1.4v-2.4h1.4v.4h-.88v.54h.82v.42h-.83v.63h.88v.4zM212.33 217.9l-.58-1.9h-.02c.03.4.04.66.04.78v1.13h-.46v-2.4h.7l.58 1.84.62-1.85h.7v2.4h-.48v-1.14c0-.05 0-.1 0-.18 0-.07 0-.26.02-.57h-.02l-.62 1.9h-.47zM165.7 219.95c-.2 0-.35.07-.45.22-.1.14-.16.35-.16.6 0 .54.2.8.6.8.17 0 .37-.03.6-.1v.42c-.2.07-.4.1-.65.1-.36 0-.63-.1-.8-.3-.2-.22-.3-.53-.3-.93 0-.25.05-.47.15-.66s.22-.32.4-.43.37-.15.6-.15c.23 0 .47.06.7.17l-.16.4c-.1-.03-.18-.07-.27-.1-.1-.03-.2-.05-.28-.05zM167.08 221.98v-2.42h.52v2.42h-.52zM169.4 221.98h-.52v-2h-.66v-.42h1.83v.43h-.66v1.98zM171.43 220.56l.5-1h.56l-.8 1.48v.94h-.52v-.93l-.8-1.5h.55l.5 1zM173.5 221.62c-.05.23-.15.5-.3.8h-.35c.07-.3.13-.57.16-.83h.48l.02.02zM176.85 221.3c0 .23-.08.4-.24.52-.14.13-.36.2-.64.2-.26 0-.5-.06-.7-.15v-.48c.17.06.3.1.43.14.1.03.2.05.3.05.1 0 .2-.03.26-.08.06-.04.1-.1.1-.2 0-.04-.03-.08-.05-.1s-.06-.1-.1-.12c-.06-.03-.17-.1-.32-.17-.15-.06-.26-.13-.34-.2-.07-.06-.13-.13-.17-.22-.05-.07-.07-.17-.07-.3 0-.2.07-.37.22-.5.14-.1.34-.18.6-.18.13 0 .25.02.36.05.1.03.23.07.36.12l-.17.4c-.13-.06-.23-.1-.32-.12-.08-.02-.16-.03-.25-.03-.1 0-.17.02-.22.07-.05.04-.08.1-.08.18 0 .04 0 .08.03.12.02.03.06.06.1.1.05.02.16.08.33.16.23.1.38.22.46.33.1.12.13.25.13.4zM178.48 221.98h-.52v-2h-.66v-.42h1.83v.43h-.65v1.98zM181.24 221.98l-.18-.58h-.88l-.17.58h-.55l.86-2.43h.64l.85 2.43h-.56zm-.3-1c-.16-.53-.25-.82-.27-.9-.02-.06-.03-.12-.04-.15-.04.14-.15.5-.32 1.04h.64zM183.3 221.98h-.53v-2h-.65v-.42h1.82v.43h-.65v1.98zM185.97 221.98h-1.4v-2.42h1.4v.42h-.88v.53h.8v.43h-.82v.62h.9v.43zM190 221.98h-.64l-1.06-1.83c0 .32.02.55.02.7v1.13h-.46v-2.42h.65l1.06 1.8c0-.3 0-.53 0-.66v-1.14h.45v2.42zM192.35 221.98l-.17-.58h-.88l-.18.58h-.55l.85-2.43h.63l.86 2.43h-.55zm-.3-1c-.16-.53-.25-.82-.27-.9-.02-.06-.03-.12-.04-.15-.04.14-.14.5-.3 1.04h.62zM194.5 221.98l-.6-1.9c0 .4.02.65.02.77v1.13h-.46v-2.42h.7l.58 1.85.6-1.84h.7v2.42h-.47v-1.15c0-.05 0-.1 0-.18 0-.07 0-.26.03-.57h-.02l-.62 1.9h-.47zM198.3 221.98h-1.38v-2.42h1.4v.42h-.9v.53h.83v.43h-.82v.62h.88v.43zM199.53 221.62c-.06.23-.16.5-.3.8h-.36c.07-.3.13-.57.17-.83h.46l.03.02zM202.47 219.95c-.2 0-.34.07-.45.22-.1.14-.16.35-.16.6 0 .54.2.8.6.8.18 0 .4-.03.63-.1v.42c-.2.07-.43.1-.68.1-.35 0-.62-.1-.8-.3-.2-.22-.28-.53-.28-.93 0-.25.04-.47.13-.66s.23-.32.4-.43.37-.15.6-.15c.24 0 .47.06.7.17l-.15.4c-.1-.03-.2-.07-.28-.1-.1-.03-.18-.05-.27-.05zM206.06 220.77c0 .4-.1.7-.3.92-.2.2-.5.3-.86.3-.37 0-.65-.1-.85-.3s-.3-.53-.3-.94c0-.4.1-.7.3-.92.2-.2.48-.32.85-.32s.66.1.86.32c.2.22.3.52.3.93zm-1.77 0c0 .27.04.47.14.6.1.14.26.2.46.2.4 0 .62-.26.62-.8 0-.55-.2-.82-.6-.82-.22 0-.37.07-.48.2-.1.14-.15.34-.15.62zM208.78 219.56v1.56c0 .18-.04.34-.12.47-.08.13-.2.23-.35.3-.14.08-.32.1-.52.1-.3 0-.56-.07-.73-.23-.17-.16-.26-.37-.26-.65v-1.56h.5v1.48c0 .2.04.32.12.4.07.1.2.14.37.14.16 0 .28-.04.35-.13.08-.1.12-.23.12-.4v-1.5h.5zM211.78 221.98h-.66l-1.05-1.83h-.02c.03.32.04.55.04.7v1.13h-.47v-2.42h.64l1.06 1.8c0-.3-.02-.53-.02-.66v-1.14h.48v2.42zM213.57 221.98h-.5v-2h-.67v-.42h1.83v.43h-.66v1.98zM215.37 221.05v.93h-.5v-2.42h.7c.32 0 .56.06.72.18.15.12.23.3.23.54 0 .15-.04.27-.12.38-.07.12-.18.2-.32.27.36.54.6.9.7 1.05h-.56l-.58-.93h-.27zm0-.42h.17c.16 0 .28-.02.35-.08.07-.05.1-.14.1-.25 0-.12-.03-.2-.1-.25-.1-.05-.2-.07-.37-.07h-.16v.65zM218.1 220.56l.5-1h.56l-.8 1.48v.94h-.5v-.93l-.82-1.5h.56l.5 1z"/></g></svg>