<svg xmlns="http://www.w3.org/2000/svg" width="288.002" height="288" xmlns:xlink="http://www.w3.org/1999/xlink"><path fill="#1D1B1D" d="M50.4 33.44h187.2v106.7H50.4z"/><defs><path id="a" d="M50.4 33.44h187.2v106.7H50.4z"/></defs><clipPath id="b"><use xlink:href="#a" overflow="visible"/></clipPath><g clip-path="url(#b)"><path fill="#A51412" d="M48 30v8.1L69.42 30z"/><path fill="#00A1FF" d="M48 30v59.58L147.5 30z"/><path fill="#363436" d="M48 51.93v89.68l189.64-25.75z"/><path fill="#00A1FF" d="M48 139v5h191.1l.12-28.37z"/><path fill="#C21F1D" d="M184.75 144l-135.78-3.4-.2 3.4z"/><path fill="#006397" d="M48 32v13.95L82.44 32z"/><path fill="#252325" d="M48 140.35l189.8-24.47-4.47-1.28L48 100.23z"/></g><path fill="#fff" d="M143.47 80.2l3.03-3 3 3-.46.45-2.54-2.53-2.56 2.56zm-5.63-2.12l8.66-8.66 8.66 8.66-8.66 8.65-8.66-8.65zm.93 0l7.73 7.73 7.73-7.7-7.73-7.74-7.73 7.73zm-30.64 19.1v-7.25h2.12c.75 0 1.34.16 1.76.47.44.32.65.8.65 1.44 0 .37-.1.7-.32.97s-.5.5-.86.6c.45.07.8.3 1.08.62.27.34.4.73.4 1.17 0 .63-.2 1.13-.62 1.5s-.98.5-1.68.5h-2.5zm.6-4h1.66c.5 0 .9-.1 1.2-.35.3-.23.43-.57.43-1 0-.47-.15-.82-.46-1.05-.3-.23-.75-.35-1.33-.35h-1.53v2.75zm0 .5v3h1.9c.54 0 .96-.14 1.27-.4.3-.26.45-.63.45-1.1 0-.44-.13-.8-.4-1.07s-.7-.4-1.22-.4h-2zm10.8-3.75v4.92c0 .8-.24 1.4-.73 1.8-.48.43-1.1.64-1.9.64-.76 0-1.38-.23-1.85-.65s-.7-1.03-.7-1.8v-4.93h.58v4.9c0 .63.2 1.1.55 1.45.37.33.84.5 1.43.5.6 0 1.1-.17 1.48-.5s.56-.82.56-1.44v-4.9h.6zm5.92 5.47c0-.4-.14-.72-.44-.97s-.8-.47-1.52-.66c-.8-.2-1.4-.46-1.8-.78-.42-.34-.62-.77-.62-1.3 0-.57.23-1 .68-1.37.46-.35 1.05-.52 1.77-.52.75 0 1.36.2 1.8.63.47.42.7.93.68 1.53V92h-.56c0-.5-.16-.9-.5-1.2-.35-.3-.82-.47-1.4-.47-.6 0-1.04.13-1.37.4s-.5.57-.5.96c0 .34.16.65.47.9.3.24.82.45 1.56.64.78.2 1.38.47 1.78.8.4.35.6.8.6 1.35 0 .56-.22 1.02-.7 1.37s-1.07.5-1.8.5-1.36-.17-1.9-.53c-.54-.37-.8-.9-.8-1.6l.02-.03h.55c0 .57.22 1 .64 1.26.42.27.92.4 1.5.4.57 0 1.03-.12 1.38-.37.36-.26.53-.6.53-1zm2.72 1.78h-.6v-7.25h.6v7.25zm7.37 0h-.6l-4.1-6.24h-.04v6.24h-.6v-7.25h.6l4.12 6.23h.03v-6.23h.6v7.25zm6-3.5h-3.5v3h4v.5h-4.6v-7.25h4.58v.5h-3.98v2.73h3.5v.5zm5.94 1.72c0-.4-.15-.72-.44-.97s-.8-.47-1.55-.66c-.8-.2-1.4-.46-1.8-.78-.43-.34-.64-.77-.64-1.3 0-.57.23-1 .7-1.37.45-.35 1.03-.52 1.75-.52.76 0 1.36.2 1.8.63.48.42.7.93.7 1.53l-.03.03h-.54c0-.5-.18-.9-.52-1.2-.33-.3-.8-.48-1.4-.48-.57 0-1.02.13-1.35.4s-.5.57-.5.96c0 .35.16.66.46.9.3.25.84.46 1.58.65.77.2 1.36.47 1.77.8.4.35.6.8.6 1.35 0 .57-.23 1.03-.7 1.38-.48.34-1.08.5-1.8.5-.74 0-1.37-.17-1.9-.53-.55-.37-.8-.9-.8-1.6l.02-.03h.53c0 .56.2.98.64 1.25.42.27.92.4 1.5.4.56 0 1.03-.12 1.38-.37.35-.25.53-.58.53-1zm6.12 0c0-.4-.13-.72-.43-.97s-.8-.47-1.54-.66c-.8-.2-1.4-.46-1.8-.78-.42-.34-.62-.77-.62-1.3 0-.57.25-1 .7-1.37.46-.35 1.05-.52 1.77-.52.74 0 1.35.2 1.8.63.47.42.7.93.67 1.53V92h-.56c0-.5-.17-.9-.52-1.2-.34-.3-.8-.47-1.4-.47-.57 0-1.03.13-1.36.4-.33.25-.5.57-.5.96 0 .34.15.65.46.9.3.24.82.45 1.56.64.78.2 1.38.47 1.78.8.4.35.6.8.6 1.35 0 .56-.22 1.02-.7 1.37-.47.34-1.07.5-1.8.5s-1.37-.17-1.9-.53c-.55-.37-.8-.9-.8-1.6l.02-.03h.55c0 .57.2 1 .63 1.26.42.27.92.4 1.5.4.57 0 1.03-.12 1.4-.37.34-.26.5-.6.5-1zm10 1.78h-1.22l-3.22-5.3-.03.02v5.28h-1.2v-7.25h1.2l3.22 5.3.03-.02v-5.26h1.2v7.25zm5.5-1.68h-2.83l-.58 1.68h-1.25l2.67-7.25h1.15l2.63 7.25h-1.22l-.57-1.7zm-2.48-1.02h2.14l-1.05-3.1-1.07 3.1zm6.7-4.55l2.1 5.58h.03l2.1-5.56h1.57v7.25h-1.2v-2.5l.12-3.13H178l-2.17 5.6h-.8l-2.15-5.6h-.03l.12 3.14v2.5h-1.2v-7.26h1.56zm11.76 4h-3.17v2.3h3.7v.95h-4.9v-7.25h4.87v.97h-3.65v2.05h3.18v.97zm-73.25 8.25c0-.08-.03-.14-.08-.18-.05-.04-.13-.08-.26-.13-.3-.08-.5-.17-.6-.27-.15-.1-.2-.23-.2-.42 0-.17.06-.32.22-.43.15-.1.35-.16.58-.16.25 0 .44.04.6.16.14.12.22.27.2.46h-.47c0-.07-.03-.14-.1-.2-.04-.05-.12-.07-.22-.07s-.16.02-.22.06c-.05.06-.08.1-.08.17s.02.12.07.15c.06.04.17.1.32.14.22.08.4.16.53.27s.18.25.18.43c0 .2-.06.34-.2.44-.15.12-.35.17-.6.17-.23 0-.44-.06-.6-.18s-.27-.3-.27-.55h.48c0 .12.05.2.1.26.08.06.18.1.3.1.1 0 .2-.03.24-.07.05-.04.08-.1.08-.16zm2.6.18h.9v.38h-1.4v-2.12h.5v1.74zm4.17-.5c0 .27-.08.5-.24.66-.17.17-.38.25-.65.25-.25 0-.47-.08-.64-.25-.16-.17-.25-.4-.25-.65v-.38c0-.28.1-.5.26-.67.17-.17.4-.25.66-.25.27 0 .5.07.66.24.16.17.25.4.25.65v.37zm-.48-.37c0-.18-.04-.3-.1-.4-.08-.1-.18-.14-.3-.14-.15 0-.25.04-.32.14s-.1.23-.1.4v.37c0 .15.03.28.1.38.08.1.18.14.3.14.14 0 .24-.07.3-.16.08-.1.12-.23.12-.38v-.38zm3.78.95c-.06.08-.16.16-.3.22-.14.07-.3.1-.52.1-.26 0-.47-.08-.64-.24-.16-.16-.24-.37-.24-.63v-.44c0-.26.08-.47.24-.63.16-.16.36-.24.62-.24.27 0 .47.04.6.17.15.12.22.3.24.52h-.46c-.02-.1-.06-.2-.1-.26-.07-.05-.15-.08-.27-.08s-.2.04-.28.13c-.1.1-.1.2-.1.35v.44c0 .14 0 .26.1.35.05.1.15.13.27.13.1 0 .16 0 .22-.03.04 0 .1-.03.1-.06v-.3h-.32v-.33h.8v.8zm2.8-.12h-.7l-.12.4h-.5l.7-2.1h.5l.7 2.1h-.5l-.1-.4zm-.6-.38h.46l-.22-.76-.22.74zm4.46.8h-.5l-.76-1.36v1.33h-.5v-2.12h.5l.76 1.36v-1.35h.5v2.13zm5.1-.85h-.84v.84h-.5v-2.12h1.5v.38h-1v.5h.85v.4zm3.5-.03c0 .26-.1.48-.26.65-.17.17-.4.25-.65.25-.27 0-.5-.08-.66-.25-.18-.17-.27-.4-.27-.65v-.38c0-.28.1-.5.25-.67.16-.17.38-.25.64-.25.27 0 .5.07.65.24.16.17.24.4.24.65v.37zm-.5-.38c0-.18-.04-.3-.1-.4-.1-.1-.2-.14-.3-.14-.15 0-.25.04-.3.14-.1.1-.13.23-.13.4v.37c0 .15.04.28.1.38.08.1.18.14.32.14.13 0 .23-.07.3-.16.07-.1.1-.23.1-.38v-.38zm2.6.43v.8h-.5v-2.1h.83c.23 0 .42.05.56.16.15.1.22.25.22.44 0 .1-.04.2-.1.3-.06.07-.14.13-.25.18.13.04.22.1.28.18s.1.2.1.33v.14c0 .05 0 .12.03.2 0 .06.04.1.08.14v.05h-.5c-.03-.03-.06-.1-.07-.16 0-.1-.02-.16-.02-.23v-.12c0-.1-.02-.18-.07-.24-.05-.04-.13-.07-.24-.07h-.34zm0-.38h.33c.1 0 .16-.02.2-.07.06-.04.1-.1.1-.2 0-.08-.04-.15-.1-.2-.05-.06-.12-.08-.22-.08h-.33v.55zm6.57.45c0 .25-.08.44-.22.57-.12.13-.32.2-.6.2-.24 0-.46-.08-.62-.24-.17-.16-.25-.37-.25-.63v-.44c0-.26.08-.47.24-.63.16-.16.36-.24.62-.24s.46.04.6.2c.14.12.22.3.24.56h-.48c0-.13-.04-.24-.1-.3-.05-.07-.14-.1-.27-.1s-.2.04-.28.13-.08.2-.08.35v.44c0 .14.03.26.1.35.07.1.17.13.3.13.1 0 .2-.04.24-.1.05-.07.08-.17.1-.3h.47zm3.37-.13c0 .26-.1.48-.26.65s-.38.25-.65.25c-.3 0-.5-.08-.67-.25s-.25-.4-.25-.65v-.38c0-.28.07-.5.24-.67.16-.17.38-.25.65-.25.26 0 .47.07.64.24.18.17.26.4.26.65v.37zm-.5-.38c0-.18-.04-.3-.1-.4-.08-.1-.18-.14-.3-.14-.14 0-.24.04-.32.14s-.1.23-.1.4v.37c0 .15.03.28.1.38s.18.14.3.14c.14 0 .24-.07.3-.16s.12-.23.12-.38v-.38zm2.77-.88l.47 1.48.5-1.48h.64v2.12h-.5v-.52l.05-.97-.52 1.5h-.3l-.5-1.5.02.97v.52h-.48v-2.12h.65zm3.78 1.38v.74h-.5v-2.12h.87c.25 0 .45.06.6.2.14.12.22.3.22.5s-.07.37-.22.5-.35.2-.6.2h-.37zm0-.37h.37c.1 0 .2-.02.24-.08.06-.06.1-.14.1-.23 0-.1-.04-.17-.1-.23-.05-.08-.14-.1-.24-.1h-.37v.62zm3.68.7h-.67l-.12.4h-.5l.7-2.1h.52l.7 2.1h-.5l-.13-.4zm-.56-.38h.45l-.22-.76-.23.74zm4.43.8h-.48l-.78-1.36v1.33h-.5v-2.12h.5l.77 1.36h.03v-1.35h.5v2.13zm2.43-1.2l.43-.93h.54l-.73 1.37v.73h-.5v-.77l-.7-1.35h.54l.44.93zm6.33 1.2h-.5v-.86h-.78v.83h-.5v-2.12h.5v.9h.8v-.9h.48v2.13zm3-.92h-.83v.53h.98v.38h-1.46v-2.12h1.48v.38h-.97v.45h.83v.38zm2.2.1v.8h-.5v-2.1h.83c.23 0 .42.05.57.16.14.1.2.25.2.44 0 .1-.02.2-.07.3-.05.07-.14.13-.25.18.13.04.22.1.28.18s.1.2.1.33v.14c0 .05 0 .12 0 .2.03.06.06.1.1.14v.05h-.5c-.05-.03-.07-.1-.1-.16 0-.1 0-.16 0-.23v-.12c0-.1-.03-.18-.1-.24-.04-.04-.12-.07-.22-.07h-.32zm0-.38h.34c.1 0 .17-.02.22-.07.06-.04.08-.1.08-.2 0-.08-.02-.15-.08-.2-.05-.06-.13-.08-.23-.08h-.34v.55zm4.16.28h-.84v.53h.98v.38h-1.47v-2.12h1.46v.38h-1v.45h.85v.38z"/><path fill="#1D1B1D" d="M50.52 155.8h187.2v106.7H50.52z"/><defs><path id="c" d="M50.52 155.8h187.2v106.7H50.52z"/></defs><clipPath id="d"><use xlink:href="#c" overflow="visible"/></clipPath><g clip-path="url(#d)"><path fill="#A51412" d="M48 151.5v9.02l23.84-9.02z"/><path fill="#00A1FF" d="M48 151.5v60.53l101.08-60.53z"/><path fill="#363436" d="M48 174.26V264l189.76-25.8z"/><path fill="#00A1FF" d="M239.2 266l.14-28L48 261.38V266z"/><path fill="#C21F1D" d="M170.15 266L49.1 262.96l-.2 3.04z"/><path fill="#006397" d="M48 152.93v15.72l38.82-15.72z"/><path fill="#252325" d="M48 262.73l189.92-24.48-4.47-1.28L48 222.6z"/></g><path fill="#fff" d="M71.35 207.13l2.46 5.9h.05l2.46-5.9h.74v6.7h-.55v-2.96l.04-2.93h-.03l-2.47 5.88h-.38l-2.48-5.86h-.03l.05 2.9v2.96h-.56v-6.7h.72zm11.1 4.82H79.4l-.7 1.87h-.56l2.54-6.7h.5l2.54 6.7h-.57l-.7-1.87zm-2.87-.5h2.7l-1.34-3.6h-.02l-1.34 3.6zm5.7-.65v3.02h-.55v-6.68H87c.7 0 1.24.15 1.63.47.38.33.57.8.57 1.4 0 .35-.1.67-.3.95s-.5.48-.86.6c.4.1.7.3.9.57.17.28.26.6.26 1.02v.62c0 .2.03.4.08.56.04.17.13.3.24.4v.12h-.56c-.1-.1-.2-.27-.24-.47s-.07-.4-.07-.62v-.6c0-.42-.13-.74-.4-.98-.26-.23-.63-.35-1.1-.35h-1.88zm0-.47h1.64c.6 0 1.04-.12 1.32-.37.28-.24.42-.57.42-.98 0-.44-.14-.78-.42-1.02-.27-.24-.7-.35-1.25-.35h-1.74v2.74zm7.12.35h-.93v3.14h-.54v-6.7h.54v3.1h.92l2.6-3.1h.63v.03l-2.75 3.27 2.95 3.38v.02h-.66l-2.8-3.14zm6.5.17l2.08-3.72h.63l-2.4 4.25v2.44h-.56v-2.48l-2.42-4.2h.65l2.06 3.7zm9.5 1.25c0-.28-.1-.5-.3-.7-.2-.16-.57-.32-1.1-.46-.74-.2-1.32-.46-1.72-.78-.4-.32-.6-.75-.6-1.27 0-.56.22-1 .66-1.35s1.02-.52 1.73-.52c.73 0 1.32.2 1.77.6s.66.86.64 1.42v.02h-1.07c0-.34-.1-.62-.33-.83-.24-.2-.57-.32-1-.32-.4 0-.72.1-.94.27-.22.17-.33.4-.33.67 0 .26.1.47.35.64s.63.33 1.18.48c.72.2 1.26.45 1.64.8s.56.77.56 1.3c0 .55-.23 1-.67 1.32-.45.33-1.03.5-1.76.5-.7 0-1.3-.2-1.83-.56-.53-.37-.8-.88-.77-1.52v-.03h1.08c0 .4.14.7.42.9.3.2.65.3 1.1.3.42 0 .74-.07.97-.24.23-.17.34-.4.34-.67zm3.75-4.97l1.92 5.15h.03l1.93-5.15h1.45v6.7h-1.12v-2.3l.1-2.9h-.02l-1.98 5.2h-.75l-1.96-5.18h-.02l.12 2.9v2.27h-1.12v-6.7h1.45zm7.97 6.7H119v-6.7h1.12v6.7zm6.08-5.8h-2v5.8h-1.12v-5.8h-2.02v-.9h5.15v.9zm6.1 5.8h-1.1v-2.86h-3v2.85h-1.1v-6.7h1.1v2.95h3v-2.94h1.1v6.7z"/><path fill="#00A1FF" d="M93.6 219.25h-.75l-.13.47h-.57l.8-2.44h.6l.8 2.44h-.58l-.14-.47zm-.62-.44h.52l-.26-.85-.27.87zm3.63-.02v.94h-.54v-2.44H97c.27 0 .5.06.66.2s.25.3.25.53c0 .15-.02.26-.1.35-.05.1-.15.16-.3.22.17.04.28.1.35.2s.1.24.1.38v.16c0 .07 0 .14.02.2.02.1.06.16.1.2v.03h-.58c-.06-.03-.1-.1-.1-.18 0-.1 0-.17 0-.25v-.15c0-.12-.05-.2-.1-.27-.08-.06-.16-.1-.28-.1h-.4zm.03-.43H97c.1 0 .2-.03.25-.08.06-.05.1-.13.1-.22 0-.1-.04-.18-.1-.24-.06-.05-.15-.1-.27-.1h-.37v.66zm4.85-.63h-.64v2h-.57v-2h-.64v-.44h1.85v.44zm4.2 2v-2.44h.87c.3 0 .53.1.72.28.2.2.3.43.3.72v.44c0 .3-.1.54-.3.72-.2.2-.43.28-.72.28h-.88zm.55-2v1.57h.28c.17 0 .3-.08.37-.18s.13-.24.13-.4v-.45c0-.17-.05-.3-.14-.4-.08-.1-.2-.16-.35-.16h-.26zm3.83 2h-.56v-2.44h.56v2.44zm2.54-.94v.94h-.57v-2.44h.94c.28 0 .5.06.67.2s.25.3.25.53c0 .15-.05.26-.1.35-.08.1-.18.16-.3.22.14.04.25.1.3.2s.1.24.1.38v.16c0 .07 0 .14.04.2.02.1.05.16.1.2v.03h-.6c-.03-.03-.06-.1-.07-.18-.02-.1-.02-.17-.02-.25v-.15c0-.12-.04-.2-.1-.27-.06-.06-.15-.1-.27-.1h-.4zm0-.43h.38c.1 0 .2-.03.26-.08s.1-.13.1-.22c0-.1-.04-.18-.1-.24-.07-.05-.16-.1-.27-.1h-.37v.66zm4.78.33h-.96v.6h1.13v.44h-1.7v-2.44h1.7v.44h-1.13v.52h.96v.44zm3.88.2c0 .3-.1.5-.26.65-.15.15-.38.23-.68.23-.3 0-.55-.1-.74-.28-.2-.2-.28-.43-.28-.72v-.5c0-.3.1-.55.27-.74.18-.18.42-.28.7-.28.32 0 .55.08.72.24.14.15.23.37.25.66h-.55c0-.15-.04-.27-.1-.34-.06-.08-.17-.12-.32-.12-.13 0-.23.05-.3.15s-.12.24-.12.4v.53c0 .16.04.3.12.4.08.1.2.16.33.16.16 0 .26-.04.3-.1.07-.08.1-.2.1-.36h.57zm3.5-1.16h-.64v2h-.57v-2h-.64v-.44h1.87v.44zm3.76 1c0 .3-.1.55-.3.75-.18.2-.43.3-.74.3-.3 0-.56-.1-.75-.3s-.3-.45-.3-.75v-.44c0-.3.1-.55.3-.74s.44-.3.75-.3c.3 0 .55.1.75.3s.3.44.3.74v.44zm-.57-.44c0-.18-.04-.32-.12-.43-.1-.12-.2-.17-.35-.17-.15 0-.27.05-.35.17-.08.1-.13.25-.13.43v.44c0 .18.05.32.13.43.08.1.2.17.35.17.15 0 .27-.05.35-.17.08-.1.12-.25.12-.43v-.44zm3 .5v.94h-.56v-2.44h.92c.3 0 .5.06.68.2s.26.3.26.53c0 .15-.04.26-.1.35-.07.1-.17.16-.3.22.15.04.26.1.32.2s.1.24.1.38v.16c0 .07 0 .14.03.2.04.1.07.16.1.2v.03h-.56c-.05-.03-.08-.1-.1-.18 0-.1 0-.17 0-.25v-.15c0-.12-.04-.2-.1-.27-.07-.06-.16-.1-.27-.1h-.4zm0-.43h.4c.1 0 .2-.03.25-.08s.1-.13.1-.22c0-.1-.04-.18-.1-.24-.07-.05-.15-.1-.27-.1h-.37v.66z"/><path fill="#fff" d="M158.25 193.1l-2.7-2.06h5.4zm-.95-.17l-2.15 1.77v-3.44zm.37.27l.57.45.6-.47 2.13 1.76h-5.44zm1.53-.3l2.16-1.64v3.44zM156.63 230.26c.03.08-.07.03-.07.07 0 0 .02 0 .03 0 0 .02.2 0 .16-.03-.03-.05-.14-.02-.14-.04zm2.07-1.66c.06 0 .15-.1.07-.1-.07.02-.2 0-.24.03.03 0 .04 0 .06 0 0 .06.04.1.1.06zm.22.4c.03 0 .1-.1.05-.1-.1-.02-.12.05-.1.1-.06.05.02.03.05 0zm-2.32 1.24c-.03-.08-.4-.16-.35-.04-.02-.07.15-.02.17 0 .03 0 0 .07.05.07 0 0 .13 0 .12-.03zm2.4-1.34c0-.02.1.1.02.1 0 0-.03.03-.03.03s0 0 .03 0c-.03.03-.04.04-.07.06.04 0 .23-.05.2-.08 0 0 .06-.03 0-.05-.02 0-.02-.03-.05-.06 0-.02-.02-.05-.02-.06 0 0-.02-.06-.04-.06 0-.03.03-.05.03-.05-.05.02-.16.06-.1.1 0 0-.04.02-.03.03.02 0 .02.02.04 0zm-.88-1c-1.62 0-2.94 1.3-2.94 2.93 0 1.62 1.32 2.94 2.94 2.94s2.94-1.32 2.94-2.94c0-1.62-1.32-2.94-2.94-2.94zm1.42 1.7c-.14 0-.28 0-.4.07-.03.02-.17 0-.1-.06.02 0 .18-.02.16-.06-.03-.1.1-.1.1-.16 0 0 .17-.07.2-.07s.12.15.17.17c.1.03-.02.1-.08.1 0 0 .07.04.07.04 0-.03.04-.04.06-.1 0 0-.02-.02 0-.03.02 0 .06 0 .05.03 0-.07-.22-.13-.18-.26-.02.05.1.12.13.13.06.04.04.05.07.1 0 .03.08.13.1.13.1 0 .02-.1.02-.13 0 0 .08-.04.1.03 0 0 0 .05.03.07 0 0 .06.05.06.04 0 .05.1 0 .2.03.02.02.03.05.05.08-.02.06-.06.15-.1.1-.04 0-.13.04-.18 0-.04 0-.26-.1-.25 0 .02.13-.14-.02-.2-.04-.04 0-.12 0-.1-.07.02-.03 0-.1 0-.1zm.13-.73c.02 0 .04.03.06.05-.07 0-.16 0-.18.02 0-.02.1-.06.1-.04 0-.02 0-.02.02-.03zm.93 1.63c-.02-.03-.04-.06-.05-.07-.03-.03-.07-.06-.07-.1 0 0-.04-.12-.05-.13-.02-.03-.1-.25-.13-.25.07 0 .17.12.18.2 0 .07.06.1.1.16 0 .08 0 .15.02.2zm-.5-1.2c.04.04.07.07.1.1-.05.03-.08.04-.13-.02 0 0 .02-.05.04-.07zm.23 2.7c-.02.04-.03.07-.05.1 0-.05 0-.06.05-.1zm.04-.14c0-.06 0-.06.06-.1 0-.02.02-.03.03-.04-.02.07-.05.14-.1.2 0-.02 0-.04 0-.06zm.2-.7c0-.03.02-.05.04-.07 0 .1 0 .2-.04.32-.02-.1-.05-.16 0-.28zm-4.96-.33c0-.18.04-.35.07-.52.07.07.18.15.25.13.07-.02.1 0 .13.06.03.02.1 0 .13.03.06.04.07.13.14.18.03.03.05 0 .08.05.07.06.02-.06.06-.05.24.05-.13.37-.02.45-.1.07.04.23.08.3.04.05.06.15.12.2.08.05.16.08.18.18.03.14.05.33.04.47 0 .07-.02.4.07.4 0 0 0-.02 0-.03 0 0 0 0 .02 0 0 .03 0 .07 0 .1-.07-.02.02.12 0 .13 0 .04.06.13.14.2-.86-.4-1.46-1.26-1.46-2.27zm2.53 2.5c-.3 0-.6-.05-.86-.15.03 0 .06 0 .08-.03-.13-.03-.23-.15-.13-.26-.07-.05-.05-.17 0-.2-.03 0-.05-.04-.05-.08.04.02.05 0 .08-.02.02 0 0-.03.06-.05.1-.03.07-.14 0-.17.03 0 .1.04.13 0 .05-.05.05-.1.08-.16.03-.03.1-.05.08-.13-.02-.1.04-.1.1-.16.15-.08.18-.16.18-.34 0-.12.2-.22.1-.35-.05 0-.25-.2-.32-.1.05-.06-.1-.1-.13-.06 0-.08-.04-.1-.06-.15-.05-.1-.04-.15-.17-.15-.1 0-.16-.13-.24-.18 0 0 .03 0 .04 0-.08 0-.24.04-.3-.06 0 .03-.05.07-.04.1-.03-.02-.02-.06.02-.1-.05 0-.16.03-.16.1 0 .1-.13 0-.2.02-.1.05-.1-.14-.07-.18.03-.1-.16-.1-.16-.1.02-.06.05-.14.08-.2-.12-.03-.08.04-.14.1 0 0-.15.03-.15 0 0-.02-.05-.1-.05-.13-.02-.05.03-.1.03-.16 0-.04.17-.17.23-.1.03.03.07-.04.1-.04s.13 0 .14 0c.07.07 0 .15.1.2.05-.1-.04-.2.06-.28.03-.04.1-.06.14-.1 0 0 .07-.1.06-.1 0 0 .08-.1.1-.1.03-.05.1-.03.14-.06 0 0 0-.06.03-.07.06-.03.12-.05.18-.07-.05.04-.04.1.03.05.05-.02.1-.04.16-.06 0 0 0-.02 0-.04-.04.03-.1.07-.14.05-.05-.04 0-.1.02-.12 0-.02-.16.04-.18.05.05-.05.12-.1.2-.1.1 0 .16-.02.24-.03-.05.04-.1.08-.13.14.07 0 .1 0 .14.03 0 0 .02 0 .02-.02 0 0 0 .03.02.04.04 0 .05-.05.04-.1 0 0-.08 0-.06-.03.02-.03.1-.12 0-.16-.04-.02-.1-.15-.06-.2-.05.1-.23.07-.13 0-.07-.03-.07-.06-.15-.07-.1 0-.08.1-.15.14.1 0-.1.15-.08.14-.05.04-.05 0-.07.1 0 0-.03.03-.05.05 0-.03 0-.06-.03-.08 0 0 .02 0 .03 0 0 0 0 0-.02 0 .02-.03.02-.06.04-.08-.1.02-.14-.1-.23-.08.1-.1.22-.15.33-.2.05-.04.1-.04.14-.03 0-.03 0-.04-.02-.05.08-.04.15-.06.23-.1.04 0 .06 0 .07 0 0 0 .02 0 .03-.02.05 0-.03.06-.05.07-.02 0-.02.02-.05.04-.04 0-.05-.03-.1.02.04 0 .1 0 .13 0 0 0 .14.1.14.1 0-.03-.04-.07-.03-.08 0-.02.06.03.06.03.07-.05 0-.1.02-.13.04-.02.06.08.1.03 0 0 .05-.03.07-.04-.05-.04-.1-.04-.12-.07 0 0 .02-.02 0-.05.14-.02.27-.03.4-.04 0 0 0 0 .02 0-.04 0-.07 0-.08.05.03 0 .05 0 .07 0-.08.04-.14.12-.1.23.02.05.05.1.1.1.1 0 .08-.04.14-.1.1-.08.13-.07.24-.12.1-.03.2-.1.3-.1.25.04.5.15.72.3 0 .02 0 .07 0 .1.03 0 .13 0 .15-.03 0 .04.05.16 0 .1 0 .02 0-.05 0-.06-.16 0 0 .15-.13.16-.08 0-.06.08-.14.1 0 0-.1.07-.13.06 0 .03 0 .05 0 .04-.03-.03-.14-.02-.03.05.1.06.03.17-.07.15-.06-.02-.12-.02-.15.02 0 .02 0 .22 0 .22.05-.03.1 0 .08.06-.02.06-.1.1-.13.17-.02.04-.02.07-.07.1-.03.04-.08.04-.1.1-.02.05-.1.12-.1.2 0 .03.03.07.03.12 0 .03 0 .1-.03.1-.03.02.02.04 0 .07-.02.1.1.1.1.16 0 .1.14.15.2.2 0 0 .22-.02.23-.02.1-.05.18-.1.25.02.03.03.1 0 .13.02.03.03 0 .07 0 .1 0 .04-.02.06-.02.1 0 .04.1.08.1.13.04.1.08.17.08.24 0 .1-.1.2-.06.3 0 .1.08.17.1.28 0 .1.07.16.1.25 0 .02 0 .07 0 .1 0 .04.07 0 .1 0 .1.04.23-.05.3-.13 0-.02.02-.04.04-.06-.45.7-1.23 1.17-2.12 1.17z"/><path fill="#fff" fill-rule="evenodd" d="M155.8 203.43c0-.5.2-.95.58-1.28.14-.14.35-.38.57-.36.23 0 .4.27.5.45.2.3.54.77.24 1.12-.16.16-.4.25-.5.43-.15.2-.07.43.02.62.2.4.56.8.92 1.1.16.13.37.3.6.25.22-.03.4-.3.56-.42.44-.35.9.12 1.22.4.14.13.32.3.3.52 0 .22-.3.4-.44.52-.4.32-.93.43-1.46.32-.56-.12-1.04-.45-1.46-.83-.44-.4-.8-.85-1.12-1.33-.15-.23-.28-.46-.37-.72-.1-.28-.13-.54-.17-.83 0-.28.02.14 0 0z" clip-rule="evenodd"/><path fill="#fff" d="M160.56 217.37c0-1.28-1.04-2.33-2.33-2.33s-2.33 1.05-2.33 2.33c0 .48.15.93.4 1.3l1.93 2.9 1.94-2.9c.25-.37.4-.8.4-1.3zm-2.33 1.3c-.72 0-1.3-.58-1.3-1.3s.58-1.3 1.3-1.3 1.3.6 1.3 1.3-.58 1.3-1.3 1.3zM165.65 194h-.53v-2.3h.53v2.3zm2.72 0h-.53l-.84-1.46V194h-.55v-2.3h.54l.82 1.47v-1.46h.54v2.3zm2.23-.92h-.92v.93h-.54v-2.3h1.62v.43h-1.08v.55h.92v.4zm2.7-.02c0 .3-.08.52-.26.7-.18.2-.4.28-.7.28s-.53-.1-.7-.27c-.2-.2-.3-.42-.3-.7v-.42c0-.28.1-.52.3-.7.17-.2.4-.28.7-.28.28 0 .52.1.7.28s.27.42.27.7v.4zm-.52-.4c0-.18-.04-.3-.12-.42-.07-.1-.18-.16-.32-.16-.15 0-.26.06-.34.16-.07.1-.1.24-.1.4v.42c0 .17.03.3.1.4.08.12.2.17.34.17s.25-.05.32-.16c.08-.1.12-.24.12-.4v-.42zm3.8.54c0 .22-.08.42-.2.6-.14.16-.33.24-.6.24-.07 0-.14-.02-.2-.07-.07-.05-.1-.1-.14-.2-.04.1-.1.15-.16.2-.07.04-.15.07-.24.07-.15 0-.27-.07-.36-.2s-.1-.28-.1-.5c.04-.25.12-.47.24-.63s.28-.2.47-.2c.1 0 .2 0 .3.03.06.02.15.07.24.12l-.08.9c0 .1 0 .16.02.2s.03.05.06.05c.12 0 .2-.07.3-.18.06-.12.1-.26.1-.43.02-.38-.05-.66-.2-.86-.16-.2-.4-.3-.73-.3-.3 0-.56.1-.75.32-.2.22-.3.5-.3.88-.03.36.05.65.22.86.16.22.4.32.72.32.1 0 .17 0 .27-.03s.18-.06.25-.1l.06.27c-.06.05-.15.08-.26.1-.1.03-.22.04-.32.04-.43 0-.76-.12-1-.4-.22-.24-.32-.6-.3-1.06 0-.45.15-.8.4-1.08.26-.26.6-.4 1-.4.43 0 .74.13.96.38.22.25.32.6.3 1.04zm-1.6.15c0 .13 0 .22.03.3s.1.08.16.08.1 0 .15-.04.1-.1.13-.2l.06-.7c-.03 0-.05 0-.08-.03 0 0-.03 0-.05 0-.1 0-.2.04-.25.14-.06.1-.1.25-.1.44zm2.32.65v-2.3h.8c.27 0 .5.06.66.16.16.1.24.27.24.48 0 .1-.03.2-.08.3-.05.08-.13.14-.24.18.13.03.23.1.3.2.06.08.1.2.1.3 0 .23-.08.4-.23.52-.15.1-.37.17-.65.17h-.9zm.53-1.33h.27c.12 0 .2-.03.27-.07.06-.05.1-.1.1-.2s-.04-.17-.1-.22c-.06-.04-.16-.06-.28-.06h-.28v.55zm0 .35v.58h.37c.1 0 .2-.02.26-.07.05-.04.08-.1.08-.2s-.02-.18-.07-.23c-.05-.05-.13-.08-.24-.08h-.4zm3.84-1.32v1.52c0 .26-.1.46-.26.6s-.4.22-.67.22-.5-.07-.7-.2c-.16-.16-.25-.36-.25-.62v-1.5h.53v1.5c0 .14.05.24.1.3.1.08.2.1.33.1s.24-.02.3-.1c.08-.06.1-.16.1-.3v-1.5h.55zm1.98 1.7c0-.08-.03-.15-.08-.2-.06-.03-.15-.08-.3-.13-.28-.1-.5-.2-.64-.3-.14-.1-.2-.25-.2-.45s.08-.35.24-.47c.17-.12.38-.18.64-.18.28 0 .48.07.65.2.16.13.24.3.23.5h-.52c0-.08-.03-.15-.1-.2s-.14-.1-.25-.1c-.1 0-.2.03-.24.08-.06.04-.1.1-.1.17s.04.12.1.16c.06.04.17.1.34.16.26.07.45.17.6.28.12.12.2.27.2.47 0 .2-.1.34-.25.46-.16.1-.37.17-.63.17s-.5-.06-.68-.2c-.2-.13-.28-.32-.28-.56h.53c0 .12 0 .22.1.27.06.06.17.1.3.1.1 0 .2-.03.26-.08.05-.04.08-.1.08-.17zm1.8.6h-.54v-2.3h.56v2.3zm2.72 0h-.53l-.84-1.46V194h-.55v-2.3h.54l.82 1.47v-1.46h.54v2.3zm2.2-.98h-.9v.58h1.07v.4h-1.6v-2.3h1.6v.42h-1.07v.5h.9v.4zm2.03.38c0-.08-.02-.15-.07-.2s-.15-.08-.3-.13c-.28-.1-.5-.2-.64-.3-.16-.1-.23-.25-.23-.45s.1-.35.25-.47c.17-.12.38-.18.64-.18s.46.07.63.2c.15.13.23.3.22.5h-.52c0-.08-.02-.15-.08-.2-.06-.07-.15-.1-.26-.1-.1 0-.2.03-.25.08-.04.04-.1.1-.1.17s.06.12.1.16.2.1.36.16c.27.07.46.17.6.28.13.12.2.27.2.47 0 .2-.08.34-.24.46s-.36.17-.62.17-.5-.06-.68-.2c-.2-.13-.28-.32-.28-.56h.53c0 .12.03.22.1.27.08.06.2.1.33.1.1 0 .2-.03.25-.08s.08-.1.08-.17zm2.46 0c0-.08-.03-.15-.08-.2-.05-.03-.15-.08-.3-.13-.28-.1-.5-.2-.64-.3-.14-.1-.2-.25-.2-.45s.08-.35.24-.47c.17-.12.38-.18.64-.18s.47.07.63.2c.16.13.24.3.23.5h-.52c0-.08-.03-.15-.1-.2-.05-.07-.14-.1-.25-.1-.1 0-.17.03-.23.08-.06.04-.1.1-.1.17s.04.12.1.16c.06.04.18.1.35.16.27.07.46.17.6.28.13.12.2.27.2.47 0 .2-.08.34-.24.46-.16.1-.37.17-.63.17s-.5-.06-.68-.2c-.2-.13-.28-.32-.28-.56h.52c0 .12.03.22.1.27.08.06.2.1.33.1.1 0 .2-.03.25-.08.05-.04.08-.1.08-.17zm3.14.6h-.52l-.85-1.46V194h-.54v-2.3h.52l.84 1.47v-1.46h.54v2.3zm2.03-.44h-.73l-.13.45h-.53l.74-2.3h.57l.75 2.3h-.54l-.13-.43zm-.6-.4h.48l-.22-.83-.25.82zm2.54-1.46l.52 1.62.5-1.6h.7v2.3h-.52v-.58l.04-1.05v-.03l-.57 1.63h-.36l-.55-1.6.04 1.04v.57h-.54v-2.3h.7zm3.96 1.32h-.9v.58h1.06v.4h-1.6v-2.3h1.6v.42H205v.5h.9v.4zm1.37.98h-.53v-.44h.54v.45zm2.6-.8h.02c0 .28-.1.5-.24.63-.15.14-.37.2-.65.2-.3 0-.52-.08-.7-.25-.17-.18-.26-.4-.26-.68v-.48c0-.28.08-.5.25-.7s.4-.25.67-.25.5.07.65.22c.16.13.24.34.26.6h-.5c0-.13-.05-.25-.1-.32-.07-.08-.17-.12-.3-.12-.14 0-.23.05-.3.15-.07.1-.1.23-.1.4v.5c0 .15.03.27.1.37.08.1.2.15.3.15.15 0 .24-.04.3-.1.05-.07.1-.18.1-.33h.5zm2.6-.14c0 .3-.08.52-.26.7-.18.2-.4.28-.7.28-.3 0-.53-.1-.7-.27-.2-.2-.28-.42-.28-.7v-.42c0-.28.1-.52.27-.7s.4-.28.7-.28c.3 0 .53.1.7.28.2.18.28.42.28.7v.4zm-.52-.4c0-.18-.04-.3-.12-.42-.07-.1-.2-.16-.33-.16-.14 0-.25.06-.33.16-.07.1-.1.24-.1.4v.42c0 .17.03.3.1.4.08.12.2.17.34.17s.25-.05.32-.16.12-.24.12-.4v-.42zm1.95-.96l.52 1.62.53-1.6h.7v2.3h-.53v-.58l.05-1.05v-.03l-.57 1.63h-.36l-.55-1.6.04 1.04v.57h-.53v-2.3h.7zM166.93 231.06l.3-1.5h.53l-.53 2.3h-.5l-.4-1.43-.38 1.42h-.5l-.53-2.3h.52l.3 1.5.4-1.5h.4l.4 1.5zm3.3 0l.3-1.5h.52l-.53 2.3h-.5l-.4-1.43-.4 1.42h-.5l-.52-2.3h.52l.3 1.5.42-1.5h.37l.4 1.5zm3.27 0l.3-1.5h.53l-.53 2.3h-.5l-.4-1.43-.4 1.42h-.5l-.52-2.3h.52l.3 1.5.42-1.5h.37l.4 1.5zm1.77.8h-.53v-.46h.53v.45zm.83 0v-2.3h.78c.28 0 .5.04.67.15.16.1.24.28.24.5 0 .1-.05.2-.1.3-.05.07-.13.13-.24.2.14 0 .24.07.3.16.06.1.1.2.1.32 0 .23-.08.4-.23.5-.15.12-.37.18-.65.18h-.9zm.52-1.35h.27c.1 0 .2 0 .25-.05.06-.05.1-.1.1-.2s-.04-.17-.1-.2-.16-.08-.28-.08h-.26v.55zm0 .37v.58h.37c.1 0 .2-.02.24-.07.05-.04.08-.1.08-.2s-.02-.18-.07-.23c-.05-.05-.13-.08-.24-.08h-.4zm3.84-1.32v1.5c0 .27-.1.47-.26.62-.17.14-.4.2-.7.2-.27 0-.5-.06-.68-.2-.17-.15-.26-.35-.26-.6v-1.52h.54v1.5c0 .15.03.25.1.32.08.07.18.1.3.1.15 0 .25-.03.32-.1s.1-.17.1-.3v-1.52h.54zm1.98 1.7c0-.1-.03-.15-.08-.2-.05-.04-.15-.1-.3-.14-.28-.07-.5-.17-.64-.27s-.2-.26-.2-.46.08-.35.24-.47c.17-.13.38-.2.64-.2s.47.08.63.2c.16.14.24.3.24.52h-.53c0-.08-.03-.16-.1-.22s-.14-.08-.25-.08c-.13 0-.2.02-.27.07-.06.03-.1.1-.1.15s.04.12.1.16c.06.06.18.1.35.17.25.08.44.17.58.3.13.1.2.26.2.46s-.08.36-.24.47c-.16.13-.37.18-.63.18s-.48-.06-.68-.2-.28-.3-.27-.56h.52c0 .12.04.22.1.27.08.04.2.07.33.07.12 0 .2-.02.26-.07.05-.03.08-.1.08-.16zm1.8.6h-.54v-2.3h.54v2.3zm2.72 0h-.53l-.84-1.47h-.03v1.47h-.54v-2.3h.54l.84 1.47v-1.47h.55v2.3zm2.2-.98h-.9v.57h1.07v.4h-1.6v-2.3h1.6v.42h-1.06v.5h.9v.4zm2.04.37c0-.08-.03-.14-.08-.2-.05-.03-.15-.08-.3-.13-.28-.07-.5-.17-.64-.27s-.2-.26-.2-.46.08-.35.24-.47c.17-.13.38-.2.64-.2s.47.08.63.2c.14.14.22.3.22.52h-.53c0-.08-.04-.16-.1-.22s-.15-.08-.26-.08c-.1 0-.2.02-.25.07-.07.03-.1.1-.1.15s.03.12.1.16c.05.06.17.1.34.17.26.08.45.17.6.3.12.1.2.26.2.46s-.1.36-.25.47c-.17.13-.38.18-.64.18s-.48-.06-.68-.2-.3-.3-.28-.56h.52c0 .12.04.22.1.27.08.04.2.07.33.07.1 0 .2-.02.25-.07.05-.03.08-.1.08-.16zm2.45 0c0-.08-.03-.14-.08-.2-.05-.03-.15-.08-.3-.13-.28-.07-.5-.17-.64-.27s-.2-.26-.2-.46.08-.35.24-.47.4-.2.64-.2c.28 0 .5.08.65.2.16.14.24.3.24.52h-.54c0-.08-.03-.16-.1-.22-.05-.06-.14-.08-.25-.08-.1 0-.2.02-.24.07-.06.03-.1.1-.1.15s.04.12.1.16c.06.06.18.1.35.17.27.08.46.17.6.3.13.1.2.26.2.46s-.1.36-.24.47c-.16.13-.37.18-.63.18s-.48-.06-.68-.2c-.2-.12-.28-.3-.27-.56h.52c0 .12.03.22.1.27s.18.07.32.07c.1 0 .2-.02.25-.07s.08-.1.08-.16zm3.15.6h-.53l-.84-1.46v1.47h-.55v-2.3h.54l.84 1.47v-1.47h.54v2.3zm2.02-.44h-.72l-.13.45h-.54l.74-2.3h.58l.74 2.3h-.56l-.13-.45zm-.6-.4h.48l-.24-.83-.25.82zm2.54-1.45l.52 1.6.53-1.6h.7v2.3h-.5v-.57l.05-1.05-.57 1.62h-.36l-.55-1.6.05 1.03v.57h-.54v-2.3h.7zm3.96 1.32h-.9v.57h1.06v.4h-1.6v-2.3h1.6v.42h-1.06v.5h.9v.4zm1.38.98h-.54v-.45h.54v.45zm2.6-.8c0 .27-.08.5-.23.62-.15.14-.37.2-.65.2s-.5-.07-.7-.25c-.17-.17-.26-.4-.26-.68v-.48c0-.28.08-.5.26-.68.17-.18.4-.27.67-.27s.5.1.64.24.24.36.26.63h-.5c-.02-.14-.05-.25-.1-.33-.07-.07-.17-.1-.32-.1-.12 0-.2.04-.28.14-.07.1-.1.23-.1.38v.5c0 .15.03.28.1.37.08.1.2.15.32.15.13 0 .22-.03.27-.1s.07-.18.1-.33h.5zm2.6-.15c0 .3-.1.53-.27.7s-.4.28-.7.28c-.3 0-.53-.1-.7-.27s-.28-.4-.28-.7v-.4c0-.3.1-.5.27-.7.18-.2.4-.27.7-.27.3 0 .53.1.7.27.2.18.28.4.28.7v.4zm-.53-.4c0-.18-.04-.3-.12-.42s-.18-.15-.32-.15c-.15 0-.26.05-.34.15-.1.1-.13.24-.13.4v.43c0 .18.04.3.12.43.06.1.2.15.32.15.14 0 .25-.05.33-.15.07-.1.1-.25.1-.4v-.43zm1.95-.95l.52 1.6.53-1.6h.7v2.3h-.53v-.57l.05-1.05h-.03l-.56 1.62h-.35l-.55-1.6.06 1.03v.57h-.54v-2.3h.7zM165.2 202.2h-.68v-.4h.68v-.67h.38v.68h.68v.4h-.68v.68h-.38v-.67zm3.4-.2c0 .43-.06.77-.2.98-.16.22-.4.33-.7.33-.3 0-.5-.1-.66-.32-.15-.22-.23-.55-.23-.98 0-.47.1-.8.24-1.02.15-.2.38-.32.68-.32.3 0 .53.1.68.34.15.22.23.55.23 1zm-1.25 0c0 .3.03.53.1.66.04.14.13.2.26.2.15 0 .24-.06.3-.2.05-.14.1-.36.1-.67 0-.34-.05-.56-.1-.7-.06-.14-.15-.2-.28-.2-.12 0-.2.06-.26.2s-.1.36-.1.7zm3.58 0c0 .43-.07.77-.22.98-.12.22-.35.33-.66.33-.3 0-.52-.1-.67-.32-.15-.22-.22-.55-.22-.98 0-.47.07-.8.22-1.02s.37-.32.67-.32c.3 0 .52.1.67.34.17.22.24.55.24 1zm-1.25 0c0 .3.02.53.08.66.05.14.14.2.27.2s.22-.06.28-.2c.07-.14.1-.36.1-.67 0-.34-.03-.56-.1-.7s-.13-.2-.26-.2c-.12 0-.22.06-.27.2-.06.14-.08.36-.08.7zm4.34 1.27h-.54v-2c-.08.1-.14.14-.18.17l-.3.24-.25-.34.82-.66h.45v2.57zm2.78 0H175v-.38l.65-.67c.2-.2.3-.33.37-.4.06-.08.1-.15.13-.2.02-.08.03-.15.03-.2 0-.12-.02-.2-.08-.24-.06-.06-.13-.1-.23-.1s-.2.03-.3.08-.18.1-.28.18l-.3-.35c.1-.1.2-.17.3-.22.1-.04.17-.07.27-.1.1-.02.2-.03.33-.03.17 0 .3.03.43.08.13.06.22.14.3.25s.1.23.1.36c0 .12-.03.23-.07.33-.04.1-.1.2-.2.3-.08.12-.23.28-.45.48l-.3.3v.03h1.1v.47zm2.22-2c0 .17-.05.3-.15.4-.1.13-.23.2-.4.25.2.03.36.1.47.2.1.1.15.23.15.4 0 .25-.1.44-.28.58-.18.14-.44.2-.77.2-.28 0-.53-.04-.74-.14v-.46c.1.05.2.1.34.13.1.03.23.04.35.04.17 0 .3-.03.4-.1s.1-.15.1-.28c0-.14-.04-.23-.13-.28-.1-.05-.26-.07-.47-.07h-.2v-.42h.2c.2 0 .36-.03.45-.08.1-.05.14-.14.14-.27 0-.2-.15-.3-.4-.3-.07 0-.16.02-.25.04-.08.03-.18.08-.3.15l-.24-.38c.24-.18.5-.27.85-.27.26 0 .48.06.63.17.14.1.22.26.22.45zm2.48 1.47h-.3v.53h-.54v-.53h-1.1v-.38l1.13-1.66h.5v1.62h.3v.42zm-.84-.42v-.44c0-.07 0-.18 0-.32 0-.13.02-.2.02-.24-.06.1-.1.2-.17.28l-.45.72h.62zm3.44-.7c.25 0 .45.08.6.2.14.16.22.35.22.6 0 .3-.1.5-.27.66s-.43.24-.76.24c-.3 0-.53-.04-.7-.13v-.48c.1.05.2.1.32.12.12.03.24.04.35.04.33 0 .5-.13.5-.4 0-.26-.18-.4-.52-.4-.07 0-.13 0-.2.03-.08 0-.14 0-.2.04l-.2-.12.1-1.3h1.38v.46h-.9l-.06.5h.06c.07-.02.16-.03.26-.03zm1.38.56c0-.5.1-.9.32-1.13.2-.25.53-.38.96-.38.15 0 .27 0 .35.03v.43c-.1-.02-.2-.03-.3-.03-.2 0-.33.03-.45.08s-.2.14-.26.25c-.07.1-.1.27-.1.47.1-.2.3-.3.56-.3.23 0 .4.08.54.22.12.14.2.34.2.6 0 .27-.1.5-.24.65-.16.16-.37.24-.65.24-.17 0-.33-.03-.47-.12-.15-.08-.25-.2-.33-.38-.1-.18-.12-.38-.12-.62zm.92.7c.12 0 .2-.05.27-.12.06-.08.1-.2.1-.34 0-.12-.04-.22-.1-.3-.05-.06-.14-.1-.26-.1-.1 0-.2.03-.26.1-.08.08-.1.16-.1.25 0 .14.02.26.1.36.07.1.16.14.27.14zm1.67.4l.96-2.1h-1.26v-.47h1.84v.36l-.95 2.22h-.57zm2.95-2.6c.25 0 .45.05.6.16.15.1.22.26.22.45 0 .1-.03.23-.1.33-.08.1-.2.2-.36.28.2.1.33.2.42.33s.12.23.12.36c0 .2-.08.37-.24.5-.17.13-.4.2-.66.2-.28 0-.5-.07-.66-.18s-.24-.3-.24-.5c0-.16.04-.3.12-.4.08-.12.2-.22.37-.3-.12-.1-.23-.2-.3-.3-.06-.1-.1-.22-.1-.35 0-.18.1-.33.24-.44.15-.1.35-.17.6-.17zm-.4 1.9c0 .1.04.18.1.23.08.07.17.1.3.1.13 0 .23-.03.3-.1s.1-.12.1-.22-.03-.16-.1-.23-.17-.14-.32-.22c-.25.12-.38.26-.38.44zm.4-1.52c-.1 0-.17.02-.22.07-.06.05-.1.1-.1.2 0 .06.03.12.08.18.04.06.12.1.24.18.12-.07.2-.12.24-.18.05-.05.07-.12.07-.2 0-.07-.03-.14-.1-.18-.04-.05-.12-.07-.2-.07zm4.43.74c0 .5-.1.88-.32 1.13-.2.25-.54.38-.97.38-.15 0-.27 0-.34 0v-.44c.1.02.2.03.3.03.2 0 .33-.03.45-.1s.2-.12.27-.24c.06-.1.1-.27.1-.47-.08.1-.16.2-.25.22s-.2.08-.35.08c-.23 0-.4-.07-.53-.22-.13-.14-.2-.34-.2-.6 0-.27.1-.5.24-.65s.37-.23.64-.23c.2 0 .37.05.5.14.15.1.26.22.34.4s.1.37.1.6zm-.93-.7c-.1 0-.2.05-.26.12-.07.08-.1.2-.1.34 0 .12.03.22.1.3.05.06.13.1.25.1s.2-.03.3-.1c.08-.08.1-.16.1-.26 0-.13-.02-.25-.1-.35-.06-.1-.16-.14-.27-.14zm3.25.9c0 .43-.08.77-.22.98-.15.22-.38.33-.68.33-.3 0-.52-.1-.67-.32-.15-.22-.23-.55-.23-.98 0-.47.08-.8.22-1.02.13-.2.35-.32.66-.32.3 0 .52.1.67.34.15.22.23.55.23 1zm-1.26 0c0 .3.05.53.1.66.06.14.15.2.28.2.12 0 .22-.06.27-.2.06-.14.1-.36.1-.67 0-.34-.04-.56-.1-.7-.06-.14-.15-.2-.27-.2-.13 0-.22.06-.28.2s-.1.36-.1.7zm3.15 1.27h-.54v-1.74l.03-.27c-.1.1-.15.15-.2.18l-.28.24-.26-.34.82-.66h.45v2.57zm2.78 0h-1.8v-.38l.65-.67c.2-.2.3-.33.37-.4.06-.08.1-.15.13-.2.02-.08.04-.15.04-.2 0-.12-.03-.2-.1-.24-.05-.06-.12-.1-.22-.1s-.2.03-.3.08-.18.1-.28.18l-.3-.35c.13-.1.23-.17.32-.22.08-.04.17-.07.27-.1.1-.02.23-.03.35-.03.16 0 .3.03.43.08.12.06.2.14.28.25.07.1.1.23.1.36 0 .12-.02.23-.06.33-.05.1-.1.2-.2.3-.1.12-.24.28-.46.48l-.33.3v.03h1.14v.47zm-37.23 3.23h-.68v-.37h.68v-.7h.38v.7h.68v.38h-.68v.7h-.38v-.7zm3.4-.2c0 .45-.06.78-.2 1-.16.2-.4.32-.7.32-.3 0-.5-.1-.66-.33-.15-.25-.23-.57-.23-1 0-.46.1-.8.24-1 .15-.2.38-.33.68-.33.3 0 .53.1.68.34.15.23.23.56.23 1zm-1.25 0c0 .32.03.54.1.68.04.14.13.2.26.2.15 0 .24-.06.3-.2s.1-.37.1-.68c0-.3-.05-.54-.1-.68-.06-.13-.15-.2-.28-.2-.12 0-.2.07-.26.2s-.1.37-.1.68zm3.58 0c0 .45-.07.78-.22 1s-.35.32-.66.32c-.3 0-.52-.1-.67-.33-.15-.25-.22-.57-.22-1 0-.46.07-.8.22-1s.37-.33.67-.33c.3 0 .52.1.67.34.17.23.24.56.24 1zm-1.25 0c0 .32.02.54.08.68.05.14.14.2.27.2s.22-.06.28-.2c.07-.14.1-.37.1-.68 0-.3-.03-.54-.1-.68s-.13-.2-.26-.2c-.12 0-.22.07-.27.2-.06.14-.08.37-.08.68zm4.34 1.3h-.54v-2c-.08.07-.14.13-.18.16l-.3.23-.25-.33.82-.66h.45v2.58zm2.78 0H175v-.4l.65-.64c.2-.2.3-.33.37-.4s.1-.15.13-.22c.02-.06.03-.13.03-.2 0-.1-.02-.18-.08-.23-.06-.03-.13-.05-.23-.05s-.2.02-.3.07c-.08.05-.18.12-.28.2l-.3-.35c.1-.1.2-.18.3-.23.1-.04.17-.08.27-.1.1-.03.2-.04.33-.04.17 0 .3.03.43.1s.22.13.3.23.1.24.1.38c0 .1-.03.24-.07.34-.04.1-.1.22-.2.33-.08.1-.23.26-.45.46l-.3.3v.03h1.1v.46zm2.22-2c0 .15-.05.3-.15.4-.1.1-.23.2-.4.23.2.04.36.1.47.2.1.1.15.24.15.4 0 .25-.1.45-.28.58-.18.16-.44.23-.77.23-.28 0-.53-.05-.74-.14v-.47c.1.05.2.1.34.12.1.03.23.05.35.05.17 0 .3-.04.4-.1.07-.06.1-.16.1-.3 0-.12-.04-.2-.13-.25-.1-.05-.26-.08-.47-.08h-.2v-.4h.2c.2 0 .36-.04.45-.1.1-.04.14-.13.14-.26 0-.17-.15-.27-.4-.27-.07 0-.16 0-.25.04-.08.03-.18.08-.3.15l-.24-.37c.24-.17.5-.25.85-.25.26 0 .48.05.63.16.14.1.22.26.22.45zm2.48 1.45h-.3v.54h-.54v-.56h-1.1v-.37l1.13-1.66h.5v1.6h.3v.44zm-.84-.42v-.43c0-.07 0-.18 0-.32s.02-.22.02-.24c-.06.1-.1.2-.17.28l-.45.7h.62zm3.44-.68c.25 0 .45.07.6.2.14.14.22.33.22.58 0 .28-.1.5-.27.66-.17.13-.43.2-.76.2-.3 0-.53-.04-.7-.13V207c.1.06.2.1.32.13s.24.05.35.05c.33 0 .5-.14.5-.4 0-.27-.18-.4-.52-.4-.07 0-.13 0-.2.02-.08 0-.14.03-.2.04l-.2-.1.1-1.32h1.38v.46h-.9l-.06.5h.06c.07-.03.16-.03.26-.03zm1.38.55c0-.5.1-.9.32-1.14.2-.25.53-.37.96-.37.15 0 .27 0 .35 0v.44c-.1-.02-.2-.04-.3-.04-.2 0-.33.04-.45.1-.1.05-.2.14-.26.25-.07.1-.1.26-.1.47.1-.2.3-.3.56-.3.23 0 .4.07.54.2.12.16.2.36.2.6 0 .3-.1.5-.24.66-.16.16-.37.24-.65.24-.17 0-.33-.04-.47-.13-.15-.1-.25-.24-.33-.4-.1-.17-.12-.38-.12-.6zm.92.7c.12 0 .2-.05.27-.13.06-.08.1-.2.1-.33s-.04-.23-.1-.3c-.05-.07-.14-.1-.26-.1-.1 0-.2.03-.26.1-.08.07-.1.16-.1.25 0 .12.02.24.1.33s.16.15.27.15zm1.67.4l.96-2.12h-1.26v-.46h1.84v.34l-.95 2.23h-.57zm2.95-2.6c.25 0 .45.04.6.15s.22.27.22.46c0 .15-.03.26-.1.37-.08.1-.2.2-.36.27.2.1.33.2.42.32s.12.24.12.37c0 .2-.08.38-.24.5-.17.14-.4.2-.66.2-.28 0-.5-.06-.66-.18-.16-.12-.24-.3-.24-.5 0-.15.04-.28.12-.4.08-.1.2-.2.37-.3-.12-.1-.23-.2-.3-.3-.06-.1-.1-.22-.1-.34 0-.17.1-.32.24-.44.15-.1.35-.16.6-.16zm-.4 1.9c0 .1.04.18.1.24.08.05.17.08.3.08.13 0 .23-.03.3-.08s.1-.14.1-.23c0-.06-.03-.14-.1-.2-.07-.07-.17-.15-.32-.22-.25.1-.38.26-.38.43zm.4-1.52c-.1 0-.17.03-.22.07-.06.05-.1.1-.1.2 0 .06.03.13.08.18.04.06.12.1.24.17.12-.05.2-.1.24-.16.05-.06.07-.12.07-.2 0-.08-.03-.14-.1-.2-.04-.03-.12-.06-.2-.06zm4.43.72c0 .52-.1.9-.32 1.15s-.54.37-.97.37c-.15 0-.27 0-.34-.02v-.44c.1.03.2.04.3.04.2 0 .33-.03.45-.08s.2-.14.27-.25c.06-.12.1-.28.1-.48-.08.1-.16.17-.25.22-.1.04-.2.06-.35.06-.23 0-.4-.08-.53-.22-.13-.15-.2-.35-.2-.6 0-.28.1-.5.24-.65.16-.15.37-.23.64-.23.2 0 .37.03.5.12.15.1.26.2.34.4s.1.35.1.6zm-.93-.67c-.1 0-.2.03-.26.1s-.1.2-.1.34c0 .13.03.23.1.3.05.07.13.1.25.1s.2-.03.3-.1c.08-.07.1-.15.1-.25 0-.14-.02-.26-.1-.35-.06-.1-.16-.14-.27-.14zm3.25.87c0 .45-.08.78-.22 1-.15.2-.38.32-.68.32-.3 0-.52-.1-.67-.33-.15-.25-.23-.57-.23-1 0-.46.08-.8.22-1 .13-.2.35-.33.66-.33.3 0 .52.1.67.34.15.23.23.56.23 1zm-1.26 0c0 .32.05.54.1.68.06.14.15.2.28.2.12 0 .22-.06.27-.2s.1-.37.1-.68c0-.3-.04-.54-.1-.68-.06-.13-.15-.2-.27-.2-.13 0-.22.07-.28.2s-.1.37-.1.68zm3.15 1.3h-.54v-1.74l.03-.27c-.1.07-.15.13-.2.16l-.28.23-.26-.33.82-.66h.45v2.58zm2.78 0h-1.8v-.4l.65-.64c.2-.2.3-.33.37-.4s.1-.15.13-.22c.02-.06.04-.13.04-.2 0-.1-.03-.18-.1-.23-.05-.03-.12-.05-.22-.05s-.2.02-.3.07c-.08.05-.18.12-.28.2l-.3-.35c.13-.1.23-.18.32-.23.08-.04.17-.08.27-.1.1-.03.23-.04.35-.04.16 0 .3.03.43.1s.2.13.28.23c.07.12.1.24.1.38 0 .1-.02.24-.06.34s-.1.22-.2.33c-.1.1-.24.26-.46.46l-.33.3v.03h1.14v.46zM165.76 217.9h-.5v-1.86c-.08.08-.14.14-.17.17l-.3.23-.25-.3.78-.63h.42v2.4zm2.62 0h-1.7v-.35l.6-.6c.2-.2.3-.32.37-.4s.1-.13.12-.2c.02-.05.03-.1.03-.18 0-.1-.02-.17-.08-.22-.05-.04-.12-.07-.2-.07-.1 0-.2.02-.28.07-.1.04-.18.1-.28.18l-.28-.33c.12-.1.22-.17.3-.2.08-.06.16-.1.26-.1.1-.03.2-.05.3-.05.16 0 .3.03.4.1.12.04.2.12.28.22.06.1.1.2.1.34 0 .13-.02.24-.06.33-.04.1-.1.2-.2.3s-.2.25-.42.44l-.3.3v.02h1.04v.42zm2.1-1.87c0 .15-.05.28-.14.4-.1.1-.22.17-.4.2v.02c.2.02.36.08.46.17s.15.23.15.38c0 .24-.1.42-.26.55s-.43.2-.74.2c-.26 0-.5-.05-.7-.14v-.4c.1.03.2.07.3.1s.23.05.35.05c.17 0 .3-.03.38-.1.07-.05.1-.14.1-.27 0-.1-.04-.2-.13-.24-.1-.04-.24-.07-.44-.07h-.2v-.4h.2c.2 0 .34 0 .4-.06.1-.04.15-.13.15-.25 0-.18-.1-.27-.34-.27-.07 0-.15 0-.24.04-.08.04-.17.08-.27.15l-.24-.36c.23-.16.5-.24.8-.24.24 0 .44.06.6.16.13.1.2.25.2.43zm3.9.65c0 .4-.1.7-.34.9-.23.22-.56.33-.98.33h-.7v-2.4h.77c.4 0 .7.1.92.3.22.2.33.5.33.9zm-.53 0c0-.5-.23-.77-.7-.77h-.26v1.6h.2c.5 0 .74-.27.74-.8zm3.25-1.18v1.56c0 .17-.04.33-.1.47-.1.13-.2.23-.36.3-.15.08-.33.1-.54.1-.3 0-.55-.07-.72-.23-.18-.15-.26-.37-.26-.65v-1.56h.5v1.46c0 .2.05.32.12.4.08.1.2.14.37.14.2 0 .3-.03.4-.12.06-.1.1-.23.1-.4v-1.5h.5zm1.88 2.4l-.58-1.9h-.02c.02.4.03.66.03.78v1.13h-.44v-2.4h.7l.57 1.85.62-1.85h.7v2.4h-.48v-1.14c0-.05 0-.1 0-.18 0-.07 0-.26.03-.57h-.03l-.62 1.9h-.47zm3.45 0l-.58-1.9h-.02c.02.4.03.66.03.78v1.13h-.46v-2.4h.7l.58 1.85.6-1.85h.7v2.4h-.47v-1.14c0-.05 0-.1.03-.18 0-.07 0-.26.02-.57h-.02l-.62 1.9h-.46zm3.17-1.4l.5-1h.57l-.8 1.47v.94h-.52v-.9l-.8-1.5h.56l.5 1zm3.28.48v.93h-.52v-2.4h.7c.34 0 .58.06.74.18.15.12.23.3.23.55 0 .14-.04.26-.12.38-.05.1-.16.2-.3.27.36.54.6.9.7 1.05h-.57l-.57-.92h-.28zm0-.42h.16c.16 0 .28-.02.36-.08.08-.05.1-.14.1-.25s-.02-.2-.1-.25c-.08-.05-.2-.07-.37-.07h-.15v.67zm4.17.14c0 .4-.1.7-.3.92-.2.22-.48.32-.85.32s-.66-.1-.85-.32c-.2-.2-.3-.52-.3-.93s.1-.73.3-.94c.2-.2.48-.32.85-.32s.66.1.86.32c.2.22.3.52.3.93zm-1.77 0c0 .27.06.47.16.6.1.14.25.2.46.2.4 0 .6-.26.6-.8 0-.55-.2-.82-.6-.82-.2 0-.35.07-.46.2-.1.14-.16.35-.16.62zm4.02 1.2l-.2-.57h-.87l-.17.58h-.56l.86-2.4h.62l.86 2.42h-.55zm-.3-1c-.17-.52-.26-.8-.28-.88-.02-.07-.04-.13-.05-.17-.03.15-.14.5-.3 1.05h.62zm3.4-.22c0 .4-.1.7-.33.9-.23.22-.56.33-.98.33h-.7v-2.4h.75c.4 0 .7.1.92.3s.33.5.33.9zm-.52 0c0-.5-.23-.77-.7-.77h-.26v1.6h.22c.5 0 .74-.27.74-.8zm1.74.87c-.06.23-.15.5-.3.8h-.35c.07-.3.12-.57.16-.83h.47l.02.03zm1.92.35v-2.4h.5v2h1v.4h-1.5zm4.36-1.2c0 .4-.1.7-.3.92-.2.22-.48.32-.85.32s-.65-.1-.85-.32c-.2-.2-.3-.52-.3-.93s.1-.73.3-.94c.2-.2.48-.32.85-.32.38 0 .66.1.86.32.2.22.3.52.3.93zm-1.76 0c0 .27.05.47.15.6s.24.2.44.2c.4 0 .62-.26.62-.8 0-.55-.2-.82-.6-.82-.22 0-.37.07-.47.2-.1.14-.17.35-.17.62zm3.04.28v.93h-.52v-2.4h.7c.34 0 .58.06.74.18.15.12.23.3.23.55 0 .14-.04.26-.1.38-.1.1-.2.2-.35.27.37.54.6.9.72 1.05h-.57l-.58-.92h-.27zm0-.42h.16c.16 0 .28-.02.36-.08.08-.05.12-.14.12-.25s-.04-.2-.12-.25c-.08-.05-.2-.07-.37-.07h-.15v.67zm3.37 1.34h-1.4v-2.4h1.4v.4h-.88v.54h.82v.42h-.84v.63h.88v.4zm1.78 0l-.58-1.9h-.02c.03.4.04.66.04.78v1.13h-.46v-2.4h.7l.6 1.85.6-1.85h.7v2.4h-.47v-1.14c0-.05 0-.1 0-.18 0-.07 0-.26.02-.57h-.02l-.62 1.9h-.46zm-46.63 2.05c-.2 0-.35.07-.45.22-.1.14-.16.35-.16.6 0 .54.2.8.6.8.16 0 .36-.03.6-.1v.42c-.2.06-.4.1-.66.1-.36 0-.63-.1-.8-.3-.2-.23-.3-.54-.3-.94 0-.25.05-.47.15-.66s.2-.32.4-.43.36-.15.6-.15c.22 0 .46.06.7.17l-.17.4c-.1-.04-.18-.08-.27-.1-.1-.04-.2-.06-.28-.06zm1.38 2.03v-2.42h.52v2.42h-.52zm2.32 0h-.52v-2h-.66v-.42h1.83v.43h-.66v1.97zm2.03-1.42l.5-1h.56l-.8 1.48v.94h-.53v-.93l-.8-1.5h.55l.5 1zm2.07 1.06c-.05.23-.15.5-.3.8h-.35c.07-.3.13-.57.16-.83h.5zm3.35-.32c0 .23-.08.4-.24.52-.13.13-.35.2-.63.2-.26 0-.5-.06-.7-.15v-.48c.17.05.3.1.43.13.1.03.2.05.3.05.1 0 .2-.03.26-.08.06-.04.1-.1.1-.2 0-.04-.03-.08-.05-.1s-.05-.1-.1-.12c-.05-.03-.16-.1-.3-.17-.16-.05-.27-.12-.35-.2-.07-.05-.13-.12-.17-.2-.05-.08-.07-.18-.07-.3 0-.2.08-.38.23-.5.14-.1.34-.2.6-.2.13 0 .25.03.36.06.1.03.22.07.35.12l-.17.4c-.13-.06-.23-.1-.32-.12-.08-.02-.16-.03-.25-.03-.1 0-.16.02-.2.07-.06.04-.1.1-.1.18 0 .04 0 .08.04.12.02.03.06.06.1.1.05.02.16.08.33.16.23.1.38.22.46.33.1.1.13.24.13.4zm1.63.68h-.52v-2h-.66v-.42h1.83v.43h-.65v1.97zm2.76 0l-.18-.58h-.88l-.17.58h-.54l.86-2.43h.64l.85 2.43h-.55zm-.3-1c-.16-.53-.25-.82-.27-.9-.02-.06-.03-.12-.04-.15-.04.14-.15.5-.32 1.04h.65zm2.36 1h-.53v-2h-.65v-.42h1.82v.43h-.65v1.97zm2.67 0h-1.4v-2.42h1.4v.42h-.88v.53h.8v.44h-.83v.62h.9v.43zm4.03 0h-.64l-1.06-1.83c0 .32.02.55.02.7v1.13h-.46v-2.42h.65l1.07 1.8c0-.3 0-.53 0-.66v-1.14h.45v2.42zm2.35 0l-.17-.58h-.88l-.18.58h-.55l.85-2.43h.63l.86 2.43h-.54zm-.3-1c-.16-.53-.25-.82-.27-.9-.02-.06-.03-.12-.04-.15-.04.14-.14.5-.3 1.04h.62zm2.45 1l-.6-1.9c0 .4.02.65.02.77v1.13h-.46v-2.42h.7l.58 1.85.6-1.83h.7V222h-.47v-1.16c0-.05 0-.1 0-.18 0-.07 0-.26.03-.57h-.02l-.62 1.9h-.47zm3.8 0h-1.38v-2.42h1.4v.42h-.9v.53h.83v.44h-.82v.62h.88v.43zm1.23-.36c-.06.23-.16.5-.3.8h-.36c.07-.3.13-.57.17-.83h.49zm2.94-1.67c-.2 0-.34.07-.45.22-.1.14-.16.35-.16.6 0 .54.2.8.6.8.18 0 .4-.03.63-.1v.42c-.2.06-.44.1-.7.1-.34 0-.6-.1-.8-.3-.2-.23-.27-.54-.27-.94 0-.25.04-.47.13-.66s.23-.32.4-.43.37-.15.6-.15c.24 0 .47.06.7.17l-.15.4c-.1-.04-.2-.08-.27-.1-.1-.04-.18-.06-.27-.06zm3.6.82c0 .4-.1.7-.3.92-.2.2-.5.3-.87.3s-.65-.1-.85-.3-.3-.54-.3-.95c0-.4.1-.7.3-.92.2-.2.48-.32.85-.32s.66.1.86.33c.2.22.3.52.3.93zm-1.78 0c0 .27.03.47.13.6.1.14.26.2.46.2.4 0 .6-.26.6-.8 0-.55-.2-.82-.6-.82-.2 0-.36.07-.47.2-.1.14-.15.34-.15.62zm4.48-1.2v1.55c0 .18-.04.34-.12.47-.08.12-.2.22-.35.3-.13.07-.3.1-.5.1-.3 0-.57-.08-.74-.24-.17-.16-.26-.37-.26-.65v-1.55h.5v1.48c0 .2.04.32.12.4.07.1.2.14.37.14.15 0 .27-.04.34-.13.08-.1.12-.23.12-.4v-1.5h.5zm3 2.4h-.66l-1.05-1.82h-.02c.03.32.04.55.04.7v1.13h-.48v-2.42h.64l1.06 1.8c0-.3-.02-.53-.02-.66v-1.14h.48v2.42zm1.8 0h-.5v-2h-.68v-.4h1.83v.42h-.66v1.97zm1.8-.92v.93h-.5v-2.42h.7c.3 0 .55.06.7.18.16.12.24.3.24.54 0 .15-.04.27-.12.38-.07.12-.18.2-.32.27.36.54.6.9.7 1.05h-.56l-.58-.93h-.27zm0-.42h.16c.16 0 .28-.02.35-.08.06-.05.1-.14.1-.25 0-.12-.04-.2-.1-.25-.1-.05-.2-.07-.38-.07h-.16v.65zm2.72-.07l.5-1h.56l-.8 1.48v.94h-.5v-.93l-.82-1.5h.56l.5 1z"/></svg>