<svg xmlns="http://www.w3.org/2000/svg" viewBox="0 0 426 426" enable-background="new 0 0 426 426"><style type="text/css">.st0{fill:#3765AF;} .st1{fill:#FFFFFF;}</style><path d="M412.5 214.3c-9.2 58.5-27.1 75.6-58.8 114.9-31.7 33.3-77.3 88.9-141.9 85.8-58.5-9.2-75.6-27.1-114.9-58.8C63.6 324.5 8 278.9 11.1 214.3c9.2-58.5 27.1-75.6 58.8-114.9 31.7-33.3 77.3-88.9 141.9-85.8 58.5 9.2 75.6 27.1 114.9 58.8 33.3 31.7 88.9 77.3 85.8 141.9z" class="st0"/><circle cx="213" cy="218.6" r="43.6" class="st1"/><path d="M298.2 154.4c2.3-2.6 3.7-6 3.7-9.8 0-8.3-6.7-15-15-15-3.8 0-7.2 1.4-9.8 3.7-17.9-13.5-40.1-21.5-64.1-21.5-58.8 0-106.7 47.9-106.7 106.7 0 58.8 47.9 106.7 106.7 106.7s106.7-47.9 106.7-106.7c0-24-8-46.2-21.5-64.1zM213 321.7c-56.9 0-103.1-46.3-103.1-103.1 0-56.9 46.3-103.1 103.1-103.1 23.1 0 44.5 7.6 61.7 20.5-1.7 2.4-2.8 5.4-2.8 8.6 0 8.3 6.7 15 15 15 3.2 0 6.2-1 8.6-2.8 12.9 17.2 20.5 38.6 20.5 61.7.1 56.9-46.1 103.2-103 103.2z" class="st1"/></svg>