<?xml version="1.0" ?><svg id="Layer_1" style="enable-background:new 0 0 426 426;" version="1.1" viewBox="0 0 426 426" xml:space="preserve" xmlns="http://www.w3.org/2000/svg" xmlns:xlink="http://www.w3.org/1999/xlink"><style type="text/css">
	.st0{fill:#3765AF;}
	.st1{fill:#FFFFFF;}
</style><path class="st0" d="M412.5,214.3c-9.2,58.5-27.1,75.6-58.8,114.9c-31.7,33.3-77.3,88.9-141.9,85.8c-58.5-9.2-75.6-27.1-114.9-58.8  C63.6,324.5,8,278.9,11.1,214.3c9.2-58.5,27.1-75.6,58.8-114.9c31.7-33.3,77.3-88.9,141.9-85.8c58.5,9.2,75.6,27.1,114.9,58.8  C360,104.1,415.6,149.7,412.5,214.3z"/><g><circle class="st1" cx="213" cy="218.6" r="43.6"/><path class="st1" d="M298.2,154.4c2.3-2.6,3.7-6,3.7-9.8c0-8.3-6.7-15-15-15c-3.8,0-7.2,1.4-9.8,3.7   c-17.9-13.5-40.1-21.5-64.1-21.5c-58.8,0-106.7,47.9-106.7,106.7c0,58.8,47.9,106.7,106.7,106.7s106.7-47.9,106.7-106.7   C319.7,194.5,311.7,172.3,298.2,154.4z M213,321.7c-56.9,0-103.1-46.3-103.1-103.1c0-56.9,46.3-103.1,103.1-103.1   c23.1,0,44.5,7.6,61.7,20.5c-1.7,2.4-2.8,5.4-2.8,8.6c0,8.3,6.7,15,15,15c3.2,0,6.2-1,8.6-2.8c12.9,17.2,20.5,38.6,20.5,61.7   C316.1,275.4,269.9,321.7,213,321.7z"/></g></svg>