<svg xmlns="http://www.w3.org/2000/svg" enable-background="new 0 0 504 504" viewBox="0 0 504 504"><path fill="#3765AF" d="M456.6 261c-9.2 58.5-27.1 75.6-58.8 114.9-31.7 33.3-77.3 88.9-141.9 85.8-58.5-9.2-75.6-27.1-114.9-58.8-33.3-31.7-88.9-77.3-85.8-141.9 9.2-58.5 27.1-75.6 58.8-114.9 31.7-33.3 77.3-88.9 141.9-85.8 58.5 9.2 75.6 27.1 114.9 58.8 33.3 31.7 88.8 77.3 85.8 141.9z"/><path fill="#fff" d="M215.4 197.7c11.1 0 21.4 4.1 31.6 6.2 8.2 1.6 14.8 0 22.6-2.5 10.7-3.3 21-6.2 32.5-4.1 12.7 2.1 22.6 9.9 30.4 19.7-13.6 11.5-23.4 25.5-22.2 44.4 1.2 16 11.9 34.1 28 38.6-4.1 13.2-11.1 25.9-19.3 37-6.2 8.2-15.2 17.7-26.3 18.1-12.3.8-23.4-7.4-35.8-7.8-12.7-.8-23.4 8.2-35.8 8.2-10.7 0-19.3-7.4-25.9-15.2-10.3-12.3-18.1-27.5-23.4-42.7-9-26.3-10.3-59.6 7.8-82.2 9.9-11.9 21.4-17.7 35.8-17.7m76-47.6c3.3 11.1-3.3 25.5-9.9 34.1-8.2 10.3-17.7 14.8-30.4 15.6 0-12.3 3.3-22.6 9.5-31.6 6.1-8.7 16.4-14.9 30.8-18.1"/></svg>