<svg xmlns="http://www.w3.org/2000/svg" enable-background="new 0 0 504 504" viewBox="0 0 504 504"><path fill="#3765AF" d="M452.2 251.6c-9.2 58.5-27.1 75.6-58.8 114.9-31.7 33.3-77.3 88.9-141.9 85.8-58.5-9.2-75.6-27.1-114.9-58.8-33.3-31.7-88.9-77.3-85.8-141.9 9.2-58.5 27.1-75.6 58.8-114.9 31.7-33.3 77.3-88.9 141.9-85.8 58.5 9.2 75.6 27.1 114.9 58.8 33.3 31.7 88.9 77.3 85.8 141.9z"/><g fill="#fff"><path d="M193.6 175.6h34.3v96.5c0 43.3-20.9 58.7-53.9 58.7-8.3 0-18.5-1.2-25.2-3.5l3.9-28c4.7 1.6 11 2.8 17.7 2.8 14.6 0 23.6-6.7 23.6-29.9l-.4-96.6zM258.2 293c9.1 4.7 23.6 9.5 38.2 9.5 15.8 0 24-6.7 24-16.9 0-9.5-7.1-15-25.6-21.3-25.2-9.1-42.1-23.2-42.1-45.7 0-25.6 22.1-45.3 57.9-45.3 17.3 0 29.9 3.5 39 7.9l-7.9 27.6c-5.9-2.8-16.9-7.1-31.5-7.1-15 0-22 7.1-22 14.6 0 9.8 8.3 14.2 28.3 21.7 26.8 9.8 39.4 24 39.4 45.7 0 25.6-19.3 47.3-61.4 47.3-17.3 0-34.7-4.7-43.3-9.5l7-28.5z"/></g></svg>