<svg xmlns="http://www.w3.org/2000/svg" enable-background="new 0 0 504 504" viewBox="0 0 504 504"><path fill="#3765AF" d="M459.7 256.7c-9.2 58.5-27.1 75.6-58.8 114.9-31.7 33.3-77.3 88.9-141.9 85.8-58.5-9.2-75.6-27.1-114.9-58.8-33.3-31.7-88.9-77.3-85.8-141.9 9.2-58.5 27.1-75.6 58.8-114.9C148.8 108.5 194.4 53 259 56c58.5 9.2 75.6 27.1 114.9 58.8 33.3 31.7 88.9 77.3 85.8 141.9z"/><path fill="#fff" d="M219.6 316.1l6.7-4-7.5 2c-11.1 3.2-12.7 6.7-12.7 9.5.8 7.1 19 12.7 40 12.7 11.1 0 27.3-1.6 43.9-8.7l2.4-.8-2.4-.8c-7.5-3.2-13.5-6.3-13.5-6.3l-.4-.4h-.4c-13.5 2.4-21.8 3.6-30.5 3.6-5.5 0-11.5-.4-19.8-1.2-7.5-.8-8.3-2.4-8.3-2.8.1-1.2 1.3-2.4 2.5-2.8zm77.9-15.4l-2.8-1.2c-5.9-2-9.5-5.9-9.9-5.9l-.4-.4h-.4c-16.2 3.2-28.9 4.4-41.5 4.4-7.1 0-14.2-.4-23.7-1.6-6.3-.8-7.9-2.4-7.9-3.2-.4-1.6 2-4 2.8-4.7l4.7-3.6-5.9 2c-9.9 3.2-14.6 6.7-13.8 10.7 1.2 6.7 18.6 11.1 42.7 11.1 17.8 0 36.8-2.8 53-7.5l3.1-.1zM252 211.1c-3.2 9.9 0 21 9.9 32 3.2 3.6 4.7 7.5 4.4 11.5-.8 7.5-7.1 13.1-7.1 13.1l-7.1 5.9 8.3-4.4c.8-.4 17-8.7 19.8-21.4 1.2-5.1 0-10.3-3.2-15l-1.6-2.4c-5.1-7.5-9.5-13.1-7.9-19.8 2-9.1 14.2-19.4 40-34.4l5.9-3.6-6.7 1.6c-2.3.9-47.2 11.9-54.7 36.9zM239.8 360c52.6 0 90-9.9 92-19.4.4-1.6-.4-4.4-5.1-6.7l-6.7-3.2 5.5 4.7s1.6 1.2 1.2 2.8c-.4 1.2-1.6 3.6-8.7 5.5-13.8 4.7-45.5 7.9-76.9 7.9-29.3 0-51.8-2.4-61.7-6.7-1.2-.4-2-1.2-2-1.6.4-2 8.7-5.5 14.6-6.7 4-.8 6.3-.8 7.5-.8.4 0 .4 0 .4 0l3.6.4-2.8-2.8c-1.6-1.2-4-1.6-7.1-1.6-11.5 0-33.2 7.9-34 15-.4 3.6 4 6.3 13.1 7.5 22.3 3.7 44.9 5.7 67.1 5.7zm-9.9-77.1c24.1 0 46.7-2.4 62.9-6.7h.4c4.7-3.2 11.1-5.9 11.1-5.9l7.9-3.6-8.7 2s-18.6 3.2-36.8 4.7c-12.7 1.2-26.1 1.6-37.6 1.6-8.7 0-16.2-.4-21-1.2-8.7-1.2-8.7-2.8-8.7-2.8 0-2.4 12.7-6.7 24.5-9.9l6.3-1.6-6.3-.4s-.8 0-1.6 0c-5.5 0-20.2.8-37.2 9.1-1.6.8-5.5 2.8-5.1 5.5.8 7.2 27.3 9.2 49.9 9.2zm77.7-20.6l-1.6 2.8 2.8-1.2s1.6-.8 5.1-1.2c.8 0 1.6-.4 2.8-.4 5.5 0 12.3 3.6 13.8 10.3 1.2 4.7.8 17.4-26.9 31.7h-.4v.4c0 .4-.4.8-.8.8l-3.2 2.8 4-1.2c31.3-8.3 41.1-22.9 39.6-34-1.2-9.5-9.9-16.2-21-16.2-3.2 0-6.3.4-9.5 1.6-3.1 1.4-4.7 3.8-4.7 3.8zm-56.8-1.6l3.6 3.2-2-4.4c-2-4.7-5.5-9.5-8.7-13.8-10.7-15.4-21.8-30.9 8.3-54.6 19.8-15.4 30.1-30.9 30.9-45.5.8-13.1-6.3-20.2-6.7-20.6l-2.4-2.8.8 3.6c6.7 26.5-11.5 40.7-29.3 54.6-8.7 7.1-17.8 14.2-23.7 22.6-11.9 17.9 7.1 37.5 29.2 57.7zm90 86.3s-4 7.5-35.6 13.5c-18.2 3.6-39.6 5.1-61.7 5.1-18.2 0-36-1.2-49.5-3.6l-3.6-.8 3.2 2.4c.8.4 7.1 4.7 35.2 6.7 7.9.4 16.6.8 24.9.8 42.3 0 88.4-6.3 89.6-24.1l.4-5.5-2.9 5.5z"/></svg>