<svg xmlns="http://www.w3.org/2000/svg" enable-background="new 0 0 504 504" viewBox="0 0 504 504"><path fill="#3765AF" d="M452.2 251.6c-9.2 58.5-27.1 75.6-58.8 114.9-31.7 33.3-77.3 88.9-141.9 85.8-58.5-9.2-75.6-27.1-114.9-58.8-33.3-31.7-88.9-77.3-85.8-141.9 9.2-58.5 27.1-75.6 58.8-114.9 31.7-33.3 77.3-88.9 141.9-85.8 58.5 9.2 75.6 27.1 114.9 58.8 33.3 31.7 88.9 77.3 85.8 141.9z"/><path fill="#fff" d="M251.6 368.5c-3.1 0-6.2-.8-8.9-2.4l-28.2-16.7c-4.2-2.4-2.2-3.2-.8-3.7 5.6-2 6.8-2.4 12.8-5.8.6-.4 1.5-.2 2.1.2l21.7 12.9c.8.4 1.9.4 2.6 0l84.5-48.8c.8-.4 1.3-1.4 1.3-2.3v-97.5c0-1-.5-1.8-1.3-2.3l-84.5-48.7c-.8-.5-1.8-.5-2.6 0l-84.4 48.7c-.8.5-1.3 1.4-1.3 2.3v97.5c0 .9.5 1.8 1.3 2.3l23.1 13.4c12.6 6.3 20.2-1.1 20.2-8.5v-96.3c0-1.4 1.1-2.4 2.5-2.4h10.7c1.3 0 2.4 1.1 2.4 2.4V309c0 16.8-9.1 26.4-25 26.4-4.9 0-8.7 0-19.5-5.3l-22.2-12.8c-5.5-3.2-8.9-9.1-8.9-15.4v-97.5c0-6.3 3.4-12.2 8.9-15.4l84.5-48.8c5.3-3 12.5-3 17.8 0l84.5 48.8c5.5 3.2 8.9 9.1 8.9 15.4v97.5c0 6.3-3.4 12.2-8.9 15.4l-84.5 48.8c-2.6 1.5-5.7 2.4-8.8 2.4zm26.1-67.2c-37 0-44.7-17-44.7-31.2 0-1.4 1.1-2.4 2.4-2.4h10.9c1.2 0 2.2.9 2.4 2.1 1.6 11.1 6.6 16.7 28.9 16.7 17.8 0 25.4-4 25.4-13.5 0-5.4-2.1-9.5-29.8-12.2-23.1-2.3-37.4-7.4-37.4-25.9 0-17 14.4-27.2 38.5-27.2 27.1 0 40.5 9.4 42.2 29.5.1.7-.2 1.4-.6 1.9-.5.5-1.1.8-1.8.8h-11c-1.1 0-2.1-.8-2.4-1.9-2.6-11.7-9-15.4-26.4-15.4-19.4 0-21.7 6.8-21.7 11.8 0 6.1 2.7 7.9 28.9 11.4 26 3.4 38.3 8.3 38.3 26.5 0 18.4-15.4 29-42.1 29z"/></svg>