<?xml version="1.0" ?><svg enable-background="new 0 0 504 504" id="Layer_1" version="1.1" viewBox="0 0 504 504" xml:space="preserve" xmlns="http://www.w3.org/2000/svg" xmlns:xlink="http://www.w3.org/1999/xlink"><path d="M454.5,258.9c-9.2,58.5-27.1,75.6-58.8,114.9c-31.7,33.3-77.3,88.9-141.9,85.8  c-58.5-9.2-75.6-27.1-114.9-58.8c-33.3-31.7-88.9-77.3-85.8-141.9c9.2-58.5,27.1-75.6,58.8-114.9c31.7-33.3,77.3-88.9,141.9-85.8  c58.5,9.2,75.6,27.1,114.9,58.8C402,148.8,457.5,194.3,454.5,258.9z" fill="#3765AF"/><path d="M280.9,345.7c-2.6-0.9-4.3-2.8-5.7-5.1c-2-3.3-4.1-6.6-6-10c-7.2-12.9-14.4-25.7-21.6-38.6  c-0.2-0.3-0.4-0.6-0.6-1c-1.2,0.3-2.3,0.6-3.5,0.9c-15.9,4.1-31.7,8.2-47.6,12.3c-1.9,0.5-3.7,1-5.6,1c-3.8,0-6.7-1.7-8.7-4.9  c-0.5-0.8-0.9-1.6-1.2-2.5c-14.6-31.5-29.2-63.1-43.7-94.6c-2.6-5.6-5.2-11.3-7.7-16.9c-0.6-1.4-1-2.9-1.6-4.4  c-0.1-0.2-0.2-0.4-0.3-0.6c0-0.6,0-1.2,0-1.8c0.1-0.3,0.3-0.5,0.4-0.8c0.3-0.9,0.9-1.5,1.8-1.9c0.7-0.3,1.4-0.5,2.1-0.5  c3.8-0.4,7.6-0.7,11.4-1c5.2-0.4,10.5-0.8,15.7-1.2c6.7-0.5,13.5-1.1,20.2-1.6c1.1-0.1,2.2-0.2,3.2-0.4c1.1,0,2.2,0,3.4,0  c0.2,0.1,0.4,0.1,0.6,0.2c1.6,0.2,2.8,1,3.7,2.4c0.8,1.2,1.6,2.4,2.4,3.6c19.8,33.2,39.7,66.3,59.5,99.5c0.2,0.3,0.4,0.7,0.7,1.1  c25.5-6.1,51-12.2,76.7-18.4c-0.3-0.4-0.4-0.7-0.6-0.9c-8.2-11.6-16.3-23.1-24.5-34.7c-0.3-0.4-0.6-0.9-0.8-1.4  c-0.6-1.2-0.3-2.2,0.9-2.8c0.9-0.4,1.8-0.8,2.8-1c4.7-0.8,9.4-1.6,14-2.4c6.2-1,12.4-2.1,18.5-3.1c1.6-0.3,3.1-0.5,4.7-0.7  c1.4-0.2,2.7,0.2,3.9,1c1.2,0.9,2.2,2,3.2,3.1c6.3,7.8,12.6,15.6,18.9,23.4c3.3,4.1,6.7,8.2,10,12.3c0.3,0.3,0.5,0.7,0.7,1  c0,0.5,0,1.1,0,1.6c-0.6,1-1.7,1.3-2.7,1.6c-11.1,3-22.2,5.9-33.3,8.9c-0.3,0.1-0.7,0.2-1.1,0.3c0.3,0.4,0.4,0.6,0.6,0.9  c5.1,6.8,10.1,13.5,15.2,20.3c5.1,6.8,10.1,13.6,15.1,20.4c0.4,0.6,0.8,1.2,1.1,1.9c0.6,1.2,0.3,2.2-0.8,2.9  c-0.7,0.5-1.4,0.9-2.2,1.1c-2.5,1-5,1.9-7.5,2.8c-20.6,7.4-41.2,14.8-61.8,22.2c-5,1.8-10,3.5-15.1,5.2c-1.3,0.4-2.7,0.7-4,1.1  C283,345.7,282,345.7,280.9,345.7z M180.8,179.4c-3.2,0.3-6.4,0.6-9.7,0.8c-3.4,0.3-6.7,0.6-10.1,0.9c-4.2,0.4-8.5,0.7-12.7,1.1  c-2.8,0.2-5.6,0.5-8.4,0.7c-0.7,0.1-0.9,0.3-0.8,1c0.1,0.4,0.2,0.8,0.4,1.1c0.3,0.7,0.6,1.3,1,2c12.9,26.5,25.8,53.1,38.6,79.6  c4.2,8.6,8.3,17.2,12.4,25.8c0.2,0.5,0.5,0.7,1,0.6c0.7-0.1,1.4-0.2,2-0.4c13.8-3.3,27.5-6.6,41.3-9.8c1.4-0.3,2.9-0.7,4.3-1  c1-0.3,1.3-0.8,0.9-1.8c-0.2-0.5-0.4-0.9-0.7-1.3c-18.9-32.6-37.7-65.1-56.6-97.7C182.7,179.3,182.7,179.3,180.8,179.4z   M257.6,288.3c0.2,0.4,0.3,0.6,0.5,0.8c5.6,9.7,11.3,19.5,17,29.2c2.2,3.8,4.5,7.6,6.8,11.4c0.5,0.8,1.1,1.6,1.7,2.3  c0.7,0.7,1.6,0.9,2.5,0.5c0.4-0.2,0.8-0.3,1.2-0.4c16.7-5.7,33.4-11.4,50.1-17c7.6-2.6,15.2-5.1,22.8-7.7c0.4-0.1,0.9-0.3,1.3-0.5  c0.8-0.4,0.9-0.8,0.4-1.5c-0.3-0.5-0.7-1.1-1-1.6c-3-4.2-6.1-8.3-9.1-12.5c-5-6.8-9.9-13.6-14.9-20.4c-0.4-0.6-0.8-1.2-1.3-1.8  c-0.5-0.6-1.1-0.9-1.9-0.6c-0.6,0.2-1.1,0.3-1.7,0.5c-8.1,2.1-16.2,4.2-24.3,6.3c-16.3,4.2-32.6,8.5-48.9,12.7  C258.4,288,258,288.1,257.6,288.3z M337.1,258.6c0.2,0,0.4-0.1,0.6-0.1c9.6-2.4,19.3-4.7,28.9-7.1c0.4-0.1,0.8-0.2,1.2-0.4  c0.9-0.4,1.1-0.9,0.4-1.7c-0.1-0.1-0.2-0.3-0.3-0.4c-7.1-9-14.1-18-21.2-26.9c-0.1-0.2-0.3-0.4-0.4-0.5c-0.7-0.8-1.5-1-2.6-0.8  c-8.6,1.6-17.2,3.1-25.8,4.7c-1,0.2-2.1,0.3-3.1,0.6c-0.9,0.2-1,0.6-0.6,1.3c0.2,0.3,0.4,0.7,0.7,1c7.2,9.8,14.3,19.7,21.5,29.5  C336.6,258,336.8,258.3,337.1,258.6z" fill="#FFFFFF"/></svg>