<svg xmlns="http://www.w3.org/2000/svg" enable-background="new 0 0 504 504" viewBox="0 0 504 504"><path fill="#3765AF" d="M454.5 258.9c-9.2 58.5-27.1 75.6-58.8 114.9-31.7 33.3-77.3 88.9-141.9 85.8-58.5-9.2-75.6-27.1-114.9-58.8-33.3-31.7-88.9-77.3-85.8-141.9 9.2-58.5 27.1-75.6 58.8-114.9 31.7-33.3 77.3-88.9 141.9-85.8 58.5 9.2 75.6 27.1 114.9 58.8 33.3 31.8 88.8 77.3 85.8 141.9z"/><path fill="#fff" d="M280.9 345.7c-2.6-.9-4.3-2.8-5.7-5.1-2-3.3-4.1-6.6-6-10-7.2-12.9-14.4-25.7-21.6-38.6-.2-.3-.4-.6-.6-1-1.2.3-2.3.6-3.5.9-15.9 4.1-31.7 8.2-47.6 12.3-1.9.5-3.7 1-5.6 1-3.8 0-6.7-1.7-8.7-4.9-.5-.8-.9-1.6-1.2-2.5-14.6-31.5-29.2-63.1-43.7-94.6-2.6-5.6-5.2-11.3-7.7-16.9-.6-1.4-1-2.9-1.6-4.4-.1-.2-.2-.4-.3-.6 0-.6 0-1.2 0-1.8.1-.3.3-.5.4-.8.3-.9.9-1.5 1.8-1.9.7-.3 1.4-.5 2.1-.5 3.8-.4 7.6-.7 11.4-1 5.2-.4 10.5-.8 15.7-1.2 6.7-.5 13.5-1.1 20.2-1.6 1.1-.1 2.2-.2 3.2-.4 1.1 0 2.2 0 3.4 0 .2.1.4.1.6.2 1.6.2 2.8 1 3.7 2.4.8 1.2 1.6 2.4 2.4 3.6 19.8 33.2 39.7 66.3 59.5 99.5.2.3.4.7.7 1.1 25.5-6.1 51-12.2 76.7-18.4-.3-.4-.4-.7-.6-.9-8.2-11.6-16.3-23.1-24.5-34.7-.3-.4-.6-.9-.8-1.4-.6-1.2-.3-2.2.9-2.8.9-.4 1.8-.8 2.8-1 4.7-.8 9.4-1.6 14-2.4 6.2-1 12.4-2.1 18.5-3.1 1.6-.3 3.1-.5 4.7-.7 1.4-.2 2.7.2 3.9 1 1.2.9 2.2 2 3.2 3.1 6.3 7.8 12.6 15.6 18.9 23.4 3.3 4.1 6.7 8.2 10 12.3.3.3.5.7.7 1 0 .5 0 1.1 0 1.6-.6 1-1.7 1.3-2.7 1.6-11.1 3-22.2 5.9-33.3 8.9-.3.1-.7.2-1.1.3.3.4.4.6.6.9 5.1 6.8 10.1 13.5 15.2 20.3 5.1 6.8 10.1 13.6 15.1 20.4.4.6.8 1.2 1.1 1.9.6 1.2.3 2.2-.8 2.9-.7.5-1.4.9-2.2 1.1-2.5 1-5 1.9-7.5 2.8-20.6 7.4-41.2 14.8-61.8 22.2-5 1.8-10 3.5-15.1 5.2-1.3.4-2.7.7-4 1.1-1.1.2-2.1.2-3.2.2zM180.8 179.4c-3.2.3-6.4.6-9.7.8-3.4.3-6.7.6-10.1.9-4.2.4-8.5.7-12.7 1.1-2.8.2-5.6.5-8.4.7-.7.1-.9.3-.8 1 .1.4.2.8.4 1.1.3.7.6 1.3 1 2 12.9 26.5 25.8 53.1 38.6 79.6 4.2 8.6 8.3 17.2 12.4 25.8.2.5.5.7 1 .6.7-.1 1.4-.2 2-.4 13.8-3.3 27.5-6.6 41.3-9.8 1.4-.3 2.9-.7 4.3-1 1-.3 1.3-.8.9-1.8-.2-.5-.4-.9-.7-1.3-18.9-32.6-37.7-65.1-56.6-97.7-1-1.7-1-1.7-2.9-1.6zm76.8 108.9c.2.4.3.6.5.8 5.6 9.7 11.3 19.5 17 29.2 2.2 3.8 4.5 7.6 6.8 11.4.5.8 1.1 1.6 1.7 2.3.7.7 1.6.9 2.5.5.4-.2.8-.3 1.2-.4 16.7-5.7 33.4-11.4 50.1-17 7.6-2.6 15.2-5.1 22.8-7.7.4-.1.9-.3 1.3-.5.8-.4.9-.8.4-1.5-.3-.5-.7-1.1-1-1.6-3-4.2-6.1-8.3-9.1-12.5-5-6.8-9.9-13.6-14.9-20.4-.4-.6-.8-1.2-1.3-1.8-.5-.6-1.1-.9-1.9-.6-.6.2-1.1.3-1.7.5-8.1 2.1-16.2 4.2-24.3 6.3-16.3 4.2-32.6 8.5-48.9 12.7-.4 0-.8.1-1.2.3zm79.5-29.7c.2 0 .4-.1.6-.1 9.6-2.4 19.3-4.7 28.9-7.1.4-.1.8-.2 1.2-.4.9-.4 1.1-.9.4-1.7-.1-.1-.2-.3-.3-.4-7.1-9-14.1-18-21.2-26.9-.1-.2-.3-.4-.4-.5-.7-.8-1.5-1-2.6-.8-8.6 1.6-17.2 3.1-25.8 4.7-1 .2-2.1.3-3.1.6-.9.2-1 .6-.6 1.3.2.3.4.7.7 1 7.2 9.8 14.3 19.7 21.5 29.5.2.2.4.5.7.8z"/></svg>