<svg xmlns="http://www.w3.org/2000/svg" width="283.465" height="107.716" xmlns:xlink="http://www.w3.org/1999/xlink"><defs><path id="a" d="M-.02-.45h298v94h-298z"/></defs><clipPath id="b"><use xlink:href="#a" overflow="visible"/></clipPath><path fill="#fff" d="M96.92 33.68c1 0 1.25.52.93 1.25l-15.58 33.5h13.77c.63 0 1 .27 1 .84v5.16c0 .52-.37.83-1 .88H71.7c-1 0-1.32-.5-.94-1.24L86.34 40.6H73.4c-.64 0-1-.3-1-.83v-5.2c0-.57.36-.83 1-.9H96.9zM108.2 33.68c.6 0 1 .32 1 .84v39.96c0 .52-.4.83-1 .83h-6.52c-.7 0-1-.3-1-.82V34.52c0-.52.3-.84 1-.84h6.5z" clip-path="url(#b)"/><path fill="#00A1F1" d="M139.23 27.92c.68 0 1.25.54 1.25 1.2v37.66c0 5.57-3.13 8.53-9 8.53h-7.02c-5.88 0-9-2.95-9-8.52V29.1c0-.64.55-1.18 1.24-1.18h6c.7 0 1.26.54 1.26 1.2v36c0 1.6.87 2.37 2.5 2.37h3.26c1.62 0 2.5-.78 2.5-2.38v-36c0-.66.56-1.2 1.25-1.2h5.76zM174.65 73.9c.37.82.06 1.4-.94 1.4h-6.44c-.68 0-1.18-.23-1.43-.82l-6-14.33-6.02 14.33c-.24.6-.74.83-1.43.83h-6.44c-1 0-1.32-.58-.94-1.4l9.88-22.76-9.52-21.8c-.37-.82-.06-1.42.94-1.42h6.26c.7 0 1.2.24 1.44.83l5.82 14.04 5.82-14.05c.25-.6.75-.83 1.44-.83h6.25c1 0 1.32.6.94 1.43l-9.57 21.8 9.95 22.74z" clip-path="url(#b)"/><path fill="#fff" d="M188.92 68.44h14.9c.68 0 1 .3 1 .83v5.2c0 .58-.32.84-1 .84h-22.4c-.64 0-1-.25-1-.82V34.52c0-.52.36-.84 1-.84h6.5c.7 0 1 .32 1 .84v33.92zM230.7 75.3c-.56 0-.87-.25-1-.72l-1.75-5.25H216.8l-1.68 5.25c-.12.47-.43.73-1 .73h-6.7c-.68 0-1-.3-.8-.87L217 34.4c.13-.5.5-.72 1.07-.72h8.7c.56 0 .93.2 1.06.73l10.38 40.03c.14.57-.1.88-.86.88h-6.63zm-8.32-32.5l-4 20.5h8l-4-20.5zM264.7 50.75c0 1.93-1.68 3.38-3.93 3.7v.1c2.25.3 3.94 1.77 3.94 3.7v9.57c0 4.9-3.18 7.5-9.06 7.5h-15.02c-.63 0-1-.32-1-.84V34.52c0-.58.37-.84 1-.84h15.02c5.88 0 9.07 2.6 9.07 7.5v9.57zm-8.3-8.12c0-1.35-.82-2.08-2.52-2.08h-5.7v10.5h5.7c1.63 0 2.5-.72 2.5-2.02v-6.4zm0 17.38c0-1.34-.82-2.07-2.52-2.07h-5.7v10.5h5.7c1.63 0 2.5-.66 2.5-2.07V60z" clip-path="url(#b)"/><path fill="#00A1F1" d="M32.74 69h21.34l-4.7-13.62H37.44z" clip-path="url(#b)"/><path fill="#fff" stroke="#fff" stroke-width="2" stroke-miterlimit="10" d="M50.15 41.87v-6.6h1.1c1.15 0 2.1-.9 2.1-2.02 0-1.14-.95-2.03-2.1-2.03h-16.2c-1.15 0-2.1.9-2.1 2.03s.95 2.02 2.1 2.02h1.3v6.6L26 71v.1c0 1.1.73 1.97 1.5 2.55.76.6 1.86.84 2.9.84h25.5c1.05 0 1.9-.26 2.67-.85.77-.58 1.24-1.45 1.24-2.54V71l-9.65-29.13zM29.65 71.1L39.8 41.88v-6.6h6.9v6.6L56.77 71.1H29.65z" clip-path="url(#b)" stroke-linecap="round" stroke-linejoin="round"/><path fill="#00A1F1" d="M37.85 9.87c-1.6 0-2.9-1.3-2.9-2.88s1.3-2.9 2.9-2.9c1.58 0 2.87 1.3 2.87 2.9s-1.3 2.87-2.87 2.87m0-4.06c-.66 0-1.2.54-1.2 1.2.02.64.55 1.17 1.2 1.17.65 0 1.17-.53 1.17-1.18 0-.66-.52-1.2-1.17-1.2M36.75 26.72c-3.22 0-5.84-2.62-5.84-5.84 0-3.22 2.63-5.84 5.85-5.84 3.22 0 5.84 2.62 5.84 5.84 0 3.22-2.63 5.84-5.85 5.84m0-9.68c-2.1 0-3.84 1.73-3.84 3.84 0 2.12 1.74 3.84 3.85 3.84 2.12 0 3.84-1.72 3.84-3.84 0-2.1-1.73-3.84-3.85-3.84M46.9 17.98c-2.27 0-4.12-1.85-4.12-4.12 0-2.28 1.85-4.13 4.12-4.13s4.12 1.85 4.12 4.13c0 2.27-1.85 4.12-4.12 4.12m0-6.25c-1.17 0-2.12.96-2.12 2.13s.95 2.12 2.12 2.12 2.12-.95 2.12-2.12c0-1.17-.95-2.13-2.12-2.13" clip-path="url(#b)"/></svg>