<svg xmlns="http://www.w3.org/2000/svg" viewBox="0 0 512.001 512.001" enable-background="new 0 0 512.001 512.001"><path fill="#444242" d="M239.3 120.32h33.4V260.3h-33.4z"/><path fill="#3A3839" d="M256 120.32h16.7V260.3H256z"/><path fill="#444242" d="M96.63 425.3l-16.7-28.93 121.23-69.98 16.7 28.9z"/><path fill="#3A3839" d="M415.37 425.28l-121.22-70 16.7-28.9 121.2 69.98z"/><path fill="#F74D37" d="M256 384.38c-38.8 0-70.38-31.58-70.38-70.4s31.57-70.37 70.38-70.37 70.38 31.58 70.38 70.4-31.57 70.38-70.38 70.38z"/><g fill="#EDEEF0"><path d="M256 137.02c-30.35 0-55.04-24.7-55.04-55.04s24.7-55.05 55.04-55.05 55.04 24.7 55.04 55.05-24.7 55.04-55.04 55.04zM55.16 485.07c-4.78 0-9.6-.63-14.34-1.9-14.2-3.8-26.07-12.9-33.42-25.65s-9.3-27.56-5.5-41.77c3.8-14.2 12.9-26.07 25.65-33.42 12.73-7.35 27.56-9.3 41.76-5.5 14.22 3.8 26.1 12.92 33.44 25.65s9.3 27.56 5.5 41.77c-3.8 14.2-12.92 26.07-25.65 33.42-8.5 4.9-17.9 7.4-27.44 7.4z"/></g><path fill="#DCDEE2" d="M456.84 485.07c-9.53 0-18.95-2.5-27.43-7.4-12.72-7.35-21.83-19.22-25.63-33.42-3.8-14.2-1.86-29.04 5.5-41.77 7.35-12.73 19.22-21.84 33.42-25.65 14.2-3.8 29.02-1.85 41.76 5.5 12.73 7.35 21.84 19.22 25.64 33.43 3.8 14.2 1.86 29.03-5.5 41.76-7.35 12.74-19.22 21.85-33.42 25.65-4.74 1.27-9.56 1.9-14.34 1.9z"/><path fill="#B03727" d="M256 384.38c0-49.6 0-111.54 0-140.77 38.8 0 70.38 31.58 70.38 70.4S294.8 384.37 256 384.37z"/><path fill="#DCDEE2" d="M256 137.02c0-26.02 0-82.9 0-110.1 30.35 0 55.04 24.7 55.04 55.06s-24.7 55.04-55.04 55.04z"/></svg>