<?xml version="1.0" encoding="iso-8859-1"?>
<!-- Generator: Adobe Illustrator 19.0.0, SVG Export Plug-In . SVG Version: 6.00 Build 0)  -->
<svg version="1.1" id="Layer_1" xmlns="http://www.w3.org/2000/svg" xmlns:xlink="http://www.w3.org/1999/xlink" x="0px" y="0px"
	 viewBox="0 0 512.001 512.001" style="enable-background:new 0 0 512.001 512.001;" xml:space="preserve">
<rect x="239.311" y="120.324" style="fill:#444242;" width="33.389" height="139.978"/>
<rect x="256.005" y="120.324" style="fill:#3A3839;" width="16.695" height="139.978"/>
<rect x="132.204" y="305.841" transform="matrix(-0.5 -0.866 0.866 -0.5 -102.1253 692.6963)" style="fill:#444242;" width="33.388" height="139.975"/>
<rect x="293.115" y="359.121" transform="matrix(-0.866 -0.5 0.5 -0.866 489.6452 882.8328)" style="fill:#3A3839;" width="139.975" height="33.388"/>
<path style="fill:#F74D37;" d="M256.001,384.378c-38.81,0-70.384-31.575-70.384-70.384s31.575-70.384,70.384-70.384
	s70.384,31.575,70.384,70.384S294.81,384.378,256.001,384.378z"/>
<g>
	<path style="fill:#EDEEF0;" d="M256.001,137.02c-30.352,0-55.044-24.693-55.044-55.044s24.693-55.044,55.044-55.044
		s55.044,24.693,55.044,55.044S286.352,137.02,256.001,137.02z"/>
	<path style="fill:#EDEEF0;" d="M55.158,485.069c-4.781,0-9.594-0.629-14.336-1.9c-14.203-3.805-26.072-12.914-33.424-25.646
		s-9.304-27.567-5.499-41.769c3.805-14.203,12.914-26.072,25.646-33.424c12.731-7.352,27.567-9.304,41.769-5.499
		c14.203,3.805,26.072,12.914,33.424,25.646s9.304,27.567,5.499,41.769c-3.805,14.203-12.914,26.072-25.646,33.424
		C74.11,482.567,64.695,485.069,55.158,485.069z"/>
</g>
<path style="fill:#DCDEE2;" d="M456.843,485.069c-9.538,0-18.951-2.501-27.432-7.398l0,0c-12.733-7.351-21.842-19.221-25.646-33.424
	c-3.805-14.201-1.853-29.035,5.499-41.769c7.351-12.732,19.221-21.841,33.424-25.646c14.201-3.806,29.034-1.853,41.769,5.499
	c12.732,7.351,21.841,19.221,25.646,33.424c3.805,14.202,1.853,29.035-5.499,41.769c-7.351,12.733-19.221,21.842-33.424,25.646
	C466.438,484.44,461.623,485.069,456.843,485.069z"/>
<path style="fill:#B03727;" d="M256.001,384.378c0-49.589,0-111.541,0-140.768c38.81,0,70.384,31.575,70.384,70.384
	S294.81,384.378,256.001,384.378z"/>
<path style="fill:#DCDEE2;" d="M256.001,137.02c0-26.015,0-82.908,0-110.088c30.352,0,55.044,24.693,55.044,55.044
	S286.352,137.02,256.001,137.02z"/>
<g>
</g>
<g>
</g>
<g>
</g>
<g>
</g>
<g>
</g>
<g>
</g>
<g>
</g>
<g>
</g>
<g>
</g>
<g>
</g>
<g>
</g>
<g>
</g>
<g>
</g>
<g>
</g>
<g>
</g>
</svg>
