<svg xmlns="http://www.w3.org/2000/svg" width="170.333" height="170.333"><circle cx="85.167" cy="84.128" r="82.205" fill="#fff"/><path fill="#498CF5" d="M85.28 17.26V75.1c5.65 0 10.22 4.56 10.22 10.2h57.82c0-37.58-30.45-68.04-68.03-68.04z"/><path fill="#D74848" d="M95.5 85.3c0 1.86-.5 3.6-1.4 5.1l50.1 28.9c5.8-10 9.12-21.6 9.12-34H95.5z"/><path fill="#161616" d="M85.28 170.33C38.38 170.33.24 132.2.24 85.3S38.4.24 85.3.24s85 38.16 85 85.06c0 46.9-38.14 85.03-85.05 85.03zm0-163.27c-43.14 0-78.23 35.1-78.23 78.23s35.1 78.22 78.23 78.22c43.16 0 78.25-35.1 78.25-78.24 0-43.14-35.1-78.24-78.25-78.24zm32.22 29.26l-5.9-3.4 4.77-8.24 5.88 3.4zM81.88 17.26h6.8v9.52h-6.8zM53.1 36.33l-4.77-8.25 5.88-3.4L59 32.92zm-25.03 12l8.26 4.77-3.4 5.9-8.26-4.77zM17.25 81.9h9.53v6.8h-9.53zm15.68 29.7l3.4 5.88-8.25 4.77-3.4-5.9zm21.27 34.3l-5.87-3.4 4.76-8.24 5.86 3.4zm27.68-2.1h6.8v9.52h-6.8zm34.48 2.1l-4.78-8.24 5.9-3.4 4.76 8.24zm26.14-23.65l-8.25-4.77 3.4-5.9 8.26 4.78zm1.3-40.35h9.52v6.8h-9.52zm-6.15-22.92l-3.4-5.9 8.25-4.75 3.4 5.9zM85.28 98.9c-7.5 0-13.6-6.1-13.6-13.6s6.1-13.6 13.6-13.6S98.9 77.8 98.9 85.3s-6.1 13.6-13.6 13.6zm0-20.4c-3.75 0-6.8 3.04-6.8 6.8 0 3.75 3.05 6.8 6.8 6.8s6.82-3.05 6.82-6.8c0-3.76-3.07-6.8-6.8-6.8zm10.22 3.4h25.85v6.8H95.5zM81.88 49.24h6.8V75.1h-6.8z"/><path fill="#D74848" d="M235.65-13.86c-3.03 4.38-5.4 9.25-6.97 14.47h13.94c-1.58-5.2-3.95-10.07-6.97-14.45z"/><path fill="#498CF5" d="M261.74 53.18h8.1v8.1h-8.1zm-60.27 0h8.08v8.1h-8.1z"/><path fill="#E6EBF4" d="M263.27 60l-19.94-3.65V23.4h3.07c0 12.22 6.88 22.15 15.34 22.15h1.53V60zm-16.87-6.2l13.8 2.53v-7.8c-5.75-.65-10.77-4.96-13.8-11.2V53.8zM208.02 60V45.56h1.53c8.47 0 15.35-9.93 15.35-22.14h3.06v32.95L208.02 60zm3.07-11.48v7.8l13.8-2.53V37.3c-3.05 6.26-8.07 10.56-13.8 11.2zm35.3 8.08h-21.5V15.77c0-10.96 3.28-21.5 9.5-30.5l1.25-1.83 1.26 1.82c6.23 9 9.5 19.55 9.5 30.5V56.6zm-18.44-3.06h15.37V15.77c0-9.56-2.65-18.8-7.68-26.84-5.04 8.04-7.7 17.28-7.7 26.84v37.77zm15 9.26h-14.62l-3.3-7.1 2.78-1.28 2.48 5.32H241l2.47-5.32 2.78 1.3zm28.4 0H260.2V45.1c0-1.5.6-2.9 1.64-3.96 1.06-1.05 2.46-1.63 3.94-1.63 1.5 0 2.9.6 3.95 1.65 1.05 1.05 1.63 2.46 1.63 3.95v17.7zm-8.1-3.06h5.04V45.1c0-.7-.27-1.32-.74-1.8-.47-.46-1.1-.73-1.78-.73-.67 0-1.3.26-1.77.74s-.72 1.1-.72 1.8v14.65zM211.1 62.8h-11.17V45.1c0-1.5.58-2.9 1.63-3.96 1.06-1.05 2.46-1.63 3.94-1.63 1.5 0 2.9.6 3.96 1.65 1.04 1.05 1.63 2.46 1.63 3.95v17.7zm-8.1-3.06h5.02V45.1c0-.7-.26-1.32-.73-1.8-.5-.47-1.13-.73-1.8-.73-.67 0-1.3.26-1.77.74-.48.5-.74 1.13-.74 1.8v14.65z"/><path fill="#498CF5" d="M239.98 13.32c0 2.4-1.94 4.33-4.33 4.33-2.4 0-4.34-1.94-4.34-4.33 0-2.4 1.96-4.33 4.36-4.33 2.4 0 4.33 1.92 4.33 4.3z"/><path fill="#E6EBF4" d="M235.65 19.2c-3.24 0-5.87-2.65-5.87-5.88s2.63-5.87 5.87-5.87c3.23 0 5.87 2.63 5.87 5.87 0 3.23-2.64 5.87-5.87 5.87zm0-8.68c-1.55 0-2.8 1.25-2.8 2.8 0 1.54 1.25 2.8 2.8 2.8 1.54 0 2.8-1.25 2.8-2.8 0-1.55-1.26-2.8-2.8-2.8zM237 65.04h3.07v6.94H237zm-5.78 0h3.07v6.94h-3.1zm33.03 0h3.06v6.94h-3.04zm-60.28 0h3.07v6.94h-3.07zm30.15-38.24h3.06v3.08h-3.06zm0 5.36h3.06v3.06h-3.06zm0 5.34h3.06v3.07h-3.06zm0 5.34h3.06v3.07h-3.06z"/></svg>