<?xml version="1.0" encoding="utf-8"?>
<!-- Generator: Adobe Illustrator 16.0.0, SVG Export Plug-In . SVG Version: 6.00 Build 0)  -->
<!DOCTYPE svg PUBLIC "-//W3C//DTD SVG 1.1//EN" "http://www.w3.org/Graphics/SVG/1.1/DTD/svg11.dtd">
<svg version="1.1" id="Capa_1" xmlns="http://www.w3.org/2000/svg" xmlns:xlink="http://www.w3.org/1999/xlink" x="0px" y="0px"
	 width="170.333px" height="170.333px" viewBox="0 0 170.333 170.333" enable-background="new 0 0 170.333 170.333"
	 xml:space="preserve">
<g>
	<circle fill="#FFFFFF" cx="85.167" cy="84.128" r="82.205"/>
	<path fill="#498CF5" d="M85.285,17.262V75.09c5.648,0,10.216,4.569,10.216,10.205h57.822
		C153.323,47.724,122.87,17.262,85.285,17.262z"/>
	<path fill="#D74848" d="M95.5,85.294c0,1.863-0.512,3.595-1.386,5.093l50.088,28.915c5.797-10.002,9.12-21.614,9.12-34.007H95.5
		L95.5,85.294z"/>
	<g>
		<path fill="#161616" d="M85.285,170.333c-46.892,0-85.042-38.147-85.042-85.039c0-46.89,38.15-85.04,85.042-85.04
			c46.902,0,85.049,38.15,85.049,85.04C170.333,132.186,132.187,170.333,85.285,170.333z M85.285,7.057
			c-43.142,0-78.237,35.099-78.237,78.238c0,43.142,35.096,78.237,78.237,78.237c43.151,0,78.249-35.096,78.249-78.237
			C163.534,42.156,128.436,7.057,85.285,7.057z"/>
		<polygon fill="#161616" points="117.49,36.324 111.599,32.923 116.368,24.676 122.245,28.077 		"/>
		<rect x="81.875" y="17.262" fill="#161616" width="6.808" height="9.523"/>
		<polygon fill="#161616" points="53.09,36.327 48.333,28.077 54.211,24.676 58.971,32.925 		"/>
		
			<rect x="25.737" y="50.262" transform="matrix(0.8662 0.4997 -0.4997 0.8662 30.8944 -8.0612)" fill="#161616" width="9.529" height="6.802"/>
		<rect x="17.249" y="81.89" fill="#161616" width="9.53" height="6.807"/>
		
			<rect x="27.1" y="112.16" transform="matrix(0.5001 0.8659 -0.8659 0.5001 116.4973 32.0355)" fill="#161616" width="6.801" height="9.532"/>
		<polygon fill="#161616" points="54.211,145.903 48.334,142.505 53.092,134.263 58.971,137.667 		"/>
		<rect x="81.875" y="143.797" fill="#161616" width="6.808" height="9.52"/>
		<polygon fill="#161616" points="116.357,145.903 111.58,137.663 117.485,134.263 122.238,142.504 		"/>
		<polygon fill="#161616" points="142.51,122.254 134.255,117.484 137.66,111.595 145.909,116.365 		"/>
		<rect x="143.797" y="81.89" fill="#161616" width="9.521" height="6.807"/>
		<polygon fill="#161616" points="137.653,58.982 134.252,53.091 142.504,48.333 145.906,54.228 		"/>
		<path fill="#161616" d="M85.285,98.903c-7.51,0-13.609-6.109-13.609-13.609c0-7.503,6.1-13.606,13.609-13.606
			c7.5,0,13.621,6.103,13.621,13.606C98.906,92.794,92.785,98.903,85.285,98.903z M85.285,78.489c-3.756,0-6.81,3.051-6.81,6.806
			c0,3.754,3.054,6.805,6.81,6.805c3.744,0,6.818-3.051,6.818-6.805C92.103,81.54,89.029,78.489,85.285,78.489z"/>
		<rect x="95.5" y="81.89" fill="#161616" width="25.85" height="6.807"/>
		<rect x="81.875" y="49.237" fill="#161616" width="6.808" height="25.853"/>
	</g>
</g>
<g>
	<path fill="#D74848" d="M235.65-13.864c-3.027,4.384-5.394,9.257-6.974,14.47h13.943C241.037-4.607,238.674-9.479,235.65-13.864z"
		/>
	<g>
		<rect x="261.743" y="53.178" fill="#498CF5" width="8.09" height="8.092"/>
		<rect x="201.465" y="53.178" fill="#498CF5" width="8.089" height="8.092"/>
	</g>
	<g>
		<path fill="#E6EBF4" d="M263.274,60.01l-19.94-3.664V23.414h3.064c0,12.203,6.881,22.135,15.343,22.135h1.533V60.01z
			 M246.398,53.79l13.811,2.54v-7.804c-5.759-0.649-10.777-4.951-13.811-11.201V53.79z"/>
		<path fill="#E6EBF4" d="M208.022,60.01V45.548h1.532c8.462,0,15.344-9.932,15.344-22.135h3.065v32.933L208.022,60.01z
			 M211.087,48.525v7.804l13.811-2.54V37.324C221.864,43.575,216.845,47.876,211.087,48.525z"/>
		<path fill="#E6EBF4" d="M246.398,56.601h-21.5V15.771c0-10.959,3.282-21.507,9.492-30.505l1.26-1.829l1.259,1.828
			c6.209,8.999,9.489,19.547,9.489,30.506V56.601L246.398,56.601L246.398,56.601z M227.964,53.536h15.369V15.771
			c0-9.564-2.651-18.797-7.684-26.845c-5.035,8.048-7.686,17.281-7.686,26.845V53.536L227.964,53.536z"/>
		<polygon fill="#E6EBF4" points="242.958,62.804 228.34,62.804 225.038,55.713 227.817,54.423 230.298,59.739 241,59.739 
			243.472,54.423 246.252,55.713 		"/>
		<path fill="#E6EBF4" d="M271.364,62.804h-11.155V45.086c0-1.49,0.581-2.894,1.634-3.944c1.054-1.055,2.452-1.634,3.94-1.634
			c1.493,0,2.896,0.58,3.945,1.636c1.054,1.048,1.636,2.452,1.636,3.942V62.804L271.364,62.804z M263.274,59.739h5.025v-14.65
			c0-0.674-0.265-1.305-0.737-1.775c-0.475-0.479-1.104-0.74-1.779-0.74c-0.668,0-1.3,0.261-1.77,0.733
			c-0.479,0.478-0.739,1.108-0.739,1.782V59.739L263.274,59.739z"/>
		<path fill="#E6EBF4" d="M211.087,62.804h-11.155V45.086c0-1.488,0.582-2.892,1.63-3.944c1.057-1.055,2.458-1.634,3.943-1.634
			c1.493,0,2.896,0.58,3.951,1.634c1.048,1.052,1.631,2.456,1.631,3.944V62.804L211.087,62.804z M202.998,59.739h5.024v-14.65
			c0-0.674-0.258-1.305-0.736-1.778c-0.475-0.477-1.105-0.737-1.78-0.737c-0.667,0-1.298,0.261-1.771,0.737
			c-0.479,0.473-0.736,1.104-0.736,1.778V59.739L202.998,59.739z"/>
	</g>
	<path fill="#498CF5" d="M239.981,13.32c0,2.391-1.944,4.334-4.333,4.334c-2.396,0-4.337-1.943-4.337-4.334
		c0-2.394,1.94-4.334,4.337-4.334C238.037,8.986,239.981,10.927,239.981,13.32z"/>
	<g>
		<path fill="#E6EBF4" d="M235.648,19.187c-3.237,0-5.869-2.633-5.869-5.867c0-3.235,2.632-5.868,5.869-5.868
			c3.235,0,5.868,2.633,5.868,5.868C241.516,16.554,238.883,19.187,235.648,19.187z M235.648,10.518
			c-1.546,0-2.803,1.255-2.803,2.802c0,1.544,1.257,2.801,2.803,2.801c1.542,0,2.799-1.256,2.799-2.801
			C238.447,11.773,237.189,10.518,235.648,10.518z"/>
		<rect x="237.005" y="65.041" fill="#E6EBF4" width="3.066" height="6.937"/>
		<rect x="231.222" y="65.041" fill="#E6EBF4" width="3.068" height="6.937"/>
		<rect x="264.251" y="65.041" fill="#E6EBF4" width="3.064" height="6.937"/>
		<rect x="203.974" y="65.041" fill="#E6EBF4" width="3.071" height="6.937"/>
		<rect x="234.116" y="26.81" fill="#E6EBF4" width="3.065" height="3.066"/>
		<rect x="234.116" y="32.158" fill="#E6EBF4" width="3.065" height="3.065"/>
		<rect x="234.116" y="37.501" fill="#E6EBF4" width="3.065" height="3.065"/>
		<rect x="234.116" y="42.845" fill="#E6EBF4" width="3.065" height="3.065"/>
	</g>
</g>
</svg>
