<svg xmlns="http://www.w3.org/2000/svg" width="170.333" height="170.333"><circle cx="85.167" cy="84.128" r="82.205" fill="#fff"/><path fill="#498CF5" d="M85.28 17.26V75.1c5.65 0 10.22 4.56 10.22 10.2h57.82c0-37.58-30.45-68.04-68.03-68.04z"/><path fill="#D74848" d="M95.5 85.3c0 1.86-.5 3.6-1.4 5.1l50.1 28.9c5.8-10 9.12-21.6 9.12-34H95.5z"/><g fill="#161616"><path d="M85.28 170.33C38.38 170.33.24 132.2.24 85.3.24 38.4 38.4.24 85.3.24S170.3 38.4 170.3 85.3c0 46.9-38.14 85.03-85.05 85.03zm0-163.27c-43.14 0-78.23 35.1-78.23 78.23 0 43.14 35.1 78.23 78.23 78.23 43.16 0 78.25-35.1 78.25-78.24 0-43.14-35.1-78.24-78.25-78.24zM117.5 36.32l-5.9-3.4 4.77-8.24 5.88 3.4zM81.88 17.26h6.8v9.52h-6.8zM53.1 36.33l-4.77-8.25 5.88-3.4 4.77 8.24zM28.07 48.34l8.26 4.76-3.4 5.9-8.26-4.77zM17.25 81.9h9.53v6.8h-9.53zM32.93 111.6l3.4 5.88-8.25 4.77-3.4-5.9zM54.2 145.9l-5.87-3.4 4.76-8.24 5.87 3.4zM81.88 143.8h6.8v9.52h-6.8zM116.36 145.9l-4.78-8.24 5.9-3.4 4.76 8.24zM142.5 122.25l-8.25-4.77 3.4-5.9 8.26 4.78zM143.8 81.9h9.52v6.8h-9.52zM137.65 58.98l-3.4-5.9 8.25-4.75 3.4 5.9zM85.28 98.9c-7.5 0-13.6-6.1-13.6-13.6s6.1-13.6 13.6-13.6S98.9 77.8 98.9 85.3 92.8 98.9 85.3 98.9zm0-20.4c-3.75 0-6.8 3.04-6.8 6.8 0 3.75 3.05 6.8 6.8 6.8s6.82-3.05 6.82-6.8c0-3.76-3.07-6.8-6.8-6.8zM95.5 81.9h25.85v6.8H95.5zM81.88 49.24h6.8V75.1h-6.8z"/></g><path fill="#D74848" d="M235.65-13.86c-3.03 4.38-5.4 9.25-6.97 14.47h13.94c-1.58-5.2-3.95-10.08-6.97-14.46z"/><g fill="#498CF5"><path d="M261.74 53.18h8.1v8.1h-8.1zM201.47 53.18h8.08v8.1h-8.1z"/></g><g fill="#E6EBF4"><path d="M263.27 60l-19.94-3.65V23.4h3.07c0 12.22 6.88 22.15 15.34 22.15h1.53V60zm-16.87-6.2l13.8 2.53v-7.8c-5.75-.65-10.77-4.96-13.8-11.2v16.46zM208.02 60V45.56h1.53c8.47 0 15.35-9.93 15.35-22.14h3.06v32.95L208.02 60zm3.07-11.48v7.8l13.8-2.53V37.3c-3.04 6.26-8.06 10.56-13.8 11.2zM246.4 56.6h-21.5V15.77c0-10.96 3.28-21.5 9.5-30.5l1.25-1.83 1.26 1.82c6.22 9 9.5 19.55 9.5 30.5V56.6zm-18.44-3.06h15.37V15.77c0-9.56-2.65-18.8-7.68-26.84-5.04 8.04-7.7 17.28-7.7 26.84v37.77zM242.96 62.8h-14.62l-3.3-7.1 2.78-1.28 2.48 5.32H241l2.47-5.32 2.78 1.3zM271.36 62.8H260.2V45.1c0-1.5.6-2.9 1.64-3.96 1.06-1.05 2.46-1.63 3.94-1.63 1.5 0 2.9.6 3.95 1.64 1.05 1.05 1.63 2.46 1.63 3.95v17.7zm-8.1-3.06h5.04V45.1c0-.7-.27-1.32-.74-1.8-.47-.46-1.1-.73-1.78-.73-.67 0-1.3.26-1.77.74s-.73 1.1-.73 1.8v14.64zM211.1 62.8h-11.17V45.1c0-1.5.58-2.9 1.63-3.96 1.06-1.05 2.46-1.63 3.94-1.63 1.5 0 2.9.6 3.96 1.64 1.04 1.05 1.63 2.46 1.63 3.95v17.7zm-8.1-3.06h5.02V45.1c0-.7-.26-1.32-.73-1.8-.5-.47-1.12-.73-1.8-.73-.66 0-1.3.26-1.76.74-.48.48-.74 1.12-.74 1.8v14.64z"/></g><path fill="#498CF5" d="M239.98 13.32c0 2.4-1.94 4.33-4.33 4.33-2.4 0-4.34-1.94-4.34-4.33 0-2.4 1.95-4.33 4.35-4.33 2.4 0 4.33 1.93 4.33 4.32z"/><g fill="#E6EBF4"><path d="M235.65 19.2c-3.24 0-5.87-2.65-5.87-5.88s2.63-5.87 5.87-5.87c3.23 0 5.87 2.63 5.87 5.87 0 3.23-2.64 5.87-5.87 5.87zm0-8.68c-1.55 0-2.8 1.25-2.8 2.8 0 1.54 1.25 2.8 2.8 2.8 1.54 0 2.8-1.25 2.8-2.8 0-1.55-1.26-2.8-2.8-2.8zM237 65.04h3.07v6.94H237zM231.22 65.04h3.07v6.94h-3.08zM264.25 65.04h3.06v6.94h-3.05zM203.97 65.04h3.07v6.94h-3.07zM234.12 26.8h3.06v3.08h-3.06zM234.12 32.16h3.06v3.06h-3.06zM234.12 37.5h3.06v3.07h-3.06zM234.12 42.84h3.06v3.07h-3.06z"/></g></svg>