<svg xmlns="http://www.w3.org/2000/svg" enable-background="new 0 0 504 504" viewBox="0 0 504 504"><path fill="#3765AF" d="M458.5 258.3c-9.2 58.5-27.1 75.6-58.8 114.9-31.7 33.3-77.3 88.9-141.9 85.8-58.5-9.2-75.6-27.1-114.9-58.8-33.3-31.7-88.9-77.3-85.8-141.9 9.2-58.5 27.1-75.6 58.8-114.9 31.7-33.3 77.3-88.9 141.9-85.8 58.5 9.2 75.6 27.1 114.9 58.8 33.3 31.7 88.9 77.3 85.8 141.9z"/><g fill="#fff"><path d="M179.3 235.2c7.9 0 12.8 1.3 15.4 4.3 2.6 2.6 2.9 7.9 1.6 14.4-1.3 7.2-3.9 12.4-8.2 15.4-3.9 2.9-10.1 4.6-18.3 4.6h-12.4l7.5-39.3c0 .6 14.4.6 14.4.6zm-49.7 78.5h20.3l4.6-24.9h17.7c7.9 0 13.7-.7 19-2.3 4.9-1.6 9.5-4.3 13.4-8.2 3.3-2.9 6.2-6.9 8.5-10.5 2-3.6 3.6-8.2 4.3-12.4 2-11.1.7-19.6-4.6-25.8-5.2-6.2-13.7-9.2-25.5-9.2H148l-18.4 93.3zM237.9 195.6h20.3l-4.6 24.9h18c11.1 0 19.3 2 23.2 6.2 4.3 3.9 5.9 10.5 3.6 19.3l-8.5 43.5h-20.6l8.2-41.2c1-4.6.7-7.9-1-9.5-1.6-1.6-4.9-2.6-10.1-2.6h-16l-10.5 53.3h-20.3l18.3-93.9zM343.2 235.2c7.9 0 12.8 1.3 15.4 4.3 2.6 2.6 2.9 7.9 1.6 14.4-1.3 7.2-3.9 12.4-8.2 15.4-3.9 2.9-10.1 4.6-18.3 4.6h-12.4l7.5-39.3c.4.6 14.4.6 14.4.6zm-49.4 78.5h20.3l4.6-24.9h17.7c7.9 0 13.7-.7 19-2.3 4.9-1.6 9.5-4.3 13.4-8.2 3.3-2.9 6.2-6.9 8.5-10.5 2-3.6 3.6-8.2 4.3-12.4 2-11.1.7-19.6-4.6-25.8-5.2-6.2-13.7-9.2-25.5-9.2h-39.3l-18.4 93.3z"/></g></svg>