<svg xmlns="http://www.w3.org/2000/svg" width="260" height="260"><style id="style3" type="text/css">.st0{fill:none;stroke:#E5E5E5;stroke-linecap:round;stroke-linejoin:round;stroke-miterlimit:10;stroke-dasharray:3,5;} .st1{fill:#FFFFFF;} .st2{fill:#46A3E2;} .st3{fill:#FFFFFF;stroke:#BFBFBF;stroke-linecap:round;stroke-linejoin:round;stroke-miterlimit:10;} .st4{fill:#BFBFBF;} .st5{fill:#333333;} .st6{fill:#EF4C3E;} .st7{fill:#F4F4F4;} .st8{fill:none;stroke:#E5E5E5;stroke-linecap:round;stroke-linejoin:round;stroke-miterlimit:10;}</style><g id="g4295"><path id="path5" fill="none" stroke="#e5e5e5" stroke-width="3.44" stroke-miterlimit="10" d="M199.72 10.33c26.52 0 48.2 21.7 48.2 48.2v46.84" stroke-linejoin="round" stroke-linecap="round" stroke-dasharray="3, 5" class="st0"/><path id="line7" fill="none" stroke="#e5e5e5" stroke-width="3.44" stroke-miterlimit="10" d="M148.07 247.93h101.58" stroke-linejoin="round" class="st0" stroke-linecap="round" stroke-dasharray="3, 5"/><g id="g9" transform="matrix(3.443 0 0 3.443 0 .344)"><circle id="circle11" cx="41" cy="71.9" r="1.5" fill="#fff" class="st1"/><g id="g13"><path id="path15" fill="#46a3e2" d="M41 70.9c.6 0 1 .4 1 1s-.4 1-1 1-1-.4-1-1 .4-1 1-1m0-1c-1.1 0-2 .9-2 2s.9 2 2 2 2-.9 2-2-.9-2-2-2z" class="st2"/></g></g><g id="g17" transform="matrix(3.443 0 0 3.443 0 .344)"><circle id="circle19" cx="29" cy="7.9" r="1.5" fill="#fff" class="st1"/><g id="g21"><path id="path23" fill="#46a3e2" d="M29 6.9c.6 0 1 .4 1 1s-.4 1-1 1-1-.4-1-1 .4-1 1-1m0-1c-1.1 0-2 .9-2 2s.9 2 2 2 2-.9 2-2-.9-2-2-2z" class="st2"/></g></g><g id="g25" transform="matrix(3.443 0 0 3.443 0 .344)"><circle id="circle27" cx="56" cy="2.6" r="1.5" fill="#fff" class="st1"/><g id="g29"><path id="path31" fill="#46a3e2" d="M56 1.6c.6 0 1 .4 1 1s-.4 1-1 1-1-.4-1-1 .4-1 1-1m0-1c-1.1 0-2 .9-2 2s.9 2 2 2 2-.9 2-2-.9-2-2-2z" class="st2"/></g></g><g id="g33"><path id="polyline35" fill="#fff" stroke="#bfbfbf" stroke-width="3.44" stroke-miterlimit="10" d="M94.68 215.2l20.66-44.77h37.87l20.67 44.76" stroke-linejoin="round" stroke-linecap="round" class="st3"/><g id="g37"><path id="path39" fill="#fff" d="M60.25 175.6c-4.82 0-8.6-3.8-8.6-8.6V53.36c0-4.82 3.78-8.6 8.6-8.6H208.3c4.82 0 8.6 3.78 8.6 8.6V167c0 4.8-3.78 8.6-8.6 8.6H60.25z" class="st1"/><g id="g41"><path id="path43" fill="#bfbfbf" d="M208.3 46.48c3.8 0 6.9 3.1 6.9 6.9v113.6c0 3.8-3.1 6.9-6.9 6.9H60.25c-3.78 0-6.88-3.1-6.88-6.9V53.4c0-3.8 3.1-6.9 6.88-6.9H208.3m0-3.44H60.25c-5.85 0-10.33 4.47-10.33 10.33V167c0 5.84 4.48 10.3 10.33 10.3H208.3c5.85 0 10.33-4.46 10.33-10.3V53.36c0-5.5-4.48-10.33-10.33-10.33z" class="st4"/></g></g><g id="g45"><g id="g47"><path id="rect49" fill="#46a3e2" d="M77.47 65.42H191.1v24.1H77.46z" class="st2"/><g id="g51"><path id="path53" fill="#333" d="M189.37 67.14V87.8H79.19V67.14h110.17m3.44-3.44H75.76v27.54H192.8V63.7z" class="st5"/></g></g><g id="g55"><path id="rect57" fill="#ef4c3e" d="M77.47 130.83h24.1v24.1h-24.1z" class="st6"/><g id="g59"><path id="path61" fill="#333" d="M99.85 132.56v20.65H79.2v-20.64h20.65m3.44-3.45H75.74v27.56h27.54V129.1z" class="st5"/></g></g><g id="g63"><path id="rect65" fill="#ef4c3e" d="M122.23 130.83h24.1v24.1h-24.1z" class="st6"/><g id="g67"><path id="path69" fill="#333" d="M144.6 132.56v20.65h-20.65v-20.64h20.66m3.45-3.45H120.5v27.56h27.55V129.1z" class="st5"/></g></g><g id="g71"><path id="rect73" fill="#ef4c3e" d="M167 130.83h24.1v24.1H167z" class="st6"/><g id="g75"><path id="path77" fill="#333" d="M189.37 132.56v20.65H168.7v-20.64h20.67m3.44-3.45h-27.54v27.56h27.55V129.1z" class="st5"/></g></g><g fill="#333"><path id="rect79" d="M132.56 87.8H136v20.65h-3.44z" class="st5"/><path id="rect81" d="M132.56 111.9H136v20.66h-3.44z" class="st5"/><path id="rect83" d="M177.3 111.9h3.46v20.66h-3.45z" class="st5"/><path id="rect85" d="M87.8 111.9h3.44v20.66H87.8z" class="st5"/><path id="rect87" d="M87.8 108.45h92.96v3.45H87.8z" class="st5"/></g></g><g id="g89"><g id="g91"><g id="g93"><path id="rect95" fill="#f4f4f4" d="M1.72 99.85h79.2v89.5H1.7z" class="st7"/><g id="g97"><path id="path99" fill="#333" d="M79.2 101.57v86.07H3.43v-86.07H79.2m3.43-3.44H0v92.96h82.63V98.12z" class="st5"/></g></g><g id="g101"><path id="rect103" fill="#fff" d="M8.6 106.73h65.42v75.75H8.62z" class="st1"/><path id="path105" fill="#bfbfbf" d="M72.3 108.45v72.3H10.33v-72.3H72.3m3.45-3.44H6.9v79.2H75.74V105z" class="st4"/></g><g id="g107"><path id="path109" fill="#f4f4f4" d="M23.4 110.18l5.18-10.33h5.85c1.03 0 1.72-.7 1.72-1.72 0-2.76 2.4-5.17 5.17-5.17s5.16 2.4 5.16 5.17c0 1.03.7 1.72 1.72 1.72h5.86l5.16 10.33h-35.8z" class="st7"/><g id="g111"><path id="path113" fill="#333" d="M41.32 94.68c2.06 0 3.44 1.38 3.44 3.45s1.38 3.44 3.44 3.44h4.82l3.45 6.88h-30.3l3.44-6.88h4.83c2.07 0 3.44-1.38 3.44-3.44 0-1.73 1.38-3.45 3.45-3.45m0-3.44c-3.8 0-6.9 3.1-6.9 6.9h-6.88l-6.88 13.76h41.3L55.1 98.13h-6.9c0-3.8-3.1-6.9-6.88-6.9z" class="st5"/></g></g></g><g id="g115" fill="#46a3e2"><g id="g117"><path id="rect119" d="M17.24 127.5l2.44-2.43 4.87 4.87-2.44 2.44z" class="st2"/><path id="rect121" d="M26.85 122.8l2.43 2.45-7.3 7.3-2.44-2.43z" class="st2"/></g><path id="path123" d="M64.04 129.8h-24.1c-1.03 0-1.72-.7-1.72-1.72s.7-1.72 1.72-1.72h24.1c1.03 0 1.72.7 1.72 1.72s-.7 1.72-1.72 1.72z" class="st2"/></g><g id="g125" fill="#46a3e2"><g id="g127"><path id="rect129" d="M17.25 144.73l2.43-2.44 4.87 4.86-2.43 2.44z" class="st2"/><path id="rect131" d="M26.84 140.03l2.44 2.43-7.3 7.3-2.44-2.43z" class="st2"/></g><path id="path133" d="M64.04 147.02h-24.1c-1.03 0-1.72-.7-1.72-1.73s.7-1.73 1.72-1.73h24.1c1.03 0 1.72.7 1.72 1.72s-.7 1.72-1.72 1.72z" class="st2"/></g><g id="g135" fill="#46a3e2"><g id="g137"><path id="rect139" d="M17.25 161.94l2.43-2.43 4.87 4.88-2.43 2.43z" class="st2"/><path id="rect141" d="M26.84 157.25l2.44 2.43-7.3 7.3-2.44-2.43z" class="st2"/></g><path id="path143" d="M64.04 164.23h-24.1c-1.03 0-1.72-.7-1.72-1.72s.7-1.7 1.72-1.7h24.1c1.03 0 1.72.68 1.72 1.7s-.7 1.73-1.72 1.73z" class="st2"/></g></g><path id="polygon145" fill="#bfbfbf" d="M105 194.53h58.54l3.45 3.44h-65.43z" class="st4"/></g><path id="polyline147" fill="none" stroke="#e5e5e5" stroke-width="3.44" stroke-miterlimit="10" d="M246.86 237.57l10.33 10.33-10.34 10.32" stroke-linejoin="round" stroke-linecap="round" class="st8"/><path id="polyline149" fill="none" stroke="#e5e5e5" stroke-width="3.44" stroke-miterlimit="10" d="M258.23 107.77L247.9 118.1l-10.33-10.33" stroke-linejoin="round" stroke-linecap="round" class="st8"/><g id="g151" fill="#ef4c3e"><path id="rect153" d="M20.37.42l9.74 9.74-2.42 2.44-9.74-9.74z" class="st6"/><path id="rect155" d="M30.1 2.7l-9.73 9.74L17.94 10 27.68.28z" class="st6"/></g><g id="g157" fill="#ef4c3e"><path id="rect159" d="M58.36 217.76l9.74 9.74-2.44 2.44-9.74-9.74z" class="st6"/><path id="rect161" d="M68.1 220.25L58.35 230l-2.44-2.45 9.74-9.74z" class="st6"/></g></g></svg>