<svg id="Layer_1" xmlns:rdf="http://www.w3.org/1999/02/22-rdf-syntax-ns#" xmlns="http://www.w3.org/2000/svg" xml:space="preserve" viewBox="0 0 260 260" height="260" width="260" version="1.1" y="0px" x="0px" xmlns:cc="http://creativecommons.org/ns#" xmlns:dc="http://purl.org/dc/elements/1.1/"><style id="style3" type="text/css">
	.st0{fill:none;stroke:#E5E5E5;stroke-linecap:round;stroke-linejoin:round;stroke-miterlimit:10;stroke-dasharray:3,5;}
	.st1{fill:#FFFFFF;}
	.st2{fill:#46A3E2;}
	.st3{fill:#FFFFFF;stroke:#BFBFBF;stroke-linecap:round;stroke-linejoin:round;stroke-miterlimit:10;}
	.st4{fill:#BFBFBF;}
	.st5{fill:#333333;}
	.st6{fill:#EF4C3E;}
	.st7{fill:#F4F4F4;}
	.st8{fill:none;stroke:#E5E5E5;stroke-linecap:round;stroke-linejoin:round;stroke-miterlimit:10;}
</style><g id="g4295" transform="matrix(3.4435 0 0 3.4435 0 .34433)"><path id="path5" stroke-linejoin="round" d="m58 2.9v0c7.7 0 14 6.3 14 14v13.6" stroke="#e5e5e5" stroke-linecap="round" stroke-dasharray="3, 5" stroke-miterlimit="10" class="st0" fill="none"/><line id="line7" stroke-linejoin="round" y2="71.9" class="st0" y1="71.9" stroke="#e5e5e5" stroke-linecap="round" stroke-dasharray="3, 5" x2="72.5" stroke-miterlimit="10" x1="43" fill="none"/><g id="g9"><circle id="circle11" class="st1" cy="71.9" cx="41" r="1.5" fill="#fff"/><g id="g13"><path id="path15" class="st2" fill="#46a3e2" d="m41 70.9c0.6 0 1 0.4 1 1s-0.4 1-1 1-1-0.4-1-1 0.4-1 1-1m0-1c-1.1 0-2 0.9-2 2s0.9 2 2 2 2-0.9 2-2-0.9-2-2-2z"/></g></g><g id="g17"><circle id="circle19" class="st1" cy="7.9" cx="29" r="1.5" fill="#fff"/><g id="g21"><path id="path23" class="st2" fill="#46a3e2" d="m29 6.9c0.6 0 1 0.4 1 1s-0.4 1-1 1-1-0.4-1-1 0.4-1 1-1m0-1c-1.1 0-2 0.9-2 2s0.9 2 2 2 2-0.9 2-2-0.9-2-2-2z"/></g></g><g id="g25"><circle id="circle27" class="st1" cy="2.6" cx="56" r="1.5" fill="#fff"/><g id="g29"><path id="path31" class="st2" fill="#46a3e2" d="m56 1.6c0.6 0 1 0.4 1 1s-0.4 1-1 1-1-0.4-1-1 0.4-1 1-1m0-1c-1.1 0-2 0.9-2 2s0.9 2 2 2 2-0.9 2-2-0.9-2-2-2z"/></g></g><g id="g33"><polyline id="polyline35" stroke-linejoin="round" stroke-linecap="round" class="st3" stroke="#bfbfbf" points="27.5 62.4 33.5 49.4 44.5 49.4 50.5 62.4" stroke-miterlimit="10" fill="#fff"/><g id="g37"><path id="path39" class="st1" fill="#fff" d="m17.5 50.9c-1.4 0-2.5-1.1-2.5-2.5v-33c0-1.4 1.1-2.5 2.5-2.5h43c1.4 0 2.5 1.1 2.5 2.5v33c0 1.4-1.1 2.5-2.5 2.5h-43z"/><g id="g41"><path id="path43" class="st4" fill="#bfbfbf" d="m60.5 13.4c1.1 0 2 0.9 2 2v33c0 1.1-0.9 2-2 2h-43c-1.1 0-2-0.9-2-2v-33c0-1.1 0.9-2 2-2h43m0-1h-43c-1.7 0-3 1.3-3 3v33c0 1.7 1.3 3 3 3h43c1.7 0 3-1.3 3-3v-33c0-1.6-1.3-3-3-3z"/></g></g><g id="g45"><g id="g47"><rect id="rect49" width="33" y="18.9" x="22.5" height="7" class="st2" fill="#46a3e2"/><g id="g51"><path id="path53" class="st5" fill="#333" d="m55 19.4v6h-32v-6h32m1-1h-34v8h34v-8z"/></g></g><g id="g55"><rect id="rect57" width="7" y="37.9" x="22.5" height="7" class="st6" fill="#ef4c3e"/><g id="g59"><path id="path61" class="st5" fill="#333" d="m29 38.4v6h-6v-6h6m1-1h-8v8h8v-8z"/></g></g><g id="g63"><rect id="rect65" width="7" y="37.9" x="35.5" height="7" class="st6" fill="#ef4c3e"/><g id="g67"><path id="path69" class="st5" fill="#333" d="m42 38.4v6h-6v-6h6m1-1h-8v8h8v-8z"/></g></g><g id="g71"><rect id="rect73" width="7" y="37.9" x="48.5" height="7" class="st6" fill="#ef4c3e"/><g id="g75"><path id="path77" class="st5" fill="#333" d="m55 38.4v6h-6v-6h6m1-1h-8v8h8v-8z"/></g></g><g fill="#333"><rect id="rect79" width="1" y="25.4" x="38.5" height="6" class="st5"/><rect id="rect81" width="1" y="32.4" x="38.5" height="6" class="st5"/><rect id="rect83" width="1" y="32.4" x="51.5" height="6" class="st5"/><rect id="rect85" width="1" y="32.4" x="25.5" height="6" class="st5"/><rect id="rect87" width="27" y="31.4" x="25.5" height="1" class="st5"/></g></g><g id="g89"><g id="g91"><g id="g93"><rect id="rect95" width="23" y="28.9" x=".5" height="26" class="st7" fill="#f4f4f4"/><g id="g97"><path id="path99" class="st5" fill="#333" d="m23 29.4v25h-22v-25h22m1-1h-24v27h24v-27z"/></g></g><g id="g101"><rect id="rect103" width="19" y="30.9" x="2.5" height="22" class="st1" fill="#fff"/><path id="path105" class="st4" fill="#bfbfbf" d="m21 31.4v21h-18v-21h18m1-1h-1-18-1v1 21 1h1 18 1v-1-21-1z"/></g><g id="g107"><path id="path109" class="st7" fill="#f4f4f4" d="m6.8 31.9 1.5-3h1.7c0.3 0 0.5-0.2 0.5-0.5 0-0.8 0.7-1.5 1.5-1.5s1.5 0.7 1.5 1.5c0 0.3 0.2 0.5 0.5 0.5h1.7l1.5 3h-10.4z"/><g id="g111"><path id="path113" class="st5" fill="#333" d="m12 27.4c0.6 0 1 0.4 1 1s0.4 1 1 1h1.4l1 2h-8.8l1-2h1.4c0.6 0 1-0.4 1-1 0-0.5 0.4-1 1-1m0-1c-1.1 0-2 0.9-2 2h-2l-2 4h12l-2-4h-2c0-1.1-0.9-2-2-2z"/></g></g></g><g id="g115" fill="#46a3e2"><g id="g117"><rect id="rect119" transform="matrix(.7071 -.7071 .7071 .7071 -24.621 15.219)" width="1" y="36.3" x="5.6" height="2" class="st2"/><rect id="rect121" transform="matrix(.7071 .7071 -.7071 .7071 28.232 5.7944)" width="1" y="35.5" x="6.6" height="3" class="st2"/></g><path id="path123" class="st2" d="m18.6 37.6h-7c-0.3 0-0.5-0.2-0.5-0.5s0.2-0.5 0.5-0.5h7c0.3 0 0.5 0.2 0.5 0.5s-0.2 0.5-0.5 0.5z"/></g><g id="g125" fill="#46a3e2"><g id="g127"><rect id="rect129" transform="matrix(.7071 -.7071 .7071 .7071 -28.156 16.684)" width="1" y="41.3" x="5.6" height="2" class="st2"/><rect id="rect131" transform="matrix(.7071 .7071 -.7071 .7071 31.767 7.2588)" width="1" y="40.5" x="6.6" height="3" class="st2"/></g><path id="path133" class="st2" d="m18.6 42.6h-7c-0.3 0-0.5-0.2-0.5-0.5s0.2-0.5 0.5-0.5h7c0.3 0 0.5 0.2 0.5 0.5s-0.2 0.5-0.5 0.5z"/></g><g id="g135" fill="#46a3e2"><g id="g137"><rect id="rect139" transform="matrix(.7071 -.7071 .7071 .7071 -31.692 18.148)" width="1" y="46.3" x="5.6" height="2" class="st2"/><rect id="rect141" transform="matrix(.7071 .7071 -.7071 .7071 35.303 8.7233)" width="1" y="45.5" x="6.6" height="3" class="st2"/></g><path id="path143" class="st2" d="m18.6 47.6h-7c-0.3 0-0.5-0.2-0.5-0.5s0.2-0.5 0.5-0.5h7c0.3 0 0.5 0.2 0.5 0.5s-0.2 0.5-0.5 0.5z"/></g></g><polygon id="polygon145" points="30.5 56.4 47.5 56.4 48.5 57.4 29.5 57.4" fill="#bfbfbf" class="st4"/></g><polyline id="polyline147" stroke-linejoin="round" stroke-linecap="round" class="st8" stroke="#e5e5e5" points="71.7 68.9 74.7 71.9 71.7 74.9" stroke-miterlimit="10" fill="none"/><polyline id="polyline149" stroke-linejoin="round" stroke-linecap="round" class="st8" stroke="#e5e5e5" points="75 31.2 72 34.2 69 31.2" stroke-miterlimit="10" fill="none"/><g id="g151" fill="#ef4c3e"><rect id="rect153" transform="matrix(.7071 .7071 -.7071 .7071 3.3003 -4.432)" width="4" y="1.3" x="5" height="1" class="st6"/><rect id="rect155" transform="matrix(-.7071 .7071 -.7071 -.7071 13.2 -1.932)" width="4" y="1.3" x="5" height="1" class="st6"/></g><g id="g157" fill="#ef4c3e"><rect id="rect159" transform="matrix(.7071 .7071 -.7071 .7071 51.173 6.2847)" width="4" y="64.4" x="16" height="1" class="st6"/><rect id="rect161" transform="matrix(-.7071 .7071 -.7071 -.7071 76.628 98.086)" width="4" y="64.4" x="16" height="1" class="st6"/></g></g></svg>
