<svg xmlns="http://www.w3.org/2000/svg" width="935" height="340.667"><path fill="#E0DDDF" d="M490.6 227.92c-3.9 0-7.04-3.15-7.04-7.04V192.7c0-3.88 3.15-7.03 7.04-7.03h3.58c-1.8-5.72-7.13-9.86-13.44-9.86h-67.6c-7.78 0-14.1 6.3-14.1 14.1V242h95.8v-14.08h-4.24z"/><path fill="#C1BCBF" d="M421.58 175.8h-8.45c-7.78 0-14.08 6.3-14.08 14.1V242h8.45v-52.1c0-7.8 6.3-14.1 14.08-14.1z"/><path fill="#fff" d="M418.77 175.8l28.17 38.04 28.17-38.03z"/><path fill="#439EE8" d="M453.98 191.3H439.9l-1.76 5.28h17.6z"/><g fill="#498CF5"><path d="M438.13 196.58l-1.05 3.17 9.86 12.68 9.86-12.68-1.06-3.17zM458.2 175.8L454 191.3H439.9l-4.23-15.5z"/></g><g fill="#D74848"><path d="M511.73 227.92v7.05c0 3.9-3.15 7.04-7.04 7.04h-2.83c-3.9 0-7.04-3.14-7.04-7.03v-7.05h16.9zM494.83 170.17h16.9v15.5h-16.9z"/></g><g fill="#F9C59B"><path d="M511.73 185.67c7.78 0 14.1 6.3 14.1 14.08v14.1c0 7.77-6.32 14.07-14.1 14.07 0 0-14.8 0-21.13 0-3.9 0-7.04-3.15-7.04-7.04V192.7c0-3.88 3.15-7.03 7.04-7.03h21.13zM399.35 126.44c2.85 9.73 5.28 17.94 6.27 21.15-.3.02-.62.04-.94.04-6.22 0-11.27-5.05-11.27-11.27.02-4.3 2.42-8.02 5.95-9.93zM494.8 126.6c3.38 1.94 5.66 5.6 5.66 9.77 0 6.22-5.04 11.27-11.27 11.27-.22 0-.43 0-.64-.02 3.3-6.24 5.92-13.6 6.23-21.03zM487.8 122.28v9.86c0 22.56-18.3 40.85-40.86 40.85s-40.85-18.3-40.85-40.86v-9.86l8.44-16.9 1.2.4 31.2 10.87 31.2-10.86 1.2-.42 8.45 16.9z"/></g><path fill="#DDAE8E" d="M414.54 132.14v-9.85l7.2-14.4-6-2.1-1.2-.42-8.45 16.9v9.86c0 22.57 18.28 40.85 40.84 40.85 1.43 0 2.83-.08 4.22-.22-20.57-2.12-36.62-19.5-36.62-40.64z"/><path fill="#827980" d="M488.56 147.62c-.25.48-.5.96-.77 1.43V122.28l-8.47-16.9-1.18.42-31.2 10.85-31.22-10.85-1.2-.42-8.44 16.9V149.05c-.05-.06-.2-.57-.48-1.44-1-3.22-3.42-11.43-6.28-21.16-6.18-21.06-14.38-49.23-14.38-49.23h61.98c26.45 0 47.9 21.45 47.9 47.9 0 .5-.03 1-.05 1.5-.32 7.43-2.93 14.78-6.24 21.02z"/><path d="M478.98 122.46h-21.83c-1.87 0-3.46 1.17-4.1 2.82h-12.22c-.64-1.65-2.24-2.82-4.1-2.82H414.9c-2.43 0-4.4 1.98-4.4 4.4v14.8c0 2.42 1.97 4.4 4.4 4.4h21.83c2.42 0 4.4-1.98 4.4-4.4v-11.1h11.62v11.1c0 2.42 1.97 4.4 4.4 4.4h21.83c2.43 0 4.4-1.98 4.4-4.4v-14.8c0-2.43-1.97-4.4-4.4-4.4zm-43.13 18.3h-20.07v-13.02h20.07v13.03zm42.25 0h-20.07v-13.02h20.07v13.03z"/><g fill="#D74848"><path d="M503.28 157.32c-1.46 0-2.64-1.18-2.64-2.64v-4.23c0-1.45 1.18-2.64 2.64-2.64 1.46 0 2.64 1.2 2.64 2.65v4.23c0 1.46-1.18 2.64-2.64 2.64zM510.32 165.77c-1.46 0-2.64-1.18-2.64-2.64v-4.23c0-1.46 1.18-2.64 2.64-2.64s2.64 1.2 2.64 2.64v4.23c0 1.46-1.18 2.64-2.64 2.64zM496.24 165.77c-1.46 0-2.65-1.18-2.65-2.64v-4.23c0-1.46 1.18-2.64 2.64-2.64 1.45 0 2.64 1.2 2.64 2.64v4.23c0 1.46-1.2 2.64-2.64 2.64z"/></g><path d="M446.94 231.74c-1.46 0-2.64 1.18-2.64 2.64v1.7c0 1.47 1.18 2.65 2.64 2.65 1.46 0 2.64-1.18 2.64-2.64v-1.72c0-1.46-1.18-2.64-2.64-2.64zM475.1 216.83h-11.26c-1.46 0-2.64 1.18-2.64 2.64 0 1.46 1.18 2.64 2.64 2.64h11.27c1.47 0 2.65-1.17 2.65-2.63s-1.18-2.64-2.64-2.64zM456.97 153.98c1.17-.88 1.4-2.53.53-3.7-.87-1.17-2.53-1.4-3.7-.53-2.65 2-5.44 2.3-6.86 2.3-3.33 0-5.73-1.44-6.87-2.3-1.16-.87-2.82-.64-3.7.53-.87 1.16-.63 2.82.53 3.7 1.66 1.24 5.18 3.34 10.04 3.34 2.08 0 6.15-.43 10.03-3.34zM427.22 130.9h-2.82c-1.45 0-2.64 1.2-2.64 2.65 0 1.46 1.2 2.64 2.64 2.64h2.82c1.46 0 2.64-1.2 2.64-2.65 0-1.46-1.18-2.64-2.64-2.64zM466.66 136.2h2.8c1.47 0 2.66-1.2 2.66-2.65 0-1.46-1.2-2.64-2.65-2.64h-2.8c-1.47 0-2.65 1.2-2.65 2.65 0 1.46 1.18 2.64 2.64 2.64zM525.82 210.14c1.45 0 2.64-1.18 2.64-2.64v-7.75c0-8.32-6.12-15.24-14.1-16.5V172.8h3c1.44 0 2.65-1.2 2.65-2.63 0-1.44-1.2-2.64-2.64-2.64H489.2c-1.44 0-2.65 1.2-2.65 2.64 0 1.44 1.2 2.64 2.64 2.64h3v4.87c-3.03-2.83-7.08-4.5-11.46-4.5h-19.37c10.85-3.83 19.74-11.85 24.72-22.1 1.32 1.1 3.22.63 4.04-.83 3.93-.26 7.62-2.24 10.04-5.35 2.53-3.26 3.42-7.47 2.65-11.5-.55-2.9-2.37-5.83-5.36-8.65-.02-2.02-.15-4.05-.4-6.06-3.17-24.9-25.06-44.13-50.13-44.13h-61.98c-1.8 0-3 1.78-2.5 3.47.12.45 12 41.12 13.32 45.63.16.55.32 1.1.48 1.64-3.78 2.9-5.86 7.62-5.43 12.36.4 4.2 2.73 8.04 6.24 10.35 2 1.3 4.3 2.08 6.67 2.24.77 1.5 2.76 1.9 4.05.82 4.96 10.26 13.85 18.28 24.7 22.1h-19.36c-9.23 0-16.73 7.5-16.73 16.74V242c0 1.47 1.2 2.65 2.65 2.65h95.78c.96 0 1.8-.5 2.25-1.27 1.42.8 3.05 1.27 4.8 1.27h2.8c5.35 0 9.7-4.34 9.7-9.68v-4.64c5.48-.95 10.53-4.74 12.8-9.86.42-.96.9-2 .84-3.08-.05-.97-.63-1.8-1.5-2.23-.8-.4-1.78-.33-2.54.15-1 .65-1.1 1.7-1.5 2.7-.52 1.3-1.3 2.47-2.26 3.47-2.18 2.27-5.3 3.78-8.5 3.78H490.6c-2.43 0-4.4-1.97-4.4-4.4v-1.6c.06 0 .12.02.18.02h14.08c1.44 0 2.64-1.2 2.64-2.64 0-1.44-1.2-2.64-2.64-2.64h-14.08c-.06 0-.12 0-.18 0v-4.6c.06 0 .12.02.18.02h14.08c1.44 0 2.65-1.2 2.65-2.64s-1.2-2.64-2.64-2.64h-14.08c-.06 0-.12 0-.18 0v-4.6c.06 0 .12.02.18.02h14.08c1.44 0 2.65-1.2 2.65-2.64 0-1.44-1.2-2.65-2.64-2.65h-14.08c-.06 0-.12 0-.18 0v-1.6c0-2.42 1.98-4.4 4.4-4.4h21.13c6.3 0 11.45 5.14 11.45 11.45v7.75c0 1.46 1.18 2.64 2.64 2.64zM493.22 144c1.45-3.4 2.8-7.4 3.58-11.7.65 1.24 1.02 2.63 1.02 4.07 0 3.3-1.87 6.18-4.6 7.63zm-46.28-64.15c24.95 0 45.25 20.3 45.25 45.25 0 .4-.02.85-.05 1.38-.14 3.43-.8 6.75-1.72 9.8v-14c0-.4-.1-.8-.28-1.18l-8.45-16.9c-.46-.92-1.4-1.46-2.37-1.46-.28 0-.58.05-.86.15l-31.53 10.95-30.34-10.55-1.2-.4c-1.25-.45-2.63.1-3.22 1.3l-8.45 16.9c-.18.37-.28.77-.28 1.18v8.77c-.5-1.67-1-3.45-1.57-5.35 0 0 0-.02 0-.03-4.87-16.54-11.03-37.7-13.4-45.82h58.46zm-50.88 56.52c0-2 .68-3.87 1.87-5.37 1.73 5.88 3.07 10.4 4 13.55-3.4-1.15-5.87-4.38-5.87-8.18zm12.67-4.23v-9.23l7.14-14.26 30.2 10.5c.56.2 1.18.2 1.74 0l30.2-10.5 7.15 14.27v9.24c0 21.07-17.14 38.2-38.2 38.2-21.08 0-38.22-17.13-38.22-38.2zM509.1 172.8v10.23h-11.63V172.8h11.62zm-62.16 36.6l-7.1-9.58 1.96-5.88h10.28l1.96 5.88-7.1 9.58zm7.8-30.95l-2.78 10.2H441.9l-2.77-10.2h15.62zm-21.1 0l3.5 12.77-1.14 3.4-12-16.17h9.65zm24.24 16.2l-1.14-3.43 3.48-12.77h9.65l-12 16.2zm46.8 44.72h-2.8c-2.44 0-4.4-1.98-4.4-4.4v-4.4h11.6v4.4c0 2.42-1.96 4.4-4.4 4.4zm-23.76-46.66v28.18c0 5.34 4.34 9.68 9.68 9.68h1.6v8.8h-90.5V189.9c0-6.32 5.12-11.45 11.43-11.45h4.3l26.87 36.26v11.86c0 1.46 1.18 2.64 2.64 2.64 1.46 0 2.64-1.18 2.64-2.64V214.7l26.86-36.25h4.3c3.7 0 7.07 1.76 9.2 4.6-5.04.35-9.02 4.55-9.02 9.66z"/><path fill="#FF675C" d="M639.9 128.8h164.76V241H639.9z"/><path fill="#DB3D5A" d="M647 233.9V128.8h-7.1V241h164.76v-7.1z"/><circle cx="777.672" cy="153.658" r="7.812" fill="#FAEC8E"/><path fill="#FBC96C" d="M781.22 158.63c-4.3 0-7.8-3.5-7.8-7.8 0-1.65.5-3.17 1.36-4.43-2.88 1.15-4.92 3.96-4.92 7.26 0 4.3 3.5 7.8 7.8 7.8 2.7 0 5.05-1.34 6.46-3.4-.9.37-1.87.57-2.9.57z"/><circle cx="777.672" cy="176.383" r="7.812" fill="#FAEC8E"/><path fill="#FBC96C" d="M781.22 181.35c-4.3 0-7.8-3.5-7.8-7.8 0-1.65.5-3.17 1.36-4.42-2.88 1.15-4.92 3.96-4.92 7.25 0 4.32 3.5 7.8 7.8 7.8 2.7 0 5.05-1.33 6.46-3.38-.9.35-1.87.55-2.9.55z"/><circle cx="777.672" cy="209.76" r="15.623" fill="#C1BCBF"/><path fill="#A19AA0" d="M781.93 221.12c-8.62 0-15.62-7-15.62-15.62 0-3.23 1-6.22 2.66-8.7-4.17 2.8-6.9 7.56-6.9 12.96 0 8.63 7 15.62 15.6 15.62 5.42 0 10.18-2.74 12.98-6.9-2.5 1.66-5.48 2.64-8.7 2.64z"/><path fill="#5CC4E0" d="M655.53 144.43h96.58v80.95h-96.57z"/><path fill="#439EE8" d="M661.2 150.1h85.23v69.6H661.2z"/><path fill="#fff" d="M723.7 208.16c-.02 0-.04 0-.06 0-1.18-.02-2.2-.83-2.5-1.97l-7.9-29.35-6.96 16.88c-.4.98-1.35 1.63-2.4 1.65-1.07.03-2.05-.6-2.5-1.56l-4.28-9.45-6.38 19.13c-.37 1.1-1.43 1.86-2.6 1.82-1.18-.04-2.2-.83-2.5-1.97l-7.83-29.1-7 18c-.4 1.04-1.4 1.7-2.5 1.7h-12.77c-1.47 0-2.66-1.18-2.66-2.65s1.2-2.67 2.66-2.67h10.96l9.27-23.86c.42-1.08 1.48-1.76 2.63-1.7 1.15.06 2.13.86 2.43 1.97l7.64 28.38 5.72-17.17c.34-1.04 1.3-1.76 2.38-1.82 1.1-.06 2.1.56 2.56 1.56l4.56 10 7.6-18.44c.44-1.06 1.5-1.72 2.63-1.65 1.14.08 2.1.88 2.4 1.98L723.9 196l5.8-18.3c.33-1.1 1.35-1.84 2.5-1.85 1.18 0 2.2.72 2.55 1.82l3.66 10.96h12.3c1.46 0 2.65 1.2 2.65 2.66s-1.2 2.66-2.66 2.66h-14.2c-1.16 0-2.18-.74-2.54-1.82l-1.67-5-6.06 19.16c-.35 1.1-1.38 1.86-2.54 1.86z"/><path d="M804.66 126.14h-115.4c-1.47 0-2.66 1.2-2.66 2.66s1.2 2.67 2.66 2.67H802v106.87H642.57V131.47h27.16c1.47 0 2.66-1.2 2.66-2.67s-1.2-2.66-2.67-2.66H639.9c-1.47 0-2.66 1.2-2.66 2.66V241c0 1.48 1.2 2.67 2.66 2.67h164.76c1.47 0 2.66-1.2 2.66-2.66V128.8c0-1.47-1.2-2.66-2.66-2.66zM652.86 144.43v80.95c0 1.47 1.2 2.67 2.67 2.67h96.58c1.48 0 2.67-1.2 2.67-2.67v-80.95c0-1.48-1.2-2.67-2.66-2.67h-96.57c-1.47 0-2.67 1.2-2.67 2.67zm5.33 2.66h91.24v75.62H658.2V147.1zM759.4 209.76c0 10.08 8.2 18.3 18.27 18.3 10.1 0 18.3-8.22 18.3-18.3s-8.2-18.3-18.3-18.3c-10.08 0-18.28 8.22-18.28 18.3zm18.27-12.96c7.15 0 12.96 5.8 12.96 12.96 0 7.15-5.8 12.96-12.96 12.96-7.14 0-12.96-5.8-12.96-12.96 0-7.15 5.83-12.96 12.97-12.96zM777.67 186.86c5.78 0 10.48-4.7 10.48-10.48 0-5.77-4.7-10.47-10.48-10.47s-10.47 4.7-10.47 10.48 4.7 10.48 10.47 10.48zm0-15.63c2.84 0 5.15 2.3 5.15 5.15s-2.3 5.15-5.15 5.15c-2.84 0-5.15-2.3-5.15-5.15s2.3-5.15 5.15-5.15zM777.67 164.13c5.78 0 10.48-4.7 10.48-10.47 0-5.78-4.7-10.48-10.48-10.48s-10.47 4.7-10.47 10.48c0 5.77 4.7 10.47 10.47 10.47zm0-15.62c2.84 0 5.15 2.32 5.15 5.16s-2.3 5.14-5.15 5.14c-2.84 0-5.15-2.3-5.15-5.14s2.3-5.15 5.15-5.15z"/><g fill-rule="evenodd" clip-rule="evenodd"><path fill="#3F3F3F" d="M255.06 240.94c28.78 0 52.1 1.05 52.1 2.33s-23.32 2.3-52.1 2.3c-28.77 0-52.1-1.04-52.1-2.32 0-1.28 23.33-2.3 52.1-2.3z" opacity=".15"/><path d="M150.3 199.95l.03-119.82c0-2.56 2.07-4.63 4.63-4.63l196.24.04c2.56 0 4.63 2.08 4.63 4.63L355.8 200l-205.5-.05z"/><path fill="#E7E7E7" d="M351.17 218.52l-196.24-.04c-2.56 0-4.63-2.08-4.63-4.63v-13.9l205.5.05v13.9c0 2.55-2.08 4.63-4.63 4.62zM220.33 242.7v-2.54l8.12-1 5.6-21.34h41.47l5.6 21.36 8.1 1v2.55l-68.9-.02zM255.1 78.47c.6 0 1.1.5 1.1 1.1 0 .6-.5 1.08-1.1 1.08-.6 0-1.08-.5-1.08-1.1 0-.6.48-1.08 1.08-1.08z"/><path fill="#fff" d="M349.46 83.65l-.02 108.25-192.77-.05.03-108.25 192.76.05z"/><path fill="#3F3F3F" d="M233.3 221.86l.74-4.04h41.48l.76 4.05h-43z" opacity=".08"/></g><path fill="#E0DDDF" d="M851.7 240.3c-17.33 0-31.43-14.1-31.43-31.45h7c0 13.5 10.95 24.45 24.43 24.45s24.45-10.96 24.45-24.45c0-13.47-10.97-24.44-24.45-24.44v-6.97c17.33 0 31.44 14.1 31.44 31.42 0 17.34-14.1 31.44-31.44 31.44z"/><path fill="#5CC4E0" d="M868.34 235.5c.8.85 1.53 1.74 2.2 2.7l.03 4.18h-37.73l.04-4.23c.66-.93 1.4-1.82 2.18-2.64 1.78-1.84 3.86-3.4 6.15-4.56 3.16-1.6 6.72-2.52 10.5-2.52s7.34.9 10.5 2.52c2.28 1.17 4.36 2.72 6.14 4.57z"/><path fill="#439EE8" d="M840.66 235.5c1.76-1.84 3.84-3.4 6.15-4.56 2.36-1.2 4.96-2.02 7.7-2.36-.92-.1-1.86-.16-2.8-.16-3.78 0-7.34.9-10.5 2.52-2.28 1.17-4.36 2.73-6.14 4.57-.8.84-1.52 1.72-2.17 2.66l-.06 4.22h5.6l.03-4.22c.66-.94 1.4-1.82 2.2-2.65z"/><path fill="#FF675C" d="M811.2 203.27h36.3v5.58h-36.3z"/><path fill="#FFC2BE" d="M822.77 203.27h7.57v5.58h-7.57z"/><g fill="#5CC4E0"><path d="M856.04 159.96l-2.97 2.97 2.47 2.47-14.32 14.3 8.9 8.9 4.06-4.06 5.96-5.97 4.3-4.3 2.46 2.5 2.96-2.98zM853.12 162.9l2.96-2.97 13.83 13.83-2.95 2.96z"/></g><g fill="#439EE8"><path d="M859.6 169.47l-2.95-2.97 2.96-2.96 2.98 2.97zM866.1 170.02l-2.97 2.96 3.77 3.78 2.96-2.97z"/></g><path fill="#FF675C" d="M864.43 174.28l-14.3 14.32-8.9-8.9 14.3-14.3z"/><path fill="#DB3D5A" d="M855.54 165.4l-2.22 2.2 6.78 6.78-12.1 12.1 2.12 2.12 14.3-14.32z"/><path d="M862.6 177.98l1.83-1.84 1.54 1.54c.25.25.6.38.94.38.35 0 .68-.13.92-.38l2.97-2.96c.5-.5.5-1.34 0-1.85l-13.84-13.83c-.25-.25-.57-.4-.92-.4-.35 0-.68.15-.94.4l-2.96 2.96c-.24.25-.38.58-.38.93 0 .34.14.68.38.92l1.55 1.54-13.4 13.38c-.25.25-.38.58-.38.93 0 .36.13.7.4.94l8.86 8.9c.27.24.6.37.94.37.33 0 .67-.12.92-.37l3.62-3.62c4.96.64 9.64 2.92 13.24 6.45.25.25.6.37.9.37.36 0 .7-.13.95-.4.5-.5.5-1.34-.02-1.84-3.52-3.47-8-5.84-12.8-6.84l3.6-3.6c12.57 3.87 21.3 15.6 21.3 28.8 0 10.1-4.96 19.37-13.3 25-1.14-1.07-2.35-2.02-3.65-2.86 3.4-2.04 6.3-4.83 8.48-8.2 2.7-4.16 4.1-8.97 4.1-13.93 0-4.9-1.38-9.67-4.02-13.8-.38-.6-1.2-.8-1.8-.4-.62.4-.8 1.2-.4 1.8 2.35 3.72 3.6 8 3.6 12.4 0 8.67-4.94 16.7-12.65 20.63-3.3-1.57-6.82-2.37-10.5-2.37-3.67 0-7.2.8-10.48 2.38-7.32-3.74-12.14-11.16-12.6-19.3h18.9c.72 0 1.3-.6 1.3-1.32v-5.6c0-.7-.58-1.3-1.3-1.3h-36.33c-.73 0-1.32.6-1.32 1.3v5.6c0 .72.6 1.3 1.3 1.3h7.8c.15 3.7.9 7.28 2.26 10.7.27.68 1.03 1 1.7.74.67-.27 1-1.03.74-1.7-1.24-3.1-1.92-6.38-2.07-9.73H826c.23 4.48 1.6 8.82 4.07 12.6 2.17 3.38 5.07 6.18 8.48 8.2-1.3.85-2.5 1.8-3.64 2.87-3.62-2.45-6.72-5.7-8.98-9.42-.38-.62-1.18-.82-1.8-.44-.62.37-.8 1.18-.44 1.8 2.4 3.93 5.6 7.36 9.4 10-.45.5-.86 1.06-1.27 1.62-.14.22-.23.48-.23.75l-.04 4.22c0 .35.13.7.38.94.26.26.6.4.94.4h37.73c.34 0 .67-.14.9-.4.27-.24.4-.57.4-.92v-4.2c0-.26-.1-.52-.25-.74-.4-.58-.85-1.13-1.3-1.67 4.05-2.8 7.45-6.53 9.9-10.82 2.76-4.88 4.22-10.45 4.22-16.1 0-13.9-8.88-26.3-21.85-30.87zm-6.56-16.17l11.98 12-1.1 1.1-12-11.97 1.12-1.12zm-5.92 24.95l-7.04-7.04 12.46-12.45 7.03 7.03-12.45 12.47zm-37.62 20.8v-2.98h33.7v2.98h-33.7zm21.66 33.53l.02-2.5c.56-.76 1.18-1.48 1.83-2.16 1.7-1.76 3.65-3.2 5.8-4.32 3.1-1.57 6.42-2.37 9.9-2.37 3.5 0 6.8.8 9.9 2.37 2.15 1.1 4.1 2.56 5.8 4.32.65.7 1.27 1.43 1.84 2.2v2.46h-35.08zM813.12 200.38h32.64c.73 0 1.32-.58 1.32-1.3 0-.73-.6-1.3-1.32-1.3h-32.64c-.73 0-1.32.57-1.32 1.3 0 .72.6 1.3 1.32 1.3z"/><g fill="#FF675C"><path d="M385.4 194.9h-79.64c-.74 0-1.35.6-1.35 1.35v5.96c0 .76.62 1.36 1.36 1.36h1.85c1.26 8.1 5.04 15.54 10.96 21.4 2.77 2.74 5.9 5 9.26 6.77h-.3v9.4h36.1v-9.4h-.3c3.38-1.76 6.5-4.03 9.27-6.77 5.9-5.86 9.7-13.3 10.94-21.4h1.85c.74 0 1.34-.6 1.34-1.35v-5.95c0-.75-.6-1.35-1.35-1.35zM327.52 231.73h36.1v9.4h-36.1z"/></g><g fill="#DB3D5A"><path d="M345.58 236.06c-6.3 0-12.34-1.5-17.76-4.33h-.3v6.14h36.1v-6.14h-.3c-5.4 2.83-11.46 4.33-17.74 4.33zM383.54 203.56H307.6c.08.5.17.97.26 1.46 1.46 7.52 5.14 14.44 10.7 19.94 7.24 7.16 16.83 11.1 27.02 11.1 1.24 0 2.47-.06 3.7-.17-8.8-.85-16.97-4.65-23.33-10.94-5.2-5.15-8.76-11.54-10.4-18.5H383c.23-.96.4-1.92.56-2.9zM349.15 220.57c-.9-.9-2.18-1.48-3.57-1.48s-2.66.56-3.58 1.47c-.9.92-1.48 2.18-1.48 3.58 0 2.8 2.27 5.05 5.06 5.05s5.05-2.26 5.05-5.05c0-1.4-.56-2.66-1.48-3.58zM337.6 216.16c.9-.9 1.48-2.17 1.48-3.57 0-2.8-2.27-5.06-5.06-5.06s-5.05 2.26-5.05 5.05 2.26 5.05 5.05 5.05c1.4 0 2.66-.57 3.58-1.5M353.56 216.16c.9.92 2.18 1.5 3.57 1.5 2.8 0 5.06-2.28 5.06-5.07s-2.28-5.07-5.07-5.07-5.05 2.27-5.05 5.06c0 1.4.56 2.65 1.48 3.56"/></g><path fill="#E0DDDF" d="M380.94 177.9l-3.07-3.07c-1.4-1.4-3.7-1.4-5.1 0l-21.2 21.2h16.33L380.94 183c1.4-1.4 1.4-3.7 0-5.1z"/><path fill="#C1BCBF" d="M381.37 178.42l-17.62 17.62h4.15L380.94 183c1.24-1.25 1.4-3.18.43-4.58z"/><path fill="#5CC4E0" d="M352.44 171.8c3.2 0 5.78 2.57 5.78 5.76 0 3.2-2.6 5.78-5.78 5.78-3.2 0-5.78-2.6-5.78-5.78 0-3.2 2.6-5.77 5.78-5.77z"/><path fill="#439EE8" d="M355.33 180.45c-3.2 0-5.78-2.58-5.78-5.77 0-.85.18-1.66.5-2.38-2 .9-3.4 2.92-3.4 5.26 0 3.2 2.6 5.78 5.8 5.78 2.33 0 4.35-1.4 5.25-3.4-.72.33-1.53.5-2.37.5z"/><path fill="#5CC4E0" d="M332.94 158.8c3.2 0 5.78 2.57 5.78 5.76s-2.6 5.78-5.78 5.78c-3.2 0-5.78-2.6-5.78-5.78s2.6-5.77 5.78-5.77z"/><path fill="#439EE8" d="M335.83 167.45c-3.2 0-5.78-2.58-5.78-5.77 0-.85.18-1.65.5-2.38-2 .9-3.4 2.92-3.4 5.26 0 3.2 2.6 5.78 5.8 5.78 2.33 0 4.35-1.4 5.25-3.4-.72.33-1.53.5-2.37.5z"/><path fill="#5CC4E0" d="M313.44 172.5c3.2 0 5.78 2.6 5.78 5.8s-2.6 5.76-5.78 5.76c-3.2 0-5.78-2.58-5.78-5.77 0-3.2 2.6-5.8 5.78-5.8z"/><path fill="#439EE8" d="M316.33 181.18c-3.2 0-5.78-2.6-5.78-5.78 0-.85.18-1.65.5-2.38-2 .9-3.4 2.92-3.4 5.27 0 3.18 2.6 5.76 5.8 5.76 2.33 0 4.35-1.4 5.26-3.4-.72.33-1.53.52-2.37.52z"/><path d="M352.44 184.7c3.93 0 7.13-3.2 7.13-7.14 0-3.93-3.2-7.13-7.13-7.13-3.94 0-7.13 3.2-7.13 7.13 0 3.94 3.2 7.13 7.14 7.13zm0-11.56c2.44 0 4.42 1.98 4.42 4.42s-1.98 4.43-4.42 4.43-4.43-2-4.43-4.44c0-2.44 2-4.42 4.44-4.42zM332.94 171.7c3.93 0 7.13-3.2 7.13-7.14 0-3.93-3.2-7.13-7.13-7.13-3.93 0-7.13 3.2-7.13 7.13s3.2 7.14 7.14 7.14zm0-11.56c2.44 0 4.42 2 4.42 4.42 0 2.44-1.98 4.43-4.42 4.43s-4.43-2-4.43-4.44c0-2.44 2-4.42 4.44-4.42zM313.44 185.42c3.93 0 7.13-3.2 7.13-7.13s-3.2-7.15-7.13-7.15c-3.93 0-7.13 3.2-7.13 7.14 0 3.92 3.2 7.12 7.14 7.12zm0-11.56c2.44 0 4.42 2 4.42 4.43 0 2.42-1.98 4.4-4.42 4.4s-4.43-1.98-4.43-4.4c0-2.45 2-4.44 4.44-4.44zM334.02 219c1.25 0 2.45-.36 3.47-1.02l2.7 2.7c-.68 1.02-1.03 2.2-1.03 3.46 0 3.54 2.87 6.42 6.4 6.42 3.54 0 6.42-2.88 6.42-6.4 0-1.27-.37-2.46-1.04-3.5l2.7-2.68c1.02.66 2.22 1.02 3.47 1.02 3.54 0 6.4-2.88 6.4-6.4 0-3.54-2.86-6.42-6.4-6.42-3.53 0-6.4 2.88-6.4 6.4 0 1.26.35 2.46 1 3.48l-2.68 2.7c-1.03-.67-2.22-1.02-3.47-1.02s-2.45.35-3.48 1.02l-2.7-2.7c.67-1.02 1.03-2.22 1.03-3.47 0-3.54-2.87-6.42-6.4-6.42s-6.42 2.88-6.42 6.4c0 3.54 2.9 6.42 6.42 6.42zm23.1-10.1c2.05 0 3.7 1.65 3.7 3.7s-1.65 3.7-3.7 3.7c-.98 0-1.9-.4-2.6-1.1-.7-.7-1.1-1.62-1.1-2.6 0-2.05 1.67-3.7 3.7-3.7zm-8.93 12.63c.7.7 1.08 1.63 1.08 2.62 0 2.04-1.66 3.7-3.7 3.7s-3.7-1.66-3.7-3.7c0-1 .38-1.92 1.08-2.62.7-.7 1.63-1.1 2.6-1.1s1.93.4 2.63 1.1zM334 208.9c2.04 0 3.7 1.65 3.7 3.7 0 .98-.38 1.9-1.08 2.6-.7.7-1.63 1.1-2.62 1.1-2.04 0-3.7-1.67-3.7-3.7s1.66-3.7 3.7-3.7zM361.6 192.24c.25.27.6.4.95.4.34 0 .7-.13.96-.4l.95-.94c.52-.53.52-1.38 0-1.9s-1.4-.54-1.92 0l-.94.93c-.54.53-.54 1.38 0 1.9zM366.03 189.16c.34 0 .7-.13.96-.4l7.34-7.35c.53-.52.53-1.38 0-1.9-.53-.53-1.4-.53-1.92 0l-7.35 7.35c-.53.53-.53 1.38 0 1.9.26.28.6.4.96.4zM385.4 193.54h-13.1l9.6-9.6c.93-.92 1.45-2.17 1.45-3.5 0-1.32-.52-2.57-1.46-3.5l-3.07-3.07c-1.93-1.94-5.08-1.94-7.02 0l-19.66 19.67h-21.9c-.76 0-1.36.6-1.36 1.36 0 .75.6 1.35 1.35 1.35h55.16v5.96h-79.64v-5.95h18.15c.76 0 1.36-.6 1.36-1.35 0-.75-.6-1.36-1.35-1.36h-18.14c-1.5 0-2.7 1.22-2.7 2.7v5.97c0 1.5 1.2 2.72 2.7 2.72h.7c1.48 8 5.3 15.23 11.15 21 2.6 2.56 5.47 4.72 8.57 6.46v8.74c0 .75.6 1.35 1.35 1.35h36.1c.76 0 1.37-.6 1.37-1.35v-8.74c3.08-1.74 5.96-3.9 8.54-6.46 5.84-5.77 9.68-13 11.14-21h.7c1.5 0 2.72-1.22 2.72-2.7v-5.97c0-1.5-1.22-2.7-2.7-2.7zm-11.67-17.76c.88-.88 2.3-.88 3.2 0l3.05 3.07c.43.42.66 1 .66 1.6 0 .6-.23 1.16-.66 1.6l-11.5 11.5h-12.5l17.75-17.77zm-11.45 63.98h-33.4v-6c5.17 2.4 10.84 3.66 16.7 3.66 5.86 0 11.53-1.27 16.7-3.66v6zm9.36-15.76c-6.98 6.9-16.24 10.7-26.06 10.7-9.83 0-19.08-3.8-26.07-10.7-5.3-5.27-8.84-11.83-10.28-19.08h72.7c-1.42 7.25-4.96 13.8-10.28 19.08z"/><path fill="#E0DDDF" d="M125.62 159.97v59.5c0 2.93 2.36 5.3 5.28 5.3h7.75c2.9 0 5.28-2.37 5.28-5.3v-59.5h-18.3z"/><path fill="#9FD25A" d="M125.62 179.7v39.77c0 2.93 2.36 5.3 5.28 5.3h7.75c2.9 0 5.28-2.38 5.28-5.3V179.7h-18.3z"/><path fill="#C1BCBF" d="M125.62 159.97h4.22v19.72h-4.22z"/><path fill="#6EAD32" d="M129.84 219.48v-39.8h-4.22v39.8c0 2.92 2.36 5.3 5.28 5.3h4.22c-2.9-.02-5.28-2.38-5.28-5.3z"/><path fill="#E0DDDF" d="M159.42 159.97v59.5c0 2.93 2.37 5.3 5.28 5.3h7.75c2.92 0 5.28-2.37 5.28-5.3v-59.5h-18.3z"/><path fill="#5CC4E0" d="M159.42 174.76v44.72c0 2.92 2.37 5.3 5.28 5.3h7.75c2.92 0 5.28-2.38 5.28-5.3v-44.72h-18.3z"/><path fill="#439EE8" d="M163.65 219.48v-44.72h-4.23v44.72c0 2.92 2.37 5.3 5.28 5.3h4.23c-2.92-.02-5.28-2.38-5.28-5.3z"/><path fill="#C1BCBF" d="M159.42 159.97h4.23v14.8h-4.23z"/><g fill="#439EE8"><circle cx="166.201" cy="177.139" r="1.849"/><circle cx="166.376" cy="188.935" r="1.849"/></g><circle cx="168.313" cy="170.801" r="1.849" fill="#5CC4E0"/><circle cx="173.859" cy="183.741" r="2.465" fill="#439EE8"/><circle cx="170.602" cy="165.519" r="1.497" fill="#5CC4E0"/><circle cx="168.313" cy="183.829" r="1.496" fill="#439EE8"/><path fill="#E0DDDF" d="M179.33 192.37c4.4 0 8.05 3.15 8.7 7.48l4.9 32.4c.4 2.54-.34 5.1-2 7.06-1.7 1.96-4.12 3.07-6.7 3.07h-65.3c-2.57 0-5-1.1-6.68-3.06s-2.4-4.5-2.02-7.05l4.9-32.4c.66-4.33 4.32-7.48 8.7-7.48h55.5zm6.78 42.8c.48-.54.7-1.26.58-1.97l-4.9-32.4c-.2-1.23-1.2-2.1-2.45-2.1h-55.5c-1.24 0-2.24.87-2.43 2.1l-4.9 32.4c-.12.7.1 1.43.56 1.98.47.54 1.15.85 1.87.85h65.3c.73 0 1.4-.3 1.88-.85z"/><path fill="#F9F8F9" d="M149.62 192.37h5.75v6.34h-5.75z"/><circle cx="132.924" cy="179.604" r="2.553" fill="#9FD25A"/><g fill="#6EAD32"><path d="M130.38 179.7c.04 1.36 1.16 2.46 2.54 2.46 1.38 0 2.5-1.1 2.55-2.47h-5.1z"/><circle cx="139.439" cy="183.829" r="2.553"/></g><g fill="#9FD25A"><circle cx="132.749" cy="169.392" r="2.025"/><circle cx="140.055" cy="171.946" r="1.408"/></g><circle cx="133.981" cy="188.055" r="2.025" fill="#6EAD32"/><path d="M194.25 232.05l-2.65-17.45c-.1-.72-.78-1.2-1.5-1.1s-1.22.78-1.1 1.5l2.64 17.45c.33 2.16-.3 4.34-1.72 6-1.43 1.65-3.5 2.6-5.68 2.6h-65.3c-2.2 0-4.26-.95-5.7-2.6-1.4-1.66-2.04-3.84-1.7-6l4.9-32.4c.56-3.7 3.67-6.36 7.4-6.36h55.5c3.72 0 6.83 2.67 7.4 6.35l.92 6.13c.1.65.66 1.12 1.3 1.12.07 0 .13 0 .2 0 .72-.12 1.22-.8 1.1-1.52l-.92-6.12c-.76-5-4.96-8.6-10-8.6h-.3V161.3h2.92c.73 0 1.32-.6 1.32-1.32 0-.73-.6-1.32-1.32-1.32H155.2c-.73 0-1.33.6-1.33 1.32 0 .73.6 1.32 1.32 1.32h2.9v29.75h-12.85V161.3h2.9c.73 0 1.32-.6 1.32-1.32 0-.73-.6-1.32-1.32-1.32H121.4c-.74 0-1.33.6-1.33 1.32 0 .73.6 1.32 1.32 1.32h2.9v29.75h-.47c-5.04 0-9.25 3.62-10 8.6l-4.9 32.4c-.46 2.92.4 5.88 2.32 8.12 1.92 2.24 4.72 3.52 7.67 3.52h65.32c2.95 0 5.75-1.3 7.67-3.53 1.94-2.24 2.8-5.2 2.35-8.12zM176.4 161.3v29.75h-15.66v-3.7h3.9c.72 0 1.3-.6 1.3-1.32s-.58-1.32-1.3-1.32h-3.9v-23.4s15.67 0 15.67 0zm-33.8 0v29.75h-15.66v-3.7h3.9c.72 0 1.3-.6 1.3-1.32s-.58-1.32-1.3-1.32h-3.9v-23.4h15.67zM117.8 233.4s0 0 0-.02c.3-2.2.67-4.7 1.06-7.04.13-.72-.36-1.4-1.08-1.52-.72-.12-1.4.36-1.52 1.08-.4 2.38-.76 4.9-1.08 7.1 0 .02 0 .02 0 .02-.16 1.1.16 2.2.88 3.02.72.84 1.76 1.32 2.87 1.32h65.3c1.1 0 2.16-.48 2.88-1.32.73-.84 1.05-1.95.88-3.04l-4.9-32.4c-.3-1.86-1.86-3.2-3.75-3.2h-55.5c-1.88 0-3.45 1.34-3.74 3.2l-.9 6c-.58 4-1.17 8-1.77 12.03-.1.72.4 1.4 1.1 1.5.08 0 .14.02.2.02.65 0 1.2-.48 1.3-1.13.6-4.02 1.2-8.02 1.8-12.02l.87-6c.1-.6.54-.97 1.14-.97h.46v19.46c0 3.63 2.96 6.6 6.6 6.6h7.75c3.64 0 6.6-2.97 6.6-6.6v-19.47h12.85v19.46c0 3.63 2.96 6.6 6.6 6.6h7.75c3.64 0 6.6-2.97 6.6-6.6v-19.47h.28c.6 0 1.05.38 1.14.97l4.9 32.4c.05.33-.04.67-.26.92-.2.25-.52.4-.86.4h-65.3c-.34 0-.66-.15-.88-.4-.22-.26-.3-.6-.26-.92zm20.85-9.96h-7.75c-2.2 0-3.96-1.77-3.96-3.96v-6.78h3.9c.72 0 1.3-.6 1.3-1.32s-.58-1.32-1.3-1.32h-3.9v-3.7h3.9c.72 0 1.3-.58 1.3-1.3s-.58-1.33-1.3-1.33h-3.9v-3.7h15.67v19.45c0 2.2-1.77 3.96-3.95 3.96zm33.8 0h-7.75c-2.18 0-3.96-1.77-3.96-3.96v-6.78h3.9c.72 0 1.3-.6 1.3-1.32s-.58-1.32-1.3-1.32h-3.9v-3.7h3.9c.72 0 1.3-.58 1.3-1.3s-.58-1.33-1.3-1.33h-3.9v-3.7h15.67v19.45c0 2.2-1.77 3.96-3.95 3.96z"/><path fill="#E0DDDF" d="M566.38 207.6v-25.13h-10.02v25.13c-2.95.94-5.53 2.68-7.5 4.97-2.47 2.88-3.96 6.63-3.96 10.72 0 9.1 7.37 16.46 16.47 16.46s16.47-7.37 16.47-16.47c0-4.05-1.45-7.75-3.87-10.6-1.97-2.36-4.6-4.15-7.6-5.1z"/><path fill="#5CC4E0" d="M563.88 239.57c-.2.03-.37.05-.55.07 8.17-.96 14.5-7.92 14.5-16.35 0-4.05-1.44-7.75-3.86-10.62l-20.1-.1c-2.47 2.9-3.96 6.63-3.96 10.7 0 8.25 6.07 15.08 13.98 16.3z"/><path fill="#C1BCBF" d="M553.88 212.57c.02-.03.05-.05.07-.08 1.96-2.26 4.5-3.98 7.42-4.9v-25.13h-5v25.13c-2.92.92-5.47 2.64-7.43 4.9-.02.02-.05.04-.07.07l5 .02s0-.02 0-.03z"/><path fill="#439EE8" d="M563.88 239.57c-7.9-1.2-13.97-8.04-13.97-16.28 0-4.1 1.5-7.83 3.96-10.7l-5-.03c-2.47 2.88-3.96 6.63-3.96 10.72 0 9.1 7.37 16.46 16.47 16.46.23 0 .47 0 .7-.02.38 0 1.46-.12 1.8-.17z"/><path fill="#E0DDDF" d="M617.63 218.1l-4.7-9.85v-25.78H602.9v25.78l-4.8 10.08-10.23 21.43h40.1z"/><path fill="#C1BCBF" d="M607.92 208.25v-25.78h-5v25.78l-4.8 10.03h5z"/><path fill="#FF675C" d="M627.97 239.76h-40.1l10.23-21.43 19.62-.05z"/><path fill="#DB3D5A" d="M598.12 218.28l-.02.05-10.23 21.43h5l10.24-21.43.03-.05z"/><g fill="#439EE8"><circle cx="560.297" cy="217.918" r="2.507"/><circle cx="559.223" cy="231.166" r="2.148"/><circle cx="563.877" cy="225.079" r="1.791"/><circle cx="554.21" cy="226.153" r="2.148"/></g><g fill="#DB3D5A"><circle cx="605.412" cy="225.079" r="1.791"/><circle cx="611.856" cy="233.673" r="2.507"/><circle cx="602.189" cy="234.747" r="2.148"/></g><path d="M571.68 215.36c-.63.4-.83 1.2-.44 1.85 2.18 3.55 2.28 8.24.27 11.7-.37.63-.15 1.45.5 1.83.2.12.43.18.66.18.47 0 .9-.22 1.16-.65 2.55-4.35 2.43-10.02-.3-14.45-.38-.63-1.2-.83-1.84-.44zM569.2 231.82c-.33.28-.67.54-1.03.78-.6.4-.78 1.24-.37 1.86.26.4.7.6 1.12.6.26 0 .52-.08.74-.23.46-.3.9-.64 1.3-1 .56-.48.6-1.33.13-1.9-.5-.55-1.35-.6-1.9-.1zM616.86 227.5c.96 2.1 1.97 4.2 2.94 6.25.44.92.88 1.85 1.3 2.77.24.5.72.77 1.23.77.2 0 .38-.05.57-.14.67-.3.96-1.1.64-1.78-.44-.93-.88-1.86-1.32-2.78-.96-2.04-1.96-4.14-2.92-6.22-.3-.67-1.1-.97-1.78-.66s-.97 1.1-.66 1.78zM615.05 220.28c-.67.3-.96 1.1-.65 1.78l.48 1.03c.22.48.7.77 1.22.77.18 0 .38-.04.56-.13.67-.3.97-1.1.65-1.78l-.46-1.03c-.32-.67-1.12-.96-1.8-.65zM629.18 239.18l-14.9-31.23v-8.83c0-.74-.6-1.34-1.35-1.34-.74 0-1.34.6-1.34 1.34v9.13c0 .2.03.4.12.58l14.12 29.6H590l14.12-29.6c.08-.18.13-.38.13-.58V183.8h7.34v9.4c0 .75.6 1.35 1.33 1.35.74 0 1.34-.6 1.34-1.34v-9.4h2.24c.75 0 1.36-.6 1.36-1.33s-.6-1.34-1.35-1.34h-7.24V157.4c0-.74-.6-1.34-1.34-1.34h-10.74c-1.87 0-2.36 2.25-2.88 4.64-.07.32-.16.73-.26 1.12-.1-.4-.18-.8-.25-1.12-.53-2.4-1.03-4.64-2.9-4.64-1.86 0-2.35 2.25-2.87 4.64-.07.32-.16.72-.25 1.12-.1-.4-.2-.8-.26-1.12-.52-2.4-1-4.64-2.88-4.64s-2.35 2.25-2.88 4.64c-.07.32-.15.72-.25 1.12-.1-.4-.17-.8-.25-1.12-.52-2.4-1-4.64-2.87-4.64s-2.36 2.25-2.88 4.64c-.07.32-.16.72-.26 1.12-.1-.4-.18-.8-.25-1.12-.53-2.4-1.02-4.64-2.9-4.64h-10.73c-.74 0-1.34.6-1.34 1.34v23.72h-7.97c-.74 0-1.34.6-1.34 1.35 0 .74.6 1.34 1.34 1.34H555v9.05c0 .74.62 1.34 1.36 1.34.74 0 1.34-.6 1.34-1.35v-9.04h7.34v23.8c0 .58.38 1.1.94 1.27 2.7.87 5.3 2.48 7.14 4.68 2.3 2.7 3.38 6.17 3.38 9.74 0 8.33-6.8 15.1-15.13 15.1s-15.13-6.77-15.13-15.1c0-3.63 1.3-7.12 3.64-9.86 1.84-2.14 4.22-3.72 6.9-4.57.54-.18.92-.7.92-1.28v-9.2c0-.74-.6-1.34-1.34-1.34-.74 0-1.34.6-1.34 1.34v8.24c-2.77 1.06-5.23 2.8-7.17 5.05-2.77 3.22-4.3 7.33-4.3 11.6 0 9.8 8 17.8 17.82 17.8s17.8-8 17.8-17.8c0-4.2-1.47-8.28-4.17-11.48-1.96-2.33-4.46-4.1-7.27-5.18V183.8h2.95c.74 0 1.34-.6 1.34-1.33s-.6-1.35-1.34-1.35h-7.97v-22.37h9c.23.54.5 1.75.67 2.52.52 2.4 1 4.64 2.88 4.64s2.35-2.25 2.87-4.63c.07-.32.16-.72.26-1.12.1.4.18.8.25 1.12.52 2.38 1.02 4.64 2.88 4.64 1.87 0 2.37-2.25 2.9-4.63.06-.32.15-.73.24-1.12.1.4.2.8.26 1.12.52 2.38 1 4.64 2.88 4.64s2.35-2.25 2.87-4.63c.08-.32.16-.73.26-1.12.1.4.2.8.26 1.12.53 2.38 1.02 4.64 2.88 4.64s2.36-2.24 2.88-4.63c.17-.77.44-1.98.68-2.52h8.98v22.37h-7.25c-.74 0-1.35.6-1.35 1.35 0 .74.6 1.34 1.35 1.34h2.23v24.14l-14.9 31.24c-.2.42-.17.9.07 1.3s.68.62 1.14.62h40.1c.46 0 .9-.24 1.14-.63.25-.38.28-.87.08-1.3z"/><g><path fill="#FCFCFC" stroke="#000" stroke-width="6" stroke-miterlimit="10" d="M838.5 261.42c-147.32 0-776.6 0-776.6 0-2.7 0-4.9-.45-4.9-1v-17.3c0-.55 2.2-1 4.9-1h807.2c2.7 0 4.9.45 4.9 1v17.3c0 .55-2.2 1-4.9 1 0 0-4.78 0-13.6 0" stroke-linecap="round"/><path fill="#E7E7E7" d="M65 245.56h805.67v10.2H65z"/></g><path fill="#5CC4E0" d="M257.36 155.13c3 0 5.42 2.43 5.42 5.42 0 3-2.43 5.43-5.42 5.43-3 0-5.43-2.43-5.43-5.43 0-3 2.43-5.42 5.43-5.42z"/><path fill="#439EE8" d="M259.64 163.7c-3 0-5.42-2.43-5.42-5.43 0-.9.22-1.76.62-2.52-1.73.9-2.9 2.72-2.9 4.8 0 3 2.42 5.43 5.4 5.43 2.1 0 3.9-1.18 4.82-2.9-.76.4-1.6.6-2.52.6z"/><path fill="#FAEC8E" d="M281.32 164.83c2.37 0 4.28 1.92 4.28 4.28 0 2.38-1.9 4.3-4.28 4.3-2.36 0-4.28-1.92-4.28-4.28 0-1.63.9-3.04 2.24-3.76.6-.34 1.3-.53 2.04-.53z"/><path fill="#FBC96C" d="M283.32 171.4c-2.36 0-4.28-1.92-4.28-4.28 0-.67.15-1.3.43-1.86-.07.03-.13.06-.2.1-1.32.72-2.23 2.13-2.23 3.75 0 2.38 1.92 4.3 4.28 4.3 1.7 0 3.17-1 3.86-2.43-.56.28-1.2.43-1.86.43z"/><circle cx="283.892" cy="147.145" r="5.707" fill="#FF675C"/><path fill="#DB3D5A" d="M286.25 150.5c-3.16 0-5.7-2.56-5.7-5.7 0-.98.23-1.9.66-2.7-1.8.97-3.02 2.86-3.02 5.04 0 3.16 2.56 5.7 5.7 5.7 2.2 0 4.1-1.2 5.05-3-.8.4-1.72.66-2.7.66z"/><path fill="#5CC4E0" d="M284.18 104.92c3 0 5.42 2.42 5.42 5.42s-2.43 5.42-5.42 5.42c-3 0-5.42-2.43-5.42-5.42 0-3 2.42-5.42 5.42-5.42z"/><path fill="#439EE8" d="M286.6 113.33c-3 0-5.42-2.42-5.42-5.42 0-.86.2-1.68.57-2.4-1.77.88-3 2.7-3 4.84 0 3 2.43 5.42 5.43 5.42 2.12 0 3.96-1.22 4.85-3-.73.37-1.56.57-2.43.57z"/><circle cx="233.673" cy="115.188" r="5.136" fill="#FAEC8E"/><path fill="#FBC96C" d="M235.96 118.04c-2.84 0-5.14-2.3-5.14-5.14 0-.83.2-1.6.55-2.3-1.68.84-2.83 2.58-2.83 4.6 0 2.82 2.3 5.12 5.13 5.12 2 0 3.75-1.15 4.6-2.83-.7.34-1.5.54-2.3.54z"/><path fill="#FF675C" d="M256.5 107.2c1.9 0 3.42 1.53 3.42 3.42 0 1.9-1.53 3.43-3.42 3.43s-3.42-1.54-3.42-3.43c0-1.9 1.53-3.42 3.42-3.42z"/><path fill="#DB3D5A" d="M258.78 112.33c-1.9 0-3.42-1.53-3.42-3.42 0-.58.15-1.14.4-1.62-1.53.33-2.68 1.7-2.68 3.34 0 1.9 1.53 3.43 3.42 3.43 1.3 0 2.43-.73 3-1.8-.23.06-.47.08-.72.08z"/><circle cx="227.681" cy="137.729" r="4.851" fill="#5CC4E0"/><path fill="#439EE8" d="M229.96 140.3c-2.68 0-4.85-2.18-4.85-4.85 0-.75.18-1.46.5-2.1-1.64.78-2.77 2.45-2.77 4.38 0 2.68 2.17 4.85 4.85 4.85 1.93 0 3.6-1.13 4.38-2.76-.64.3-1.34.48-2.1.48z"/><path fill="#FF675C" d="M229.15 159.38c3.94 0 7.13 3.2 7.13 7.13 0 3.95-3.2 7.14-7.13 7.14-3.94 0-7.14-3.2-7.14-7.13 0-3.93 3.2-7.13 7.15-7.13z"/><path fill="#DB3D5A" d="M232.25 171.1c-3.94 0-7.14-3.18-7.14-7.12 0-1.5.48-2.9 1.27-4.04-2.56 1.08-4.36 3.6-4.36 6.57 0 3.95 3.2 7.14 7.15 7.14 2.43 0 4.6-1.22 5.87-3.1-.85.37-1.8.57-2.77.57z"/><circle cx="255.929" cy="138.584" r="7.989" fill="#A19AA0"/><path fill="#827980" d="M258.78 144.86c-4.4 0-8-3.58-8-8 0-2.3 1-4.38 2.56-5.83-3.14 1.07-5.4 4.05-5.4 7.55 0 4.42 3.58 8 8 8 2.1 0 4-.82 5.43-2.15-.8.28-1.68.43-2.6.43z"/><path fill="#F9F8F9" d="M259.92 136.87c0-1.57-1.27-2.85-2.85-2.85s-2.85 1.28-2.85 2.85c0 1.58 1.27 2.86 2.85 2.86s2.85-1.28 2.85-2.86z"/><circle cx="234.529" cy="113.761" r="1.427" fill="#fff"/><circle cx="228.538" cy="136.302" r="1.141" fill="#BEE7F3"/><circle cx="257.07" cy="110.052" r="1.141" fill="#FFC2BE"/><circle cx="285.318" cy="108.625" r="1.427" fill="#BEE7F3"/><circle cx="284.747" cy="145.718" r="1.427" fill="#FFC2BE"/><circle cx="258.782" cy="159.128" r="1.141" fill="#BEE7F3"/><circle cx="282.179" cy="168.259" r="1.141" fill="#fff"/><circle cx="230.82" cy="164.835" r="1.713" fill="#FFC2BE"/><path d="M270.3 125.84c.3 0 .56-.1.77-.3l9.68-9.7c1 .63 2.17 1 3.43 1 3.58 0 6.5-2.92 6.5-6.5s-2.92-6.5-6.5-6.5-6.5 2.92-6.5 6.5c0 1.55.55 2.97 1.46 4.1l-9.58 9.57c-.42.43-.42 1.1 0 1.53.2.2.48.3.75.3zm13.88-19.86c2.4 0 4.35 1.96 4.35 4.36 0 2.4-1.95 4.35-4.35 4.35-2.4 0-4.35-1.96-4.35-4.36 0-2.4 1.95-4.36 4.35-4.36zM283.9 140.37c-2.86 0-5.3 1.78-6.3 4.28l-12.74-4.58c.08-.48.13-.98.13-1.5 0-1.95-.64-3.77-1.7-5.26l4.52-4.53c.42-.4.42-1.1 0-1.5-.42-.43-1.1-.43-1.5 0l-4.48 4.46c-1.32-1.15-2.98-1.9-4.8-2.14l.5-14.6c1.98-.48 3.45-2.26 3.45-4.38 0-2.48-2.02-4.5-4.5-4.5s-4.5 2.02-4.5 4.5c0 2.1 1.45 3.87 3.4 4.36l-.5 14.6c-1.72.2-3.3.88-4.6 1.9l-12.33-11.82c1.18-1.13 1.9-2.72 1.9-4.47 0-3.43-2.77-6.22-6.2-6.22-3.42 0-6.2 2.78-6.2 6.2 0 3.43 2.78 6.2 6.2 6.2.88 0 1.72-.17 2.48-.5L248.8 133c-1.1 1.4-1.8 3.16-1.9 5.07-1.06-.04-5.07-.15-6.03-.2-.6 0-1.08.45-1.1 1.04-.03.6.44 1.1 1.03 1.12.96.04 5.1.15 6.22.2.32 1.75 1.15 3.33 2.33 4.58l-15.2 15.2c-1.4-1.06-3.13-1.7-5-1.7-4.53 0-8.2 3.7-8.2 8.2s3.67 8.2 8.2 8.2 8.2-3.67 8.2-8.2c0-1.87-.63-3.6-1.7-4.98L251 146.18c1.15.75 2.5 1.25 3.92 1.4l.46 6.8c-2.62.83-4.5 3.3-4.5 6.18 0 3.58 2.9 6.5 6.48 6.5 3.58 0 6.5-2.92 6.5-6.5 0-3.53-2.85-6.4-6.36-6.5l-.43-6.5c1.37-.16 2.65-.64 3.76-1.36 1.06 1.18 2.05 2.3 3.14 3.54.4.47 1.16.48 1.58.03.38-.4.4-1.03.03-1.44-1.08-1.23-2.06-2.33-3.1-3.5.74-.78 1.35-1.7 1.78-2.7l12.87 4.63c0 .13-.02.26-.02.38 0 3.74 3.05 6.78 6.8 6.78 3.73 0 6.77-3.04 6.77-6.78 0-3.73-3.04-6.77-6.78-6.77zm-54.3-25.18c0-2.25 1.83-4.08 4.07-4.08 2.25 0 4.07 1.83 4.07 4.07 0 2.23-1.83 4.05-4.07 4.05s-4.06-1.82-4.06-4.06zm24.55-4.58c0-1.3 1.05-2.35 2.35-2.35s2.35 1.06 2.35 2.35-1.05 2.36-2.35 2.36-2.35-1.06-2.35-2.36zm-25 61.95c-3.35 0-6.07-2.72-6.07-6.06 0-3.33 2.72-6.05 6.07-6.05 3.34 0 6.06 2.72 6.06 6.06 0 3.35-2.7 6.07-6.05 6.07zm32.56-12c0 2.38-1.94 4.34-4.34 4.34s-4.36-1.95-4.36-4.34c0-2.4 1.96-4.36 4.36-4.36s4.35 1.96 4.35 4.36zm-5.77-15.07c-3.82 0-6.92-3.1-6.92-6.92s3.1-6.92 6.93-6.92c3.8 0 6.92 3.1 6.92 6.92s-3.1 6.92-6.92 6.92zm27.96 6.28c-2.56 0-4.64-2.08-4.64-4.64 0-2.55 2.08-4.63 4.63-4.63s4.63 2.1 4.63 4.64c0 2.56-2.08 4.64-4.64 4.64zM281.32 163.77c-.6 0-1.2.1-1.76.3-.68-.75-1.35-1.5-2.02-2.24-2.72-3-5.9-6.55-9-10.13-.38-.45-1.05-.5-1.5-.12-.45.4-.5 1.06-.1 1.5 3.08 3.6 6.3 7.18 9 10.2.6.63 1.17 1.27 1.75 1.9-1.1 1-1.73 2.42-1.73 3.93 0 2.96 2.4 5.36 5.35 5.36s5.35-2.4 5.35-5.35c0-2.94-2.4-5.33-5.35-5.33zm0 8.56c-1.77 0-3.2-1.44-3.2-3.2 0-1.2.64-2.27 1.67-2.83.46-.26 1-.4 1.52-.4 1.77 0 3.2 1.45 3.2 3.22 0 1.76-1.43 3.2-3.2 3.2zM227.68 143.65c2.58 0 4.78-1.66 5.6-3.97l3.2.13s.02 0 .03 0c.6 0 1.06-.45 1.08-1.02.02-.6-.44-1.1-1.03-1.1l-2.95-.13c-.1-3.18-2.7-5.74-5.92-5.74-3.26 0-5.92 2.66-5.92 5.93 0 3.26 2.66 5.92 5.92 5.92zm0-9.7c2.1 0 3.78 1.7 3.78 3.78s-1.7 3.78-3.78 3.78-3.78-1.7-3.78-3.77c0-2.1 1.7-3.78 3.78-3.78zM257.07 132.95c-2.16 0-3.92 1.76-3.92 3.92 0 2.17 1.76 3.93 3.92 3.93s3.92-1.76 3.92-3.93c0-2.16-1.77-3.92-3.93-3.92zm0 5.7c-.98 0-1.78-.8-1.78-1.78s.8-1.78 1.77-1.78c.98 0 1.78.8 1.78 1.77 0 .98-.8 1.8-1.78 1.8z"/></svg>