<?xml version="1.0" encoding="utf-8"?>
<!-- Generator: Adobe Illustrator 16.0.0, SVG Export Plug-In . SVG Version: 6.00 Build 0)  -->
<!DOCTYPE svg PUBLIC "-//W3C//DTD SVG 1.1//EN" "http://www.w3.org/Graphics/SVG/1.1/DTD/svg11.dtd">
<svg version="1.1" id="Capa_1" xmlns="http://www.w3.org/2000/svg" xmlns:xlink="http://www.w3.org/1999/xlink" x="0px" y="0px"
	 width="935px" height="340.667px" viewBox="0 0 935 340.667" enable-background="new 0 0 935 340.667" xml:space="preserve">
<g>
	<path fill="#E0DDDF" d="M490.603,227.923c-3.891,0-7.042-3.151-7.042-7.043v-28.17c0-3.892,3.151-7.043,7.042-7.043h3.582
		c-1.796-5.715-7.135-9.859-13.441-9.859h-67.609c-7.779,0-14.085,6.307-14.085,14.085v52.115h95.779v-7.042v-7.043H490.603z"/>
	<path fill="#C1BCBF" d="M421.585,175.808h-8.451c-7.779,0-14.085,6.307-14.085,14.085v52.115h8.451v-52.115
		C407.5,182.114,413.807,175.808,421.585,175.808z"/>
	<polygon fill="#FFFFFF" points="418.769,175.808 446.938,213.837 475.109,175.808 	"/>
	<polygon fill="#439EE8" points="453.981,191.302 439.896,191.302 438.135,196.583 455.742,196.583 	"/>
	<g>
		<polygon fill="#498CF5" points="438.135,196.583 437.079,199.753 446.938,212.429 456.799,199.753 455.742,196.583 		"/>
		<polygon fill="#498CF5" points="458.207,175.808 453.981,191.302 439.896,191.302 435.67,175.808 		"/>
	</g>
	<g>
		<path fill="#D74848" d="M511.73,227.923v7.043c0,3.891-3.151,7.042-7.043,7.042h-2.816c-3.891,0-7.043-3.151-7.043-7.042v-7.043
			H511.73z"/>
		<rect x="494.829" y="170.173" fill="#D74848" width="16.902" height="15.494"/>
	</g>
	<g>
		<path fill="#F9C59B" d="M511.73,185.667c7.778,0,14.086,6.307,14.086,14.086v14.085c0,7.778-6.307,14.085-14.086,14.085
			c0,0-14.789,0-21.128,0c-3.891,0-7.042-3.151-7.042-7.043v-28.17c0-3.891,3.151-7.043,7.042-7.043H511.73L511.73,185.667z"/>
		<path fill="#F9C59B" d="M399.345,126.442c2.856,9.726,5.282,17.934,6.275,21.152c-0.31,0.025-0.62,0.042-0.937,0.042
			c-6.222,0-11.268-5.046-11.268-11.268C393.415,132.076,395.817,128.348,399.345,126.442z"/>
		<path fill="#F9C59B" d="M494.793,126.594c3.388,1.943,5.67,5.592,5.67,9.775c0,6.222-5.046,11.268-11.269,11.268
			c-0.211,0-0.422-0.007-0.63-0.017C491.871,141.383,494.479,134.027,494.793,126.594z"/>
		<path fill="#F9C59B" d="M487.786,122.284v9.859c0,22.561-18.286,40.847-40.848,40.847c-22.561,0-40.847-18.286-40.847-40.847
			v-9.859l8.452-16.902l1.186,0.411l31.209,10.856l31.209-10.856l1.187-0.411L487.786,122.284z"/>
	</g>
	<path fill="#DDAE8E" d="M414.543,132.144v-9.859l7.2-14.399l-6.013-2.091l-1.187-0.412l-8.451,16.902v9.859
		c0,22.561,18.286,40.847,40.847,40.847c1.427,0,2.836-0.073,4.226-0.216C430.589,170.659,414.543,153.277,414.543,132.144z"/>
	<path fill="#827980" d="M488.564,147.62c-0.258,0.481-0.515,0.957-0.778,1.426v-1.5v-15.402v-9.859l-8.452-16.902l-1.186,0.412
		l-31.209,10.855l-31.209-10.855l-1.187-0.412l-8.451,16.902v9.859v15.402v1.5c-0.039-0.07-0.201-0.577-0.472-1.451
		c-0.993-3.219-3.419-11.426-6.275-21.152c-6.184-21.061-14.382-49.231-14.382-49.231h61.975c26.448,0,47.89,21.441,47.89,47.89
		c0,0.497-0.014,0.993-0.035,1.493C494.479,134.027,491.871,141.383,488.564,147.62z"/>
	<path d="M478.982,122.46H457.15c-1.868,0-3.464,1.172-4.102,2.816h-12.22c-0.638-1.646-2.233-2.816-4.102-2.816h-21.832
		c-2.427,0-4.402,1.975-4.402,4.401v14.79c0,2.427,1.975,4.401,4.402,4.401h21.832c2.428,0,4.402-1.975,4.402-4.401V130.56h11.621
		v11.092c0,2.427,1.974,4.401,4.4,4.401h21.833c2.427,0,4.401-1.975,4.401-4.401v-14.79
		C483.385,124.434,481.41,122.46,478.982,122.46z M435.847,140.771h-20.071v-13.029h20.071V140.771z M478.102,140.771h-20.07
		v-13.029h20.07V140.771z"/>
	<g>
		<path fill="#D74848" d="M503.279,157.32c-1.459,0-2.641-1.183-2.641-2.641v-4.226c0-1.458,1.183-2.641,2.641-2.641
			c1.459,0,2.641,1.183,2.641,2.641v4.226C505.92,156.138,504.738,157.32,503.279,157.32z"/>
		<path fill="#D74848" d="M510.322,165.771c-1.459,0-2.641-1.182-2.641-2.641v-4.226c0-1.459,1.182-2.641,2.641-2.641
			s2.641,1.183,2.641,2.641v4.226C512.963,164.59,511.781,165.771,510.322,165.771z"/>
		<path fill="#D74848" d="M496.236,165.771c-1.458,0-2.641-1.182-2.641-2.641v-4.226c0-1.459,1.183-2.641,2.641-2.641
			c1.459,0,2.642,1.183,2.642,2.641v4.226C498.878,164.59,497.695,165.771,496.236,165.771z"/>
	</g>
	<path d="M446.938,231.74c-1.458,0-2.641,1.183-2.641,2.641v1.712c0,1.459,1.183,2.642,2.641,2.642c1.459,0,2.642-1.183,2.642-2.642
		v-1.712C449.58,232.923,448.397,231.74,446.938,231.74z"/>
	<path d="M475.109,216.831h-11.268c-1.459,0-2.642,1.182-2.642,2.641c0,1.458,1.183,2.641,2.642,2.641h11.268
		c1.459,0,2.641-1.183,2.641-2.641C477.75,218.013,476.568,216.831,475.109,216.831z"/>
	<path d="M456.974,153.976c1.167-0.875,1.404-2.53,0.529-3.697c-0.874-1.167-2.53-1.404-3.697-0.529
		c-2.657,1.992-5.443,2.289-6.867,2.289c-3.325,0-5.729-1.433-6.864-2.287c-1.166-0.876-2.822-0.642-3.698,0.524
		c-0.876,1.166-0.642,2.821,0.523,3.698c1.663,1.25,5.178,3.347,10.039,3.347C449.02,157.32,453.091,156.887,456.974,153.976z"/>
	<path d="M427.22,130.911h-2.817c-1.458,0-2.641,1.183-2.641,2.641c0,1.459,1.183,2.641,2.641,2.641h2.817
		c1.458,0,2.641-1.183,2.641-2.641C429.86,132.093,428.678,130.911,427.22,130.911z"/>
	<path d="M466.658,136.192h2.816c1.459,0,2.641-1.183,2.641-2.641c0-1.459-1.182-2.641-2.641-2.641h-2.816
		c-1.459,0-2.641,1.183-2.641,2.641C464.018,135.011,465.199,136.192,466.658,136.192z"/>
	<path d="M525.816,210.141c1.458,0,2.641-1.184,2.641-2.642v-7.746c0-8.324-6.113-15.246-14.086-16.517v-10.422h2.993
		c1.439,0,2.641-1.202,2.641-2.641c0-1.439-1.201-2.642-2.641-2.642h-28.17c-1.439,0-2.641,1.202-2.641,2.642
		c0,1.438,1.201,2.641,2.641,2.641h2.993v4.855c-3.021-2.832-7.067-4.504-11.444-4.504h-19.372
		c10.852-3.828,19.744-11.847,24.721-22.104c1.326,1.116,3.232,0.635,4.049-0.819c3.931-0.266,7.623-2.246,10.04-5.354
		c2.528-3.251,3.418-7.459,2.651-11.485c-0.551-2.892-2.37-5.837-5.364-8.649c-0.014-2.028-0.148-4.056-0.404-6.067
		c-3.164-24.887-25.054-44.115-50.125-44.115h-61.975c-1.819,0-2.992,1.778-2.51,3.468c0.128,0.449,12.001,41.119,13.324,45.629
		c0.16,0.547,0.321,1.094,0.481,1.641c-3.784,2.884-5.864,7.612-5.426,12.35c0.387,4.187,2.727,8.041,6.239,10.346
		c1.985,1.302,4.296,2.079,6.665,2.239c0.771,1.49,2.759,1.905,4.049,0.82c4.977,10.257,13.868,18.275,24.721,22.104h-19.372
		c-9.223,0-16.727,7.504-16.727,16.727v52.115c0,1.459,1.183,2.642,2.641,2.642h95.779c0.957,0,1.792-0.511,2.255-1.272
		c1.413,0.808,3.047,1.272,4.788,1.272h2.816c5.34,0,9.684-4.345,9.684-9.684v-4.634c5.488-0.952,10.544-4.746,12.802-9.866
		c0.424-0.962,0.911-2.002,0.851-3.08c-0.053-0.954-0.635-1.803-1.496-2.214c-0.815-0.391-1.787-0.338-2.55,0.15
		c-1.006,0.644-1.104,1.688-1.508,2.709c-0.511,1.286-1.299,2.453-2.253,3.452c-2.181,2.283-5.302,3.799-8.486,3.799h-21.128
		c-2.428,0-4.402-1.975-4.402-4.402v-1.593c0.059,0.004,0.117,0.009,0.176,0.009h14.086c1.438,0,2.641-1.202,2.641-2.641
		c0-1.439-1.202-2.642-2.641-2.642h-14.085c-0.06,0-0.117,0.005-0.176,0.009v-4.596c0.059,0.004,0.116,0.01,0.176,0.01h14.086
		c1.438,0,2.641-1.202,2.641-2.642s-1.202-2.641-2.641-2.641h-14.086c-0.06,0-0.117,0.005-0.176,0.009v-4.596
		c0.059,0.004,0.116,0.009,0.176,0.009h14.086c1.438,0,2.641-1.202,2.641-2.641c0-1.439-1.202-2.642-2.641-2.642h-14.086
		c-0.06,0-0.117,0.005-0.176,0.009v-1.594c0-2.427,1.975-4.401,4.401-4.401h21.129c6.311,0,11.443,5.134,11.443,11.444v7.747
		C523.175,208.957,524.357,210.141,525.816,210.141z M493.221,143.996c1.453-3.394,2.804-7.382,3.575-11.685
		c0.659,1.231,1.026,2.621,1.026,4.058C497.821,139.673,495.954,142.547,493.221,143.996z M446.938,79.853
		c24.95,0,45.249,20.298,45.249,45.248c0,0.41-0.011,0.85-0.033,1.382c-0.145,3.423-0.812,6.745-1.728,9.797v-13.995
		c0-0.41-0.096-0.814-0.279-1.182l-8.45-16.902c-0.459-0.916-1.387-1.46-2.363-1.46c-0.287,0-0.58,0.047-0.865,0.146l-31.53,10.967
		l-30.343-10.555l-1.187-0.412c-1.254-0.435-2.635,0.127-3.228,1.313l-8.451,16.902c-0.183,0.367-0.279,0.771-0.279,1.181v8.762
		c-0.49-1.664-1.014-3.447-1.572-5.347c0-0.002-0.001-0.004-0.001-0.006c-0.001-0.006-0.004-0.013-0.006-0.02
		c-4.858-16.546-11.023-37.7-13.388-45.82H446.938z M396.056,136.369c0-1.986,0.681-3.868,1.875-5.371
		c1.73,5.883,3.07,10.411,4.008,13.548C398.524,143.397,396.056,140.167,396.056,136.369z M408.733,132.144v-9.236l7.135-14.27
		l30.204,10.506c0.562,0.196,1.173,0.196,1.735,0l30.203-10.506l7.136,14.27v9.236c0,21.066-17.14,38.206-38.206,38.206
		C425.873,170.35,408.733,153.21,408.733,132.144z M509.09,172.814v10.212h-11.62v-10.212H509.09z M446.938,209.4l-7.098-9.582
		l1.959-5.877h10.278l1.958,5.877L446.938,209.4z M454.75,178.448l-2.785,10.212h-10.052l-2.785-10.212H454.75z M433.654,178.448
		l3.484,12.776l-1.137,3.41l-11.99-16.187H433.654L433.654,178.448z M457.877,194.635l-1.137-3.41l3.483-12.776h9.643
		L457.877,194.635z M504.688,239.366h-2.816c-2.428,0-4.402-1.974-4.402-4.401v-4.401h11.621v4.401
		C509.09,237.393,507.115,239.366,504.688,239.366z M480.919,192.71v28.17c0,5.34,4.345,9.684,9.684,9.684h1.585v8.803H401.69
		v-49.474c0-6.31,5.134-11.444,11.444-11.444h4.304l26.86,36.262v11.846c0,1.458,1.183,2.641,2.641,2.641
		c1.459,0,2.642-1.183,2.642-2.641V214.71l26.859-36.262h4.304c3.711,0,7.07,1.758,9.183,4.604
		C484.901,183.401,480.919,187.599,480.919,192.71z"/>
</g>
<g>
	<rect x="639.904" y="128.803" fill="#FF675C" width="164.754" height="112.203"/>
	<polygon fill="#DB3D5A" points="647.006,233.904 647.006,128.803 639.904,128.803 639.904,241.006 804.658,241.006 
		804.658,233.904 	"/>
	<circle fill="#FAEC8E" cx="777.672" cy="153.658" r="7.812"/>
	<path fill="#FBC96C" d="M781.223,158.629c-4.313,0-7.811-3.498-7.811-7.812c0-1.639,0.505-3.16,1.367-4.416
		c-2.881,1.15-4.918,3.964-4.918,7.256c0,4.314,3.497,7.812,7.811,7.812c2.676,0,5.036-1.346,6.444-3.396
		C783.221,158.43,782.246,158.629,781.223,158.629z"/>
	<circle fill="#FAEC8E" cx="777.672" cy="176.383" r="7.812"/>
	<path fill="#FBC96C" d="M781.223,181.354c-4.313,0-7.811-3.498-7.811-7.812c0-1.639,0.505-3.16,1.367-4.416
		c-2.881,1.15-4.918,3.964-4.918,7.256c0,4.314,3.497,7.812,7.811,7.812c2.676,0,5.036-1.346,6.444-3.396
		C783.221,181.155,782.246,181.354,781.223,181.354z"/>
	<circle fill="#C1BCBF" cx="777.672" cy="209.76" r="15.623"/>
	<path fill="#A19AA0" d="M781.934,221.122c-8.629,0-15.623-6.995-15.623-15.623c0-3.225,0.979-6.222,2.652-8.71
		c-4.17,2.805-6.913,7.568-6.913,12.971c0,8.628,6.995,15.623,15.623,15.623c5.403,0,10.165-2.744,12.971-6.913
		C788.154,220.144,785.158,221.122,781.934,221.122z"/>
	<rect x="655.527" y="144.426" fill="#5CC4E0" width="96.58" height="80.957"/>
	<rect x="661.209" y="150.107" fill="#439EE8" width="85.217" height="69.594"/>
	<path fill="#FFFFFF" d="M723.702,208.162c-0.02,0-0.038,0-0.058,0c-1.183-0.025-2.207-0.828-2.515-1.97l-7.899-29.342l-6.951,16.88
		c-0.404,0.982-1.354,1.629-2.414,1.649c-1.059,0.033-2.033-0.594-2.473-1.561l-4.295-9.449l-6.377,19.131
		c-0.372,1.115-1.434,1.857-2.605,1.82c-1.174-0.035-2.188-0.835-2.492-1.969l-7.832-29.088l-6.999,17.999
		c-0.397,1.024-1.384,1.698-2.481,1.698h-12.783c-1.471,0-2.663-1.192-2.663-2.663s1.192-2.663,2.663-2.663h10.961l9.282-23.868
		c0.417-1.073,1.477-1.753,2.626-1.694c1.148,0.062,2.128,0.855,2.428,1.967l7.642,28.384l5.724-17.172
		c0.348-1.039,1.294-1.76,2.388-1.817c1.093-0.067,2.11,0.56,2.563,1.557l4.557,10.024l7.601-18.458
		c0.435-1.056,1.495-1.718,2.632-1.644c1.14,0.072,2.105,0.863,2.402,1.965l7.574,28.132l5.778-18.3
		c0.348-1.101,1.364-1.852,2.519-1.861c1.17-0.013,2.183,0.726,2.547,1.821l3.654,10.962h12.283c1.471,0,2.663,1.192,2.663,2.663
		s-1.192,2.663-2.663,2.663h-14.203c-1.146,0-2.164-0.733-2.526-1.82l-1.666-4.999L726.24,206.3
		C725.891,207.41,724.861,208.162,723.702,208.162z"/>
	<path d="M804.658,126.14H689.26c-1.471,0-2.664,1.192-2.664,2.663s1.193,2.663,2.664,2.663h112.735v106.877H642.567V131.466h27.163
		c1.471,0,2.663-1.192,2.663-2.663c0-1.471-1.192-2.663-2.663-2.663h-29.826c-1.471,0-2.663,1.192-2.663,2.663v112.203
		c0,1.471,1.192,2.663,2.663,2.663h164.754c1.471,0,2.664-1.192,2.664-2.663V128.803C807.321,127.332,806.129,126.14,804.658,126.14
		z"/>
	<path d="M652.864,144.426v80.957c0,1.471,1.192,2.663,2.663,2.663h96.58c1.471,0,2.663-1.192,2.663-2.663v-80.957
		c0-1.471-1.192-2.663-2.663-2.663h-96.58C654.057,141.763,652.864,142.955,652.864,144.426z M658.19,147.089h91.254v75.631H658.19
		V147.089z"/>
	<path d="M759.387,209.76c0,10.083,8.203,18.286,18.285,18.286c10.084,0,18.287-8.204,18.287-18.286
		c0-10.083-8.203-18.287-18.287-18.287C767.59,191.473,759.387,199.676,759.387,209.76z M777.672,196.799
		c7.146,0,12.961,5.814,12.961,12.96c0,7.146-5.814,12.96-12.961,12.96c-7.146,0-12.959-5.814-12.959-12.96
		C764.713,202.613,770.526,196.799,777.672,196.799z"/>
	<path d="M777.672,186.857c5.776,0,10.475-4.699,10.475-10.475c0-5.776-4.699-10.475-10.475-10.475s-10.474,4.699-10.474,10.475
		C767.198,182.158,771.896,186.857,777.672,186.857z M777.672,171.234c2.84,0,5.149,2.31,5.149,5.148s-2.31,5.148-5.149,5.148
		c-2.838,0-5.148-2.31-5.148-5.148S774.834,171.234,777.672,171.234z"/>
	<path d="M777.672,164.133c5.776,0,10.475-4.699,10.475-10.475c0-5.776-4.699-10.475-10.475-10.475s-10.474,4.699-10.474,10.475
		C767.198,159.434,771.896,164.133,777.672,164.133z M777.672,148.509c2.84,0,5.149,2.31,5.149,5.148s-2.31,5.148-5.149,5.148
		c-2.838,0-5.148-2.31-5.148-5.148C772.523,150.819,774.834,148.509,777.672,148.509z"/>
	<g>
	</g>
	<g>
	</g>
	<g>
	</g>
	<g>
	</g>
	<g>
	</g>
	<g>
	</g>
	<g>
	</g>
	<g>
	</g>
	<g>
	</g>
	<g>
	</g>
	<g>
	</g>
	<g>
	</g>
	<g>
	</g>
	<g>
	</g>
	<g>
	</g>
</g>
<g>
	<path opacity="0.15" fill-rule="evenodd" clip-rule="evenodd" fill="#3F3F3F" d="M255.065,240.942
		c28.774,0.007,52.1,1.049,52.1,2.329s-23.327,2.31-52.1,2.303c-28.772-0.007-52.097-1.049-52.098-2.328
		C202.967,241.967,226.294,240.935,255.065,240.942z"/>
	<path fill-rule="evenodd" clip-rule="evenodd" d="M150.3,199.952l0.029-119.826c0-2.557,2.075-4.631,4.632-4.63L351.2,75.543
		c2.559,0,4.631,2.075,4.63,4.631l-0.029,119.827L150.3,199.952z"/>
	<path fill-rule="evenodd" clip-rule="evenodd" fill="#E7E7E7" d="M351.165,218.524l-196.238-0.048
		c-2.558-0.001-4.63-2.074-4.629-4.631l0.003-13.894l205.501,0.05l-0.003,13.894C355.796,216.453,353.723,218.525,351.165,218.524z"
		/>
	<path fill-rule="evenodd" clip-rule="evenodd" fill="#E7E7E7" d="M220.334,242.708v-2.551l8.112-0.987l5.599-21.35l41.477,0.01
		l5.588,21.353l8.112,0.991l-0.001,2.551L220.334,242.708z"/>
	<path fill-rule="evenodd" clip-rule="evenodd" fill="#E7E7E7" d="M255.105,78.47c0.601,0,1.087,0.487,1.088,1.087
		c0,0.6-0.488,1.088-1.089,1.088c-0.601,0-1.087-0.488-1.086-1.088C254.018,78.956,254.505,78.47,255.105,78.47z"/>
	<path fill-rule="evenodd" clip-rule="evenodd" fill="#FFFFFF" d="M349.462,83.647l-0.027,108.25L156.67,191.85l0.026-108.249
		L349.462,83.647z"/>
	<path opacity="0.08" fill-rule="evenodd" clip-rule="evenodd" fill="#3F3F3F" d="M233.288,221.861l0.757-4.041l41.477,0.01
		l0.755,4.042L233.288,221.861z"/>
</g>
<g>
	<path fill="#E0DDDF" d="M851.702,240.286c-17.333,0-31.436-14.099-31.436-31.432h6.99c0,13.483,10.969,24.446,24.445,24.446
		c13.479,0,24.445-10.963,24.445-24.446c0-13.479-10.967-24.445-24.445-24.445v-6.983c17.333,0,31.435,14.098,31.435,31.428
		C883.137,226.187,869.035,240.286,851.702,240.286z"/>
	<path fill="#5CC4E0" d="M868.341,235.51c0.793,0.836,1.534,1.73,2.202,2.682l0.024,4.189h-37.73l0.048-4.227
		c0.653-0.931,1.386-1.819,2.177-2.645c1.782-1.846,3.857-3.398,6.152-4.571c3.149-1.61,6.709-2.52,10.488-2.52
		s7.341,0.91,10.488,2.52C864.485,232.112,866.559,233.665,868.341,235.51z"/>
	<path fill="#439EE8" d="M840.657,235.51c1.767-1.846,3.842-3.398,6.152-4.571c2.349-1.212,4.951-2.021,7.683-2.356
		c-0.913-0.107-1.85-0.163-2.79-0.163c-3.779,0-7.339,0.909-10.488,2.52c-2.295,1.172-4.37,2.725-6.152,4.571
		c-0.791,0.826-1.523,1.714-2.177,2.645l-0.048,4.226h5.594l0.034-4.226C839.134,237.224,839.866,236.336,840.657,235.51z"/>
	<rect x="811.187" y="203.269" fill="#FF675C" width="36.326" height="5.585"/>
	<rect x="822.774" y="203.269" fill="#FFC2BE" width="7.57" height="5.585"/>
	<g>
		<polygon fill="#5CC4E0" points="856.037,159.962 853.073,162.926 855.54,165.395 841.222,179.711 850.12,188.6 854.185,184.535 
			860.14,178.574 864.43,174.284 866.905,176.756 869.864,173.793 		"/>
		
			<rect x="859.377" y="158.579" transform="matrix(0.7068 -0.7075 0.7075 0.7068 133.5139 658.823)" fill="#5CC4E0" width="4.188" height="19.56"/>
	</g>
	<g>
		
			<rect x="857.507" y="164.402" transform="matrix(-0.7071 -0.7071 0.7071 -0.7071 1349.7095 892.0602)" fill="#439EE8" width="4.198" height="4.188"/>
		<polygon fill="#439EE8" points="866.087,170.02 863.13,172.982 866.905,176.756 869.864,173.793 		"/>
	</g>
	<polygon fill="#FF675C" points="864.431,174.283 850.12,188.599 841.224,179.71 855.54,165.395 	"/>
	<polygon fill="#DB3D5A" points="855.54,165.395 853.322,167.61 860.101,174.383 848,186.483 850.12,188.6 864.43,174.284 	"/>
	<path d="M862.593,177.976l1.835-1.838l1.542,1.543c0.248,0.247,0.586,0.383,0.936,0.383l0,0c0.344,0,0.676-0.136,0.916-0.383
		l2.967-2.962c0.514-0.511,0.514-1.342,0-1.853l-13.831-13.83c-0.245-0.245-0.573-0.383-0.92-0.383
		c-0.351,0-0.683,0.138-0.935,0.384L852.142,162c-0.24,0.246-0.381,0.578-0.381,0.926c0,0.348,0.142,0.68,0.381,0.925l1.552,1.543
		l-13.388,13.388c-0.256,0.246-0.386,0.581-0.386,0.928c0,0.345,0.13,0.679,0.386,0.925l8.879,8.891
		c0.262,0.253,0.591,0.383,0.936,0.383c0.324,0,0.67-0.13,0.918-0.383l3.623-3.618c4.953,0.635,9.641,2.907,13.241,6.438
		c0.25,0.251,0.586,0.376,0.911,0.376c0.346,0,0.675-0.132,0.938-0.394c0.5-0.515,0.496-1.346-0.021-1.849
		c-3.525-3.469-8.006-5.843-12.798-6.842l3.589-3.586c12.575,3.855,21.301,15.592,21.301,28.802c0,10.09-4.953,19.354-13.307,24.987
		c-1.13-1.069-2.341-2.024-3.64-2.86c3.409-2.036,6.312-4.834,8.482-8.199c2.689-4.159,4.099-8.969,4.099-13.927
		c0-4.898-1.381-9.671-4.014-13.799c-0.385-0.606-1.203-0.79-1.813-0.398c-0.606,0.387-0.79,1.199-0.394,1.805
		c2.354,3.705,3.609,7.994,3.609,12.393c0,8.661-4.949,16.681-12.656,20.622c-3.284-1.569-6.813-2.371-10.486-2.371
		c-3.674,0-7.204,0.801-10.488,2.371c-7.313-3.735-12.132-11.161-12.603-19.308h18.901c0.725,0,1.312-0.586,1.312-1.313v-5.585
		c0-0.724-0.588-1.311-1.312-1.311h-36.326c-0.72,0-1.306,0.587-1.306,1.311v5.585c0,0.728,0.586,1.313,1.306,1.313h7.798
		c0.145,3.679,0.901,7.274,2.252,10.696c0.268,0.674,1.028,1.001,1.699,0.733c0.673-0.265,1.008-1.026,0.739-1.7
		c-1.232-3.107-1.918-6.377-2.061-9.729h4.365c0.233,4.486,1.613,8.823,4.068,12.614c2.172,3.365,5.072,6.163,8.479,8.199
		c-1.298,0.834-2.509,1.789-3.639,2.857c-3.607-2.446-6.71-5.685-8.968-9.419c-0.381-0.622-1.175-0.816-1.797-0.443
		c-0.622,0.374-0.812,1.18-0.442,1.796c2.386,3.939,5.611,7.367,9.397,9.994c-0.447,0.526-0.86,1.071-1.27,1.635
		c-0.146,0.217-0.234,0.475-0.234,0.746l-0.04,4.222c-0.006,0.35,0.128,0.688,0.379,0.936c0.247,0.25,0.576,0.389,0.924,0.389
		h37.729c0.344,0,0.676-0.139,0.918-0.389c0.254-0.246,0.385-0.577,0.383-0.922l-0.01-4.191c0-0.274-0.088-0.535-0.236-0.754
		c-0.408-0.575-0.848-1.132-1.299-1.67c4.053-2.813,7.451-6.525,9.884-10.814c2.771-4.888,4.237-10.455,4.237-16.099
		C884.444,194.958,875.558,182.561,862.593,177.976z M856.037,161.814l11.978,11.978l-1.109,1.11l-11.98-11.977L856.037,161.814z
		 M850.12,186.748l-7.04-7.037l12.46-12.464l7.033,7.037L850.12,186.748z M812.503,207.547v-2.972h33.693v2.972H812.503z
		 M834.162,241.076l0.021-2.489c0.56-0.762,1.172-1.49,1.823-2.168h0.002c1.69-1.758,3.646-3.207,5.804-4.319
		c0.001,0,0.001-0.001,0.002-0.001c3.086-1.57,6.402-2.373,9.889-2.373c3.485,0,6.804,0.802,9.889,2.373c0,0,0,0,0.002,0.001
		c2.154,1.112,4.113,2.562,5.797,4.319c0.001,0,0.002,0,0.002,0c0.66,0.689,1.278,1.43,1.849,2.197l0.011,2.46H834.162z"/>
	<path d="M813.118,200.385h32.643c0.729,0,1.314-0.586,1.314-1.306c0-0.727-0.586-1.313-1.314-1.313h-32.643
		c-0.732,0-1.318,0.586-1.318,1.313C811.8,199.799,812.386,200.385,813.118,200.385z"/>
	<g>
	</g>
	<g>
	</g>
	<g>
	</g>
	<g>
	</g>
	<g>
	</g>
	<g>
	</g>
	<g>
	</g>
	<g>
	</g>
	<g>
	</g>
	<g>
	</g>
	<g>
	</g>
	<g>
	</g>
	<g>
	</g>
	<g>
	</g>
	<g>
	</g>
</g>
<g>
	<g>
		<path fill="#FF675C" d="M385.387,194.896h-79.623c-0.748,0-1.354,0.606-1.354,1.354v5.958c0,0.748,0.606,1.354,1.354,1.354h1.845
			c1.246,8.087,5.032,15.542,10.952,21.397c2.773,2.743,5.893,5.011,9.258,6.769h-0.298v9.389h36.11v-9.389h-0.298
			c3.365-1.757,6.485-4.026,9.258-6.769c5.92-5.855,9.706-13.309,10.952-21.397h1.844c0.748,0,1.354-0.606,1.354-1.354v-5.958
			C386.741,195.502,386.135,194.896,385.387,194.896z"/>
		<rect x="327.521" y="231.729" fill="#FF675C" width="36.11" height="9.389"/>
	</g>
	<g>
		<path fill="#DB3D5A" d="M345.576,236.062c-6.282,0-12.338-1.503-17.757-4.333h-0.297v6.139h36.11v-6.139h-0.298
			C357.915,234.559,351.858,236.062,345.576,236.062z"/>
		<path fill="#DB3D5A" d="M383.543,203.563h-75.934c0.075,0.486,0.16,0.971,0.253,1.454c1.457,7.525,5.135,14.439,10.698,19.942
			c7.239,7.16,16.833,11.103,27.015,11.103c1.242,0,2.475-0.06,3.696-0.176c-8.792-0.835-16.963-4.641-23.319-10.927
			c-5.208-5.151-8.764-11.54-10.392-18.508h67.422C383.206,205.499,383.393,204.536,383.543,203.563z"/>
		<path fill="#DB3D5A" d="M349.151,220.571c-0.915-0.915-2.179-1.481-3.575-1.481s-2.66,0.566-3.575,1.481
			c-0.914,0.915-1.48,2.179-1.48,3.575c0,2.792,2.264,5.056,5.056,5.056s5.055-2.264,5.055-5.056
			C350.631,222.75,350.066,221.486,349.151,220.571z"/>
		<path fill="#DB3D5A" d="M337.596,216.165c0.915-0.915,1.48-2.178,1.48-3.575c0-2.792-2.263-5.055-5.055-5.055
			s-5.055,2.263-5.055,5.055s2.263,5.056,5.055,5.056C335.417,217.646,336.681,217.08,337.596,216.165"/>
		<path fill="#DB3D5A" d="M353.557,216.165c0.915,0.915,2.179,1.481,3.575,1.481c2.792,0,5.055-2.264,5.055-5.056
			s-2.263-5.055-5.055-5.055s-5.055,2.263-5.055,5.055C352.076,213.987,352.642,215.25,353.557,216.165"/>
	</g>
	<path fill="#E0DDDF" d="M380.938,177.891l-3.064-3.064c-1.41-1.41-3.698-1.41-5.107,0l-21.205,21.213h16.341l13.036-13.043
		C382.349,181.586,382.349,179.301,380.938,177.891z"/>
	<path fill="#C1BCBF" d="M381.373,178.418l-17.622,17.622h4.152l13.036-13.043C382.184,181.751,382.328,179.824,381.373,178.418z"/>
	<path fill="#5CC4E0" d="M352.437,171.786c3.19,0,5.778,2.587,5.778,5.778c0,3.19-2.587,5.777-5.778,5.777
		c-3.19,0-5.778-2.587-5.778-5.777C346.659,174.374,349.247,171.786,352.437,171.786z"/>
	<path fill="#439EE8" d="M355.326,180.453c-3.19,0-5.778-2.587-5.778-5.778c0-0.848,0.184-1.651,0.512-2.376
		c-2.005,0.906-3.401,2.922-3.401,5.266c0,3.19,2.587,5.777,5.778,5.777c2.343,0,4.359-1.396,5.266-3.401
		C356.978,180.269,356.173,180.453,355.326,180.453z"/>
	<path fill="#5CC4E0" d="M332.938,158.787c3.19,0,5.778,2.587,5.778,5.777s-2.587,5.778-5.778,5.778
		c-3.19,0-5.777-2.587-5.777-5.778S329.747,158.787,332.938,158.787z"/>
	<path fill="#439EE8" d="M335.826,167.453c-3.19,0-5.777-2.587-5.777-5.777c0-0.848,0.184-1.651,0.512-2.377
		c-2.005,0.907-3.401,2.923-3.401,5.266c0,3.19,2.587,5.778,5.778,5.778c2.343,0,4.359-1.396,5.266-3.401
		C337.478,167.269,336.674,167.453,335.826,167.453z"/>
	<path fill="#5CC4E0" d="M313.438,172.508c3.19,0,5.778,2.587,5.778,5.778s-2.587,5.777-5.778,5.777
		c-3.19,0-5.777-2.587-5.777-5.777C307.661,175.096,310.248,172.508,313.438,172.508z"/>
	<path fill="#439EE8" d="M316.327,181.175c-3.189,0-5.777-2.587-5.777-5.778c0-0.848,0.184-1.651,0.512-2.377
		c-2.005,0.907-3.401,2.923-3.401,5.266c0,3.19,2.587,5.777,5.778,5.777c2.343,0,4.359-1.396,5.266-3.401
		C317.979,180.991,317.174,181.175,316.327,181.175z"/>
	<path d="M352.437,184.695c3.933,0,7.132-3.199,7.132-7.131c0-3.933-3.2-7.132-7.132-7.132c-3.933,0-7.131,3.199-7.131,7.132
		C345.306,181.496,348.504,184.695,352.437,184.695z M352.437,173.14c2.439,0,4.424,1.984,4.424,4.424
		c0,2.439-1.985,4.423-4.424,4.423s-4.423-1.984-4.423-4.423C348.014,175.125,349.998,173.14,352.437,173.14z"/>
	<path d="M332.938,171.696c3.933,0,7.132-3.199,7.132-7.132c0-3.932-3.199-7.132-7.132-7.132c-3.932,0-7.131,3.2-7.131,7.132
		S329.005,171.696,332.938,171.696z M332.938,160.141c2.439,0,4.424,1.985,4.424,4.423c0,2.439-1.984,4.424-4.424,4.424
		c-2.438,0-4.423-1.984-4.423-4.424C328.514,162.125,330.499,160.141,332.938,160.141z"/>
	<path d="M313.438,185.418c3.933,0,7.131-3.2,7.131-7.132s-3.199-7.132-7.131-7.132c-3.932,0-7.131,3.199-7.131,7.132
		C306.307,182.218,309.506,185.418,313.438,185.418z M313.438,173.862c2.439,0,4.423,1.984,4.423,4.424
		c0,2.438-1.984,4.423-4.423,4.423c-2.438,0-4.423-1.985-4.423-4.423C309.015,175.847,311,173.862,313.438,173.862z"/>
	<path d="M334.021,219c1.251,0,2.447-0.357,3.473-1.022l2.694,2.694c-0.664,1.026-1.021,2.222-1.021,3.473
		c0,3.535,2.875,6.41,6.409,6.41c3.535,0,6.41-2.875,6.41-6.41c0-1.251-0.358-2.447-1.022-3.473l2.694-2.694
		c1.026,0.665,2.222,1.022,3.473,1.022c3.535,0,6.41-2.875,6.41-6.41c0-3.534-2.875-6.409-6.41-6.409
		c-3.534,0-6.409,2.875-6.409,6.409c0,1.251,0.357,2.447,1.021,3.473l-2.694,2.694c-1.026-0.665-2.222-1.021-3.473-1.021
		c-1.251,0-2.447,0.357-3.473,1.021l-2.694-2.694c0.665-1.026,1.022-2.222,1.022-3.473c0-3.534-2.875-6.409-6.41-6.409
		s-6.409,2.875-6.409,6.409C327.612,216.125,330.487,219,334.021,219z M357.131,208.889c2.041,0,3.702,1.66,3.702,3.701
		s-1.661,3.701-3.702,3.701c-0.989,0-1.918-0.385-2.617-1.084l0,0c-0.699-0.699-1.084-1.628-1.084-2.617
		C353.43,210.549,355.091,208.889,357.131,208.889z M348.193,221.528L348.193,221.528L348.193,221.528
		c0.699,0.699,1.084,1.628,1.084,2.618c0,2.041-1.661,3.701-3.702,3.701s-3.701-1.66-3.701-3.701c0-0.989,0.385-1.918,1.084-2.617
		l0,0l0,0c0.699-0.699,1.628-1.084,2.617-1.084S347.494,220.829,348.193,221.528z M334.021,208.889c2.041,0,3.701,1.66,3.701,3.701
		c0,0.989-0.385,1.918-1.084,2.617l0,0c-0.699,0.699-1.628,1.084-2.617,1.084c-2.041,0-3.701-1.66-3.701-3.701
		S331.98,208.889,334.021,208.889z"/>
	<path d="M361.59,192.243c0.264,0.264,0.611,0.396,0.958,0.396c0.346,0,0.693-0.132,0.958-0.396l0.939-0.939
		c0.529-0.529,0.529-1.386,0-1.915s-1.386-0.529-1.915,0l-0.939,0.939C361.062,190.857,361.062,191.714,361.59,192.243z"/>
	<path d="M366.028,189.159c0.346,0,0.693-0.132,0.958-0.396l7.353-7.353c0.528-0.529,0.528-1.386,0-1.915
		c-0.529-0.529-1.387-0.529-1.916,0l-7.353,7.353c-0.529,0.529-0.529,1.386,0,1.915
		C365.335,189.027,365.682,189.159,366.028,189.159z"/>
	<path d="M385.387,193.542h-13.08l9.588-9.588c0.938-0.938,1.455-2.184,1.455-3.51c0-1.326-0.517-2.573-1.455-3.51l-3.064-3.064
		c-1.936-1.936-5.086-1.936-7.022,0l-19.673,19.673h-21.907c-0.748,0-1.354,0.607-1.354,1.354c0,0.748,0.606,1.354,1.354,1.354
		h55.158v5.958h-79.623v-5.958h18.146c0.748,0,1.354-0.606,1.354-1.354c0-0.748-0.607-1.354-1.354-1.354h-18.146
		c-1.493,0-2.708,1.215-2.708,2.708v5.958c0,1.494,1.215,2.708,2.708,2.708h0.703c1.468,7.988,5.304,15.231,11.142,21.005
		c2.587,2.559,5.465,4.72,8.558,6.454v8.741c0,0.748,0.606,1.354,1.354,1.354h36.11c0.748,0,1.354-0.606,1.354-1.354v-8.741
		c3.093-1.733,5.971-3.895,8.558-6.454c5.838-5.774,9.674-13.017,11.142-21.005h0.702c1.493,0,2.708-1.215,2.708-2.708v-5.959
		C388.096,194.757,386.88,193.542,385.387,193.542z M373.725,175.784c0.88-0.88,2.312-0.88,3.192,0l3.064,3.064
		c0.426,0.426,0.661,0.993,0.661,1.595c0,0.603-0.234,1.169-0.661,1.596l-11.503,11.503h-12.511L373.725,175.784z M362.277,239.763
		h-33.402v-6.004c5.17,2.394,10.841,3.657,16.701,3.657c5.86,0,11.531-1.263,16.701-3.657V239.763z M371.639,223.997
		c-6.983,6.908-16.239,10.711-26.062,10.711c-9.823,0-19.079-3.803-26.063-10.711c-5.321-5.263-8.858-11.832-10.29-19.079h72.707
		C380.497,212.165,376.96,218.734,371.639,223.997z"/>
	<g>
	</g>
	<g>
	</g>
	<g>
	</g>
	<g>
	</g>
	<g>
	</g>
	<g>
	</g>
	<g>
	</g>
	<g>
	</g>
	<g>
	</g>
	<g>
	</g>
	<g>
	</g>
	<g>
	</g>
	<g>
	</g>
	<g>
	</g>
	<g>
	</g>
</g>
<g>
	<path fill="#E0DDDF" d="M125.618,159.973v59.51c0,2.917,2.364,5.282,5.282,5.282h7.746c2.917,0,5.282-2.364,5.282-5.282v-59.51
		H125.618z"/>
	<path fill="#9FD25A" d="M125.618,179.692v39.78c0,2.923,2.364,5.292,5.282,5.292h7.746c2.917,0,5.282-2.369,5.282-5.292v-39.78
		H125.618z"/>
	<rect x="125.618" y="159.973" fill="#C1BCBF" width="4.226" height="19.719"/>
	<path fill="#6EAD32" d="M129.843,219.483v-39.791h-4.226v39.791c0,2.917,2.364,5.282,5.282,5.282h4.225
		C132.208,224.765,129.843,222.4,129.843,219.483z"/>
	<path fill="#E0DDDF" d="M159.422,159.973v59.51c0,2.917,2.363,5.282,5.281,5.282h7.747c2.917,0,5.281-2.364,5.281-5.282v-59.51
		H159.422z"/>
	<path fill="#5CC4E0" d="M159.422,174.763v44.72c0,2.917,2.363,5.282,5.281,5.282h7.747c2.917,0,5.281-2.365,5.281-5.282v-44.72
		H159.422z"/>
	<path fill="#439EE8" d="M163.647,219.483v-44.72h-4.225v44.72c0,2.917,2.363,5.282,5.281,5.282h4.226
		C166.012,224.765,163.647,222.4,163.647,219.483z"/>
	<rect x="159.422" y="159.973" fill="#C1BCBF" width="4.226" height="14.79"/>
	<g>
		<circle fill="#439EE8" cx="166.201" cy="177.139" r="1.849"/>
		<circle fill="#439EE8" cx="166.376" cy="188.935" r="1.849"/>
	</g>
	<circle fill="#5CC4E0" cx="168.313" cy="170.801" r="1.849"/>
	<circle fill="#439EE8" cx="173.859" cy="183.741" r="2.465"/>
	<circle fill="#5CC4E0" cx="170.602" cy="165.519" r="1.497"/>
	<circle fill="#439EE8" cx="168.313" cy="183.829" r="1.496"/>
	<path fill="#E0DDDF" d="M179.333,192.369c4.386,0,8.047,3.148,8.703,7.484l4.909,32.396c0.385,2.539-0.354,5.111-2.028,7.059
		c-1.675,1.947-4.107,3.063-6.675,3.063h-65.314c-2.567,0-5-1.116-6.675-3.063s-2.414-4.52-2.028-7.059l4.907-32.396
		c0.658-4.336,4.318-7.484,8.704-7.484H179.333z M186.11,235.176c0.468-0.546,0.676-1.266,0.568-1.978l-4.908-32.396
		c-0.188-1.234-1.188-2.095-2.438-2.095h-55.497c-1.248,0-2.25,0.861-2.437,2.095l-4.908,32.396
		c-0.108,0.711,0.098,1.432,0.568,1.978c0.468,0.544,1.149,0.857,1.867,0.857h65.315C184.96,236.033,185.641,235.72,186.11,235.176z
		"/>
	<rect x="149.621" y="192.368" fill="#F9F8F9" width="5.751" height="6.338"/>
	<circle fill="#9FD25A" cx="132.924" cy="179.604" r="2.553"/>
	<g>
		<path fill="#6EAD32" d="M130.375,179.692c0.047,1.369,1.168,2.465,2.548,2.465c1.381,0,2.502-1.096,2.549-2.465H130.375z"/>
		<circle fill="#6EAD32" cx="139.439" cy="183.829" r="2.553"/>
	</g>
	<g>
		<circle fill="#9FD25A" cx="132.749" cy="169.392" r="2.025"/>
		<circle fill="#9FD25A" cx="140.055" cy="171.946" r="1.408"/>
	</g>
	<circle fill="#6EAD32" cx="133.981" cy="188.055" r="2.025"/>
	<path d="M194.25,232.051l-2.648-17.446c-0.109-0.721-0.783-1.217-1.504-1.107s-1.217,0.783-1.107,1.504l2.649,17.446
		c0.327,2.158-0.301,4.344-1.725,6c-1.423,1.654-3.49,2.604-5.673,2.604h-65.314c-2.183,0-4.251-0.949-5.674-2.604
		c-1.423-1.656-2.051-3.842-1.724-6l4.906-32.396c0.561-3.687,3.672-6.362,7.399-6.362h55.497c3.729,0,6.84,2.676,7.397,6.362l0,0
		l0.929,6.127c0.099,0.654,0.661,1.123,1.304,1.123c0.065,0,0.132-0.005,0.199-0.015c0.721-0.109,1.217-0.782,1.107-1.503
		l-0.928-6.126c0,0,0-0.001,0-0.001c-0.756-4.987-4.965-8.606-10.009-8.606h-0.279v-29.755h2.904c0.729,0,1.321-0.591,1.321-1.32
		c0-0.729-0.592-1.321-1.321-1.321h-26.762c-0.729,0-1.32,0.591-1.32,1.321c0,0.729,0.592,1.32,1.32,1.32h2.905v29.755h-12.853
		v-29.755h2.904c0.729,0,1.321-0.591,1.321-1.32c0-0.729-0.592-1.321-1.321-1.321h-26.762c-0.729,0-1.32,0.591-1.32,1.321
		c0,0.729,0.592,1.32,1.32,1.32h2.905v29.755h-0.461c-5.043,0-9.253,3.62-10.01,8.607l-4.907,32.396
		c-0.443,2.919,0.407,5.878,2.333,8.118c1.925,2.239,4.723,3.523,7.676,3.523h65.314c2.953,0,5.75-1.284,7.676-3.523
		C193.843,237.929,194.693,234.971,194.25,232.051z M176.412,161.293v29.755h-15.67v-3.697h3.89c0.729,0,1.32-0.591,1.32-1.32
		s-0.591-1.321-1.32-1.321h-3.89v-23.417C160.743,161.293,176.412,161.293,176.412,161.293z M142.608,161.293v29.755h-15.67v-3.697
		h3.889c0.729,0,1.32-0.591,1.32-1.32s-0.591-1.321-1.32-1.321h-3.889v-23.417H142.608z"/>
	<path d="M117.796,233.39c0-0.002,0.001-0.003,0.001-0.005c0.314-2.202,0.67-4.697,1.067-7.045c0.122-0.72-0.362-1.401-1.081-1.522
		c-0.72-0.123-1.401,0.363-1.522,1.082c-0.403,2.382-0.762,4.896-1.078,7.114c0,0.002,0,0.004,0,0.006
		c-0.16,1.087,0.158,2.187,0.875,3.018c0.72,0.837,1.766,1.317,2.869,1.317h65.314c1.103,0,2.148-0.48,2.87-1.318
		c0.719-0.838,1.037-1.944,0.872-3.035l-4.909-32.395c-0.282-1.865-1.855-3.219-3.742-3.219h-55.497
		c-1.887,0-3.46,1.354-3.742,3.219c0,0,0,0.001,0,0.001c0,0.001-0.001,0.002-0.001,0.002l-0.886,6.004
		c-0.591,3.998-1.181,7.997-1.777,12.017c-0.107,0.721,0.391,1.393,1.111,1.5c0.066,0.009,0.132,0.014,0.196,0.014
		c0.644,0,1.207-0.471,1.305-1.126c0.597-4.02,1.188-8.02,1.777-12.019l0.886-5.998c0.09-0.591,0.533-0.972,1.131-0.972h0.461
		v19.456c0,3.641,2.962,6.603,6.604,6.603h7.746c3.641,0,6.603-2.962,6.603-6.603v-19.455h12.853v19.455
		c0,3.641,2.962,6.603,6.603,6.603h7.747c3.641,0,6.603-2.961,6.603-6.603v-19.455h0.279c0.599,0,1.042,0.382,1.132,0.973
		l4.908,32.395c0.05,0.331-0.047,0.666-0.264,0.918c-0.218,0.253-0.534,0.398-0.867,0.398h-65.314c-0.333,0-0.649-0.145-0.868-0.399
		c-0.217-0.252-0.313-0.587-0.263-0.918C117.796,233.394,117.796,233.392,117.796,233.39z M138.646,223.444H130.9
		c-2.186,0-3.962-1.777-3.962-3.961v-6.778h3.889c0.729,0,1.32-0.591,1.32-1.32s-0.591-1.321-1.32-1.321h-3.889v-3.697h3.889
		c0.729,0,1.32-0.591,1.32-1.32s-0.591-1.321-1.32-1.321h-3.889v-3.697h15.67v19.455
		C142.608,221.667,140.831,223.444,138.646,223.444z M172.451,223.444h-7.747c-2.185,0-3.961-1.777-3.961-3.961v-6.778h3.889
		c0.729,0,1.32-0.591,1.32-1.32s-0.591-1.321-1.32-1.321h-3.889v-3.697h3.889c0.729,0,1.32-0.591,1.32-1.32s-0.591-1.321-1.32-1.321
		h-3.889v-3.697h15.67v19.455C176.412,221.667,174.635,223.444,172.451,223.444z"/>
	<g>
	</g>
	<g>
	</g>
	<g>
	</g>
	<g>
	</g>
	<g>
	</g>
	<g>
	</g>
	<g>
	</g>
	<g>
	</g>
	<g>
	</g>
	<g>
	</g>
	<g>
	</g>
	<g>
	</g>
	<g>
	</g>
	<g>
	</g>
	<g>
	</g>
</g>
<g>
	<path fill="#E0DDDF" d="M566.384,207.595V182.47h-5.013h-5.013v25.125c-2.945,0.94-5.528,2.685-7.492,4.977
		c-2.473,2.881-3.966,6.624-3.966,10.717c0,9.097,7.373,16.471,16.471,16.471s16.471-7.374,16.471-16.471
		c0-4.039-1.454-7.739-3.869-10.604C571.998,210.338,569.377,208.549,566.384,207.595z"/>
	<path fill="#5CC4E0" d="M563.877,239.57c-0.182,0.028-0.365,0.051-0.549,0.073c8.174-0.968,14.514-7.92,14.514-16.354
		c0-4.039-1.455-7.742-3.87-10.607l-20.112-0.087c-2.461,2.877-3.946,6.612-3.946,10.694
		C549.913,231.533,555.97,238.363,563.877,239.57z"/>
	<path fill="#C1BCBF" d="M553.879,212.572c0.024-0.028,0.05-0.056,0.075-0.084c1.954-2.25,4.509-3.964,7.417-4.892V182.47h-5.013
		v25.125c-2.908,0.928-5.463,2.643-7.418,4.892c-0.024,0.029-0.05,0.056-0.074,0.084l4.993,0.023
		C553.866,212.588,553.872,212.58,553.879,212.572z"/>
	<path fill="#439EE8" d="M563.877,239.57c-7.907-1.207-13.964-8.037-13.964-16.281c0-4.082,1.485-7.816,3.946-10.694l-4.993-0.023
		c-2.473,2.881-3.966,6.624-3.966,10.717c0,9.097,7.373,16.471,16.471,16.471c0.234,0,0.471-0.006,0.706-0.016
		C562.453,239.728,563.531,239.62,563.877,239.57z"/>
	<polygon fill="#E0DDDF" points="617.626,218.086 612.932,208.25 612.932,182.47 607.919,182.47 602.905,182.47 602.905,208.25 
		598.096,218.326 587.867,239.759 627.97,239.759 	"/>
	<polygon fill="#C1BCBF" points="607.919,208.25 607.919,182.47 602.905,182.47 602.905,208.25 598.121,218.276 603.135,218.276 	
		"/>
	<polygon fill="#FF675C" points="627.97,239.759 587.867,239.759 598.096,218.326 617.716,218.276 	"/>
	<polygon fill="#DB3D5A" points="598.121,218.276 598.096,218.326 587.867,239.759 592.881,239.759 603.11,218.326 603.135,218.276 
			"/>
	<g>
		<circle fill="#439EE8" cx="560.297" cy="217.918" r="2.507"/>
		<circle fill="#439EE8" cx="559.223" cy="231.166" r="2.148"/>
		<circle fill="#439EE8" cx="563.877" cy="225.079" r="1.791"/>
		<circle fill="#439EE8" cx="554.21" cy="226.153" r="2.148"/>
	</g>
	<g>
		<circle fill="#DB3D5A" cx="605.412" cy="225.079" r="1.791"/>
		<circle fill="#DB3D5A" cx="611.856" cy="233.673" r="2.507"/>
		<circle fill="#DB3D5A" cx="602.189" cy="234.747" r="2.148"/>
	</g>
	<path d="M571.683,215.359c-0.632,0.389-0.829,1.215-0.44,1.847c2.176,3.539,2.282,8.234,0.264,11.686
		c-0.375,0.64-0.158,1.462,0.481,1.837c0.213,0.125,0.446,0.184,0.675,0.184c0.463,0,0.912-0.238,1.162-0.665
		c2.543-4.351,2.428-10.022-0.295-14.449C573.142,215.167,572.314,214.97,571.683,215.359z"/>
	<path d="M569.193,231.816c-0.319,0.279-0.662,0.542-1.02,0.781c-0.617,0.412-0.783,1.246-0.373,1.862
		c0.261,0.388,0.686,0.598,1.119,0.598c0.258,0,0.516-0.073,0.744-0.227c0.455-0.303,0.891-0.637,1.298-0.994
		c0.56-0.488,0.614-1.336,0.126-1.895C570.6,231.384,569.752,231.328,569.193,231.816z"/>
	<path d="M616.862,227.5c0.961,2.094,1.965,4.206,2.935,6.249c0.439,0.924,0.879,1.849,1.315,2.774
		c0.229,0.485,0.712,0.771,1.215,0.771c0.192,0,0.388-0.042,0.572-0.129c0.671-0.317,0.958-1.116,0.642-1.787
		c-0.438-0.928-0.878-1.855-1.318-2.781c-0.966-2.034-1.966-4.138-2.92-6.216c-0.309-0.674-1.105-0.97-1.78-0.661
		S616.553,226.826,616.862,227.5z"/>
	<path d="M615.053,220.28c-0.674,0.312-0.967,1.111-0.654,1.783l0.477,1.029c0.228,0.49,0.712,0.778,1.22,0.778
		c0.188,0,0.381-0.041,0.563-0.125c0.673-0.312,0.966-1.11,0.654-1.783l-0.478-1.028
		C616.523,220.261,615.725,219.968,615.053,220.28z"/>
	<path d="M629.181,239.181l-14.906-31.235v-8.827c0-0.741-0.602-1.343-1.343-1.343c-0.743,0-1.343,0.601-1.343,1.343v9.13
		c0,0.2,0.042,0.398,0.13,0.579l14.122,29.588h-35.845l14.121-29.588c0.086-0.181,0.131-0.378,0.131-0.579v-24.437h7.34v9.398
		c0,0.743,0.601,1.343,1.344,1.343c0.741,0,1.342-0.601,1.342-1.343v-9.398h2.238c0.742,0,1.343-0.601,1.343-1.343
		s-0.601-1.343-1.343-1.343h-7.251v-23.721c0-0.742-0.601-1.343-1.342-1.343h-10.742c-1.864,0-2.356,2.252-2.878,4.637
		c-0.07,0.324-0.16,0.726-0.256,1.125c-0.097-0.399-0.185-0.803-0.256-1.128c-0.521-2.383-1.015-4.635-2.878-4.635
		c-1.865,0-2.356,2.252-2.879,4.637c-0.071,0.323-0.158,0.725-0.255,1.123c-0.096-0.398-0.184-0.8-0.255-1.123
		c-0.521-2.385-1.014-4.637-2.878-4.637s-2.356,2.252-2.878,4.637c-0.071,0.323-0.159,0.725-0.255,1.123
		c-0.096-0.398-0.184-0.799-0.255-1.123c-0.521-2.385-1.014-4.637-2.878-4.637c-1.863,0-2.355,2.251-2.877,4.635
		c-0.07,0.324-0.158,0.726-0.256,1.124c-0.095-0.397-0.183-0.799-0.253-1.123c-0.522-2.385-1.015-4.637-2.879-4.637h-10.741
		c-0.742,0-1.343,0.601-1.343,1.343v23.721h-7.967c-0.741,0-1.343,0.602-1.343,1.343c0,0.742,0.602,1.343,1.343,1.343h2.954v9.041
		c0,0.742,0.601,1.343,1.343,1.343c0.741,0,1.343-0.601,1.343-1.343v-9.041h7.34v23.782c0,0.585,0.378,1.102,0.936,1.279
		c2.714,0.865,5.303,2.482,7.148,4.676c2.291,2.717,3.374,6.176,3.374,9.738c0,8.342-6.786,15.128-15.128,15.128
		s-15.128-6.787-15.128-15.128c0-3.611,1.293-7.106,3.642-9.843c1.832-2.139,4.213-3.72,6.882-4.572
		c0.557-0.177,0.935-0.695,0.935-1.279v-9.191c0-0.742-0.601-1.343-1.343-1.343c-0.741,0-1.343,0.601-1.343,1.343v8.239
		c-2.764,1.056-5.228,2.79-7.168,5.055c-2.767,3.223-4.29,7.339-4.29,11.591c0,9.823,7.991,17.813,17.813,17.813
		s17.813-7.991,17.813-17.813c0-4.195-1.486-8.268-4.185-11.468c-1.958-2.327-4.457-4.103-7.273-5.177v-22.83h2.954
		c0.741,0,1.343-0.601,1.343-1.343s-0.602-1.343-1.343-1.343h-7.967v-22.378h8.979c0.241,0.541,0.507,1.755,0.675,2.525
		c0.521,2.384,1.015,4.636,2.879,4.636s2.356-2.253,2.879-4.638c0.07-0.322,0.157-0.723,0.254-1.119
		c0.096,0.396,0.183,0.797,0.253,1.12c0.521,2.384,1.015,4.636,2.878,4.636c1.864,0,2.357-2.252,2.879-4.636
		c0.071-0.323,0.158-0.726,0.256-1.123c0.095,0.397,0.183,0.799,0.253,1.123c0.522,2.384,1.015,4.636,2.879,4.636
		s2.356-2.252,2.878-4.636c0.071-0.323,0.159-0.726,0.256-1.123c0.096,0.397,0.184,0.799,0.254,1.122
		c0.522,2.385,1.016,4.638,2.88,4.638s2.356-2.252,2.88-4.636c0.167-0.77,0.433-1.984,0.674-2.525h8.979v22.378h-7.25
		c-0.742,0-1.344,0.602-1.344,1.343c0,0.742,0.602,1.343,1.344,1.343h2.237v24.134l-14.908,31.235
		c-0.197,0.416-0.169,0.905,0.077,1.294s0.675,0.626,1.137,0.626h40.101c0.461,0,0.89-0.237,1.136-0.626
		C629.352,240.086,629.38,239.597,629.181,239.181z"/>
	<g>
	</g>
	<g>
	</g>
	<g>
	</g>
	<g>
	</g>
	<g>
	</g>
	<g>
	</g>
	<g>
	</g>
	<g>
	</g>
	<g>
	</g>
	<g>
	</g>
	<g>
	</g>
	<g>
	</g>
	<g>
	</g>
	<g>
	</g>
	<g>
	</g>
</g>
<g id="tabla">
	<path fill="#FCFCFC" stroke="#000000" stroke-width="6" stroke-linecap="round" stroke-miterlimit="10" d="M838.5,261.421
		c-147.316,0-776.589,0-776.589,0c-2.716,0-4.911-0.447-4.911-1v-17.297c0-0.553,2.195-1,4.911-1H869.09c2.707,0,4.91,0.447,4.91,1
		v17.297c0,0.553-2.203,1-4.91,1c0,0-4.773,0-13.586,0"/>
	<rect x="65" y="245.559" fill="#E7E7E7" width="805.666" height="10.199"/>
</g>
<g>
	<path fill="#5CC4E0" d="M257.355,155.134c2.995,0,5.421,2.426,5.421,5.421c0,2.993-2.426,5.421-5.421,5.421
		c-2.994,0-5.421-2.428-5.421-5.421C251.934,157.56,254.361,155.134,257.355,155.134z"/>
	<path fill="#439EE8" d="M259.638,163.694c-2.994,0-5.421-2.428-5.421-5.421c0-0.911,0.226-1.767,0.621-2.519
		c-1.726,0.908-2.904,2.716-2.904,4.802c0,2.993,2.427,5.421,5.421,5.421c2.084,0,3.894-1.178,4.801-2.904
		C261.404,163.469,260.547,163.694,259.638,163.694z"/>
	<path fill="#FAEC8E" d="M281.323,164.834c2.364,0,4.28,1.916,4.28,4.281c0,2.364-1.916,4.28-4.28,4.28
		c-2.364,0-4.28-1.916-4.28-4.28c0-1.624,0.905-3.037,2.237-3.76C279.887,165.024,280.583,164.834,281.323,164.834z"/>
	<path fill="#FBC96C" d="M283.32,171.398c-2.364,0-4.28-1.917-4.28-4.281c0-0.665,0.154-1.296,0.426-1.858
		c-0.063,0.031-0.125,0.061-0.187,0.096c-1.333,0.724-2.237,2.136-2.237,3.76c0,2.364,1.916,4.28,4.28,4.28
		c1.698,0,3.165-0.988,3.856-2.422C284.618,171.245,283.987,171.398,283.32,171.398z"/>
	<circle fill="#FF675C" cx="283.892" cy="147.145" r="5.707"/>
	<path fill="#DB3D5A" d="M286.245,150.498c-3.151,0-5.707-2.556-5.707-5.708c0-0.969,0.243-1.883,0.669-2.682
		c-1.799,0.959-3.024,2.855-3.024,5.036c0,3.151,2.556,5.708,5.708,5.708c2.181,0,4.076-1.226,5.036-3.024
		C288.128,150.254,287.215,150.498,286.245,150.498z"/>
	<path fill="#5CC4E0" d="M284.177,104.916c2.995,0,5.421,2.427,5.421,5.421c0,2.995-2.427,5.422-5.421,5.422
		c-2.995,0-5.421-2.427-5.421-5.422C278.755,107.343,281.182,104.916,284.177,104.916z"/>
	<path fill="#439EE8" d="M286.602,113.333c-2.995,0-5.421-2.427-5.421-5.421c0-0.872,0.207-1.695,0.572-2.424
		c-1.777,0.89-2.998,2.726-2.998,4.849c0,2.995,2.427,5.422,5.422,5.422c2.123,0,3.958-1.221,4.849-2.998
		C288.296,113.126,287.474,113.333,286.602,113.333z"/>
	<circle fill="#FAEC8E" cx="233.673" cy="115.188" r="5.136"/>
	<path fill="#FBC96C" d="M235.956,118.041c-2.836,0-5.135-2.299-5.135-5.136c0-0.83,0.198-1.612,0.547-2.306
		c-1.678,0.845-2.83,2.582-2.83,4.589c0,2.836,2.299,5.136,5.136,5.136c2.007,0,3.744-1.152,4.588-2.83
		C237.568,117.843,236.785,118.041,235.956,118.041z"/>
	<path fill="#FF675C" d="M256.5,107.199c1.89,0,3.424,1.533,3.424,3.424c0,1.89-1.534,3.424-3.424,3.424s-3.423-1.534-3.423-3.424
		C253.076,108.732,254.609,107.199,256.5,107.199z"/>
	<path fill="#DB3D5A" d="M258.782,112.334c-1.89,0-3.423-1.534-3.423-3.424c0-0.592,0.15-1.148,0.415-1.634
		c-1.542,0.333-2.697,1.705-2.697,3.346c0,1.89,1.533,3.424,3.423,3.424c1.3,0,2.429-0.724,3.01-1.79
		C259.275,112.308,259.033,112.334,258.782,112.334z"/>
	<circle fill="#5CC4E0" cx="227.681" cy="137.729" r="4.851"/>
	<path fill="#439EE8" d="M229.964,140.296c-2.679,0-4.852-2.172-4.852-4.85c0-0.75,0.171-1.46,0.476-2.095
		c-1.631,0.782-2.758,2.448-2.758,4.377c0,2.678,2.172,4.85,4.852,4.85c1.93,0,3.595-1.126,4.376-2.757
		C231.424,140.126,230.715,140.296,229.964,140.296z"/>
	<path fill="#FF675C" d="M229.146,159.375c3.94,0,7.134,3.194,7.134,7.134c0,3.938-3.194,7.134-7.134,7.134
		c-3.938,0-7.134-3.196-7.134-7.134C222.012,162.568,225.208,159.375,229.146,159.375z"/>
	<path fill="#DB3D5A" d="M232.247,171.112c-3.938,0-7.134-3.194-7.134-7.134c0-1.502,0.465-2.895,1.258-4.042
		c-2.56,1.083-4.358,3.617-4.358,6.573c0,3.938,3.196,7.134,7.134,7.134c2.438,0,4.589-1.225,5.876-3.09
		C234.169,170.912,233.23,171.112,232.247,171.112z"/>
	<circle fill="#A19AA0" cx="255.929" cy="138.584" r="7.989"/>
	<path fill="#827980" d="M258.782,144.861c-4.412,0-7.988-3.576-7.988-7.988c0-2.309,0.98-4.388,2.545-5.846
		c-3.141,1.076-5.399,4.052-5.399,7.557c0,4.412,3.577,7.989,7.989,7.989c2.104,0,4.017-0.813,5.443-2.143
		C260.56,144.709,259.689,144.861,258.782,144.861z"/>
	<path fill="#F9F8F9" d="M259.924,136.874c0-1.577-1.277-2.854-2.854-2.854s-2.854,1.277-2.854,2.854
		c0,1.576,1.277,2.852,2.854,2.852S259.924,138.45,259.924,136.874z"/>
	<circle fill="#FFFFFF" cx="234.529" cy="113.761" r="1.427"/>
	<circle fill="#BEE7F3" cx="228.538" cy="136.302" r="1.141"/>
	<circle fill="#FFC2BE" cx="257.07" cy="110.052" r="1.141"/>
	<circle fill="#BEE7F3" cx="285.318" cy="108.625" r="1.427"/>
	<circle fill="#FFC2BE" cx="284.747" cy="145.718" r="1.427"/>
	<circle fill="#BEE7F3" cx="258.782" cy="159.128" r="1.141"/>
	<circle fill="#FFFFFF" cx="282.179" cy="168.259" r="1.141"/>
	<circle fill="#FFC2BE" cx="230.82" cy="164.835" r="1.713"/>
	<path d="M270.312,125.843c0.273,0,0.548-0.104,0.757-0.313l9.682-9.683c0.995,0.621,2.169,0.981,3.426,0.981
		c3.579,0,6.491-2.912,6.491-6.492c0-3.579-2.912-6.491-6.491-6.491c-3.58,0-6.492,2.913-6.492,6.491
		c0,1.55,0.547,2.975,1.457,4.092l-9.587,9.587c-0.418,0.418-0.418,1.095,0,1.513C269.764,125.739,270.037,125.843,270.312,125.843z
		 M284.177,105.985c2.399,0,4.351,1.953,4.351,4.352c0,2.399-1.952,4.352-4.351,4.352c-2.4,0-4.352-1.952-4.352-4.352
		C279.825,107.938,281.777,105.985,284.177,105.985z"/>
	<path d="M283.892,140.368c-2.857,0-5.305,1.778-6.3,4.284l-12.728-4.582c0.08-0.484,0.125-0.98,0.125-1.486
		c0-1.967-0.633-3.787-1.702-5.275l4.534-4.534c0.417-0.418,0.417-1.095,0-1.513c-0.418-0.418-1.096-0.418-1.513,0l-4.467,4.466
		c-1.325-1.144-2.982-1.911-4.807-2.134l0.503-14.602c1.979-0.469,3.457-2.25,3.457-4.371c0-2.478-2.017-4.494-4.494-4.494
		c-2.478,0-4.494,2.017-4.494,4.494c0,2.098,1.445,3.864,3.391,4.357l-0.503,14.607c-1.718,0.196-3.291,0.875-4.58,1.897
		l-12.341-11.827c1.174-1.13,1.907-2.714,1.907-4.468c0-3.422-2.784-6.207-6.207-6.207c-3.422,0-6.206,2.784-6.206,6.207
		c0,3.421,2.783,6.206,6.205,6.206c0.881,0,1.718-0.187,2.479-0.518L248.804,133c-1.11,1.413-1.81,3.161-1.917,5.066
		c-1.048-0.04-5.053-0.149-6.014-0.183c-0.595-0.022-1.086,0.44-1.107,1.031c-0.021,0.59,0.44,1.086,1.031,1.108
		c0.968,0.035,5.115,0.148,6.223,0.19c0.32,1.756,1.147,3.338,2.325,4.585l-15.208,15.208c-1.383-1.065-3.114-1.7-4.99-1.7
		c-4.523,0-8.203,3.681-8.203,8.204s3.68,8.203,8.203,8.203s8.204-3.68,8.204-8.203c0-1.876-0.635-3.607-1.7-4.991l15.342-15.342
		c1.157,0.753,2.493,1.251,3.931,1.411l0.453,6.787c-2.614,0.838-4.511,3.292-4.511,6.182c0,3.579,2.911,6.491,6.49,6.491
		c3.58,0,6.491-2.912,6.491-6.491c0-3.531-2.833-6.41-6.346-6.488l-0.433-6.498c1.372-0.172,2.649-0.653,3.759-1.37
		c1.062,1.183,2.052,2.299,3.142,3.541c0.411,0.467,1.156,0.479,1.583,0.026c0.375-0.396,0.384-1.03,0.025-1.439
		c-1.076-1.225-2.055-2.329-3.1-3.494c0.747-0.782,1.356-1.696,1.787-2.705l12.861,4.631c-0.007,0.127-0.011,0.255-0.011,0.384
		c0,3.737,3.04,6.777,6.776,6.777c3.736,0,6.776-3.04,6.776-6.777C290.667,143.408,287.627,140.368,283.892,140.368z
		 M229.607,115.188c0-2.242,1.825-4.066,4.066-4.066c2.242,0,4.066,1.824,4.066,4.066c0,2.242-1.824,4.065-4.066,4.065
		C231.432,119.253,229.607,117.43,229.607,115.188z M254.146,110.623c0-1.298,1.056-2.354,2.354-2.354
		c1.299,0,2.354,1.057,2.354,2.354s-1.056,2.354-2.354,2.354C255.202,112.977,254.146,111.92,254.146,110.623z M229.146,172.571
		c-3.343,0-6.062-2.719-6.062-6.062c0-3.343,2.72-6.062,6.062-6.062c3.343,0,6.062,2.72,6.062,6.062
		C235.209,169.852,232.49,172.571,229.146,172.571z M261.707,160.556c0,2.398-1.952,4.35-4.351,4.35s-4.351-1.952-4.351-4.35
		c0-2.4,1.952-4.353,4.351-4.353S261.707,158.155,261.707,160.556z M255.929,145.504c-3.815,0-6.919-3.104-6.919-6.92
		s3.104-6.919,6.919-6.919c3.815,0,6.918,3.104,6.918,6.919S259.744,145.504,255.929,145.504z M283.892,151.781
		c-2.557,0-4.637-2.08-4.637-4.637c0-2.556,2.08-4.637,4.637-4.637c2.557,0,4.636,2.081,4.636,4.637
		C288.528,149.702,286.448,151.781,283.892,151.781z"/>
	<path d="M281.323,163.766c-0.603,0-1.2,0.104-1.766,0.301c-0.674-0.744-1.348-1.487-2.021-2.232
		c-2.715-3.002-5.905-6.554-8.985-10.138c-0.386-0.449-1.062-0.5-1.509-0.113c-0.448,0.384-0.499,1.061-0.113,1.508
		c3.095,3.601,6.297,7.166,9.02,10.177c0.579,0.642,1.16,1.281,1.74,1.923c-1.079,0.999-1.716,2.412-1.716,3.923
		c0,2.95,2.399,5.349,5.35,5.349s5.35-2.399,5.35-5.349C286.673,166.164,284.273,163.766,281.323,163.766z M281.323,172.326
		c-1.77,0-3.21-1.44-3.21-3.21c0-1.177,0.644-2.258,1.678-2.82c0,0,0.001,0,0.001,0c0.465-0.255,0.995-0.39,1.53-0.39
		c1.77,0,3.21,1.44,3.21,3.21C284.533,170.885,283.093,172.326,281.323,172.326z"/>
	<path d="M227.681,143.65c2.581,0,4.779-1.66,5.587-3.966l3.203,0.123c0.014,0,0.028,0.001,0.042,0.001
		c0.572,0,1.046-0.453,1.068-1.029c0.022-0.591-0.437-1.087-1.028-1.11l-2.956-0.114c-0.091-3.184-2.71-5.747-5.916-5.747
		c-3.265,0-5.921,2.655-5.921,5.92C221.76,140.993,224.417,143.65,227.681,143.65z M227.681,133.948c2.084,0,3.78,1.696,3.78,3.781
		c0,2.084-1.696,3.78-3.78,3.78c-2.084,0-3.78-1.696-3.78-3.78C223.901,135.644,225.597,133.948,227.681,133.948z"/>
	<path d="M257.07,132.949c-2.163,0-3.923,1.761-3.923,3.924c0,2.163,1.76,3.923,3.923,3.923s3.923-1.76,3.923-3.923
		C260.993,134.709,259.233,132.949,257.07,132.949z M257.07,138.657c-0.983,0-1.783-0.801-1.783-1.783
		c0-0.984,0.8-1.784,1.783-1.784c0.984,0,1.783,0.8,1.783,1.784C258.854,137.855,258.054,138.657,257.07,138.657z"/>
	<g>
	</g>
	<g>
	</g>
	<g>
	</g>
	<g>
	</g>
	<g>
	</g>
	<g>
	</g>
	<g>
	</g>
	<g>
	</g>
	<g>
	</g>
	<g>
	</g>
	<g>
	</g>
	<g>
	</g>
	<g>
	</g>
	<g>
	</g>
	<g>
	</g>
</g>
</svg>
