<svg id="Layer_1" xmlns:rdf="http://www.w3.org/1999/02/22-rdf-syntax-ns#" xmlns="http://www.w3.org/2000/svg" xml:space="preserve" viewBox="0 0 260 260" height="260" width="260" version="1.1" y="0px" x="0px" xmlns:cc="http://creativecommons.org/ns#" xmlns:xlink="http://www.w3.org/1999/xlink" xmlns:dc="http://purl.org/dc/elements/1.1/"><defs><rect id="SVGID_1_" y="45.7" width="35" x="28.2" height="24"/></defs><style id="style3" type="text/css">
	.st0{fill:none;stroke:#E5E5E5;stroke-linecap:round;stroke-linejoin:round;stroke-miterlimit:10;stroke-dasharray:3,5;}
	.st1{fill:#FFFFFF;stroke:#333333;stroke-linecap:round;stroke-linejoin:round;stroke-miterlimit:10;}
	.st2{clip-path:url(#SVGID_2_);}
	.st3{fill:#F4F4F4;}
	.st4{fill:#333333;}
	.st5{fill:#EF4C3E;}
	.st6{fill:#BFBFBF;}
	.st7{fill:#F4F4F4;stroke:#333333;stroke-linecap:round;stroke-linejoin:round;stroke-miterlimit:10;}
	.st8{fill:#46A3E2;}
	.st9{fill:#FFFFFF;}
	.st10{fill:none;stroke:#BFBFBF;stroke-width:2;stroke-linecap:round;stroke-linejoin:round;stroke-miterlimit:10;}
</style><g id="g4317" transform="matrix(3.4113 0 0 3.4113 .39649 .73761)"><g stroke-linejoin="round" stroke="#e5e5e5" stroke-linecap="round" stroke-dasharray="3, 5" stroke-miterlimit="10" fill="none"><line id="line5" y2="40.9" class="st0" y1="26.9" x2="41.6" x1="41.6"/><line id="line7" y2="32.4" class="st0" y1="32.4" x2="42.7" x1="54.7"/><line id="line9" y2="20.8" class="st0" y1="20.8" x2="8.5" x1="27.5"/><line id="line11" y2="30.1" class="st0" y1="25.1" x2="18.1" x1="18.1"/></g><rect id="rect13" stroke-linejoin="round" width="37.7" stroke="#333" stroke-linecap="round" stroke-miterlimit="10" y="44.2" x="27" height="22.3" class="st1" fill="#fff"/><g id="g15"><clipPath id="SVGID_2_"><use id="use21" xlink:href="#SVGID_1_" height="100%" width="100%" y="0" x="0"/></clipPath><g id="g23" class="st2" clip-path="url(#SVGID_2_)"><path id="path25" class="st3" fill="#f4f4f4" d="m37.4 73.1v-4.6-0.5c0.2-1.9 1.5-3.6 3.4-4.4l3.2-1.3h4.2l3.5 1.3c2 0.7 3.3 2.4 3.5 4.4v0.5 4.6h-17.8z"/><g id="g27"><path id="path29" class="st4" fill="#333" d="m48.2 62.9 3.4 1.3c1.8 0.7 3 2.2 3.2 3.9v0.4 4.1h-16.9v-4.1-0.4c0.1-1.7 1.4-3.2 3.1-3.9l3.2-1.3h4m0.2-1h-4.4l-3.3 1.3c-2 0.8-3.5 2.6-3.7 4.8v0.5 5.1h18.9v-5.1-0.5c-0.2-2.2-1.7-4-3.8-4.8l-3.7-1.3z"/></g></g><g id="g31" class="st2" clip-path="url(#SVGID_2_)"><rect id="rect33" width="3.4" y="69.7" x="37.4" height="3.4" class="st3" fill="#f4f4f4"/><g id="g35"><path id="path37" class="st4" fill="#333" d="m40.3 70.2v2.4h-2.4v-2.4h2.4m1-1h-4.4v4.4h4.4v-4.4z"/></g></g><g id="g39" class="st2" clip-path="url(#SVGID_2_)"><rect id="rect41" width="3.4" y="69.7" x="51.9" height="3.4" class="st3" fill="#f4f4f4"/><g id="g43"><path id="path45" class="st4" fill="#333" d="m54.8 70.2v2.4h-2.4v-2.4h2.4m1-1h-4.4v4.4h4.4v-4.4z"/></g></g><g id="g47" class="st2" clip-path="url(#SVGID_2_)"><path id="path49" class="st4" fill="#333" d="m51.8 67.8c-0.2 0-0.4 0.2-0.4 0.4v3.7c0 0.2 0.2 0.4 0.4 0.4s0.4-0.2 0.4-0.4v-3.7c-0.1-0.3-0.2-0.4-0.4-0.4z"/></g><g id="g51" class="st2" clip-path="url(#SVGID_2_)"><path id="path53" class="st4" fill="#333" d="m41 67.8c-0.2 0-0.4 0.2-0.4 0.4v3.7c0 0.2 0.2 0.4 0.4 0.4s0.4-0.2 0.4-0.4v-3.7c-0.1-0.3-0.2-0.4-0.4-0.4z"/></g><g id="g55" class="st2" clip-path="url(#SVGID_2_)"><path id="path57" class="st3" fill="#f4f4f4" d="m46.2 63.6c-0.9 0-1.7-0.8-1.7-1.7v-2.4h3.4v2.4c0 0.9-0.8 1.7-1.7 1.7z"/><g id="g59"><path id="path61" class="st4" fill="#333" d="m47.4 60v1.9c0 0.7-0.5 1.2-1.2 1.2s-1.2-0.5-1.2-1.2v-1.9h2.4m1-1h-4.4v2.9c0 1.2 1 2.2 2.2 2.2s2.2-1 2.2-2.2v-2.9z"/></g></g><g id="g63" class="st2" clip-path="url(#SVGID_2_)"><path id="path65" class="st3" fill="#f4f4f4" d="m46.1 60.7c-3.8 0-6.9-3.1-6.9-6.9v-1.9c0-3.8 3.1-6.9 6.9-6.9s6.9 3.1 6.9 6.9v1.9c0.1 3.8-3 6.9-6.9 6.9z"/><g id="g67"><path id="path69" class="st4" fill="#333" d="m46.2 45.5c3.5 0 6.4 2.9 6.4 6.4v1.9c0 3.5-2.9 6.4-6.4 6.4h-0.1c-3.5 0-6.4-2.9-6.4-6.4v-1.9c0.1-3.5 2.9-6.4 6.5-6.4m0-1c-4.1 0-7.4 3.3-7.4 7.4v1.9c0 4.1 3.3 7.4 7.4 7.4h0.1c4.1 0 7.4-3.3 7.4-7.4v-1.9c-0.1-4.1-3.4-7.4-7.5-7.4z"/></g></g><g id="g71" class="st2" clip-path="url(#SVGID_2_)"><path id="path73" class="st5" fill="#ef4c3e" d="m39.3 51.9c0-3.8 3.1-6.9 6.9-6.9s6.9 3.1 6.9 6.9v0.5c-1.5-0.3-2.7-1.7-2.7-3.4 0-0.2-0.1-0.4-0.4-0.5h-0.1c-0.2 0-0.3 0.1-0.4 0.2-1.8 2.9-4.7 4.1-10.2 4.2v-1z"/><g id="g75"><path id="path77" class="st4" fill="#333" d="m46.2 45.5c3.5 0 6.3 2.8 6.4 6.2-1-0.5-1.7-1.5-1.7-2.8 0-0.4-0.3-0.8-0.7-1h-0.3c-0.3 0-0.7 0.2-0.9 0.5-1.6 2.7-4.3 3.8-9.3 3.9v-0.5c0.1-3.4 2.9-6.3 6.5-6.3m0-1c-4.1 0-7.4 3.3-7.4 7.4v1.5c6 0 9.2-1.3 11.1-4.4 0 2.2 1.7 4 3.7 4v-1.1c0-4.1-3.3-7.4-7.4-7.4z"/></g></g></g><g id="g79"><g id="g81"><path id="path83" class="st3" fill="#f4f4f4" d="m62.2 70.2c0.3 0 0.5-0.2 0.5-0.5v-24c0-0.3-0.2-0.5-0.5-0.5h-33c-0.3 0-0.5 0.2-0.5 0.5v24c0 0.3 0.2 0.5 0.5 0.5h-3.5v-24.5c0-1.9 1.6-3.5 3.5-3.5h33c1.9 0 3.5 1.6 3.5 3.5v24.5h-3.5z"/></g><g id="g85"><path id="path87" class="st6" fill="#bfbfbf" d="m62.2 42.7c1.7 0 3 1.3 3 3v24h-2v-24c0-0.6-0.4-1-1-1h-33c-0.6 0-1 0.4-1 1v24h-2v-24c0-1.7 1.3-3 3-3h33m0-1h-33c-2.2 0-4 1.8-4 4v25h41v-25c0-2.2-1.8-4-4-4zm-33 28v-24h33v24h-33z"/></g></g><g id="g89"><g id="g91"><path id="path93" class="st6" fill="#bfbfbf" d="m62.2 45.7v21h-33v-21h33m0-1h-33c-0.6 0-1 0.4-1 1v21c0 0.6 0.4 1 1 1h33c0.6 0 1-0.4 1-1v-21c0-0.5-0.5-1-1-1z"/></g></g><g id="g95"><path id="path97" class="st3" fill="#f4f4f4" d="m24.2 70.2c-1.9 0-3.5-1.6-3.5-3.5v-0.5h50v0.5c0 1.9-1.6 3.5-3.5 3.5h-43z"/><g id="g99"><path id="path101" class="st6" fill="#bfbfbf" d="m70.2 66.7c0 1.7-1.3 3-3 3h-43c-1.7 0-3-1.3-3-3h49m1-1h-51v1c0 2.2 1.8 4 4 4h43c2.2 0 4-1.8 4-4v-1z"/></g></g><path id="path103" stroke-linejoin="round" d="m21 53.6" stroke="#333" stroke-linecap="round" stroke-miterlimit="10" class="st7" fill="#f4f4f4"/><g id="g105"><g id="g107"><path id="path109" class="st8" fill="#46a3e2" d="m3 64.2c-0.9 0-1.6-0.4-2.1-1.2s-0.5-1.7-0.1-2.5l0.7-1.3c0.8-1.6 1.2-3.4 1.2-5.2v-6.8c0-8.1 6.9-14.8 15.4-14.8s15.4 6.6 15.4 14.8v6.8c0 1.8 0.4 3.6 1.2 5.2l0.7 1.3c0.4 0.8 0.3 1.7-0.1 2.5-0.5 0.7-1.2 1.2-2.1 1.2h-30.2z"/><g id="g111"><path id="path113" class="st4" fill="#333" d="m18 33c8.2 0 14.9 6.4 14.9 14.3v6.8c0 1.9 0.4 3.7 1.3 5.4l0.7 1.3c0.3 0.6 0.3 1.4-0.1 2s-1 0.9-1.7 0.9h-30.1c-0.7 0-1.3-0.3-1.7-0.9s-0.4-1.4-0.1-2l0.7-1.3c0.8-1.7 1.3-3.5 1.3-5.4v-6.8c-0.1-7.9 6.6-14.3 14.8-14.3m0-1c-8.7 0-15.9 6.8-15.9 15.3v6.8c0 1.7-0.4 3.4-1.2 5l-0.7 1.3c-1 2 0.5 4.4 2.7 4.4h30c2.2 0 3.7-2.4 2.7-4.4l-0.6-1.4c-0.8-1.5-1.2-3.2-1.2-5v-6.8c0.1-8.4-7.1-15.2-15.8-15.2z"/></g></g><g id="g115"><path id="path117" class="st3" fill="#f4f4f4" d="m6 75.5v-5.7c0-4.3 3.5-7.8 7.8-7.8h9.2c4.3 0 7.8 3.5 7.8 7.8v5.7h-24.8z"/><g id="g119"><path id="path121" class="st4" fill="#333" d="m23 62.5c4.1 0 7.3 3.3 7.3 7.3v5.2h-23.8v-5.2c0-4.1 3.3-7.3 7.3-7.3h9.2m0-1h-9.2c-4.6 0-8.3 3.7-8.3 8.3v6.2h25.9v-6.2c0-4.6-3.8-8.3-8.4-8.3z"/></g></g><path id="path123" class="st4" fill="#333" d="m12 76c-0.3 0-0.5-0.2-0.5-0.5v-4.1c0-0.3 0.2-0.5 0.5-0.5s0.5 0.2 0.5 0.5v4.1c-0.1 0.3-0.3 0.5-0.5 0.5z"/><path id="path125" class="st4" fill="#333" d="m24.9 76c-0.3 0-0.5-0.2-0.5-0.5v-4.1c0-0.3 0.2-0.5 0.5-0.5s0.5 0.2 0.5 0.5v4.1c0 0.3-0.2 0.5-0.5 0.5z"/><path id="path127" stroke-linejoin="round" d="m20.5 63.5v-9.6h-5v9.6c0 1.4 1.1 2.5 2.5 2.5v0c1.4 0 2.5-1.2 2.5-2.5z" stroke="#333" stroke-linecap="round" stroke-miterlimit="10" class="st7" fill="#f4f4f4"/><path id="path129" stroke-linejoin="round" d="m14.7 53.9" stroke="#333" stroke-linecap="round" stroke-miterlimit="10" class="st7" fill="#f4f4f4"/><g id="g131"><path id="path133" class="st3" fill="#f4f4f4" d="m16.1 60.4c-5.1 0-9.2-4.2-9.2-9.3v-1.8c0-0.4 0-0.9 0.1-1.4 6.4-0.2 12-4.1 13.3-7.8 1.1 2.1 3.8 5.8 8.4 6.1 0.3 1 0.4 2 0.4 3.1v1.8c0 5.1-4.1 9.3-9.2 9.3h-3.8z"/><g id="g135"><path id="path137" class="st4" fill="#333" d="m20.3 41.3c1.4 2.1 3.9 5 8 5.5 0.2 0.9 0.3 1.7 0.3 2.6v1.8c0 4.9-3.9 8.8-8.7 8.8h-3.7c-4.8 0-8.7-4-8.7-8.8v-1.8-0.9c5.5-0.4 10.9-3.6 12.8-7.2m-0.3-2.7c0 4-6.5 8.8-13.5 8.9-0.1 0.6-0.2 1.2-0.2 1.9v1.8c0 5.4 4.4 9.8 9.7 9.8h3.7c5.4 0 9.7-4.4 9.7-9.8v-1.8c0-1.2-0.2-2.4-0.6-3.5-6.1-0.3-8.8-7.3-8.8-7.3z"/></g></g></g><g id="g139" fill="#bfbfbf"><path id="path141" class="st6" d="m58.2 32.2 5-2.6v1.1c0 0.1 0 0.2-0.1 0.2 0 0.1-0.1 0.1-0.2 0.2l-2.3 1.2c-0.1 0.1-0.2 0.1-0.3 0.1s-0.2 0.1-0.3 0.1c0.1 0 0.2 0.1 0.3 0.1s0.2 0.1 0.3 0.1l2.3 1.2c0.1 0.1 0.2 0.1 0.2 0.2s0.1 0.1 0.1 0.2v1.1l-5-2.6v-0.6z"/><path id="path143" class="st6" d="m66 36.8c0 0.1-0.1 0.2-0.1 0.3l-0.2 0.2c-0.1 0-0.2 0.1-0.2 0.1h-0.2-0.7l3.7-9.4c0.1-0.2 0.2-0.3 0.3-0.4s0.3-0.1 0.5-0.1h0.7l-3.8 9.3z"/><path id="path145" class="st6" d="m71 35.5v-1.1c0-0.1 0-0.2 0.1-0.2 0-0.1 0.1-0.1 0.2-0.2l2.3-1.2c0.2-0.1 0.4-0.2 0.7-0.2-0.1 0-0.2-0.1-0.3-0.1s-0.2-0.1-0.3-0.1l-2.3-1.2c-0.1-0.1-0.2-0.1-0.2-0.2s-0.1-0.1-0.1-0.2v-1.1l5 2.6v0.6l-5.1 2.6z"/></g><g id="g147"><rect id="rect149" width="21" y="10" x="31.2" height="5" class="st9" fill="#fff"/><path id="path151" class="st6" fill="#bfbfbf" d="m51.7 10.5v4h-20v-4h20m1-1h-22v6h22v-6z"/></g><g id="g153"><rect id="rect155" width="5" y="18" x="31.2" height="5" class="st9" fill="#fff"/><path id="path157" class="st6" fill="#bfbfbf" d="m35.7 18.5v4h-4v-4h4m1-1h-6v6h6v-6z"/></g><g id="g159"><rect id="rect161" width="5" y="18" x="39.2" height="5" class="st9" fill="#fff"/><path id="path163" class="st6" fill="#bfbfbf" d="m43.7 18.5v4h-4v-4h4m1-1h-6v6h6v-6z"/></g><g id="g165"><rect id="rect167" width="5" y="18" x="47.2" height="5" class="st9" fill="#fff"/><path id="path169" class="st6" fill="#bfbfbf" d="m51.7 18.5v4h-4v-4h4m1-1h-6v6h6v-6z"/></g><line id="line171" stroke-linejoin="round" y2="20.2" class="st0" y1="13.8" stroke="#e5e5e5" stroke-linecap="round" stroke-dasharray="3, 5" x2="8.1" stroke-miterlimit="10" x1="8.1" fill="none"/><g id="g173"><line id="line175" stroke-linejoin="round" y2="11.1" fill="none" class="st10" y1="4.7" stroke="#bfbfbf" stroke-linecap="round" stroke-miterlimit="10" x2="2.5" x1="8.9" stroke-width="2"/><g id="g177"><path id="path179" class="st9" fill="#fff" d="m8.6 9.5c-1.3 0-2.4-0.5-3.2-1.3s-1.3-2-1.3-3.2 0.5-2.3 1.3-3.2 2-1.3 3.2-1.3 2.3 0.5 3.2 1.3 1.3 2 1.3 3.2-0.5 2.3-1.3 3.2-2 1.3-3.2 1.3z"/><g id="g181"><path id="path183" class="st6" fill="#bfbfbf" d="m8.6 1c1.1 0 2.1 0.4 2.8 1.2 0.8 0.8 1.2 1.8 1.2 2.8s-0.4 2.1-1.2 2.8c-0.8 0.8-1.8 1.2-2.8 1.2s-2.1-0.4-2.9-1.2c-0.7-0.7-1.1-1.7-1.1-2.8s0.4-2.1 1.1-2.8c0.8-0.8 1.8-1.2 2.9-1.2m0-1c-1.3 0-2.6 0.5-3.6 1.5-2 2-2 5.1 0 7.1 1 1 2.3 1.5 3.5 1.5s2.6-0.5 3.5-1.5c2-2 2-5.1 0-7.1-0.9-1-2.2-1.5-3.4-1.5z"/></g></g></g></g></svg>
