<?xml version="1.0" encoding="utf-8"?>
<!-- Generator: Adobe Illustrator 16.0.0, SVG Export Plug-In . SVG Version: 6.00 Build 0)  -->
<!DOCTYPE svg PUBLIC "-//W3C//DTD SVG 1.1//EN" "http://www.w3.org/Graphics/SVG/1.1/DTD/svg11.dtd">
<svg version="1.1" id="Capa_1" xmlns="http://www.w3.org/2000/svg" xmlns:xlink="http://www.w3.org/1999/xlink" x="0px" y="0px"
	 width="170.08px" height="170.08px" viewBox="0 0 170.08 170.08" enable-background="new 0 0 170.08 170.08" xml:space="preserve">
<g>
	<path fill="#E0DDDF" d="M121.507,153.354c-3.891,0-7.042-3.152-7.042-7.043v-28.17c0-3.893,3.151-7.043,7.042-7.043h3.582
		c-1.796-5.715-7.135-9.859-13.441-9.859H44.039c-7.779,0-14.085,6.307-14.085,14.084v52.115h95.779v-7.041v-7.043H121.507z"/>
	<path fill="#C1BCBF" d="M52.49,101.238h-8.451c-7.779,0-14.085,6.307-14.085,14.084v52.115h8.451v-52.115
		C38.405,107.545,44.711,101.238,52.49,101.238z"/>
	<polygon fill="#FFFFFF" points="49.673,101.238 77.843,139.268 106.014,101.238 	"/>
	<polygon fill="#439EE8" points="84.886,116.732 70.801,116.732 69.04,122.014 86.646,122.014 	"/>
	<g>
		<polygon fill="#498CF5" points="69.04,122.014 67.983,125.184 77.843,137.859 87.702,125.184 86.646,122.014 		"/>
		<polygon fill="#498CF5" points="89.111,101.238 84.886,116.732 70.801,116.732 66.575,101.238 		"/>
	</g>
	<g>
		<path fill="#D74848" d="M142.635,153.354v7.043c0,3.891-3.151,7.041-7.043,7.041h-2.816c-3.891,0-7.043-3.15-7.043-7.041v-7.043
			H142.635z"/>
		<rect x="125.733" y="95.604" fill="#D74848" width="16.902" height="15.494"/>
	</g>
	<g>
		<path fill="#F9C59B" d="M142.635,111.098c7.778,0,14.086,6.307,14.086,14.086v14.084c0,7.779-6.307,14.086-14.086,14.086
			c0,0-14.789,0-21.128,0c-3.891,0-7.042-3.152-7.042-7.043v-28.17c0-3.891,3.151-7.043,7.042-7.043H142.635L142.635,111.098z"/>
		<path fill="#F9C59B" d="M30.249,51.873c2.856,9.726,5.282,17.934,6.275,21.152c-0.31,0.025-0.62,0.042-0.937,0.042
			c-6.222,0-11.268-5.046-11.268-11.268C24.319,57.506,26.721,53.778,30.249,51.873z"/>
		<path fill="#F9C59B" d="M125.697,52.024c3.388,1.943,5.67,5.592,5.67,9.775c0,6.222-5.046,11.268-11.269,11.268
			c-0.211,0-0.422-0.007-0.63-0.017C122.775,66.813,125.384,59.458,125.697,52.024z"/>
		<path fill="#F9C59B" d="M118.69,47.714v9.859c0,22.561-18.287,40.846-40.848,40.846c-22.561,0-40.847-18.286-40.847-40.846v-9.859
			l8.452-16.902l1.186,0.411L77.843,42.08l31.209-10.856l1.187-0.411L118.69,47.714z"/>
	</g>
	<path fill="#DDAE8E" d="M45.447,57.574v-9.859l7.2-14.399l-6.013-2.091l-1.187-0.412l-8.451,16.902v9.859
		c0,22.561,18.286,40.846,40.847,40.846c1.427,0,2.837-0.072,4.226-0.215C61.494,96.09,45.447,78.708,45.447,57.574z"/>
	<path fill="#827980" d="M119.469,73.05c-0.258,0.481-0.515,0.957-0.778,1.426v-1.5V57.574v-9.859l-8.451-16.902l-1.187,0.412
		L77.843,42.08L46.634,31.224l-1.187-0.412l-8.451,16.902v9.859v15.402v1.5c-0.039-0.07-0.201-0.577-0.472-1.451
		c-0.993-3.219-3.419-11.426-6.275-21.152C24.066,30.812,15.868,2.641,15.868,2.641h61.975c26.449,0,47.89,21.441,47.89,47.89
		c0,0.497-0.014,0.993-0.035,1.493C125.384,59.458,122.775,66.813,119.469,73.05z"/>
	<path fill="#498CF5" d="M109.887,47.89H88.055c-1.868,0-3.464,1.172-4.102,2.816h-12.22c-0.638-1.646-2.233-2.816-4.102-2.816
		H45.799c-2.427,0-4.402,1.975-4.402,4.401v14.79c0,2.427,1.975,4.401,4.402,4.401h21.832c2.428,0,4.402-1.975,4.402-4.401V55.99
		h11.62v11.092c0,2.427,1.975,4.401,4.402,4.401h21.832c2.428,0,4.401-1.975,4.401-4.401v-14.79
		C114.289,49.864,112.314,47.89,109.887,47.89z M66.751,66.201H46.68V53.171h20.071V66.201z M109.007,66.201H88.935V53.171h20.072
		V66.201z"/>
	<g>
		<path fill="#D74848" d="M134.184,82.75c-1.459,0-2.641-1.183-2.641-2.641v-4.226c0-1.458,1.183-2.641,2.641-2.641
			c1.459,0,2.641,1.183,2.641,2.641v4.226C136.824,81.568,135.643,82.75,134.184,82.75z"/>
		<path fill="#D74848" d="M141.227,91.201c-1.459,0-2.641-1.182-2.641-2.641v-4.225c0-1.459,1.182-2.641,2.641-2.641
			s2.641,1.183,2.641,2.641v4.225C143.867,90.02,142.686,91.201,141.227,91.201z"/>
		<path fill="#D74848" d="M127.141,91.201c-1.458,0-2.641-1.182-2.641-2.641v-4.225c0-1.459,1.183-2.641,2.641-2.641
			c1.459,0,2.642,1.183,2.642,2.641v4.225C129.782,90.02,128.6,91.201,127.141,91.201z"/>
	</g>
	<path d="M77.843,157.17c-1.458,0-2.641,1.184-2.641,2.641v1.713c0,1.459,1.183,2.641,2.641,2.641c1.459,0,2.641-1.182,2.641-2.641
		v-1.713C80.484,158.354,79.302,157.17,77.843,157.17z"/>
	<path d="M106.014,142.262H94.745c-1.459,0-2.641,1.182-2.641,2.641c0,1.457,1.182,2.641,2.641,2.641h11.269
		c1.459,0,2.641-1.184,2.641-2.641C108.654,143.443,107.472,142.262,106.014,142.262z"/>
	<path d="M87.878,79.406c1.167-0.875,1.404-2.53,0.529-3.697s-2.529-1.404-3.697-0.529c-2.658,1.992-5.443,2.289-6.867,2.289
		c-3.325,0-5.729-1.433-6.864-2.287c-1.166-0.876-2.822-0.642-3.698,0.524c-0.876,1.166-0.642,2.821,0.523,3.698
		c1.663,1.25,5.178,3.347,10.039,3.347C79.925,82.75,83.995,82.317,87.878,79.406z"/>
	<path d="M58.124,56.341h-2.817c-1.458,0-2.641,1.183-2.641,2.641c0,1.459,1.183,2.641,2.641,2.641h2.817
		c1.458,0,2.641-1.183,2.641-2.641C60.765,57.523,59.583,56.341,58.124,56.341z"/>
	<path d="M97.562,61.623h2.817c1.459,0,2.641-1.183,2.641-2.641c0-1.459-1.183-2.641-2.641-2.641h-2.817
		c-1.459,0-2.642,1.183-2.642,2.641C94.921,60.441,96.104,61.623,97.562,61.623z"/>
	<path d="M156.721,135.57c1.458,0,2.641-1.184,2.641-2.641v-7.746c0-8.324-6.113-15.246-14.086-16.518V98.244h2.993
		c1.439,0,2.641-1.201,2.641-2.641s-1.201-2.641-2.641-2.641h-28.17c-1.439,0-2.641,1.201-2.641,2.641s1.201,2.641,2.641,2.641
		h2.993v4.855c-3.021-2.832-7.067-4.504-11.444-4.504H92.275c10.853-3.828,19.744-11.846,24.721-22.104
		c1.326,1.116,3.232,0.635,4.049-0.819c3.931-0.266,7.623-2.246,10.04-5.354c2.528-3.251,3.418-7.459,2.651-11.485
		c-0.551-2.892-2.37-5.837-5.364-8.649c-0.014-2.028-0.148-4.056-0.404-6.067C124.804,19.229,102.913,0,77.843,0H15.868
		c-1.819,0-2.992,1.778-2.51,3.468c0.128,0.449,12.001,41.119,13.324,45.629c0.16,0.547,0.321,1.094,0.481,1.641
		c-3.784,2.884-5.864,7.612-5.426,12.35c0.387,4.187,2.727,8.041,6.239,10.346c1.985,1.302,4.296,2.079,6.665,2.239
		c0.771,1.49,2.759,1.905,4.049,0.82c4.977,10.257,13.868,18.275,24.721,22.103H44.039c-9.223,0-16.727,7.504-16.727,16.727v52.115
		c0,1.459,1.183,2.643,2.641,2.643h95.779c0.957,0,1.792-0.512,2.255-1.273c1.413,0.809,3.047,1.273,4.788,1.273h2.816
		c5.34,0,9.684-4.346,9.684-9.684v-4.635c5.488-0.951,10.544-4.746,12.802-9.865c0.424-0.963,0.911-2.002,0.851-3.08
		c-0.053-0.955-0.635-1.803-1.496-2.215c-0.815-0.391-1.787-0.338-2.55,0.15c-1.006,0.645-1.104,1.689-1.508,2.709
		c-0.511,1.287-1.299,2.453-2.253,3.453c-2.181,2.283-5.302,3.799-8.486,3.799h-21.128c-2.428,0-4.402-1.975-4.402-4.402v-1.594
		c0.059,0.004,0.117,0.01,0.176,0.01h14.086c1.438,0,2.641-1.203,2.641-2.641c0-1.439-1.202-2.643-2.641-2.643h-14.085
		c-0.06,0-0.117,0.006-0.176,0.01v-4.596c0.059,0.004,0.116,0.01,0.176,0.01h14.086c1.438,0,2.641-1.203,2.641-2.643
		s-1.202-2.641-2.641-2.641h-14.086c-0.06,0-0.117,0.006-0.176,0.01v-4.596c0.059,0.004,0.116,0.008,0.176,0.008h14.086
		c1.438,0,2.641-1.201,2.641-2.641s-1.202-2.641-2.641-2.641h-14.086c-0.06,0-0.117,0.004-0.176,0.008v-1.594
		c0-2.426,1.975-4.4,4.401-4.4h21.129c6.311,0,11.443,5.133,11.443,11.443v7.748C154.079,134.387,155.262,135.57,156.721,135.57z
		 M124.125,69.426c1.453-3.394,2.804-7.382,3.575-11.685c0.659,1.231,1.026,2.621,1.026,4.058
		C128.726,65.103,126.858,67.977,124.125,69.426z M77.843,5.283c24.95,0,45.249,20.298,45.249,45.248c0,0.41-0.011,0.85-0.033,1.382
		c-0.145,3.423-0.812,6.745-1.728,9.797V47.714c0-0.41-0.096-0.814-0.279-1.182l-8.45-16.902c-0.458-0.916-1.387-1.46-2.362-1.46
		c-0.288,0-0.58,0.047-0.867,0.146L77.843,39.284L47.5,28.729l-1.187-0.412c-1.254-0.435-2.635,0.127-3.228,1.313l-8.451,16.902
		c-0.183,0.367-0.279,0.771-0.279,1.181v8.762c-0.49-1.664-1.014-3.447-1.572-5.347c0-0.002-0.001-0.004-0.001-0.006
		c-0.001-0.006-0.004-0.013-0.006-0.02c-4.858-16.546-11.023-37.7-13.388-45.82H77.843z M26.96,61.799
		c0-1.986,0.681-3.868,1.875-5.371c1.73,5.883,3.07,10.411,4.008,13.548C29.428,68.828,26.96,65.597,26.96,61.799z M39.637,57.574
		v-9.236l7.135-14.27l30.204,10.506c0.562,0.196,1.173,0.196,1.735,0l30.204-10.506l7.135,14.27v9.236
		c0,21.066-17.139,38.206-38.206,38.206C56.777,95.779,39.637,78.64,39.637,57.574z M139.994,98.244v10.213h-11.62V98.244H139.994z
		 M77.843,134.83l-7.098-9.582l1.959-5.877h10.277l1.959,5.877L77.843,134.83z M85.653,103.879l-2.785,10.211H72.817l-2.785-10.211
		H85.653z M64.558,103.879l3.484,12.775l-1.137,3.41l-11.99-16.186H64.558L64.558,103.879z M88.78,120.064l-1.137-3.41l3.484-12.775
		h9.643L88.78,120.064z M135.592,164.797h-2.816c-2.428,0-4.402-1.975-4.402-4.402v-4.4h11.621v4.4
		C139.994,162.822,138.02,164.797,135.592,164.797z M111.823,118.141v28.17c0,5.34,4.345,9.684,9.684,9.684h1.585v8.803H32.594
		v-49.475c0-6.309,5.134-11.443,11.444-11.443h4.304l26.86,36.262v11.846c0,1.457,1.183,2.641,2.641,2.641
		c1.459,0,2.641-1.184,2.641-2.641v-11.846l26.86-36.262h4.304c3.711,0,7.07,1.758,9.183,4.604
		C115.806,108.832,111.823,113.029,111.823,118.141z"/>
</g>
</svg>
