<svg xmlns="http://www.w3.org/2000/svg" width="170.08" height="170.08"><path fill="#E0DDDF" d="M121.5 153.35c-3.88 0-7.03-3.15-7.03-7.04v-28.16c0-3.9 3.15-7.04 7.04-7.04h3.6c-1.8-5.72-7.15-9.86-13.45-9.86h-67.6c-7.8 0-14.1 6.3-14.1 14.08v52.12h95.78v-14.09h-4.22z"/><path fill="#C1BCBF" d="M52.5 101.24h-8.46c-7.78 0-14.1 6.3-14.1 14.08v52.12h8.46v-52.12c0-7.77 6.3-14.08 14.1-14.08z"/><path fill="#fff" d="M49.67 101.24l28.17 38.03L106 101.24z"/><path fill="#439EE8" d="M84.9 116.73H70.8L69.04 122h17.6z"/><g fill="#498CF5"><path d="M69.04 122l-1.06 3.18 9.86 12.68 9.86-12.68-1.05-3.17zM89.1 101.24l-4.2 15.5H70.8l-4.22-15.5z"/></g><g fill="#D74848"><path d="M142.63 153.35v7.05c0 3.9-3.15 7.04-7.04 7.04h-2.82c-3.9 0-7.05-3.15-7.05-7.04v-7.05h16.9zM125.73 95.6h16.9v15.5h-16.9z"/></g><g fill="#F9C59B"><path d="M142.63 111.1c7.78 0 14.1 6.3 14.1 14.08v14.1c0 7.77-6.32 14.07-14.1 14.07 0 0-14.78 0-21.12 0-3.88 0-7.04-3.15-7.04-7.04v-28.16c0-3.9 3.16-7.04 7.05-7.04h21.13zM30.25 51.87c2.85 9.73 5.28 17.94 6.27 21.16-.3.02-.62.04-.93.04-6.23 0-11.28-5.05-11.28-11.27 0-4.3 2.4-8.02 5.93-9.93zM125.7 52.02c3.38 1.95 5.67 5.6 5.67 9.78 0 6.22-5.05 11.27-11.27 11.27-.2 0-.42 0-.63-.02 3.3-6.24 5.9-13.6 6.23-21.03zM118.7 47.7v9.87c0 22.56-18.3 40.85-40.86 40.85S37 80.12 37 57.57V47.7l8.45-16.9 1.18.42 31.2 10.86 31.22-10.86 1.2-.4 8.44 16.9z"/></g><path fill="#DDAE8E" d="M45.45 57.57V47.7l7.2-14.38-6.02-2.1-1.18-.4L37 47.7v9.85c0 22.56 18.28 40.85 40.84 40.85 1.43 0 2.84-.07 4.23-.22-20.58-2.1-36.62-19.5-36.62-40.63z"/><path fill="#827980" d="M119.47 73.05c-.26.48-.52.96-.78 1.43V47.7l-8.46-16.9-1.2.42-31.2 10.86-31.2-10.86-1.2-.4L37 47.7v26.75c-.04-.07-.2-.57-.48-1.45-1-3.2-3.42-11.42-6.27-21.15C24.07 30.8 15.87 2.64 15.87 2.64h61.97c26.45 0 47.9 21.44 47.9 47.9 0 .5-.02.98-.04 1.48-.32 7.44-2.92 14.8-6.23 21.03z"/><path fill="#498CF5" d="M109.9 47.9H88.05c-1.87 0-3.47 1.16-4.1 2.8H71.72c-.63-1.64-2.23-2.8-4.1-2.8H45.8c-2.43 0-4.4 1.97-4.4 4.4v14.78c0 2.43 1.97 4.4 4.4 4.4h21.83c2.43 0 4.4-1.97 4.4-4.4v-11.1h11.62v11.1c0 2.43 1.98 4.4 4.4 4.4h21.84c2.4 0 4.4-1.97 4.4-4.4v-14.8c0-2.42-2-4.4-4.4-4.4zM66.74 66.2H46.68V53.17h20.07V66.2zm42.26 0H88.95V53.17H109V66.2z"/><g fill="#D74848"><path d="M134.18 82.75c-1.46 0-2.64-1.18-2.64-2.64V75.9c0-1.45 1.2-2.64 2.64-2.64 1.46 0 2.64 1.18 2.64 2.64v4.23c0 1.47-1.18 2.65-2.64 2.65zM141.23 91.2c-1.46 0-2.64-1.18-2.64-2.64v-4.23c0-1.45 1.17-2.64 2.63-2.64s2.64 1.18 2.64 2.63v4.23c0 1.46-1.18 2.64-2.64 2.64zM127.14 91.2c-1.46 0-2.64-1.18-2.64-2.64v-4.23c0-1.45 1.18-2.64 2.64-2.64 1.46 0 2.64 1.18 2.64 2.63v4.23c0 1.46-1.18 2.64-2.64 2.64z"/></g><path d="M77.84 157.17c-1.45 0-2.64 1.18-2.64 2.64v1.72c0 1.46 1.18 2.64 2.64 2.64 1.46 0 2.64-1.18 2.64-2.64v-1.7c0-1.47-1.18-2.65-2.64-2.65zM106 142.26H94.76c-1.46 0-2.65 1.18-2.65 2.64 0 1.46 1.2 2.64 2.65 2.64H106c1.47 0 2.66-1.18 2.66-2.64 0-1.46-1.2-2.64-2.65-2.64zM87.88 79.4c1.17-.87 1.4-2.52.53-3.7s-2.52-1.4-3.7-.52c-2.65 2-5.43 2.3-6.86 2.3-3.32 0-5.73-1.44-6.86-2.3-1.17-.87-2.82-.64-3.7.53-.88 1.17-.64 2.83.52 3.7 1.67 1.25 5.18 3.35 10.04 3.35 2.08 0 6.16-.43 10.04-3.34zM58.12 56.34h-2.8c-1.47 0-2.65 1.18-2.65 2.64 0 1.46 1.18 2.64 2.64 2.64h2.82c1.46 0 2.65-1.18 2.65-2.64 0-1.46-1.2-2.64-2.65-2.64zM97.56 61.62h2.82c1.46 0 2.64-1.18 2.64-2.64 0-1.46-1.18-2.64-2.64-2.64h-2.82c-1.46 0-2.64 1.18-2.64 2.64 0 1.46 1.18 2.64 2.64 2.64zM156.72 135.57c1.46 0 2.64-1.18 2.64-2.64v-7.75c0-8.32-6.1-15.24-14.08-16.52V98.25h3c1.43 0 2.63-1.2 2.63-2.64s-1.2-2.64-2.63-2.64H120.1c-1.44 0-2.64 1.2-2.64 2.64s1.2 2.64 2.64 2.64h3v4.86c-3.03-2.83-7.08-4.5-11.45-4.5H92.27c10.86-3.83 19.75-11.85 24.73-22.1 1.32 1.1 3.23.63 4.05-.83 3.93-.26 7.62-2.24 10.04-5.35 2.5-3.25 3.4-7.46 2.64-11.5-.55-2.88-2.37-5.82-5.37-8.64 0-2.02-.15-4.05-.4-6.06C124.8 19.22 102.9 0 77.84 0H15.87c-1.82 0-3 1.78-2.5 3.47.12.45 12 41.12 13.3 45.63.17.54.33 1.1.5 1.64-3.8 2.88-5.87 7.6-5.43 12.35.38 4.17 2.72 8.03 6.24 10.33 1.98 1.3 4.3 2.08 6.66 2.24.77 1.5 2.76 1.9 4.05.82 4.97 10.25 13.86 18.27 24.7 22.1H44.05c-9.22 0-16.73 7.5-16.73 16.72v52.12c0 1.46 1.2 2.64 2.65 2.64h95.78c.96 0 1.8-.5 2.26-1.27 1.4.82 3.03 1.28 4.77 1.28h2.82c5.33 0 9.68-4.34 9.68-9.68v-4.64c5.48-.95 10.54-4.74 12.8-9.86.42-.97.9-2 .85-3.08-.06-.96-.64-1.8-1.5-2.22-.8-.4-1.8-.34-2.55.15-1 .65-1.1 1.7-1.5 2.7-.52 1.3-1.3 2.46-2.26 3.46-2.18 2.3-5.3 3.8-8.5 3.8h-21.1c-2.44 0-4.42-1.96-4.42-4.4v-1.58c.06 0 .12 0 .18 0h14.1c1.42 0 2.63-1.2 2.63-2.63 0-1.45-1.2-2.66-2.63-2.66h-14.1c-.05 0-.1 0-.16 0v-4.58c.06 0 .12 0 .18 0h14.1c1.43 0 2.63-1.2 2.63-2.64s-1.2-2.64-2.63-2.64h-14.1c-.05 0-.1 0-.16 0V125c.07 0 .12 0 .18 0h14.1c1.43 0 2.63-1.2 2.63-2.64s-1.2-2.64-2.63-2.64h-14.1c-.05 0-.1 0-.16 0v-1.58c0-2.43 1.98-4.4 4.4-4.4h21.14c6.3 0 11.44 5.13 11.44 11.44v7.75c0 1.46 1.18 2.64 2.64 2.64zm-32.6-66.14c1.46-3.4 2.8-7.4 3.58-11.7.66 1.24 1.03 2.63 1.03 4.07 0 3.3-1.87 6.18-4.6 7.63zM77.84 5.28c24.95 0 45.25 20.3 45.25 45.25 0 .4-.02.85-.04 1.38-.15 3.44-.8 6.76-1.73 9.8v-14c0-.4-.1-.8-.28-1.17l-8.45-16.9c-.46-.92-1.38-1.46-2.36-1.46-.3 0-.58.05-.87.15L77.84 39.28 47.5 28.73l-1.2-.4c-1.24-.45-2.62.1-3.2 1.3l-8.47 16.9c-.18.37-.28.77-.28 1.18v8.77c-.5-1.66-1-3.44-1.57-5.34 0 0 0-.02 0-.03-4.86-16.54-11.03-37.7-13.4-45.82h58.46zM26.96 61.8c0-2 .68-3.87 1.88-5.37 1.73 5.88 3.07 10.4 4 13.55-3.4-1.15-5.88-4.38-5.88-8.18zm12.68-4.23v-9.23l7.13-14.27 30.2 10.5c.57.2 1.18.2 1.74 0l30.2-10.5 7.15 14.27v9.23c0 21.07-17.14 38.2-38.2 38.2-21.07 0-38.2-17.13-38.2-38.2zM140 98.24v10.22h-11.63V98.24H140zm-62.16 36.6l-7.1-9.6 1.96-5.87h10.28l1.96 5.88-7.1 9.58zm7.8-30.96l-2.77 10.2H72.82l-2.8-10.2h15.63zm-21.08 0l3.48 12.77-1.14 3.4-12-16.17h9.66zm24.22 16.18l-1.14-3.4 3.5-12.78h9.63l-12 16.18zm46.8 44.74h-2.8c-2.43 0-4.4-1.98-4.4-4.4V156H140v4.4c0 2.42-1.98 4.4-4.4 4.4zm-23.76-46.66v28.17c0 5.35 4.35 9.7 9.7 9.7h1.57v8.8H32.6v-49.48c0-6.3 5.13-11.44 11.44-11.44h4.3l26.86 36.26V152c0 1.44 1.18 2.63 2.64 2.63 1.46 0 2.64-1.2 2.64-2.64v-11.86l26.86-36.26h4.3c3.72 0 7.08 1.76 9.2 4.6-5.03.35-9.02 4.55-9.02 9.66z"/></svg>