<svg xmlns="http://www.w3.org/2000/svg" width="260" height="260" xmlns:xlink="http://www.w3.org/1999/xlink"><defs><path id="SVGID_1_" d="M28.2 45.7h35v24h-35z"/></defs><style id="style3" type="text/css">.st0{fill:none;stroke:#E5E5E5;stroke-linecap:round;stroke-linejoin:round;stroke-miterlimit:10;stroke-dasharray:3,5;} .st1{fill:#FFFFFF;stroke:#333333;stroke-linecap:round;stroke-linejoin:round;stroke-miterlimit:10;} .st2{clip-path:url(#SVGID_2_);} .st3{fill:#F4F4F4;} .st4{fill:#333333;} .st5{fill:#EF4C3E;} .st6{fill:#BFBFBF;} .st7{fill:#F4F4F4;stroke:#333333;stroke-linecap:round;stroke-linejoin:round;stroke-miterlimit:10;} .st8{fill:#46A3E2;} .st9{fill:#FFFFFF;} .st10{fill:none;stroke:#BFBFBF;stroke-width:2;stroke-linecap:round;stroke-linejoin:round;stroke-miterlimit:10;}</style><g id="g4317"><g fill="none" stroke="#e5e5e5" stroke-miterlimit="10" stroke-linejoin="round" stroke-linecap="round" stroke-dasharray="3, 5"><path id="line5" d="M142.3 92.5v47.76" class="st0"/><path id="line7" d="M187 111.26h-40.94" class="st0"/><path id="line9" d="M94.2 71.7H29.4" class="st0"/><path id="line11" d="M62.14 86.36v17.06" class="st0"/></g><path id="rect13" fill="#fff" stroke="#333" stroke-width="3.41" stroke-miterlimit="10" d="M92.5 151.52h128.6v76.07H92.5z" stroke-linejoin="round" stroke-linecap="round" class="st1"/><g id="g15" transform="matrix(3.411 0 0 3.411 .396 .738)"><clipPath id="SVGID_2_"><use id="use21" width="100%" height="100%" xlink:href="#SVGID_1_"/></clipPath><g id="g23" class="st2" clip-path="url(#SVGID_2_)"><path id="path25" fill="#f4f4f4" d="M37.4 73.1V68c.2-1.9 1.5-3.6 3.4-4.4l3.2-1.3h4.2l3.5 1.3c2 .7 3.3 2.4 3.5 4.4v5.1H37.4z" class="st3"/><g id="g27"><path id="path29" fill="#333" d="M48.2 62.9l3.4 1.3c1.8.7 3 2.2 3.2 3.9v4.5H37.9v-4.5c.1-1.7 1.4-3.2 3.1-3.9l3.2-1.3h4m.2-1H44l-3.3 1.3c-2 .8-3.5 2.6-3.7 4.8v5.6h18.9V68c-.2-2.2-1.7-4-3.8-4.8l-3.7-1.3z" class="st4"/></g></g><g id="g31" class="st2" clip-path="url(#SVGID_2_)"><path id="rect33" fill="#f4f4f4" d="M37.4 69.7h3.4v3.4h-3.4z" class="st3"/><g id="g35"><path id="path37" fill="#333" d="M40.3 70.2v2.4h-2.4v-2.4h2.4m1-1h-4.4v4.4h4.4v-4.4z" class="st4"/></g></g><g id="g39" class="st2" clip-path="url(#SVGID_2_)"><path id="rect41" fill="#f4f4f4" d="M51.9 69.7h3.4v3.4h-3.4z" class="st3"/><g id="g43"><path id="path45" fill="#333" d="M54.8 70.2v2.4h-2.4v-2.4h2.4m1-1h-4.4v4.4h4.4v-4.4z" class="st4"/></g></g><g id="g47" class="st2" clip-path="url(#SVGID_2_)"><path id="path49" fill="#333" d="M51.8 67.8c-.2 0-.4.2-.4.4v3.7c0 .2.2.4.4.4s.4-.2.4-.4v-3.7c-.1-.3-.2-.4-.4-.4z" class="st4"/></g><g id="g51" class="st2" clip-path="url(#SVGID_2_)"><path id="path53" fill="#333" d="M41 67.8c-.2 0-.4.2-.4.4v3.7c0 .2.2.4.4.4s.4-.2.4-.4v-3.7c-.1-.3-.2-.4-.4-.4z" class="st4"/></g><g id="g55" class="st2" clip-path="url(#SVGID_2_)"><path id="path57" fill="#f4f4f4" d="M46.2 63.6c-.9 0-1.7-.8-1.7-1.7v-2.4h3.4v2.4c0 .9-.8 1.7-1.7 1.7z" class="st3"/><g id="g59"><path id="path61" fill="#333" d="M47.4 60v1.9c0 .7-.5 1.2-1.2 1.2s-1.2-.5-1.2-1.2V60h2.4m1-1H44v2.9c0 1.2 1 2.2 2.2 2.2s2.2-1 2.2-2.2V59z" class="st4"/></g></g><g id="g63" class="st2" clip-path="url(#SVGID_2_)"><path id="path65" fill="#f4f4f4" d="M46.1 60.7c-3.8 0-6.9-3.1-6.9-6.9v-1.9c0-3.8 3.1-6.9 6.9-6.9s6.9 3.1 6.9 6.9v1.9c.1 3.8-3 6.9-6.9 6.9z" class="st3"/><g id="g67"><path id="path69" fill="#333" d="M46.2 45.5c3.5 0 6.4 2.9 6.4 6.4v1.9c0 3.5-2.9 6.4-6.4 6.4h-.1c-3.5 0-6.4-2.9-6.4-6.4v-1.9c.1-3.5 2.9-6.4 6.5-6.4m0-1c-4.1 0-7.4 3.3-7.4 7.4v1.9c0 4.1 3.3 7.4 7.4 7.4h.1c4.1 0 7.4-3.3 7.4-7.4v-1.9c-.1-4.1-3.4-7.4-7.5-7.4z" class="st4"/></g></g><g id="g71" class="st2" clip-path="url(#SVGID_2_)"><path id="path73" fill="#ef4c3e" d="M39.3 51.9c0-3.8 3.1-6.9 6.9-6.9s6.9 3.1 6.9 6.9v.5c-1.5-.3-2.7-1.7-2.7-3.4 0-.2-.1-.4-.4-.5h-.1c-.2 0-.3.1-.4.2-1.8 2.9-4.7 4.1-10.2 4.2v-1z" class="st5"/><g id="g75"><path id="path77" fill="#333" d="M46.2 45.5c3.5 0 6.3 2.8 6.4 6.2-1-.5-1.7-1.5-1.7-2.8 0-.4-.3-.8-.7-1h-.3c-.3 0-.7.2-.9.5-1.6 2.7-4.3 3.8-9.3 3.9v-.5c.1-3.4 2.9-6.3 6.5-6.3m0-1c-4.1 0-7.4 3.3-7.4 7.4v1.5c6 0 9.2-1.3 11.1-4.4 0 2.2 1.7 4 3.7 4v-1.1c0-4.1-3.3-7.4-7.4-7.4z" class="st4"/></g></g></g><g id="g79"><g id="g81"><path id="path83" fill="#f4f4f4" d="M212.56 240.2c1.02 0 1.7-.7 1.7-1.72v-81.86c0-1.02-.68-1.7-1.7-1.7H100c-1.03 0-1.7.68-1.7 1.7v81.86c0 1.03.67 1.7 1.7 1.7H88.06v-83.56c0-6.48 5.46-11.94 11.94-11.94h112.56c6.48 0 11.94 5.46 11.94 11.94v83.57h-11.94z" class="st3"/></g><g id="g85"><path id="path87" fill="#bfbfbf" d="M212.56 146.4c5.8 0 10.23 4.42 10.23 10.22v81.86h-6.83v-81.86c0-2.05-1.36-3.4-3.4-3.4H100c-2.05 0-3.4 1.35-3.4 3.4v81.86h-6.84v-81.86c0-5.8 4.44-10.23 10.24-10.23h112.56m0-3.42H100c-7.5 0-13.65 6.14-13.65 13.64v85.28H226.2v-85.28c0-7.5-6.14-13.64-13.64-13.64zM100 238.48v-81.86h112.56v81.86H100z" class="st6"/></g></g><g id="g89"><g id="g91"><path id="path93" fill="#bfbfbf" d="M212.56 156.62v71.63H100v-71.63h112.56m0-3.4H100c-2.05 0-3.4 1.35-3.4 3.4v71.63c0 2.05 1.35 3.4 3.4 3.4h112.56c2.05 0 3.4-1.35 3.4-3.4v-71.63c0-1.7-1.7-3.4-3.4-3.4z" class="st6"/></g></g><g id="g95"><path id="path97" fill="#f4f4f4" d="M82.94 240.2c-6.48 0-11.94-5.47-11.94-11.95v-1.7h170.55v1.7c0 6.48-5.45 11.94-11.93 11.94H82.94z" class="st3"/><g id="g99"><path id="path101" fill="#bfbfbf" d="M239.85 228.25c0 5.8-4.44 10.23-10.23 10.23H82.94c-5.8 0-10.23-4.43-10.23-10.23h167.15m3.4-3.4H69.3v3.4c0 7.5 6.14 13.65 13.64 13.65h146.68c7.5 0 13.64-6.14 13.64-13.65v-3.4z" class="st6"/></g></g><path id="path103" fill="#f4f4f4" stroke="#333" stroke-width="3.41" stroke-miterlimit="10" d="M72.03 183.57" stroke-linejoin="round" stroke-linecap="round" class="st7"/><g id="g105"><g id="g107"><path id="path109" fill="#46a3e2" d="M10.63 219.72c-3.07 0-5.46-1.36-7.16-4.1s-1.7-5.8-.35-8.52l2.4-4.43c2.72-5.46 4.1-11.6 4.1-17.74v-23.2c0-27.62 23.52-50.48 52.52-50.48s52.52 22.52 52.52 50.5v23.18c0 6.14 1.37 12.28 4.1 17.74l2.4 4.43c1.35 2.73 1 5.8-.36 8.53-1.7 2.4-4.1 4.1-7.16 4.1h-103z" class="st8"/><g id="g111"><path id="path113" fill="#333" d="M61.8 113.3c27.96 0 50.82 21.83 50.82 48.78v23.2c0 6.47 1.36 12.6 4.43 18.4l2.4 4.45c1 2.04 1 4.77-.35 6.82s-3.4 3.07-5.8 3.07H10.63c-2.4 0-4.44-1.02-5.8-3.07s-1.36-4.78-.34-6.82l2.38-4.44c2.73-5.8 4.43-11.95 4.43-18.43v-23.2c-.33-26.94 22.52-48.77 50.5-48.77m0-3.4c-29.68 0-54.24 23.18-54.24 52.18v23.2c0 5.8-1.37 11.6-4.1 17.05l-2.38 4.43c-3.4 6.82 1.7 15 9.2 15h102.34c7.5 0 12.62-8.18 9.2-15L119.8 202c-2.73-5.13-4.1-10.93-4.1-17.07v-23.2c.35-28.65-24.2-51.84-53.9-51.84z" class="st4"/></g></g><g id="g115"><path id="path117" fill="#f4f4f4" d="M20.86 258.27v-19.44c0-14.67 11.94-26.6 26.6-26.6h31.4c14.66 0 26.6 11.93 26.6 26.6v19.44h-84.6z" class="st3"/><g id="g119"><path id="path121" fill="#333" d="M78.85 213.93c13.98 0 24.9 11.25 24.9 24.9v17.73H22.57v-17.73c0-14 11.25-24.9 24.9-24.9h31.38m0-3.42H47.47c-15.7 0-28.3 12.64-28.3 28.33v21.14h88.33v-21.14c0-15.7-12.96-28.32-28.65-28.32z" class="st4"/></g></g><path id="path123" fill="#333" d="M41.33 259.97c-1.03 0-1.7-.68-1.7-1.7v-14c0-1 .67-1.7 1.7-1.7s1.7.7 1.7 1.7v14c-.34 1.02-1.02 1.7-1.7 1.7z" class="st4"/><path id="path125" fill="#333" d="M85.33 259.97c-1.02 0-1.7-.68-1.7-1.7v-14c0-1 .68-1.7 1.7-1.7s1.7.7 1.7 1.7v14c0 1.02-.68 1.7-1.7 1.7z" class="st4"/><path id="path127" fill="#f4f4f4" stroke="#333" stroke-width="3.41" stroke-miterlimit="10" d="M70.32 217.34V184.6H53.27v32.74c0 4.77 3.75 8.52 8.52 8.52s8.52-4.1 8.52-8.52z" stroke-linejoin="round" stroke-linecap="round" class="st7"/><path id="path129" fill="#f4f4f4" stroke="#333" stroke-width="3.41" stroke-miterlimit="10" d="M50.54 184.6" stroke-linejoin="round" stroke-linecap="round" class="st7"/><g id="g131"><path id="path133" fill="#f4f4f4" d="M55.3 206.76c-17.38 0-31.37-14.32-31.37-31.72v-6.14c0-1.36 0-3.07.34-4.78 21.83-.68 40.94-13.98 45.37-26.6 3.75 7.16 12.96 19.78 28.65 20.8 1.02 3.42 1.36 6.83 1.36 10.58v6.14c0 17.4-14 31.72-31.4 31.72H55.32z" class="st3"/><g id="g135"><path id="path137" fill="#333" d="M69.64 141.6c4.77 7.18 13.3 17.07 27.3 18.77.67 3.07 1 5.8 1 8.87v6.14c0 16.72-13.3 30.02-29.67 30.02H55.65c-16.37 0-29.67-13.65-29.67-30.02V166.17c18.76-1.36 37.18-12.28 43.66-24.56m-1.02-9.2c0 13.65-22.18 30.02-46.05 30.36-.34 2.05-.68 4.1-.68 6.48v6.14c0 18.42 15 33.43 33.07 33.43H67.6c18.4 0 33.08-15 33.08-33.42v-6.14c0-4.1-.68-8.18-2.05-11.94-20.8-1.02-30-24.9-30-24.9z" class="st4"/></g></g></g><g id="g139" fill="#bfbfbf"><path id="path141" d="M198.92 110.57l17.05-8.87v3.76c0 .34 0 .68-.34.68 0 .34-.34.34-.68.68l-7.85 4.1c-.34.33-.68.33-1.02.33s-.68.35-1.02.35c.34 0 .68.34 1.02.34s.68.34 1.02.34l7.85 4.1c.34.33.68.33.68.67s.34.34.34.7v3.74l-17.05-8.88v-2.05z" class="st6"/><path id="path143" d="M225.52 126.26c0 .34-.34.68-.34 1.03l-.68.67c-.34 0-.68.34-.68.34H220.75l12.62-32.05c.34-.7.68-1.03 1.02-1.37s1-.34 1.7-.34h2.38l-12.96 31.72z" class="st6"/><path id="path145" d="M242.58 121.83v-3.75c0-.34 0-.7.34-.7 0-.33.34-.33.68-.67l7.85-4.08c.68-.34 1.36-.68 2.38-.68-.34 0-.68-.34-1.02-.34s-.67-.35-1-.35l-7.86-4.1c-.34-.33-.68-.33-.68-.67s-.34-.34-.34-.68v-3.76l17.05 8.87v2.06l-17.4 8.87z" class="st6"/></g><g id="g147"><path id="rect149" fill="#fff" d="M106.82 34.85h71.63V51.9h-71.63z" class="st9"/><path id="path151" fill="#bfbfbf" d="M176.74 36.55V50.2h-68.22V36.55h68.22m3.42-3.4H105.1V53.6h75.06V33.15z" class="st6"/></g><g id="g153"><path id="rect155" fill="#fff" d="M106.82 62.14h17.05V79.2h-17.05z" class="st9"/><path id="path157" fill="#bfbfbf" d="M122.17 63.84V77.5h-13.65V63.83h13.65m3.4-3.4h-20.46V80.9h20.48V60.43z" class="st6"/></g><g id="g159"><path id="rect161" fill="#fff" d="M134.1 62.14h17.06V79.2H134.1z" class="st9"/><path id="path163" fill="#bfbfbf" d="M149.46 63.84V77.5H135.8V63.83h13.66m3.4-3.4H132.4V80.9h20.47V60.43z" class="st6"/></g><g id="g165"><path id="rect167" fill="#fff" d="M161.4 62.14h17.05V79.2H161.4z" class="st9"/><path id="path169" fill="#bfbfbf" d="M176.74 63.84V77.5H163.1V63.83h13.64m3.42-3.4H159.7V80.9h20.46V60.43z" class="st6"/></g><path id="line171" fill="none" stroke="#e5e5e5" stroke-width="3.41" stroke-miterlimit="10" d="M28.03 47.8v21.84" stroke-linejoin="round" class="st0" stroke-linecap="round" stroke-dasharray="3, 5"/><g id="g173"><path id="line175" fill="none" stroke="#bfbfbf" stroke-width="6.82" stroke-miterlimit="10" d="M30.75 16.77L8.92 38.6" stroke-linejoin="round" class="st10" stroke-linecap="round"/><g id="g177"><path id="path179" fill="#fff" d="M29.73 33.14c-4.43 0-8.2-1.7-10.9-4.43s-4.45-6.8-4.45-10.9 1.7-7.85 4.44-10.92 6.82-4.44 10.9-4.44 7.86 1.7 10.93 4.44 4.43 6.82 4.43 10.9-1.7 7.86-4.43 10.93-6.83 4.44-10.92 4.44z" class="st9"/><g id="g181"><path id="path183" fill="#bfbfbf" d="M29.73 4.15c3.75 0 7.16 1.36 9.55 4.1 2.73 2.72 4.1 6.13 4.1 9.54s-1.37 7.16-4.1 9.54c-2.73 2.73-6.14 4.1-9.55 4.1s-7.16-1.37-9.9-4.1c-2.38-2.38-3.74-5.8-3.74-9.55s1.35-7.17 3.74-9.56c2.73-2.73 6.14-4.1 9.9-4.1m0-3.4c-4.44 0-8.88 1.7-12.3 5.1-6.8 6.84-6.8 17.4 0 24.23 3.42 3.4 7.86 5.12 11.95 5.12s8.86-1.72 11.93-5.13c6.82-6.82 6.82-17.4 0-24.22-3.07-3.4-7.5-5.1-11.6-5.1z" class="st6"/></g></g></g></g></svg>