<svg xmlns="http://www.w3.org/2000/svg" enable-background="new 0 0 504 504" viewBox="0 0 504 504"><path fill="#3765AF" d="M454.5 258.9c-9.2 58.5-27.1 75.6-58.8 114.9-31.7 33.3-77.3 88.9-141.9 85.8-58.5-9.2-75.6-27.1-114.9-58.8-33.3-31.7-88.9-77.3-85.8-141.9 9.2-58.5 27.1-75.6 58.8-114.9 31.7-33.3 77.3-88.9 141.9-85.8 58.5 9.2 75.6 27.1 114.9 58.8 33.3 31.8 88.8 77.3 85.8 141.9z"/><path fill="#fff" d="M146.7 262.8c0 42.3 24.5 78.8 60.2 95.9L156 219.4c-5.8 13.2-9.3 27.9-9.3 43.4zm178.5-5.4c0-13.2-4.7-22.1-8.9-29.5-5.4-8.9-10.5-16.3-10.5-24.8 0-9.7 7.4-19 17.9-19 .4 0 .8 0 1.6 0-19-17.5-44.2-27.9-71.8-27.9-37.3 0-69.9 19-88.9 48.1 2.3 0 5 0 7 0 11.3 0 28.3-1.6 28.3-1.6 5.8-.4 6.6 8.2.8 8.9 0 0-5.8.8-12 1.2L227.4 328l23.3-69.9-16.7-45.3c-5.8-.4-11.3-1.2-11.3-1.2-5.8-.4-5-9.3.8-8.9 0 0 17.5 1.6 27.9 1.6 11.3 0 28.3-1.6 28.3-1.6 5.8-.4 6.6 8.2.8 8.9 0 0-5.8.8-12 1.2L307 327.3l10.5-35.3c5-14 7.7-25.7 7.7-34.6zm-69.9 14.8L223.5 365c9.7 2.7 19.8 4.3 30.3 4.3 12.4 0 24.5-2.3 35.3-6.2-.4-.4-.4-.8-.8-1.6l-33-89.3zm91.6-60.6c.4 3.5.8 7 .8 10.9 0 10.9-1.9 22.9-8.2 38L307 354.4c31.8-18.6 52.8-52.8 52.8-92 .3-18.2-4.7-35.7-12.9-50.8zm-217.7 51.2c0 68.3 55.9 124.2 124.2 124.2s124.2-55.9 124.2-124.2-55.9-124.2-124.2-124.2-124.2 55.5-124.2 124.2zm5.8 0c0-65.2 53.2-118.4 118.4-118.4s118.4 53.2 118.4 118.4-53.2 118.4-118.4 118.4S135 328 135 262.8z"/></svg>